<?xml version="1.0" encoding="UTF-8"?>
<svg width="18px" height="20px" viewBox="0 0 18 20" version="1.1" xmlns="http://www.w3.org/2000/svg" xmlns:xlink="http://www.w3.org/1999/xlink">
    <!-- Generator: Sketch 58 (84663) - https://sketch.com -->
    <title>bell</title>
    <desc>Created with Sketch.</desc>
    <defs>
        <path d="M3.5146,14 L4.6946,12.818 C5.0726,12.44 5.2806,11.938 5.2806,11.404 L5.2806,6.727 C5.2806,5.37 5.8706,4.073 6.9006,3.171 C7.9386,2.261 9.2606,1.861 10.6376,2.042 C12.9646,2.351 14.7196,4.455 14.7196,6.937 L14.7196,11.404 C14.7196,11.938 14.9276,12.44 15.3046,12.817 L16.4856,14 L3.5146,14 Z M11.9996,16.341 C11.9996,17.24 11.0836,18 9.9996,18 C8.9156,18 7.9996,17.24 7.9996,16.341 L7.9996,16 L11.9996,16 L11.9996,16.341 Z M18.5206,13.208 L16.7196,11.404 L16.7196,6.937 C16.7196,3.456 14.2176,0.499 10.8996,0.06 C8.9776,-0.196 7.0376,0.391 5.5826,1.667 C4.1186,2.949 3.2806,4.793 3.2806,6.727 L3.2796,11.404 L1.4786,13.208 C1.0096,13.678 0.8706,14.377 1.1246,14.99 C1.3796,15.604 1.9726,16 2.6366,16 L5.9996,16 L5.9996,16.341 C5.9996,18.359 7.7936,20 9.9996,20 C12.2056,20 13.9996,18.359 13.9996,16.341 L13.9996,16 L17.3626,16 C18.0266,16 18.6186,15.604 18.8726,14.991 C19.1276,14.377 18.9896,13.677 18.5206,13.208 Z" id="path-1"></path>
    </defs>
    <g id="Page-1" stroke="none" stroke-width="1" fill="none" fill-rule="evenodd">
        <g id="bell" transform="translate(-1.000000, 0.000000)">
            <path d="M3.5146,14 L4.6946,12.818 C5.0726,12.44 5.2806,11.938 5.2806,11.404 L5.2806,6.727 C5.2806,5.37 5.8706,4.073 6.9006,3.171 C7.9386,2.261 9.2606,1.861 10.6376,2.042 C12.9646,2.351 14.7196,4.455 14.7196,6.937 L14.7196,11.404 C14.7196,11.938 14.9276,12.44 15.3046,12.817 L16.4856,14 L3.5146,14 Z M11.9996,16.341 C11.9996,17.24 11.0836,18 9.9996,18 C8.9156,18 7.9996,17.24 7.9996,16.341 L7.9996,16 L11.9996,16 L11.9996,16.341 Z M18.5206,13.208 L16.7196,11.404 L16.7196,6.937 C16.7196,3.456 14.2176,0.499 10.8996,0.06 C8.9776,-0.196 7.0376,0.391 5.5826,1.667 C4.1186,2.949 3.2806,4.793 3.2806,6.727 L3.2796,11.404 L1.4786,13.208 C1.0096,13.678 0.8706,14.377 1.1246,14.99 C1.3796,15.604 1.9726,16 2.6366,16 L5.9996,16 L5.9996,16.341 C5.9996,18.359 7.7936,20 9.9996,20 C12.2056,20 13.9996,18.359 13.9996,16.341 L13.9996,16 L17.3626,16 C18.0266,16 18.6186,15.604 18.8726,14.991 C19.1276,14.377 18.9896,13.677 18.5206,13.208 Z" id="Shape" fill="#FFFFFF"></path>
            <g id="Clipped">
                <mask id="mask-2" fill="white">
                    <use xlink:href="#path-1"></use>
                </mask>
                <g id="Shape"></g>
            </g>
        </g>
    </g>
</svg>