<?xml version="1.0" encoding="UTF-8"?>
<svg width="16px" height="12px" viewBox="0 0 16 12" version="1.1" xmlns="http://www.w3.org/2000/svg" xmlns:xlink="http://www.w3.org/1999/xlink">
    <!-- Generator: Sketch 58 (84663) - https://sketch.com -->
    <title>checkmark</title>
    <desc>Created with Sketch.</desc>
    <defs>
        <path d="M5.86338,12 C5.58738,12 5.32338,11.886 5.13438,11.685 L0.27138,6.506 C-0.10762,6.104 -0.08662,5.471 0.31538,5.093 C0.71838,4.715 1.35138,4.735 1.72838,5.137 L5.85338,9.528 L14.2614,0.32599 C14.6354,-0.08301 15.2674,-0.11001 15.6754,0.26199 C16.0824,0.63399 16.1104,1.26699 15.7384,1.67399 L6.6014,11.674 C6.4144,11.88 6.1484,11.998 5.87038,12 L5.86338,12 Z" id="path-1"></path>
    </defs>
    <g id="Page-1" stroke="none" stroke-width="1" fill="none" fill-rule="evenodd">
        <g id="checkmark">
            <path d="M5.86338,12 C5.58738,12 5.32338,11.886 5.13438,11.685 L0.27138,6.506 C-0.10762,6.104 -0.08662,5.471 0.31538,5.093 C0.71838,4.715 1.35138,4.735 1.72838,5.137 L5.85338,9.528 L14.2614,0.32599 C14.6354,-0.08301 15.2674,-0.11001 15.6754,0.26199 C16.0824,0.63399 16.1104,1.26699 15.7384,1.67399 L6.6014,11.674 C6.4144,11.88 6.1484,11.998 5.87038,12 L5.86338,12 Z" id="Path" fill="#FFFFFF"></path>
            <g id="Clipped">
                <mask id="mask-2" fill="white">
                    <use xlink:href="#path-1"></use>
                </mask>
                <g id="Path"></g>
            </g>
        </g>
    </g>
</svg>