<svg width="56" height="56" viewBox="0 0 56 56" fill="none" xmlns="http://www.w3.org/2000/svg">
<path d="M52.8106 40.9875C54.9046 36.9974 56 32.5054 56 28C56 27.396 55.5103 26.9062 54.9062 26.9062H51.9914C52.2096 26.1861 52.6363 25.5502 53.2082 25.1081C53.73 24.8057 53.9086 24.1378 53.6069 23.6152C53.3048 23.0921 52.6357 22.913 52.1128 23.2148H52.1127H52.1126C52.0592 23.2456 51.3709 23.6537 50.7342 24.5222C50.0976 23.6537 49.4093 23.2456 49.3559 23.2148V23.215L49.3558 23.2148C48.8329 22.913 48.1638 23.0921 47.8617 23.6152C47.5601 24.1378 47.7387 24.8057 48.2604 25.1081C48.8412 25.5404 49.2661 26.1801 49.4814 26.9062H40.1033V25.2558H40.3911C43.2608 25.2558 45.7019 23.1121 46.0694 20.2707C46.0775 20.2087 46.1071 20.1537 46.1537 20.1153C47.4774 19.0223 48.2366 17.4121 48.2366 15.6975C48.2366 13.435 46.8996 11.3795 44.8308 10.4608C44.7752 10.436 44.7363 10.3587 44.7366 10.2727C44.7366 10.2718 44.7366 10.2613 44.7366 10.2605C44.7366 8.69455 44.1163 7.2322 42.9901 6.14316C41.8638 5.05422 40.3788 4.48273 38.8107 4.53633C37.2902 4.58806 35.8787 5.24431 34.8573 6.32253C34.674 2.82045 31.7287 0.00142188 28.1998 0C28.1988 0 28.198 0 28.197 0C26.4155 0 24.7404 0.693547 23.4804 1.953C22.2855 3.14738 21.6005 4.71537 21.5321 6.39352C20.5067 5.27352 19.0683 4.58992 17.5115 4.53633C15.9436 4.48383 14.4588 5.05422 13.3325 6.14316C12.2063 7.2322 11.586 8.69444 11.586 10.2605V10.2725C11.5861 10.3601 11.5486 10.4355 11.492 10.4606C9.42353 11.3792 8.08708 13.4348 8.08708 15.6975C8.08708 17.4126 8.84581 19.0227 10.1696 20.1158C10.2154 20.1537 10.245 20.2086 10.253 20.2695C10.6206 23.112 13.0619 25.2557 15.9315 25.2557H16.2194V26.9062H16.2125H6.587C6.8052 26.1861 7.23187 25.5502 7.8038 25.1081C8.32562 24.8057 8.50423 24.1378 8.20247 23.6152C7.90038 23.0921 7.23133 22.913 6.70841 23.2148C6.70841 23.2148 6.7083 23.2148 6.7083 23.215V23.2148C6.65492 23.2456 5.96662 23.6537 5.32995 24.5222C4.69328 23.6537 4.00498 23.2456 3.95161 23.2148V23.215L3.9515 23.2148C3.42858 22.913 2.75953 23.0921 2.45744 23.6152C2.15578 24.1378 2.33439 24.8057 2.85611 25.1081C3.43689 25.5404 3.86181 26.1801 4.07706 26.9062H1.09375C0.489672 26.9062 0 27.396 0 28C0 35.4791 2.91244 42.5105 8.20094 47.7991C13.4895 53.0875 20.5209 56 28 56C29.8822 56 31.7655 55.8114 33.5974 55.4397C34.1893 55.3196 34.5718 54.7423 34.4517 54.1503C34.3315 53.5583 33.7547 53.1753 33.1623 53.2959C31.4733 53.6387 29.7364 53.8125 28 53.8125C23.0067 53.8125 18.2304 52.4033 14.1236 49.7747V40.9402C14.1236 40.2189 13.8426 39.5396 13.3306 39.0257L11.2 36.8965C10.6887 36.3851 10.0089 36.1036 9.28594 36.1036H3.47933C2.74061 33.8609 2.31 31.507 2.21014 29.0938H15.1189V32.2542C15.1189 33.393 15.5624 34.4636 16.3676 35.2691L20.0341 38.9354C20.4262 39.3276 20.6422 39.8491 20.6422 40.4037V44.1281C20.6422 46.4791 22.555 48.3919 24.906 48.3919H30.5375C31.2501 48.3919 31.9478 48.1028 32.4517 47.599L37.3639 42.6868C38.1693 41.8814 38.6127 40.8108 38.6127 39.672V33.2884C38.6127 32.574 38.3231 31.8756 37.8198 31.3741L35.5394 29.0938H53.7893C53.7148 30.8512 53.4603 32.5922 53.0356 34.288H48.0539C46.5154 34.288 45.2637 35.5395 45.2637 37.0781V38.5459C45.2637 39.2808 45.5615 40.0001 46.0807 40.5193L48.818 43.2566C46.8697 45.9078 44.4225 48.1841 41.6211 49.928C41.1084 50.2473 40.9514 50.9218 41.2707 51.4346C41.5898 51.9473 42.2642 52.1043 42.7772 51.785C46.9979 49.1574 50.5019 45.3914 52.8106 40.9875ZM9.28594 38.2911C9.42473 38.2911 9.55522 38.3451 9.65355 38.4436L11.7824 40.5713C11.8801 40.6693 11.9361 40.8038 11.9361 40.9403V48.2042C8.64161 45.5742 6.00348 42.1421 4.32173 38.2911H9.28594ZM37.9158 26.9062H29.2906V24.4985H29.8596C31.1745 24.4985 32.4099 24.1123 33.4525 23.4442C34.5249 24.5819 36.0397 25.2558 37.6283 25.2558H37.9157V26.9062H37.9158ZM38.8846 6.72263C39.8563 6.68927 40.7732 7.04277 41.4694 7.71586C42.1656 8.38906 42.5491 9.29283 42.5491 10.2679C42.547 11.2223 43.0938 12.0825 43.9426 12.46C45.2222 13.0281 46.0491 14.2989 46.0491 15.6976C46.0491 16.7572 45.5795 17.7525 44.7617 18.4279C44.2862 18.8198 43.9802 19.3738 43.9002 19.9892C43.6731 21.7445 42.1646 23.0683 40.3911 23.0683H40.1033V21.217C40.1033 20.613 39.6137 20.1232 39.0096 20.1232C38.4055 20.1232 37.9158 20.613 37.9158 21.217V23.0683H37.6284C36.646 23.0683 35.7364 22.6737 35.0772 21.9848C35.8363 21.0317 36.3282 19.8694 36.4792 18.6601C36.4922 18.5551 36.546 18.4509 36.6283 18.3836C38.4386 16.9041 39.3561 14.5292 39.0044 12.2165C38.7452 10.471 37.8156 8.91745 36.4051 7.86953C37.0398 7.1773 37.9281 6.75522 38.8846 6.72263ZM23.7129 6.68292C23.6994 4.23259 25.755 2.1875 28.1988 2.1875C30.6144 2.18859 32.6244 4.15297 32.6796 6.56655C32.706 7.67178 33.2077 8.65473 34.2529 9.12691C36.5052 10.1444 37.5231 12.9015 36.4615 15.1383C36.1802 15.7306 35.7677 16.2613 35.2435 16.6899C34.7286 17.1114 34.3906 17.7291 34.3082 18.389C34.0326 20.5976 32.0883 22.311 29.8596 22.311H29.2906V19.55L32.5938 16.2468C33.0209 15.8197 33.0209 15.1271 32.5938 14.6999C32.1666 14.2729 31.4741 14.2729 31.047 14.6999L29.2906 16.4563V9.85491C29.2906 9.25094 28.801 8.76116 28.1969 8.76116C27.5928 8.76116 27.1031 9.25094 27.1031 9.85491V12.547L26.6218 12.0656C26.1945 11.6387 25.5021 11.6386 25.075 12.0656C24.6479 12.4927 24.6478 13.1853 25.075 13.6125L27.1031 15.6406V22.311H26.5343C24.3063 22.3109 22.3615 20.6005 22.0857 18.389C22.0033 17.729 21.6649 17.111 21.1496 16.6892C20.7566 16.368 20.4264 15.9892 20.1672 15.57C18.7665 13.303 19.7166 10.2224 22.1407 9.12712C23.0979 8.69433 23.715 7.73402 23.7129 6.68292ZM15.9316 23.0683C14.1582 23.0683 12.6495 21.7444 12.4224 19.988C12.3423 19.3737 12.0363 18.8196 11.5617 18.4285C10.7437 17.753 10.2746 16.7577 10.2746 15.6975C10.2746 14.2987 11.101 13.0279 12.3795 12.4601C13.2284 12.0835 13.7756 11.2231 13.7736 10.2605C13.7736 9.29272 14.157 8.38906 14.8532 7.71575C15.5199 7.07109 16.3897 6.72033 17.314 6.72033C18.3139 6.72033 19.2816 7.15717 19.9478 7.90213C18.4038 9.0685 17.4362 10.8963 17.3259 12.8261C17.2044 14.9508 18.1167 17.0358 19.7656 18.3833C19.8473 18.4501 19.9018 18.5562 19.9148 18.6606C20.064 19.852 20.5438 20.9956 21.2835 21.9407C20.6201 22.6494 19.682 23.0682 18.6945 23.0682H18.4073V21.2169C18.4073 20.6129 17.9176 20.1231 17.3135 20.1231C16.7094 20.1231 16.2198 20.6129 16.2198 21.2169V23.0682H15.9316V23.0683ZM18.407 25.2558H18.6943C20.2998 25.2558 21.8236 24.5715 22.897 23.416C23.9487 24.1015 25.2007 24.4984 26.534 24.4985H27.103V26.9062H18.4069V25.2558H18.407ZM36.2744 32.9223C36.3703 33.0178 36.4252 33.1512 36.4252 33.2884V39.672C36.4252 40.2265 36.2091 40.748 35.817 41.1401L30.9048 46.0522C30.8081 46.149 30.6742 46.2045 30.5375 46.2045H24.9061C23.7613 46.2045 22.8298 45.273 22.8298 44.1282V40.4038C22.8298 39.265 22.3863 38.1943 21.5811 37.3889L17.9146 33.7225C17.5225 33.3303 17.3065 32.8088 17.3065 32.2544V29.0938H32.446L36.2744 32.9223ZM47.6275 38.9724C47.5155 38.8605 47.4512 38.705 47.4512 38.5459V37.0781C47.4512 36.7458 47.7216 36.4755 48.0539 36.4755H52.3838C51.7874 38.1953 51.0086 39.8517 50.0612 41.4062L47.6275 38.9724Z" fill="white"/>
<path d="M38.8698 52.6236C38.6407 52.0733 37.9927 51.8036 37.4413 52.0319C36.89 52.2601 36.6235 52.9105 36.8507 53.4603C37.0784 54.0113 37.7271 54.2795 38.278 54.052C38.8308 53.8237 39.0956 53.1752 38.8698 52.6236Z" fill="white"/>
</svg>
