<?xml version="1.0" encoding="UTF-8"?>
<svg width="24px" height="24px" viewBox="0 0 24 24" version="1.1" xmlns="http://www.w3.org/2000/svg" xmlns:xlink="http://www.w3.org/1999/xlink">
    <!-- Generator: Sketch 58 (84663) - https://sketch.com -->
    <title>Group</title>
    <desc>Created with Sketch.</desc>
    <g id="Page-1" stroke="none" stroke-width="1" fill="none" fill-rule="evenodd">
        <g id="Group" transform="translate(1.000000, 0.000000)">
            <g id="ellipse1" transform="translate(0.000000, 1.000000)" opacity="0.34" stroke="#FFFFFF" stroke-width="3">
                <circle id="Oval" cx="11" cy="11" r="10.5"></circle>
            </g>
            <g id="Ellipse-7" transform="translate(11.000000, 0.000000)" fill="#FFFFFF" fill-rule="nonzero">
                <path d="M11.9999981,12 C11.9999981,10.4241 11.6896,8.86371 11.0866,7.4078 C10.4835,5.95189 9.59958,4.62902 8.48528,3.51472 C7.37098,2.40041 6.04811,1.5165 4.5922,0.913445 C3.13629,0.310389 1.57586,0 -1.90735e-06,0 L-1.90735e-06,3 C1.1819,3 2.35222,3.23279 3.44415,3.68508 C4.53608,4.13738 5.52823,4.80031 6.36396,5.63604 C7.19969,6.47177 7.86262,7.46392 8.31491,8.55585 C8.76721,9.64778 8.99999809,10.8181 8.99999809,12 L11.9999981,12 Z" id="Path"></path>
            </g>
        </g>
    </g>
</svg>