<svg width="252" height="327" viewBox="0 0 252 327" fill="none" xmlns="http://www.w3.org/2000/svg">
<g opacity="0.3">
<g clip-path="url(#clip0)">
<path d="M140.595 237.021C116.931 237.256 100.543 254.315 82.4282 267.157C91.8882 252.963 99.8266 237.811 106.112 221.954L106.654 222.27C105.793 222.793 106.108 224.303 107.171 224.24C137.352 222.298 162.684 191.912 172.794 166.053C173.705 163.763 170.574 162.532 168.968 163.816C157.229 173.801 143.367 178.782 131.155 187.891C122.113 194.578 115.389 205.057 109.182 214.726C109.741 213.257 110.319 211.756 110.878 210.287C111.437 208.818 112.183 206.518 112.819 204.624C112.966 204.526 113.077 204.384 113.136 204.217C113.194 204.051 113.197 203.87 113.144 203.702C116.854 192.744 119.894 181.395 122.903 170.027C133.697 173.515 146.587 164.929 155.433 159.967C168.949 152.432 179.5 142.138 183.928 127.025C184.567 124.833 181.414 122.69 179.847 124.639C165.673 142.009 140.719 143.499 125.701 159.605C128.815 147.577 132.681 135.757 137.276 124.213C149.79 126.135 162.592 124.289 174.049 118.908C185.505 113.527 195.099 104.857 201.605 94.0015C202.741 92.0575 200.186 89.1104 198.33 90.6762C187.868 98.3289 175.427 99.7797 163.129 102.596C156.601 103.725 150.3 105.904 144.471 109.05C148.678 101.321 153.78 94.1138 159.673 87.5784C159.844 87.8286 160.067 88.039 160.326 88.1953C160.586 88.3515 160.876 88.45 161.177 88.4838C161.478 88.5177 161.783 88.4863 162.07 88.3916C162.358 88.2969 162.622 88.1412 162.844 87.9352C173.5 79.5839 184.574 74.9826 193.592 64.6046C201.202 55.2373 207.774 45.0727 213.194 34.2888C214.553 31.9623 211.31 29.1686 209.352 31.2738C197.398 44.0403 178.899 46.7813 167.086 59.6729C161.713 65.4257 154.186 77.0597 158.128 85.3923C146.534 95.5637 137.638 108.445 132.232 122.89C132.926 101.635 132.246 80.3572 130.196 59.1892C129.963 56.6591 125.764 55.573 125.356 58.5409C122.254 81.9972 101.246 117.135 127.876 134.368C122.16 151.464 118.414 169.584 113.435 185.786L112.604 188.379C110.531 178.942 107.755 169.674 104.3 160.65C101.101 148.754 96.6132 137.242 90.9158 126.318C90.6334 125.86 90.2113 125.504 89.7116 125.304C89.2119 125.104 88.6611 125.069 88.1404 125.205C87.6197 125.342 87.1568 125.642 86.8198 126.061C86.4828 126.481 86.2896 126.998 86.2687 127.535C86.5934 142.861 82.3099 161.094 86.4359 175.991C89.5039 187.062 98.4957 195.61 107.874 202.033C102.849 216.683 96.6418 230.9 89.3142 244.545C89.0721 244.959 88.8485 245.341 88.6064 245.756C88.7235 226.685 83.0172 208.031 72.2497 192.284C71.9562 191.809 71.5039 191.453 70.9731 191.279C70.4422 191.106 69.867 191.126 69.3496 191.335C68.8321 191.545 68.4059 191.932 68.1464 192.426C67.8869 192.92 67.8109 193.491 67.9319 194.036C71.6397 214.332 60.1247 242.961 83.17 254.764C72.8279 270.14 60.9108 284.397 47.6118 297.302C45.9281 299.012 48.1002 302.248 50.1984 300.781C59.5415 294.11 67.8941 286.152 75.0083 277.144C100.403 289.977 128.413 258.376 142.15 241.094C142.443 240.756 142.639 240.345 142.716 239.905C142.794 239.464 142.751 239.011 142.591 238.593C142.432 238.175 142.162 237.808 141.81 237.532C141.459 237.255 141.039 237.078 140.595 237.021ZM141.524 186.983C149.469 182.679 157.189 177.972 164.653 172.881C159.226 183.835 151.694 193.612 142.488 201.656C132.719 210.098 121.951 214.323 110.986 220.056C120.353 207.616 127.57 194.903 141.524 186.983ZM126.368 75.2518C127.34 93.3498 127.373 111.37 126.951 129.509C112.432 115.122 120.609 94.0334 126.368 75.2518ZM171.84 61.6393C176.821 57.2473 182.428 53.6224 188.479 50.8841C193.358 48.3914 198.112 46.0395 202.518 43.1849C198.124 50.8308 192.851 57.9368 186.806 64.358C178.983 72.3989 167.517 75.9155 160.444 84.1378C157.856 77.8795 168.8 64.3518 171.808 61.6206L171.84 61.6393ZM140.811 116.189C141.007 116.256 141.215 116.275 141.42 116.245L142.223 116.116C142.335 116.052 142.429 115.959 142.494 115.847C142.56 115.735 142.595 115.608 142.595 115.479C144.406 114.869 147.257 112.773 145.459 113.433C148.902 112.153 152.04 110.225 155.573 109.083C160.784 107.587 166.078 106.399 171.428 105.523C178.023 104.394 184.494 102.636 190.753 100.272C184.393 107.377 176.387 112.816 167.436 116.111C158.485 119.406 148.862 120.458 139.408 119.174C139.872 118.162 140.335 117.15 140.811 116.189ZM124.238 165.035C124.446 165.069 124.659 165.049 124.857 164.978C125.056 164.907 125.233 164.787 125.373 164.63C138.503 150.071 159.078 147.218 174.422 136.262C169.483 143.805 162.797 150.047 154.932 154.458C147.776 158.869 133.159 167.556 124.238 165.035ZM89.9797 167.074C89.7522 157.363 90.7155 147.665 91.158 137.833C94.4226 145.638 97.2394 153.623 99.5947 161.748C103.09 173.112 108.778 185.63 108.108 197.68C108.097 197.945 108.13 198.21 108.206 198.464C99.0232 189.804 90.2868 180.893 89.9797 167.074ZM72.0681 221.723C72.3168 215.369 73.1183 209.168 73.2102 202.936C81.086 217.592 84.7391 234.144 83.7628 250.749C79.7589 247.098 76.6286 242.593 74.604 237.568C72.5794 232.543 71.7127 227.127 72.0681 221.723ZM80.0519 275.175C98.2351 263.826 113.587 245.392 135.401 242.322C122.158 258.611 101.43 280.316 80.0332 275.206L80.0519 275.175Z" fill="white"/>
</g>
</g>
<defs>
<clipPath id="clip0">
<rect x="159.357" width="107.137" height="315.794" transform="rotate(30.3065 159.357 0)" fill="white"/>
</clipPath>
</defs>
</svg>
