<?xml version="1.0" encoding="UTF-8"?>
<svg width="16px" height="20px" viewBox="0 0 16 20" version="1.1" xmlns="http://www.w3.org/2000/svg" xmlns:xlink="http://www.w3.org/1999/xlink">
    <!-- Generator: Sketch 58 (84663) - https://sketch.com -->
    <title>login-lock</title>
    <desc>Created with Sketch.</desc>
    <defs>
        <path d="M8,14 C7.448,14 7,13.552 7,13 C7,12.448 7.448,12 8,12 C8.552,12 9,12.448 9,13 C9,13.552 8.552,14 8,14 Z M8,10 C6.346,10 5,11.346 5,13 C5,14.654 6.346,16 8,16 C9.654,16 11,14.654 11,13 C11,11.346 9.654,10 8,10 Z M14,17 C14,17.552 13.552,18 13,18 L3,18 C2.448,18 2,17.552 2,17 L2,9 C2,8.448 2.448,8 3,8 L4,8 L6,8 L10,8 L12,8 L13,8 C13.552,8 14,8.448 14,9 L14,17 Z M6,4.111 C6,2.947 6.897,2 8,2 C9.103,2 10,2.947 10,4.111 L10,6 L6,6 L6,4.111 Z M13,6 L12,6 L12,4.111 C12,1.845 10.206,0 8,0 C5.794,0 4,1.845 4,4.111 L4,6 L3,6 C1.346,6 0,7.346 0,9 L0,17 C0,18.654 1.346,20 3,20 L13,20 C14.654,20 16,18.654 16,17 L16,9 C16,7.346 14.654,6 13,6 Z" id="path-1"></path>
    </defs>
    <g id="Page-1" stroke="none" stroke-width="1" fill="none" fill-rule="evenodd">
        <g id="login-lock">
            <path d="M8,14 C7.448,14 7,13.552 7,13 C7,12.448 7.448,12 8,12 C8.552,12 9,12.448 9,13 C9,13.552 8.552,14 8,14 Z M8,10 C6.346,10 5,11.346 5,13 C5,14.654 6.346,16 8,16 C9.654,16 11,14.654 11,13 C11,11.346 9.654,10 8,10 Z M14,17 C14,17.552 13.552,18 13,18 L3,18 C2.448,18 2,17.552 2,17 L2,9 C2,8.448 2.448,8 3,8 L4,8 L6,8 L10,8 L12,8 L13,8 C13.552,8 14,8.448 14,9 L14,17 Z M6,4.111 C6,2.947 6.897,2 8,2 C9.103,2 10,2.947 10,4.111 L10,6 L6,6 L6,4.111 Z M13,6 L12,6 L12,4.111 C12,1.845 10.206,0 8,0 C5.794,0 4,1.845 4,4.111 L4,6 L3,6 C1.346,6 0,7.346 0,9 L0,17 C0,18.654 1.346,20 3,20 L13,20 C14.654,20 16,18.654 16,17 L16,9 C16,7.346 14.654,6 13,6 Z" id="Shape" fill="#C7C7CC"></path>
            <g id="Clipped">
                <mask id="mask-2" fill="white">
                    <use xlink:href="#path-1"></use>
                </mask>
                <g id="Shape"></g>
            </g>
        </g>
    </g>
</svg>