<?xml version="1.0" encoding="UTF-8"?>
<svg width="16px" height="14px" viewBox="0 0 16 14" version="1.1" xmlns="http://www.w3.org/2000/svg" xmlns:xlink="http://www.w3.org/1999/xlink">
    <!-- Generator: Sketch 58 (84663) - https://sketch.com -->
    <title>pagination-arrow</title>
    <desc>Created with Sketch.</desc>
    <defs>
        <path d="M1,6 L12.865,6 L9.232,1.64003 C8.878,1.21603 8.936,0.58503 9.36,0.23203 C9.785,-0.12197 10.415,-0.06397 10.768,0.36003 L15.768,6.36 C15.807,6.407 15.827,6.462 15.856,6.514 C15.88,6.556 15.909,6.592 15.927,6.638 C15.972,6.753 15.999,6.874 15.999,6.996 C15.999,6.997 16,6.999 16,7 C16,7.001 15.999,7.003 15.999,7.004 C15.999,7.126 15.972,7.247 15.927,7.362 C15.909,7.408 15.88,7.444 15.856,7.486 C15.827,7.538 15.807,7.593 15.768,7.64 L10.768,13.64 C10.57,13.877 10.286,14 10,14 C9.774,14 9.547,13.924 9.36,13.768 C8.936,13.415 8.878,12.784 9.232,12.36 L12.865,8 L1,8 C0.448,8 0,7.552 0,7 C0,6.448 0.448,6 1,6 Z" id="path-1"></path>
    </defs>
    <g id="Page-1" stroke="none" stroke-width="1" fill="none" fill-rule="evenodd">
        <g id="pagination-arrow">
            <path d="M1,6 L12.865,6 L9.232,1.64003 C8.878,1.21603 8.936,0.58503 9.36,0.23203 C9.785,-0.12197 10.415,-0.06397 10.768,0.36003 L15.768,6.36 C15.807,6.407 15.827,6.462 15.856,6.514 C15.88,6.556 15.909,6.592 15.927,6.638 C15.972,6.753 15.999,6.874 15.999,6.996 C15.999,6.997 16,6.999 16,7 C16,7.001 15.999,7.003 15.999,7.004 C15.999,7.126 15.972,7.247 15.927,7.362 C15.909,7.408 15.88,7.444 15.856,7.486 C15.827,7.538 15.807,7.593 15.768,7.64 L10.768,13.64 C10.57,13.877 10.286,14 10,14 C9.774,14 9.547,13.924 9.36,13.768 C8.936,13.415 8.878,12.784 9.232,12.36 L12.865,8 L1,8 C0.448,8 0,7.552 0,7 C0,6.448 0.448,6 1,6 Z" id="Path" fill="#FFFFFF"></path>
            <g id="Clipped">
                <mask id="mask-2" fill="white">
                    <use xlink:href="#path-1"></use>
                </mask>
                <g id="Path"></g>
            </g>
        </g>
    </g>
</svg>