<?xml version="1.0" encoding="UTF-8"?>
<svg width="16px" height="16px" viewBox="0 0 16 16" version="1.1" xmlns="http://www.w3.org/2000/svg" xmlns:xlink="http://www.w3.org/1999/xlink">
    <!-- Generator: Sketch 58 (84663) - https://sketch.com -->
    <title>pencil</title>
    <desc>Created with Sketch.</desc>
    <defs>
        <path d="M12.0189,6.6787 L9.3239,3.98367 L11.2719,2.03467 L13.9659,4.72867 L12.0189,6.6787 Z M5.0799,13.6247 L2.1029,13.8957 L2.3669,10.9397 L7.9839,5.32267 L10.6799,8.0187 L5.0799,13.6247 Z M15.4039,3.33767 L15.4029,3.33667 L12.6649,0.59867 C11.9239,-0.14033 10.6509,-0.17533 9.9489,0.52967 L0.9529,9.5257 C0.6269,9.8507 0.4249,10.2827 0.3829,10.7397 L0.0039,14.9097 C-0.0221,15.2047 0.0829,15.4967 0.2929,15.7067 C0.4819,15.8957 0.7369,15.9997 0.9999,15.9997 C1.0309,15.9997 1.0609,15.9987 1.0909,15.9957 L5.2609,15.6167 C5.7189,15.5747 6.1499,15.3737 6.4749,15.0487 L15.4719,6.0517 C16.1999,5.32167 16.1689,4.10367 15.4039,3.33767 Z" id="path-1"></path>
    </defs>
    <g id="Page-1" stroke="none" stroke-width="1" fill="none" fill-rule="evenodd">
        <g id="pencil">
            <path d="M12.0189,6.6787 L9.3239,3.98367 L11.2719,2.03467 L13.9659,4.72867 L12.0189,6.6787 Z M5.0799,13.6247 L2.1029,13.8957 L2.3669,10.9397 L7.9839,5.32267 L10.6799,8.0187 L5.0799,13.6247 Z M15.4039,3.33767 L15.4029,3.33667 L12.6649,0.59867 C11.9239,-0.14033 10.6509,-0.17533 9.9489,0.52967 L0.9529,9.5257 C0.6269,9.8507 0.4249,10.2827 0.3829,10.7397 L0.0039,14.9097 C-0.0221,15.2047 0.0829,15.4967 0.2929,15.7067 C0.4819,15.8957 0.7369,15.9997 0.9999,15.9997 C1.0309,15.9997 1.0609,15.9987 1.0909,15.9957 L5.2609,15.6167 C5.7189,15.5747 6.1499,15.3737 6.4749,15.0487 L15.4719,6.0517 C16.1999,5.32167 16.1689,4.10367 15.4039,3.33767 Z" id="Shape" fill="#FFFFFF"></path>
            <g id="Clipped">
                <mask id="mask-2" fill="white">
                    <use xlink:href="#path-1"></use>
                </mask>
                <g id="Shape"></g>
            </g>
        </g>
    </g>
</svg>