<?xml version="1.0" encoding="UTF-8"?>
<svg width="14px" height="13px" viewBox="0 0 14 13" version="1.1" xmlns="http://www.w3.org/2000/svg" xmlns:xlink="http://www.w3.org/1999/xlink">
    <!-- Generator: Sketch 58 (84663) - https://sketch.com -->
    <title>27) Icon</title>
    <desc>Created with Sketch.</desc>
    <g id="Page-1" stroke="none" stroke-width="1" fill="none" fill-rule="evenodd">
        <g id="27)-Icon" fill="#FFFFFF">
            <path d="M10.7077,13.0004 C10.6024,13.0004 10.4964,12.9758 10.3991,12.9251 L6.99975,11.1491 L3.60108,12.9251 C3.37575,13.0418 3.10375,13.0218 2.89975,12.8724 C2.69442,12.7231 2.59242,12.4704 2.63575,12.2204 L3.28308,8.46844 L0.53642,5.81177 C0.35375,5.6351 0.28775,5.36977 0.36575,5.1271 C0.44375,4.88577 0.65242,4.7091 0.90442,4.6731 L4.70442,4.1211 L6.40308,0.70377 C6.62842,0.25044 7.37175,0.25044 7.59708,0.70377 L9.2957,4.1211 L13.0957,4.6731 C13.3477,4.7091 13.5564,4.88577 13.6344,5.1271 C13.7124,5.36977 13.6464,5.6351 13.4637,5.81177 L10.7171,8.46844 L11.3644,12.2204 C11.4077,12.4704 11.3051,12.7231 11.1004,12.8724 C10.9844,12.9578 10.8464,13.0004 10.7077,13.0004 Z" id="Path"></path>
        </g>
    </g>
</svg>