<?xml version="1.0" encoding="UTF-8"?>
<svg width="20px" height="26px" viewBox="0 0 20 26" version="1.1" xmlns="http://www.w3.org/2000/svg" xmlns:xlink="http://www.w3.org/1999/xlink">
    <!-- Generator: Sketch 51.3 (57544) - http://www.bohemiancoding.com/sketch -->
    <title>pdf</title>
    <desc>Created with Sketch.</desc>
    <defs></defs>
    <g id="Page-1" stroke="none" stroke-width="1" fill="none" fill-rule="evenodd">
        <g id="legans-22" transform="translate(-1331.000000, -479.000000)">
            <g id="Group-7" transform="translate(515.000000, 468.000000)">
                <g id="Group-6">
                    <g id="pdf" transform="translate(816.000000, 11.000000)">
                        <path d="M14.0593821,0 L0.627078619,0 C0.297019938,0 0,0.260009712 0,0.617516321 L0,25.3825376 C0,25.7075093 0.264035986,26 0.627078619,26 L19.3729214,26 C19.7029801,26 20,25.7400442 20,25.3825376 L20,5.85002968 C20,5.68751686 19.9339773,5.52500405 19.8349707,5.42750715 L14.4884474,0.162512814 C14.3564568,0.0650159168 14.2244114,0 14.0593821,0" id="Fill-1" fill="#EDF1F1"></path>
                        <path d="M14.6377319,6 L20,6 C19.9647423,5.92980787 19.9294261,5.85961574 19.8589108,5.8245488 L17.001342,2.9824374 L14.1790895,0.140384261 C14.1085156,0.0701921303 14.0732579,0.0351251905 14.002684,0 L14.002684,5.33332039 C13.9674264,5.71928973 14.284921,6 14.6377319,6" id="Fill-2" fill="#D1D2D1"></path>
                        <path d="M9.01902365,9.87977445 C8.8905953,9.87977445 8.79430068,10.0090689 8.69800606,10.2999011 C8.60171144,10.5584364 8.60171144,10.8492685 8.63379188,11.1723975 C8.69800606,11.5602273 8.82643441,12.2065388 9.17947915,13.0467384 C9.66100554,11.49558 9.59679136,10.8492685 9.59679136,10.8492685 C9.50049674,9.97671849 9.05110409,9.87977445 9.01902365,9.87977445 Z M9.33998795,15.3088555 C9.01902365,16.052111 8.63379188,16.8923106 8.12023834,17.8617511 C8.98688992,17.6032694 9.91780895,17.3770309 10.9449693,17.2800868 C10.3029874,16.6014785 9.75730016,15.9228166 9.33998795,15.3088555 Z M13.5128969,18.1849337 C14.0906646,18.5727098 14.7326998,18.9928365 15.4388426,19.3483158 C15.5672709,19.4129094 15.7277264,19.3806126 15.8240743,19.2513718 C15.9203689,19.1220773 15.9524494,19.0251333 15.9524494,19.0251333 C16.0166636,18.863542 16.0166636,18.7989484 15.9203689,18.7020043 C15.8561548,18.6373571 15.7598602,18.5727098 15.6314318,18.540413 C14.925289,18.3465249 14.219093,18.2495809 13.5128969,18.1849337 Z M6.03378387,19.736092 C5.07078439,20.2531627 4.39672206,20.7055324 4.13991864,20.931771 C4.04362402,21.028715 3.9473294,21.1256591 3.9473294,21.2226031 C3.88311523,21.4488416 3.97940985,21.6750265 4.20413282,21.9335619 C4.20413282,21.9335619 4.39672206,22.0951532 4.5893113,22.0305059 C4.65352547,21.9982091 4.71768636,21.9658587 4.74982009,21.8689146 C5.19921274,21.1256591 5.6486054,20.4147003 6.03378387,19.736092 Z M4.46093623,23 C4.01154358,23 3.65844555,22.7414647 3.49793675,22.5798734 C2.95224948,21.9335619 2.95224948,21.3841944 3.0485441,21.028715 C3.11275827,20.7055324 3.30534751,20.4147003 3.59423137,20.2208122 C4.01154358,19.8976833 5.16707901,19.0897805 6.868355,18.3788217 C7.76714031,16.7307194 8.37704176,15.4057995 8.79430068,14.3393614 C8.08810461,12.9820911 7.83135448,11.8833562 7.76714031,11.3339888 C7.70292613,10.8815653 7.73505987,10.4291419 7.86343493,10.0413657 C8.18445252,9.00727805 8.8905953,8.9749276 9.17947915,9.00727805 C9.24369333,9.00727805 10.3672016,9.16881569 10.5597908,10.7846213 C10.5597908,10.8492685 10.6881659,11.8833562 9.82151434,14.3070646 C10.3672016,15.2442082 11.1375586,16.2782959 12.3252277,17.2800868 C13.4486827,17.2800868 14.6684856,17.3770309 15.9524494,17.7002134 C16.2413332,17.764807 16.4981367,17.9263983 16.6907259,18.1526369 C17.0117435,18.5080626 17.0759044,18.960486 16.9154489,19.4129094 C16.9154489,19.4129094 16.8512347,19.639148 16.6586455,19.8653329 C16.3055474,20.3501067 15.6314318,20.5116444 15.0857445,20.2208122 C13.8659949,19.5745007 12.8388346,18.8958924 12.0042101,18.1849337 C10.3029874,18.2495809 8.79430068,18.6373571 7.57455107,19.1220773 C7.0288638,20.1238682 6.35474817,21.2226031 5.58439122,22.4506325 C5.42388242,22.6768174 5.23129319,22.8707055 4.97448977,22.9676496 C4.74982009,22.9676496 4.5893113,23 4.46093623,23 Z" id="Fill-3" fill="#D65D4F"></path>
                    </g>
                </g>
            </g>
        </g>
    </g>
</svg>