<?xml version="1.0" encoding="UTF-8"?>
<svg width="21px" height="22px" viewBox="0 0 21 22" version="1.1" xmlns="http://www.w3.org/2000/svg" xmlns:xlink="http://www.w3.org/1999/xlink">
    <!-- Generator: Sketch 51.3 (57544) - http://www.bohemiancoding.com/sketch -->
    <title>attachment</title>
    <desc>Created with Sketch.</desc>
    <defs></defs>
    <g id="Page-1" stroke="none" stroke-width="1" fill="none" fill-rule="evenodd">
        <g id="legans-03" transform="translate(-299.000000, -1210.000000)">
            <g id="Group-13" transform="translate(282.000000, 1162.000000)">
                <g id="Group-7" transform="translate(0.000000, 31.000000)">
                    <g id="attachment" transform="translate(17.000000, 18.000000)">
                        <polygon id="Clip-2" points="-6.8156426e-16 0 21 0 21 21 -6.8156426e-16 21"></polygon>
                        <path d="M20.8748755,7.09034036 C20.7085758,6.92913822 20.4378058,6.92913822 20.2709731,7.09034036 L8.6342587,18.1924388 C7.77664266,19.0106541 6.63120023,19.461715 5.40900409,19.461715 C4.18680796,19.461715 3.03976649,19.0106541 2.1842825,18.1924388 C1.32613344,17.373715 0.853884958,16.2814052 0.853884958,15.1153594 C0.853884958,13.9493136 1.32613344,12.8570038 2.1842825,12.03828 L13.8209969,0.934147459 C15.0554523,-0.243594385 16.9961484,-0.172401009 18.332942,1.10297746 C19.6670707,2.37835594 19.7443574,4.22785813 18.509902,5.40559998 L7.57463117,15.8384807 C6.96433262,16.4202322 5.96919953,16.4202322 5.35730194,15.8384807 C4.74487135,15.2541865 4.74487135,14.3047719 5.35730194,13.7209863 L12.7629684,6.65504372 C12.9298011,6.4963842 12.9298011,6.23805395 12.7629684,6.0788859 C12.5966687,5.92022638 12.3280307,5.92022638 12.159066,6.0788859 L4.75339954,13.1448284 C3.80996859,14.0464417 3.80996859,15.5104826 4.75339954,16.4126044 C5.69842952,17.3142176 7.23510264,17.3121835 8.17853358,16.4126044 L19.1111393,5.9817578 C20.6915194,4.4739838 20.6147657,2.13019617 18.9363114,0.526819645 C17.2562581,-1.07401426 14.7974745,-1.14724173 13.2192265,0.35798964 L1.58038009,11.4641563 C0.560195438,12.4354373 0,13.7326823 0,15.1153594 C0,16.5000705 0.560195438,17.796807 1.58038009,18.7685966 C2.59843269,19.7419118 3.95814588,20.2758621 5.40900409,20.2758621 C6.85826327,20.2758621 8.21797646,19.7419118 9.23602906,18.7685966 L20.8748755,7.66446408 C21.0417082,7.50529604 21.0417082,7.24696579 20.8748755,7.09034036 Z" id="Fill-1" fill="#85D7C1"></path>
                    </g>
                </g>
            </g>
        </g>
    </g>
</svg>