<?xml version="1.0" encoding="UTF-8"?>
<svg width="92px" height="76px" viewBox="0 0 92 76" version="1.1" xmlns="http://www.w3.org/2000/svg" xmlns:xlink="http://www.w3.org/1999/xlink">
    <!-- Generator: Sketch 51.3 (57544) - http://www.bohemiancoding.com/sketch -->
    <title>Group</title>
    <desc>Created with Sketch.</desc>
    <defs></defs>
    <g id="Page-1" stroke="none" stroke-width="1" fill="none" fill-rule="evenodd">
        <g id="legans-07" transform="translate(-274.000000, -2761.000000)">
            <g id="Group" transform="translate(276.000000, 2763.000000)">
                <path d="M59.0043165,12.4417391 L59.0043165,17.1391304 C59.0043165,20.2495652 56.7884892,22.7886957 54.0661871,22.7886957 L33.7438849,22.7886957 C31.0215827,22.7886957 28.8057554,20.2495652 28.8057554,17.1391304 L28.8057554,5.64956522 C28.8057554,2.53913043 31.0215827,0 33.7438849,0 L54.0661871,0 C56.7884892,0 59.0043165,2.53913043 59.0043165,5.64956522 L59.0043165,7.04608696 M32.7942446,12.1878261 L32.7942446,17.1391304 C32.7942446,17.7104348 33.2374101,18.2182609 33.7438849,18.2182609 L54.0661871,18.2182609 C54.5726619,18.2182609 55.0158273,17.7104348 55.0158273,17.1391304 L55.0158273,5.64956522 C55.0158273,5.07826087 54.5726619,4.57043478 54.0661871,4.57043478 L33.7438849,4.57043478 C33.2374101,4.57043478 32.7942446,5.07826087 32.7942446,5.64956522 L32.7942446,7.87130435" id="Shape" stroke="#1676EE" stroke-width="3" fill="#B8D9FF" fill-rule="nonzero" stroke-linecap="round" stroke-linejoin="round"></path>
                <path d="M28.1093525,12.1878261 L82.9985612,12.1878261 C85.657554,12.1878261 87.7467626,14.346087 87.7467626,16.9486957 L87.7467626,67.5408696 C87.7467626,70.2069565 85.5942446,72.3017391 82.9985612,72.3017391 L4.81151079,72.3017391 C2.15251799,72.3017391 0.0633093525,70.1434783 0.0633093525,67.5408696 L0.0633093525,16.9486957 C0.0633093525,14.2826087 2.21582734,12.1878261 4.81151079,12.1878261 L28.1093525,12.1878261 Z" id="Path" fill="#FFFFFF"></path>
                <path d="M87.8100719,18.98 L87.8100719,67.7947826 C87.8100719,70.333913 85.7208633,72.4286957 83.1884892,72.4286957 L7.53381295,72.4286957 C5.00143885,72.4286957 2.91223022,70.333913 2.91223022,67.7947826 L2.91223022,18.98 C2.91223022,16.4408696 5.00143885,14.346087 7.53381295,14.346087 L83.1884892,14.346087 C85.7208633,14.346087 87.8100719,16.3773913 87.8100719,18.98 Z" id="Path" fill="#DDECFE"></path>
                <path d="M87.8100719,35.1034783 L87.8100719,38.9756522 C78.6935252,43.4191304 61.9798561,46.3391304 42.923741,46.3391304 C26.8431655,46.3391304 12.5352518,44.2443478 2.91223022,40.9434783 L2.91223022,37.0713043 C12.4719424,40.3721739 26.8431655,42.4669565 42.923741,42.4669565 C61.9798561,42.4669565 78.6935252,39.5469565 87.8100719,35.1034783 Z" id="Path" fill="#B8D9FF"></path>
                <path d="M87.8100719,18.98 L87.8100719,67.7947826 C87.8100719,70.333913 85.7208633,72.4286957 83.1884892,72.4286957 L7.53381295,72.4286957 C5.00143885,72.4286957 2.91223022,70.333913 2.91223022,67.7947826 C2.91223022,64.6843478 5.44460432,62.1452174 8.54676259,62.1452174 L82.428777,62.1452174 C85.3410072,62.1452174 87.6834532,59.7965217 87.6834532,56.8765217 L87.6834532,18.3452174 C87.8100719,18.5356522 87.8100719,18.726087 87.8100719,18.98 Z" id="Path" fill="#B8D9FF"></path>
                <path d="M47.5453237,43.2921739 C46.342446,43.2921739 45.076259,43.3556522 43.8733813,43.3556522 C26.9697842,43.3556522 11.6489209,40.4991304 0.126618705,35.8017391" id="Path" stroke="#1676EE" stroke-width="3" stroke-linecap="round" stroke-linejoin="round"></path>
                <path d="M87.7467626,35.7382609 C78.5669065,39.4834783 66.981295,42.086087 54.0661871,42.9747826" id="Path" stroke="#1676EE" stroke-width="3" stroke-linecap="round" stroke-linejoin="round"></path>
                <path d="M24.247482,12.1878261 L28.1093525,12.1878261" id="Path" stroke="#1676EE" stroke-width="3" stroke-linecap="round" stroke-linejoin="round"></path>
                <path d="M13.6748201,12.1878261 L16.2071942,12.1878261" id="Path" stroke="#1676EE" stroke-width="3" stroke-linecap="round" stroke-linejoin="round"></path>
                <path d="M0.0633093525,35.6747826 L0.0633093525,17.0121739 C0.0633093525,14.346087 2.21582734,12.2513043 4.81151079,12.2513043 L9.24316547,12.2513043" id="Path" stroke="#1676EE" stroke-width="3" stroke-linecap="round" stroke-linejoin="round"></path>
                <path d="M87.8100719,43.2921739 L87.8100719,67.6043478 C87.8100719,70.2704348 85.657554,72.3652174 83.0618705,72.3652174 L4.81151079,72.3652174 C2.15251799,72.3652174 0.0633093525,70.2069565 0.0633093525,67.6043478 L0.0633093525,44.1173913" id="Path" stroke="#1676EE" stroke-width="3" stroke-linecap="round" stroke-linejoin="round"></path>
                <path d="M28.1093525,12.1878261 L82.9985612,12.1878261 C85.657554,12.1878261 87.7467626,14.346087 87.7467626,16.9486957 L87.7467626,35.4208696" id="Path" stroke="#1676EE" stroke-width="3" stroke-linecap="round" stroke-linejoin="round"></path>
                <path d="M46.5323741,50.0208696 L41.2776978,50.0208696 C40.1381295,50.0208696 39.2517986,49.1321739 39.2517986,47.9895652 L39.2517986,40.2452174 C39.2517986,39.1026087 40.1381295,38.213913 41.2776978,38.213913 L46.5323741,38.213913 C47.6719424,38.213913 48.5582734,39.1026087 48.5582734,40.2452174 L48.5582734,47.9895652 C48.5582734,49.1321739 47.6719424,50.0208696 46.5323741,50.0208696 Z" id="Path" fill="#FFFFFF"></path>
                <path d="M39.3151079,40.3086957 C39.3151079,39.166087 40.2014388,38.2773913 41.3410072,38.2773913" id="Path" stroke="#1676EE" stroke-width="3" stroke-linecap="round" stroke-linejoin="round"></path>
                <path d="M44.6964029,38.2773913 L46.5323741,38.2773913 C47.6719424,38.2773913 48.5582734,39.166087 48.5582734,40.3086957 L48.5582734,48.0530435 C48.5582734,49.1956522 47.6719424,50.0843478 46.5323741,50.0843478 L41.2776978,50.0843478 C40.1381295,50.0843478 39.2517986,49.1956522 39.2517986,48.0530435 L39.2517986,43.2921739" id="Path" stroke="#1676EE" stroke-width="3" stroke-linecap="round" stroke-linejoin="round"></path>
            </g>
        </g>
    </g>
</svg>