<?xml version="1.0" encoding="UTF-8"?>
<svg width="44px" height="68px" viewBox="0 0 44 68" version="1.1" xmlns="http://www.w3.org/2000/svg" xmlns:xlink="http://www.w3.org/1999/xlink">
    <!-- Generator: Sketch 51.3 (57544) - http://www.bohemiancoding.com/sketch -->
    <title>man</title>
    <desc>Created with Sketch.</desc>
    <defs></defs>
    <g id="Page-1" stroke="none" stroke-width="1" fill="none" fill-rule="evenodd">
        <g id="legans-20" transform="translate(-793.000000, -1291.000000)">
            <g id="Group" transform="translate(741.000000, 1277.000000)">
                <g id="man" transform="translate(52.000000, 14.000000)">
                    <path d="M29.0229118,44.3551263 C27.6409552,42.5145052 26.1234576,40.7336618 24.5131092,39.0617466 L24.1290323,38.6632287 L24.5439261,38.296858 C24.6168994,38.2320324 24.6924074,38.1666755 24.7695163,38.1007872 L28.9353972,34.5368421 L29.1166965,35.4236772 C29.6962138,38.2574047 29.9874399,41.155028 29.983838,44.0375076 L29.9818369,45.6315789 L29.0229118,44.3551263 Z" id="Fill-1" fill="#B2EAF9"></path>
                    <path d="M13.9795309,44.2764164 C13.6266221,41.4902243 13.9399037,38.6175984 14.8869534,35.9698861 L15.2074399,35.0736842 L15.805717,35.8153411 C16.386382,36.5336303 17.1051418,37.1419854 17.8009524,37.7306905 L17.8431147,37.7670696 C18.3106354,38.1643194 18.7520048,38.5392638 19.163754,38.9495251 L19.516129,39.3000396 L14.1285665,45.4526316 L13.9795309,44.2764164 Z" id="Fill-2" fill="#B2EAF9"></path>
                    <path d="M11.3531962,20.2741621 C11.2053287,20.2441944 11.0529964,20.2290779 10.900664,20.2290779 C10.7760403,20.2290779 10.6503661,20.2388904 10.527187,20.2591783 L10.1076164,20.3269371 L9.95423345,19.9271466 C9.39414933,18.468541 8.69749135,16.6535053 8.54568426,14.7976287 C8.37483562,12.7232263 8.95041562,10.846001 10.1240315,9.64848583 C10.2373615,9.53246039 10.3543686,9.42319757 10.484639,9.30359191 C10.8791273,8.93734932 11.2879297,8.55718367 11.4449896,8.03818529 C11.5346818,7.74235356 11.5306109,7.42848817 11.5270652,7.12496561 C11.5254894,6.95974538 11.5244388,6.80897861 11.5346818,6.65410122 C11.5988978,5.70216219 12.1662046,4.77342825 12.9802635,4.2879778 C13.373176,4.05393791 13.8025957,3.9197462 14.2570978,3.77786366 L14.2821801,3.77004023 C14.8644574,3.58930574 15.412854,3.41891409 15.8703764,3.04962168 C16.1612524,2.81544919 16.3817404,2.52691049 16.6152292,2.22139892 L16.6254722,2.20840408 C16.8106348,1.96654075 16.9855544,1.73807008 17.1959307,1.5334675 C17.8684256,0.881338218 18.8768397,0.536842105 20.1121764,0.536842105 C20.4214374,0.536842105 20.7410728,0.558190787 21.0616274,0.600092546 C21.6079228,0.671564219 22.1568446,0.789180867 22.6872502,0.902023897 L22.5949315,1.42473509 L22.7036653,0.905736711 C23.4894902,1.07347635 24.30263,1.24705041 25.1177395,1.27237711 C25.2008657,1.27502912 25.2818907,1.27608992 25.3629158,1.27608992 C25.769223,1.27608992 26.181177,1.24545921 26.579211,1.21496109 L26.6320021,1.21124828 C27.027541,1.18234137 27.4015432,1.15489306 27.7861825,1.15489306 L27.8846732,1.15529086 C29.003003,1.16722491 29.8678832,1.45059219 30.4547568,1.99703887 C30.8773478,2.38913856 31.1493136,2.91436917 31.4124809,3.4224943 L31.4262696,3.4483514 C31.5909462,3.76539921 31.7612695,4.09278986 31.9690194,4.38543917 C32.2285097,4.75168177 32.5537918,5.08517204 32.8686996,5.40845207 C33.4991718,6.05540994 34.1517059,6.72411428 34.2332563,7.61863729 C34.3015432,8.35205069 33.9547244,9.04409272 33.6197245,9.71332748 C33.2617434,10.4321548 32.9277941,11.1013896 33.010789,11.8458088 C33.0610849,12.2881641 33.2513691,12.676551 33.4525528,13.0878777 C33.5346285,13.2536284 33.5955614,13.3825161 33.6495344,13.5042433 C34.4819783,15.4052042 34.1224213,17.7460009 32.7564202,19.3315051 L32.0258814,20.1788224 L31.8422946,19.0709451 C31.8186568,18.9310516 31.7909481,18.8030921 31.7570673,18.6804366 C31.3749231,18.6280594 30.9933042,18.5845665 30.6116854,18.5425321 L30.1273735,18.4892267 L30.1437886,17.9976766 C30.1725479,17.1327235 30.3993393,16.2842129 30.618908,15.4638136 L30.6563345,15.3260417 C30.917926,14.3454609 31.1477378,13.3830465 31.0799761,12.4227536 C31.0024967,11.3272082 30.5075478,10.3872032 29.7554724,9.90851542 C29.4836379,9.73560436 29.1527089,9.63615398 28.8475189,9.63615398 C28.6254551,9.63615398 28.3094967,9.68998979 28.067866,9.94789777 C27.9995791,10.0209606 27.9441616,10.1054272 27.8846732,10.1949325 L27.8739049,10.2115076 C27.8241342,10.2908027 27.7748889,10.3612135 27.7298457,10.417171 C27.4389697,10.7698883 26.9643756,10.9459818 26.3160437,10.9459818 C26.2253009,10.9459818 26.1293052,10.942932 26.0323903,10.9356389 C24.401646,10.8155029 22.8037319,9.98834092 21.7561842,8.7234647 C21.8947279,10.0737356 22.4569131,11.3982821 23.3315111,12.4543125 L24.0240981,13.2908891 L22.9447707,13.3251 C22.8755645,13.327089 22.8057017,13.3281499 22.7359703,13.3281499 C21.7106158,13.3281499 20.6856553,13.0868169 19.7710044,12.6294778 C18.4505717,11.9695251 17.3697997,10.8698691 16.7275086,9.53246039 L16.6741923,9.42213677 C16.4454311,8.94000133 16.2115484,8.44739045 15.7328833,8.29662368 C15.6477873,8.27023618 15.5558626,8.25618052 15.4624933,8.25618052 C15.1615056,8.25618052 14.8321525,8.39766526 14.5345791,8.65504284 C13.504497,9.54757684 13.4172999,11.0231553 13.4568275,11.8240623 C13.4871627,12.4341572 13.5911689,13.0349701 13.6912355,13.6161581 L13.6979329,13.6524907 C13.7913021,14.2014568 13.8795498,14.7199248 13.9159258,15.259211 C13.9708179,16.0558748 13.920522,17.5325141 12.9654243,18.4664194 L12.8381742,18.5907987 L12.1293034,18.6742044 C12.0327824,19.0217503 11.9840623,19.3842801 11.9815672,19.7572854 L11.977365,20.4 L11.3531962,20.2741621 Z" id="Fill-3" fill="#644C4C"></path>
                    <path d="M27.5472133,24.3368421 C26.4840838,24.3368421 25.4769782,23.9914583 24.7105638,23.3635476 C23.3803242,22.275872 22.7031234,20.2060728 23.2605761,18.9345702 C23.5110913,18.3663539 24.0062803,18.2526316 24.7245034,18.2526316 C25.5973901,18.2526316 26.4846148,18.3241857 27.3428981,18.3931044 L27.4544152,18.4023286 C27.6296563,18.4162969 27.8050302,18.4306604 27.9797403,18.4435744 C29.1335439,18.5335771 30.2890733,18.6453228 31.416458,18.7765713 L31.8120781,18.8224292 L31.8779263,19.2131438 C32.1641535,20.9117311 31.3624253,22.7422258 29.9275721,23.6641277 C29.2420075,24.1047853 28.419038,24.3368421 27.5472133,24.3368421 Z" id="Fill-4" fill="#FFDAC4"></path>
                    <path d="M16.2759141,24.3368421 C15.4040906,24.3368421 14.580591,24.1042582 13.8950273,23.6646548 C12.4605742,22.7438071 11.658316,20.9138395 11.9446756,19.2131438 L12.0105237,18.8229563 L12.4066744,18.7765713 C13.5340576,18.6458499 14.6894528,18.5335771 15.8412636,18.4441015 C16.0180976,18.4306604 16.1933385,18.416824 16.3681811,18.4023286 L16.4802291,18.3936315 C17.3379803,18.3241857 18.2252038,18.2526316 19.091717,18.2526316 C19.8163117,18.2526316 20.3115,18.366881 20.5620149,18.9331207 C21.1194668,20.2055457 20.4421341,22.2748178 19.1125601,23.3635476 C18.3460138,23.9914583 17.3383786,24.3368421 16.2759141,24.3368421 Z" id="Fill-5" fill="#FFDAC4"></path>
                    <path d="M29.983871,23.581332 L30.4607022,23.1614175 C31.2633921,22.4539373 31.802373,21.4224855 31.9394176,20.3311022 L31.9680616,20.1030735 L32.1543792,19.9691478 C32.4136209,19.782782 32.7354064,19.6842105 33.0849162,19.6842105 C33.1557379,19.6842105 33.2281363,19.6882848 33.3000092,19.6965648 C33.8522609,19.7612277 34.3501153,20.0548392 34.6324824,20.482508 C35.1672586,21.2993368 35.0162862,22.4924459 34.2819215,23.2594633 C33.7362395,23.8314406 32.9047741,24.1589608 32.002487,24.1589608 C31.836667,24.1589608 31.6694016,24.1476579 31.5046327,24.1255779 C31.5041071,24.1255779 31.5025304,24.1255779 31.5025304,24.1255779 L31.1869204,24.5157895 L29.983871,23.581332 Z" id="Fill-6" fill="#FFDAC4"></path>
                    <path d="M21.7527433,32.9263158 C20.2152036,32.9263158 18.6967384,32.5618952 17.3623097,31.8739462 C14.572033,30.4337702 12.5736786,27.5825503 12.1465404,24.4326578 C11.7679436,24.7042026 11.2941057,24.8550756 10.8059289,24.8550756 C10.1944912,24.8550756 9.60765301,24.6216166 9.19603753,24.2151013 C8.4205587,23.4503126 8.29006252,22.1405636 8.89952705,21.2333208 C9.31522054,20.6147279 10.0557074,20.229995 10.8321071,20.229995 C11.1501916,20.229995 11.4523586,20.2942731 11.7303208,20.4200229 L11.9698707,20.5290684 L12.0284098,20.7891206 C12.2894022,21.9516048 12.9749018,22.9705658 13.9096859,23.5850159 C14.5957117,24.0360315 15.4147331,24.274034 16.2786126,24.274034 C17.3262654,24.274034 18.3241929,23.921106 19.0888847,23.2791272 C19.6566484,22.8051266 20.1706086,22.0381997 20.4639619,21.2286436 C20.5246058,21.0621353 20.576436,20.8904153 20.6170845,20.7170918 L20.7019333,20.3616247 L23.03179,20.0421053 L23.1267681,20.5369528 C23.3251434,21.5710145 23.9413169,22.6474382 24.6956164,23.2791272 C25.4612291,23.921106 26.4591565,24.274034 27.5064147,24.274034 C28.3702942,24.274034 29.1893156,24.0360315 29.8753414,23.5850159 C30.0470123,23.4716941 30.2077646,23.3479488 30.3522049,23.2175218 L30.6789716,22.921522 L31.7580645,23.7734402 L31.3932803,24.199867 C31.0407302,27.3601829 29.1092025,30.258843 26.3533915,31.7649007 C24.9648963,32.5248786 23.3739479,32.9263158 21.7527433,32.9263158 Z" id="Fill-7" fill="#FFDAC4"></path>
                    <path d="M20.8559415,19.802853 C20.8482771,19.4456062 20.7811475,19.1197319 20.6571956,18.8329732 C20.3804841,18.1893681 19.7817355,18.135701 19.1922371,18.135701 C18.3214022,18.135701 17.4356348,18.2076577 16.5793358,18.2774783 L16.4699198,18.2864229 C16.295885,18.3009744 16.1225109,18.3156594 15.9500618,18.328609 C15.3321522,18.3776036 14.7035388,18.4334067 14.0824578,18.4960184 L13.1290323,18.5909371 L13.5575782,17.725855 C13.8852976,17.0640939 14.0241819,16.2150318 13.9602237,15.2706505 C13.9209767,14.7100827 13.8254359,14.1552553 13.7330666,13.61805 L13.7257987,13.5763979 C13.6236507,12.9751125 13.5270527,12.4066681 13.498113,11.8132591 C13.4305869,10.4432788 13.8249073,9.2824935 14.5801155,8.63007742 C14.8758558,8.37348979 15.2078038,8.23157895 15.5129264,8.23157895 C15.6052957,8.23157895 15.6940971,8.24466198 15.7772162,8.27069454 C16.2546558,8.42141641 16.499256,8.93512566 16.7145201,9.38835926 L16.7738531,9.51291506 C17.4207025,10.8599333 18.5098408,11.9686535 19.8401436,12.6329511 C20.7609293,13.0933938 21.7953597,13.3370318 22.8319043,13.3370318 C23.2778934,13.3370318 23.7233539,13.2921757 24.1565249,13.2035315 C23.3326014,12.4624712 22.6812591,11.5175559 22.2745171,10.4635709 L21.6477538,8.84074093 L23.066858,9.82997833 C23.9814329,10.4673089 25.0453316,10.8473843 26.142795,10.9277515 C26.2383358,10.93456 26.3322908,10.9381645 26.4225458,10.9381645 C26.8763314,10.9381645 27.4926553,10.8459158 27.8549966,10.4066997 C27.9040224,10.3467581 27.9505374,10.2764034 27.9953345,10.2085852 L28.0077561,10.1897617 C28.0619355,10.106324 28.1254972,10.0078008 28.2039913,9.92649906 C28.3892585,9.72731658 28.6587019,9.61984882 28.9782283,9.61984882 C29.2828223,9.61984882 29.6137132,9.71997406 29.8867246,9.89459249 C30.640347,10.3733246 31.136419,11.3173054 31.2133273,12.4176151 C31.2815141,13.3876285 31.0605678,14.3147882 30.7868957,15.3400707 L30.7513487,15.4739715 C30.5453348,16.2406639 30.3135526,17.106814 30.272852,17.9646871 L30.2470837,18.5247209 L29.6941895,18.4705198 C29.1496203,18.4177872 28.6148298,18.3698606 28.1043541,18.328609 C27.9308478,18.3151254 27.7553593,18.3009744 27.5803995,18.2864229 L27.4745514,18.2774783 C26.6186488,18.2076577 25.7328815,18.135701 24.868786,18.135701 C24.2726803,18.135701 23.6737995,18.1893681 23.3977488,18.8319052 C23.290315,19.0806163 23.2252997,19.356962 23.203628,19.6537332 L23.1720453,20.0860072 L20.8688917,20.4 L20.8559415,19.802853 Z" id="Fill-8" fill="#FFDAC4"></path>
                    <path d="M21.7946528,45.1274361 C21.6753659,44.6793879 21.5811162,44.2302814 21.4812298,43.7549826 L21.4653686,43.6805063 C21.2252219,42.5318784 20.976948,41.344888 20.3777609,40.3243116 C19.7684804,39.2857446 18.8324063,38.48066 17.9266128,37.7019001 C17.0454631,36.9458931 16.214912,36.2327464 15.6106127,35.3001394 L15.4354839,35.0298818 L15.5937028,34.749306 C16.1145013,33.8233132 16.3838799,32.9060512 16.3720823,32.0958076 L16.3587117,31.1662431 L17.1575403,31.6297686 C17.2650296,31.6916779 17.3731742,31.7506768 17.4796148,31.8038553 C18.8098598,32.4864442 20.3229676,32.8461263 21.8591463,32.8461263 C23.4788258,32.8461263 25.0661274,32.4487431 26.4502481,31.6973661 C26.6253769,31.6027826 26.8081087,31.4948383 26.9939864,31.3769726 L27.6534723,30.9578947 L27.7891447,31.7325538 C27.9351728,32.5634339 28.2424347,33.3928589 28.7021479,34.1984726 L28.9193548,34.5782619 L24.8515422,38.1049715 C24.584261,38.337528 24.3150135,38.5720687 24.1224504,38.8656084 C23.7885783,39.3745076 23.7153021,40.002463 23.6441233,40.6095174 L23.635996,40.6824063 C23.4603429,42.1747098 23.1823128,43.6671455 22.8084599,45.1228062 L22.3108633,47.0631579 L21.7946528,45.1274361 Z" id="Fill-9" fill="#FFDAC4"></path>
                    <path d="M43.4527627,64.880214 L42.8919459,54.3288762 C42.7399315,51.4590271 42.5671999,48.206372 40.9893911,45.5473185 C39.5651802,43.143956 37.1786075,41.5354272 34.8704172,39.9800291 C34.3945806,39.6592531 33.9023813,39.3277182 33.4270726,38.9931282 C32.1869415,38.1229819 31.1364326,37.2337086 30.3049721,36.3490842 L29.1060116,35.0736842 L29.4014631,36.8040149 C29.9028994,39.7454575 30.0993832,42.7454766 29.9782468,45.7231808 C28.4040008,43.4770849 26.6417163,41.3175918 24.7391615,39.3050048 L24.1288608,38.6589368 L23.8550502,39.5067683 C23.7298231,39.8932934 23.6808671,40.3197992 23.6375853,40.6913149 L23.6283483,40.7680886 C23.3880547,42.8097646 22.9581391,44.8390877 22.3525889,46.7909729 L22.309175,46.8889989 L22,67.4403117 L22.5319183,67.4444294 C24.1689757,67.456915 25.8292576,67.4631579 27.4659191,67.4631579 C29.6998177,67.4631579 31.9616911,67.4512035 34.1905752,67.4283574 L34.7038876,67.4231771 L34.7127287,66.9063493 C34.7941461,62.2336462 35.3157718,57.5458009 36.2719316,52.9751086 C35.3260645,57.5354405 34.8044388,62.2127924 34.7219657,66.8757992 L34.7127287,67.4231771 L35.2565232,67.416403 C37.379182,67.3905018 39.2982314,67.3588891 41.124383,67.3203694 C41.8398534,67.3048287 42.6409638,67.2421346 43.0929162,66.7004682 C43.488787,66.22827 43.4893148,65.5703804 43.4527627,64.880214 Z" id="Fill-10" fill="#5BD0FC"></path>
                    <g id="Group-14">
                        <polygon id="Clip-12" points="0.00790419162 3.64531489e-05 43.9685884 3.64531489e-05 43.9685884 68 0.00790419162 68"></polygon>
                        <path d="M22.2547784,46.6259531 C21.8388862,45.7176484 21.6315329,44.7292578 21.4287904,43.7658359 C21.1766467,42.5628203 20.9383353,41.4266094 20.3389341,40.4055469 C20.2406587,40.2380703 20.1284192,40.0709922 19.974024,39.8639375 L19.5834251,39.3389297 L14.6062874,45.0966172 C14.5414731,45.1728516 14.4828503,45.22425 14.4215928,45.2257109 L14.4056527,45.2257109 C14.2928862,45.2257109 14.209497,45.111625 14.1776168,44.911875 C13.7926826,42.4896406 13.8992575,40.0512031 14.4940479,37.6642969 L14.9005868,36.0311016 L13.6382874,37.1330469 C12.3646587,38.2437578 10.803976,38.9820625 9.29414371,39.6953984 L9.0131497,39.8287422 C7.17502994,40.7013203 5.42122156,41.6076328 4.16458683,43.0955312 C2.78188024,44.7355 2.17470659,46.8205234 1.68780838,49.4462266 C0.722443114,54.6502187 0.361221557,59.9721484 0.613365269,65.2653906 C0.637077844,65.7400625 0.685952096,66.2309375 0.995796407,66.5567266 C1.32922156,66.9064219 1.85972455,66.9556953 2.37534132,66.9758828 C4.67611976,67.0640703 7.01497006,67.1418984 9.32707784,67.2067109 L9.92094611,67.2238437 L8.71002395,53.8154922 L9.92964072,67.2223828 L10.3979641,67.2347344 C14.0876407,67.3318203 17.8122275,67.3987578 21.4684431,67.4328906 L21.9922275,67.4376719 L22.3051018,46.7360547 L22.2547784,46.6259531 Z" id="Fill-11" fill="#5BD0FC"></path>
                        <path d="M43.9532335,64.8478281 L43.3933533,54.298 C43.2379042,51.3657656 43.0613772,48.0418672 41.4192814,45.268875 C39.9367186,42.7645625 37.5022275,41.1204766 35.148491,39.5304453 C34.674503,39.2102344 34.1851018,38.8797969 33.7163832,38.5498906 C30.2751617,36.1317734 28.4869701,33.7136562 28.2518204,31.1611328 C30.1903234,29.5741562 31.5400958,27.2768984 31.9517725,24.7856016 C31.9703473,24.7861328 31.9887904,24.7861328 32.0068383,24.7861328 C33.0447904,24.7861328 34.0106826,24.4016406 34.6677844,23.7091562 C35.5724192,22.756625 35.7494731,21.2624844 35.0794611,20.2351797 C34.7536766,19.7346094 34.2103952,19.3750859 33.5968982,19.2412109 C34.7676407,17.5442656 35.0429701,15.2080937 34.2107904,13.3133906 C34.1445269,13.1619844 34.0724671,13.0150937 34.0029102,12.8729844 C33.8222994,12.5031016 33.6514371,12.1539375 33.6123114,11.8058359 C33.5460479,11.2180078 33.848515,10.6146406 34.1681078,9.97594531 C34.5386826,9.23724219 34.921509,8.47303906 34.8391737,7.58226562 C34.7387904,6.49692187 34.0174012,5.75715625 33.3190659,5.04222656 C33.0026347,4.7175 32.7035928,4.41083594 32.470024,4.08132812 C32.2775569,3.810125 32.1185509,3.50399219 31.9501916,3.17926562 C31.6645868,2.62982031 31.3692335,2.06125 30.8778563,1.60517187 C30.1867665,0.964484375 29.1987425,0.632984375 27.9415808,0.61996875 C27.4865629,0.615851562 27.0286467,0.649054687 26.5886467,0.681726562 C26.1008263,0.717984375 25.6402754,0.75225 25.1797246,0.737773437 C24.4047186,0.713335937 23.6436766,0.55090625 22.8382395,0.37878125 C22.2942994,0.26296875 21.7313892,0.142640625 21.1612335,0.06853125 C19.3426108,-0.168671875 17.8091976,0.214757812 16.8442275,1.14816406 C16.6023593,1.38257812 16.4052814,1.63996875 16.2149222,1.88952344 C15.9987425,2.17175 15.7945509,2.43883594 15.5516287,2.63446875 C15.1707784,2.94060156 14.6675449,3.09665625 14.1344072,3.26214062 C13.6604192,3.4095625 13.1706228,3.5615 12.7141557,3.83230469 C11.7342994,4.41442187 11.0782515,5.48675 11.0015808,6.63132812 C10.9897246,6.80770312 10.9918323,6.97783594 10.9932814,7.14225781 C10.9964431,7.41877344 10.9984192,7.67975 10.9330778,7.89557031 C10.8188623,8.27382031 10.4787186,8.58925 10.1185509,8.92340625 C9.9934012,9.03948437 9.86377246,9.15941406 9.74033533,9.28545312 C8.45326946,10.5975078 7.82027545,12.6321953 8.0040479,14.8676953 C8.15633533,16.7213594 8.79552096,18.4495156 9.43668263,20.1205625 C9.07638323,20.3270859 8.75942515,20.610375 8.52177246,20.9615312 C7.76942515,22.0733047 7.93040719,23.6790078 8.88813174,24.6170625 C9.65128144,25.3645312 10.821497,25.5897812 11.812024,25.2493828 C12.3265868,27.6603281 13.7216766,29.8512031 15.6601796,31.345875 C15.6637365,31.3639375 15.6653174,31.3816016 15.670982,31.3997969 C15.9812216,32.4228516 15.6189461,33.6374219 14.9618443,34.7294062 C14.9325988,34.7657969 14.9088862,34.8051094 14.8897844,34.8466797 C14.5352814,35.4137891 14.1030539,35.9445078 13.6481677,36.39275 C12.3842874,37.6373359 10.6974012,38.4347422 9.06663473,39.2066484 L8.78524551,39.3399922 C6.89298204,40.2370078 5.08476647,41.1729375 3.75752096,42.7454375 C2.2122515,44.5757266 1.59677844,46.9990234 1.16191617,49.3455547 C0.18891018,54.5927109 -0.176,59.9566094 0.0787784431,65.2887656 C0.0993293413,65.7157578 0.133317365,66.4301562 0.609281437,66.9292656 C1.12186826,67.4656953 1.89318563,67.4957109 2.35426347,67.5139062 C10.6835689,67.8375703 19.0888862,68 27.4743114,68 C32.0289701,68 36.5779641,67.9517891 41.1048263,67.8562969 C41.9359521,67.8386328 42.8724671,67.7597422 43.470024,67.0438828 C43.9902515,66.4201953 43.9938084,65.6172109 43.9532335,64.8478281 Z M28.6238443,35.6092891 C29.1893892,38.4077812 29.473018,41.2595312 29.4698824,44.115 C28.0825389,42.2457969 26.5752096,40.4558828 24.9754012,38.7734141 C25.0453533,38.7107266 25.1163593,38.647375 25.1905269,38.583625 L28.6238443,35.6092891 Z M9.06307784,14.7800391 C8.90512575,12.8563828 9.42732934,11.1287578 10.4957126,10.0392969 C10.6021557,9.93078906 10.716503,9.82507031 10.8379641,9.71244531 C11.2661078,9.31507031 11.7512934,8.86523437 11.9499521,8.20847656 C12.0631138,7.834875 12.0590299,7.46140625 12.056,7.13189844 C12.0544192,6.98089062 12.0528383,6.83878125 12.0620599,6.70397656 C12.1146228,5.91892187 12.5824192,5.15432031 13.2538802,4.75535156 C13.6028503,4.54829687 14.0129461,4.42119531 14.4472814,4.28625781 C15.0519521,4.09899219 15.6771737,3.90495312 16.2149222,3.47132031 C16.5580958,3.19533594 16.8112934,2.86370313 17.0568503,2.543625 C17.2307425,2.31545312 17.3959401,2.10003125 17.5806347,1.92113281 C18.5624671,0.970726562 20.1602994,1.01840625 21.0254132,1.13103125 C21.5532814,1.19996094 22.0952455,1.31510937 22.6190299,1.42667187 C23.4342156,1.60105469 24.2775928,1.78101562 25.1467904,1.80850781 C25.6634611,1.82510937 26.1739401,1.78672656 26.6679521,1.7499375 C27.1042635,1.71726563 27.5180479,1.68605469 27.9311737,1.69070312 C28.9177485,1.70119531 29.6669341,1.93720313 30.1589701,2.39328125 C30.5150539,2.7231875 30.7553413,3.18590625 31.0095928,3.67625 C31.1875689,4.01864062 31.3713413,4.37245312 31.606491,4.70395312 C31.8884072,5.10185937 32.2311856,5.45314844 32.5626347,5.79288281 C33.155976,6.40089844 33.7167784,6.97571094 33.7822515,7.681875 C33.8357365,8.26545312 33.5372216,8.86164844 33.2207904,9.49303906 C32.8445509,10.2436953 32.4555329,11.0203828 32.557497,11.9261641 C32.6171737,12.4599375 32.8374371,12.9103047 33.0504551,13.3460625 C33.1182994,13.4845859 33.1827186,13.6159375 33.2402874,13.746625 C33.9915808,15.4576484 33.6432695,17.6074844 32.4277365,19.0160937 C32.4025749,18.8661484 32.3706946,18.7172656 32.330515,18.5693125 C32.2733413,18.3597344 32.0964192,18.2056719 31.8823473,18.1797734 C31.4999162,18.1330234 31.115509,18.0894609 30.7301796,18.0474922 C30.7574491,17.2511484 30.9662515,16.4614453 31.1891497,15.629375 L31.2256407,15.4939062 C31.5009701,14.4630156 31.7417844,13.4519141 31.6682754,12.4076094 C31.5792216,11.1423047 30.9915449,10.0475312 30.0961317,9.47842969 C29.3977964,9.03430469 28.3640599,8.93429687 27.7392335,9.60141406 C27.6333174,9.71457031 27.5566467,9.83171094 27.4891976,9.93557031 C27.448491,9.99772656 27.4104192,10.0564297 27.3739281,10.1005234 C27.1058443,10.42525 26.5422754,10.4563281 26.1172934,10.42525 C24.6223473,10.3158125 23.1553293,9.55785156 22.1940479,8.39879687 C22.0437365,8.21777344 21.7937006,8.15707812 21.5780479,8.24991406 C21.3629222,8.34221875 21.2332934,8.565875 21.2584551,8.80095312 C21.418515,10.2690625 22.0272695,11.6844453 22.9669461,12.8185312 C21.9557365,12.8490781 20.9430778,12.6311328 20.0326467,12.1767812 C18.8131617,11.5682344 17.8143353,10.5534141 17.2199401,9.3191875 L17.1664551,9.20603125 C16.9162874,8.67996094 16.604994,8.02585937 15.9056048,7.80578906 C15.3611377,7.63565625 14.7410539,7.80379687 14.2033054,8.26810937 C12.9992335,9.30882812 12.8942395,10.9731016 12.9390299,11.8722422 C12.9703832,12.5082812 13.077485,13.1302422 13.1808982,13.7321484 C13.2750898,14.28 13.363485,14.7977031 13.4001078,15.3232422 C13.448982,16.0298047 13.4098563,17.3315 12.6056048,18.1169531 C12.4269701,18.1376719 12.2479401,18.1579922 12.0698323,18.1797734 C11.8557605,18.2056719 11.6787066,18.3597344 11.6216647,18.5693125 C11.5131138,18.9688125 11.4605509,19.3786719 11.4580479,19.7885312 C11.1230419,19.72 10.7781557,19.7153516 10.4417006,19.7694062 C9.82253892,18.1585234 9.20350898,16.4957109 9.06307784,14.7800391 Z M22.8589222,18.615 C22.7245509,18.9263125 22.6489341,19.2608672 22.6241677,19.6064453 L21.3356527,19.7817578 C21.3259042,19.3620703 21.2455449,18.96775 21.0932575,18.615 C20.6574731,17.6038984 19.639018,17.6038984 19.1496168,17.6033672 C19.1476407,17.6033672 19.1455329,17.6033672 19.1434251,17.6033672 C18.2414251,17.6033672 17.3305988,17.6785391 16.4495449,17.7511875 C16.2581317,17.7672578 16.0672455,17.7829297 15.8768862,17.7979375 C15.2546946,17.8466797 14.6289461,17.9027266 14.0047784,17.9655469 C14.3721916,17.223125 14.5317246,16.2939687 14.4591377,15.249 C14.419485,14.6695391 14.3217365,14.1004375 14.227018,13.5499297 C14.1246587,12.9533359 14.0278323,12.3899453 13.9996407,11.81925 C13.9403593,10.6219453 14.2666707,9.62425781 14.8943952,9.08158594 C15.1373174,8.87200781 15.4110659,8.77239844 15.5897006,8.82897656 C15.846982,8.90932812 16.0307545,9.2958125 16.2082036,9.66941406 L16.2643234,9.7866875 C16.9610778,11.2335469 18.1318204,12.4231484 19.5618204,13.1370156 C20.9914251,13.8503516 22.6401078,14.0677656 24.2035569,13.74875 C24.4011617,13.7082422 24.5591138,13.5588281 24.611018,13.3621328 C24.6630539,13.1655703 24.6002156,12.9559922 24.4484551,12.8221172 C23.6812216,12.1419844 23.0847186,11.2694062 22.7126946,10.3090391 C23.6909701,10.9891719 24.8431377,11.4058047 26.0406228,11.4934609 C27.006515,11.5645156 27.7500359,11.3196094 28.1905629,10.7853047 C28.2652575,10.6955234 28.3244072,10.6048125 28.3768383,10.5243281 C28.4247904,10.45075 28.469976,10.3816875 28.5117365,10.3365312 C28.7293653,10.1046406 29.2095449,10.180875 29.5300599,10.3843437 C30.1403952,10.7722891 30.5437725,11.5573437 30.6087186,12.4838437 C30.6708982,13.3626641 30.460515,14.2410859 30.2000719,15.2157969 L30.1641078,15.3507344 C29.9406826,16.1838672 29.7122515,17.0430312 29.671018,17.9389844 C29.1385389,17.8871875 28.6059281,17.839375 28.0758204,17.7979375 C27.8854611,17.7829297 27.6945749,17.7667266 27.5030299,17.7511875 C26.6221078,17.6785391 25.7107545,17.6033672 24.8086228,17.6033672 C24.8066467,17.6033672 24.8045389,17.6033672 24.8024311,17.6033672 C24.3131617,17.6033672 23.2947066,17.6038984 22.8589222,18.615 Z M12.5705629,19.1981797 C13.6944072,19.0658984 14.8327425,18.9538047 15.9592216,18.8656172 C16.1511617,18.8500781 16.3431018,18.8344063 16.5359641,18.8183359 C17.3959401,18.7472813 18.2846347,18.6741016 19.1434251,18.6741016 L19.1490898,18.6741016 C19.8392575,18.6741016 20.0115689,18.7929688 20.1191976,19.0419922 C20.5339042,20.0038203 20.0703234,21.8512422 18.8280479,22.8847891 C17.5847186,23.9192656 15.6261916,24.0338828 14.2728623,23.1508125 C13.0171497,22.3321563 12.3251377,20.6834219 12.5705629,19.1981797 Z M23.832982,19.0419922 C23.940479,18.7929688 24.1129222,18.6741016 24.8029581,18.6741016 L24.8080958,18.6741016 C25.667018,18.6741016 26.5562395,18.7472813 27.4160838,18.8183359 C27.6085509,18.8344063 27.801018,18.8500781 27.9929581,18.8656172 C29.1194371,18.9538047 30.2577725,19.0658984 31.3810898,19.1981797 C31.6270419,20.6834219 30.9343713,22.3317578 29.6787904,23.1508125 C28.3254611,24.0338828 26.3673293,23.9192656 25.1236048,22.8847891 C23.8818563,21.8512422 23.4182754,20.0038203 23.832982,19.0419922 Z M12.7373413,24.3741484 C12.7120479,24.1879453 12.5911138,24.0287031 12.4197246,23.9549922 C12.2484671,23.8808828 12.0503353,23.9031953 11.899497,24.0140937 C11.2356766,24.4992578 10.2168263,24.4255469 9.62862275,23.8496719 C9.03989222,23.2732656 8.93753293,22.2491484 9.40005988,21.5659609 C9.86074251,20.8852969 10.8388862,20.6077187 11.5841198,20.9438672 C11.8676168,22.1968203 12.6137725,23.3444531 13.695988,24.0499531 C14.487988,24.5667266 15.4209461,24.8209297 16.3539042,24.8209297 C17.4869701,24.8209297 18.6206946,24.4457344 19.5042515,23.7106172 C20.1422515,23.1798984 20.7166228,22.3332187 21.0402994,21.4456328 C21.1097246,21.2557109 21.1668982,21.0663203 21.2122156,20.8790547 L22.6951737,20.6773125 C22.9226826,21.8538984 23.6102156,23.0133516 24.4479281,23.7100859 C25.331485,24.4457344 26.4652096,24.8203984 27.5988024,24.8203984 C28.5317605,24.8203984 29.4641916,24.5661953 30.2561916,24.0499531 C31.482,23.2504219 32.275976,21.8855078 32.4555329,20.4422344 C32.6603832,20.2933516 32.9382156,20.2285391 33.2362036,20.2637344 C33.6314132,20.3104844 33.9977725,20.5247109 34.1923473,20.8230078 C34.5911138,21.4347422 34.4629341,22.3767812 33.9010778,22.9687266 C33.3643832,23.5347734 32.470024,23.8087656 31.5673653,23.6847187 C31.4248263,23.6655937 31.2822874,23.704375 31.169521,23.7926953 C31.0568862,23.8812812 30.9837725,24.0121016 30.9678323,24.1552734 C30.6333533,27.1242969 28.8044551,29.8490781 26.194491,31.2659219 C23.5838683,32.6827656 20.3214132,32.7222109 17.6783832,31.3687187 C15.0349581,30.0150937 13.1417725,27.3349375 12.7373413,24.3741484 Z M17.1967545,32.3232422 C18.6334731,33.0588906 20.2339401,33.4257187 21.8348024,33.4257187 C23.5195808,33.4257187 25.2043593,33.0194453 26.6977246,32.2091562 C26.8942754,32.1022422 27.0867425,31.9881562 27.2751257,31.8682266 C27.4336048,32.7693594 27.7593892,33.6508359 28.2553772,34.5167734 L24.4983832,37.7716094 C24.2204192,38.0123984 23.9055689,38.2847969 23.6693653,38.6448516 C23.2644072,39.2621641 23.1794371,39.9895781 23.1043473,40.6318594 L23.0960479,40.7029141 C22.9226826,42.1777969 22.6489341,43.6460391 22.2788862,45.0857266 C22.156503,44.6265937 22.0566467,44.1503281 21.9536287,43.6610469 C21.7035928,42.4657344 21.4447305,41.2295156 20.7989581,40.130625 C20.1418563,39.0106172 19.1655569,38.1732344 18.2212695,37.3633437 C17.3686707,36.6318125 16.5591497,35.9361406 15.9962395,35.0671484 C16.5123832,34.1504766 16.8612216,33.1336641 16.8463353,32.1338516 C16.9621317,32.1987969 17.0784551,32.2625469 17.1967545,32.3232422 Z M14.6248623,44.2545859 C14.2836647,41.5392344 14.5831018,38.7703594 15.4944551,36.1903437 C16.0913533,36.9411328 16.8211737,37.5682734 17.5328144,38.1789453 C17.9949461,38.5752578 18.4436407,38.9602812 18.8480719,39.3680156 L14.6248623,44.2545859 Z M1.37546108,66.1877734 C1.19076647,65.9942656 1.15783234,65.6124297 1.13978443,65.2378984 C0.889221557,59.98875 1.24846707,54.7083906 2.20605988,49.5431797 C2.67794012,46.9995547 3.2599521,44.9886406 4.56704192,43.4400469 C5.75675449,42.0305078 7.45497006,41.1547422 9.23802395,40.3096562 L9.51849102,40.1768437 C11.0663952,39.44425 12.6615928,38.6878828 13.9831737,37.5350703 C13.3774491,39.9667344 13.2621796,42.5092969 13.6579162,44.9954141 C13.7473653,45.5588047 14.1128024,45.7569609 14.4060479,45.7569609 C14.4117126,45.7569609 14.416982,45.7569609 14.4221198,45.7565625 C14.7426347,45.7487266 14.9351018,45.5261328 15.0071617,45.4425937 L19.5531257,40.1825547 C19.6714251,40.3417969 19.7847186,40.5042266 19.885497,40.6759531 C20.4418204,41.6231719 20.6713054,42.7204687 20.9147545,43.8820469 C21.1226347,44.8734922 21.3402635,45.8954844 21.7761796,46.8480156 L21.4741078,66.9007109 C17.7833772,66.8664453 14.0931737,66.8005703 10.4117964,66.7040156 L9.23591617,53.76675 C9.20917365,53.4720391 8.94991617,53.2542266 8.65864671,53.28225 C8.36632335,53.3092109 8.1511976,53.5696562 8.17794012,53.8642344 L9.34249102,66.6754609 C7.02274251,66.6106484 4.70602395,66.5338828 2.39602395,66.4441016 C1.98790419,66.4285625 1.57359281,66.3953594 1.37546108,66.1877734 Z M42.6574731,66.3548516 C42.345521,66.7279219 41.6807784,66.7730781 41.0822994,66.7854297 C39.1349701,66.8264687 37.1831617,66.8580781 35.2287186,66.8814531 C35.3115808,62.2537344 35.8277246,57.6115391 36.7652934,53.0814375 C36.825497,52.7919062 36.6413293,52.5080859 36.3541437,52.4473906 C36.0659042,52.3872266 35.7855689,52.5730312 35.7257605,52.8624297 C34.7722515,57.4683672 34.2484671,62.1889219 34.1665269,66.8939375 C30.2963713,66.9339141 26.4162036,66.9385625 22.5361677,66.9089453 L22.8362635,47.0036719 C22.8408743,46.9917187 22.846012,46.9808281 22.8500958,46.9684766 C23.4691257,44.9725703 23.9071497,42.9066719 24.150994,40.8289531 L24.1592934,40.7568359 C24.204479,40.3687578 24.2497964,39.99675 24.3553174,39.6709609 C26.228479,41.6559766 27.9702994,43.7908047 29.5351976,46.0277656 C29.6361078,46.1725312 29.7991976,46.2546094 29.969006,46.2546094 C30.0189341,46.2546094 30.0699162,46.2478359 30.1198443,46.2326953 C30.338,46.1678828 30.4908144,45.9697266 30.4996407,45.7399609 C30.6158323,42.718875 30.4173054,39.6912812 29.9098563,36.7133594 C30.7702275,37.6300312 31.8343952,38.5332891 33.1090778,39.4287109 C33.5860958,39.7637969 34.0795808,40.0974219 34.5571257,40.4201562 C36.8136407,41.9443125 39.1468263,43.5205312 40.5074012,45.8176562 C42.0147305,48.3639375 42.183485,51.5467891 42.3327425,54.3551094 L42.8926228,64.9053359 C42.9229222,65.4833359 42.9280599,66.0295937 42.6574731,66.3548516 Z" id="Fill-13" fill="#000000"></path>
                    </g>
                </g>
            </g>
        </g>
    </g>
</svg>