<?xml version="1.0" encoding="UTF-8"?>
<svg width="35px" height="45px" viewBox="0 0 35 45" version="1.1" xmlns="http://www.w3.org/2000/svg" xmlns:xlink="http://www.w3.org/1999/xlink">
    <!-- Generator: Sketch 51.3 (57544) - http://www.bohemiancoding.com/sketch -->
    <title>brat02</title>
    <desc>Created with Sketch.</desc>
    <defs></defs>
    <g id="Page-1" stroke="none" stroke-width="1" fill="none" fill-rule="evenodd">
        <g id="legans-11" transform="translate(-68.000000, -378.000000)" fill="#106A8C">
            <g id="brat02" transform="translate(68.000000, 378.000000)">
                <path d="M14.7568006,10.0125687 C15.7656677,10.0125687 16.5869729,10.90652 16.5869729,12.0054988 C16.5869729,13.1044776 15.7656677,13.9984289 14.7568006,13.9984289 C13.7475728,13.9984289 12.9262677,13.1044776 12.9262677,12.0054988 C12.9262677,10.90652 13.7475728,10.0125687 14.7568006,10.0125687 Z M21.2431994,10.0125687 C22.2520665,10.0125687 23.0733716,10.90652 23.0733716,12.0054988 C23.0733716,13.1044776 22.2520665,13.9984289 21.2431994,13.9984289 C20.2339716,13.9984289 19.4126664,13.1044776 19.4126664,12.0054988 C19.4126664,10.90652 20.2339716,10.0125687 21.2431994,10.0125687 Z M14.7568006,14.9988217 C16.11915,14.9988217 17.2528179,13.9540456 17.4742854,12.4937156 L18.5260753,12.4937156 C18.7468214,13.9540456 19.8812107,15 21.2431994,15 C22.7635336,15 24,13.6551453 24,11.9996072 C24,10.3440691 22.7635336,9 21.2431994,9 C19.8812107,9 18.7468214,10.1111548 18.5260753,11.4945012 L17.4742854,11.4945012 C17.2528179,10.1111548 16.11915,9 14.7568006,9 C13.2368271,9 12,10.3479969 12,12.003535 C12,13.6590731 13.2368271,14.9988217 14.7568006,14.9988217 Z" id="Fill-55"></path>
                <path d="M10.1872077,6.14912696 C11.5772459,2.37685706 14.5696467,1.97635395 17.9897517,1.97635395 C21.5305302,1.97635395 24.4679406,2.36762356 25.8186453,6.13758508 C24.0547479,9.05267831 25.6636025,13.7659959 26.2268735,15.2071915 C25.1331731,19.7204498 21.8681109,24.0228766 17.9897517,24.0228766 C14.1209394,24.0228766 10.8612235,19.7396863 9.76103115,15.2375851 C10.3124639,13.8356318 11.9537782,9.08538029 10.1872077,6.14912696 Z M6.0289314,14.4939035 C6.21757944,16.8042024 7.37619917,17.8368156 8.6295248,18.0961231 C10.3880758,22.4277893 13.8696632,26 17.9897517,26 C22.1090763,26 25.5895181,22.4297129 27.3488329,18.1003551 C28.6105598,17.847588 29.7810178,16.8172832 29.9711934,14.4939035 C30.1300549,12.5533294 29.613755,11.5841965 28.8683279,11.1067476 C31.819104,7.0505475 27.5344259,4.77641314 27.3094994,4.66137911 C25.39476,0.465907073 21.6072878,0 17.9897517,0 C14.1808943,0 10.5690863,0.703284996 8.70780992,4.66060965 C8.70513677,4.65945546 8.7028455,4.65791654 8.70017235,4.6559929 C8.70017235,4.6559929 4.10120812,6.94243859 7.13103309,11.1067476 C6.38598791,11.5841965 5.86968801,12.5533294 6.0289314,14.4939035 Z" id="Fill-56"></path>
                <path d="M20.0282238,15 L15.9713869,15 C14.8825304,15 14,15.8764575 14,16.9765492 C14,17.5495873 14.460146,18 15.0277372,18 L20.9718735,18 C21.5394647,18 22,17.5495873 22,16.9765492 C22,15.8764575 21.1170803,15 20.0282238,15" id="Fill-57"></path>
                <path d="M23.942601,38.0116557 C24.0470579,36.705977 25.149059,35.5823947 26.5093114,35.5823947 C27.8687929,35.5823947 28.9707939,36.705977 29.0752508,38.0116557 L23.942601,38.0116557 Z M26.803795,25.2908049 L25.6628636,25 L17.4766803,43.3046191 L9.31092585,25 L8.18541238,25.2908049 C3.36613328,26.5195636 0,30.9287312 0,35.9885797 L0,42.6311762 C0,43.9399945 1.01026398,45 2.29573913,45 L32.6826757,45 C33.9673799,45 35,43.9399945 35,42.6311762 L35,35.9885797 C35,30.9287312 31.6230741,26.5195636 26.803795,25.2908049 Z" id="Fill-58"></path>
                <path d="M20.8178391,28.0354083 L18.8005312,28.5963371 C18.7696855,28.6040969 18.7388399,28.6111178 18.707223,28.616291 C18.3810299,28.3413694 17.9572873,28.1588274 17.491903,28.1588274 C17.0261332,28.1588274 16.6023905,28.3413694 16.276583,28.616291 C16.2453517,28.6111178 16.2141205,28.6040969 16.1832748,28.5963371 L14.1736783,28.0354083 C13.5718019,27.8702336 13,28.3036786 13,28.9045153 L13,31.0957588 C13,31.6977042 13.5729586,32.1311491 14.1767629,31.9637573 L16.2758118,31.3773318 C16.6023905,31.6559486 17.0257476,31.8288831 17.4934453,31.8414468 C17.9615286,31.8288831 18.3860423,31.6559486 18.712621,31.3773318 L20.8159112,31.9637573 C21.4189444,32.1311491 22,31.6977042 22,31.0957588 L22,28.9045153 C22,28.3036786 21.4201011,27.8702336 20.8178391,28.0354083" id="Fill-59"></path>
            </g>
        </g>
    </g>
</svg>