<?xml version="1.0" encoding="UTF-8"?>
<svg width="33px" height="45px" viewBox="0 0 33 45" version="1.1" xmlns="http://www.w3.org/2000/svg" xmlns:xlink="http://www.w3.org/1999/xlink">
    <!-- Generator: Sketch 51.3 (57544) - http://www.bohemiancoding.com/sketch -->
    <title>brat03</title>
    <desc>Created with Sketch.</desc>
    <defs></defs>
    <g id="Page-1" stroke="none" stroke-width="1" fill="none" fill-rule="evenodd">
        <g id="legans-11" transform="translate(-69.000000, -310.000000)" fill="#106A8C">
            <g id="brat03" transform="translate(69.000000, 310.000000)">
                <path d="M16.425094,24.123792 C12.3417102,24.123792 8.9735858,19.2280502 8.33381755,14.5940787 C8.63921348,12.9253397 9.58094625,9.3339556 12.2849012,6.68666737 C14.3635762,8.89280331 18.1655839,11.4329866 24.5659354,11.2161554 C24.6055873,11.7831372 24.6257945,12.3924367 24.6257945,13.0470498 C24.6257945,18.0645017 20.9675249,24.123792 16.425094,24.123792 Z M24.4946382,4.72694757 L24.4980696,4.72694757 C23.704269,3.50572718 21.9916116,2.20473987 20.9370234,1.57259636 C14.0070903,-2.58015214 10.251216,2.730153 9.81962022,3.39188143 C9.18290211,3.61545352 5.21580515,5.32988066 6.36380409,11.392167 C6.35122224,11.592895 6.34092799,11.7988659 6.33292136,12.0082073 C5.49031835,12.3913132 4.85855673,13.2796097 5.0274586,15.291384 C5.20703598,17.4237449 6.2974634,18.3843184 7.48282664,18.6329815 C9.15964475,22.6692628 12.4869735,26 16.425094,26 C20.3533016,26 23.6741488,22.685366 25.3555421,18.6625664 C26.601527,18.4693282 27.7857464,17.5211129 27.9725679,15.2917585 C28.1513827,13.160521 27.4319294,12.277842 26.5153603,11.9333088 C26.3830602,8.52168114 25.6292927,6.26723565 24.4946382,4.72694757 Z" id="Fill-39"></path>
                <path d="M11.90504,15.0001871 C11.90504,14.2826799 12.1933522,13.940582 13.8325405,13.940582 C15.4713675,13.940582 15.7604022,14.2826799 15.7604022,15.0001871 C15.7604022,15.7180687 15.4713675,16.059418 13.8325405,16.059418 C12.1933522,16.059418 11.90504,15.7180687 11.90504,15.0001871 Z M20.1670982,13.940582 C21.8059252,13.940582 22.09496,14.2826799 22.09496,15.0001871 C22.09496,15.7180687 21.8059252,16.059418 20.1670982,16.059418 C18.5279099,16.059418 18.2399591,15.7180687 18.2399591,15.0001871 C18.2399591,14.2826799 18.5279099,13.940582 20.1670982,13.940582 Z M16.6426808,14.6554693 L17.3569579,14.6554693 C17.3425062,14.7613923 17.3345577,14.8796669 17.3345577,15.0061757 C17.3345577,17.0029943 19.2476064,17 20.1670982,17 C21.08659,17 23,16.9970057 23,15.0001871 C23,13.0033686 21.08659,13 20.1670982,13 C19.5178539,13 18.3750828,13.01048 17.7579936,13.7006644 L16.2416451,13.7006644 C15.6245559,13.01048 14.4810622,13 13.8325405,13 C12.9126874,13 11,13.0018714 11,14.9990643 C11,16.9955085 12.9126874,16.9958828 13.8325405,16.9958828 C14.7520323,16.9958828 16.6654423,17.0029943 16.6654423,15.0058014 C16.6654423,14.8792926 16.6567712,14.7613923 16.6426808,14.6554693 Z" id="Fill-40"></path>
                <path d="M21.9297853,38.6291659 L24.0826123,36.2381011 C24.590211,35.6716832 25.4605431,35.6658237 25.9685221,36.2326322 L28.1205885,38.6291659 L21.9297853,38.6291659 Z M24.1031443,26 L16.4579853,43.8648204 L8.81662845,26.004297 L7.70599486,26.2941467 C3.16802433,27.4613582 0,31.6501162 0,36.456465 L0,42.7663603 C0,44.008964 0.947137376,45 2.15662914,45 L30.7646645,45 C31.9741563,45 33,44.008964 33,42.7663603 L33,36.456465 C33,31.6501162 29.7947137,27.4613582 25.2571234,26.2941467 L24.1031443,26 Z" id="Fill-41"></path>
                <path d="M19,33.740854 L17.8513165,32.5978221 C18.5770337,32.5056895 19.0844458,31.8005628 18.9070728,31.0690077 L18.399292,28.9617032 C18.2635888,28.400832 17.7598643,28 17.180913,28 L15.8198245,28 C15.2405045,28 14.73678,28.400832 14.600708,28.9617032 L14.0925584,31.0664383 C13.9155542,31.7976263 14.4229663,32.5038542 15.1486835,32.5963538 L14,33.740487 L16.5241537,40 L19,33.740854 Z" id="Fill-42"></path>
            </g>
        </g>
    </g>
</svg>