<?xml version="1.0" encoding="UTF-8"?>
<svg width="49px" height="40px" viewBox="0 0 49 40" version="1.1" xmlns="http://www.w3.org/2000/svg" xmlns:xlink="http://www.w3.org/1999/xlink">
    <!-- Generator: Sketch 51.3 (57544) - http://www.bohemiancoding.com/sketch -->
    <title>brat01</title>
    <desc>Created with Sketch.</desc>
    <defs></defs>
    <g id="Page-1" stroke="none" stroke-width="1" fill="none" fill-rule="evenodd">
        <g id="legans-11" transform="translate(-61.000000, -452.000000)" fill="#106A8C">
            <g id="brat01" transform="translate(61.000000, 452.000000)">
                <g id="Group-15-Copy-3" transform="translate(35.000000, 0.000000)">
                    <path d="M7.1571495,10.5322169 C5.41055525,10.5322169 3.96990039,8.39478284 3.69625098,6.3716352 C3.82687862,5.64307969 4.22968794,4.07511575 5.38625623,2.91933503 C6.27537218,3.88251288 7.90161287,4.99153263 10.6392485,4.8968662 C10.6562089,5.14440503 10.6648522,5.41041935 10.6648522,5.69621716 C10.6648522,7.88678868 9.1000929,10.5322169 7.1571495,10.5322169 Z M10.6087524,2.0637401 L10.6102201,2.0637401 C10.2706861,1.53056696 9.53812765,0.962568344 9.08704645,0.686580529 C6.12289173,-1.12646975 4.5163838,1.19195869 4.33177645,1.48086299 C4.05943169,1.57847243 2.36257706,2.32697493 2.85361303,4.97371114 C2.84823137,5.06134708 2.84382819,5.15127202 2.84040349,5.24266846 C2.47999516,5.40992885 2.20977045,5.79775059 2.28201519,6.676072 C2.3588262,7.60704037 2.82523699,8.02641759 3.33225487,8.13498152 C4.04948377,9.89718333 5.472689,11.3513514 7.1571495,11.3513514 C8.8373699,11.3513514 10.2578028,9.90421383 10.9769886,8.14789801 C11.5099363,8.06353206 12.016465,7.64955034 12.0963745,6.6762355 C12.1728594,5.74575762 11.8651261,5.36038838 11.4730801,5.20996848 C11.4164911,3.72048449 11.0940806,2.73621515 10.6087524,2.0637401 Z" id="Fill-39"></path>
                    <path d="M4.94006272,6.67576924 C4.94006272,6.31701562 5.06733566,6.14596668 5.7909413,6.14596668 C6.51438745,6.14596668 6.64197937,6.31701562 6.64197937,6.67576924 C6.64197937,7.03471001 6.51438745,7.20538466 5.7909413,7.20538466 C5.06733566,7.20538466 4.94006272,7.03471001 4.94006272,6.67576924 Z M8.58727759,6.14596668 C9.31072374,6.14596668 9.43831566,6.31701562 9.43831566,6.67576924 C9.43831566,7.03471001 9.31072374,7.20538466 8.58727759,7.20538466 C7.86367195,7.20538466 7.7365585,7.03471001 7.7365585,6.67576924 C7.7365585,6.31701562 7.86367195,6.14596668 8.58727759,6.14596668 Z M7.03145369,6.5034103 L7.3467652,6.5034103 C7.34038561,6.55637185 7.33687683,6.61550912 7.33687683,6.67876354 C7.33687683,7.67717282 8.18137581,7.67567567 8.58727759,7.67567567 C8.99317937,7.67567567 9.83783784,7.67417852 9.83783784,6.67576924 C9.83783784,5.67735996 8.99317937,5.67567568 8.58727759,5.67567568 C8.30067425,5.67567568 7.79620772,5.68091569 7.52379898,6.02600785 L6.8544199,6.02600785 C6.58201117,5.68091569 6.07722566,5.67567568 5.7909413,5.67567568 C5.38488003,5.67567568 4.54054054,5.67661139 4.54054054,6.67520781 C4.54054054,7.67342995 5.38488003,7.67361709 5.7909413,7.67361709 C6.19684308,7.67361709 7.04150155,7.67717282 7.04150155,6.67857639 C7.04150155,6.61532197 7.03767379,6.55637185 7.03145369,6.5034103 Z" id="Fill-40"></path>
                    <path d="M9.3035453,16.6329655 L10.2168658,15.6330039 C10.4322107,15.3961236 10.8014425,15.3936731 11.0169488,15.6307168 L11.9299467,16.6329655 L9.3035453,16.6329655 Z M10.2255764,11.3513514 L6.98217557,18.8225565 L3.74038783,11.3531484 L3.26920994,11.4743657 C1.34401032,11.9625026 0,13.7142733 0,15.7243253 L0,18.363172 C0,18.8828384 0.401815856,19.2972973 0.914933576,19.2972973 L13.0516759,19.2972973 C13.5647936,19.2972973 14,18.8828384 14,18.363172 L14,15.7243253 C14,13.7142733 12.6401816,11.9625026 10.7151433,11.4743657 L10.2255764,11.3513514 Z" id="Fill-41"></path>
                    <path d="M8.32432432,14.642359 L7.80275991,14.1377773 C8.13227476,14.0971062 8.36266726,13.785834 8.28213035,13.4628953 L8.05157041,12.5326437 C7.98995382,12.285052 7.76123568,12.1081081 7.49836052,12.1081081 L6.88035273,12.1081081 C6.61731013,12.1081081 6.388592,12.285052 6.32680796,12.5326437 L6.09608059,13.461761 C6.01571112,13.7845377 6.24610362,14.096296 6.57561847,14.1371292 L6.05405405,14.642197 L7.20015627,17.4054054 L8.32432432,14.642359 Z" id="Fill-42"></path>
                </g>
                <g id="Group-15-Copy-5">
                    <path d="M7.1571495,10.5322169 C5.41055525,10.5322169 3.96990039,8.39478284 3.69625098,6.3716352 C3.82687862,5.64307969 4.22968794,4.07511575 5.38625623,2.91933503 C6.27537218,3.88251288 7.90161287,4.99153263 10.6392485,4.8968662 C10.6562089,5.14440503 10.6648522,5.41041935 10.6648522,5.69621716 C10.6648522,7.88678868 9.1000929,10.5322169 7.1571495,10.5322169 Z M10.6087524,2.0637401 L10.6102201,2.0637401 C10.2706861,1.53056696 9.53812765,0.962568344 9.08704645,0.686580529 C6.12289173,-1.12646975 4.5163838,1.19195869 4.33177645,1.48086299 C4.05943169,1.57847243 2.36257706,2.32697493 2.85361303,4.97371114 C2.84823137,5.06134708 2.84382819,5.15127202 2.84040349,5.24266846 C2.47999516,5.40992885 2.20977045,5.79775059 2.28201519,6.676072 C2.3588262,7.60704037 2.82523699,8.02641759 3.33225487,8.13498152 C4.04948377,9.89718333 5.472689,11.3513514 7.1571495,11.3513514 C8.8373699,11.3513514 10.2578028,9.90421383 10.9769886,8.14789801 C11.5099363,8.06353206 12.016465,7.64955034 12.0963745,6.6762355 C12.1728594,5.74575762 11.8651261,5.36038838 11.4730801,5.20996848 C11.4164911,3.72048449 11.0940806,2.73621515 10.6087524,2.0637401 Z" id="Fill-39"></path>
                    <path d="M4.94006272,6.67576924 C4.94006272,6.31701562 5.06733566,6.14596668 5.7909413,6.14596668 C6.51438745,6.14596668 6.64197937,6.31701562 6.64197937,6.67576924 C6.64197937,7.03471001 6.51438745,7.20538466 5.7909413,7.20538466 C5.06733566,7.20538466 4.94006272,7.03471001 4.94006272,6.67576924 Z M8.58727759,6.14596668 C9.31072374,6.14596668 9.43831566,6.31701562 9.43831566,6.67576924 C9.43831566,7.03471001 9.31072374,7.20538466 8.58727759,7.20538466 C7.86367195,7.20538466 7.7365585,7.03471001 7.7365585,6.67576924 C7.7365585,6.31701562 7.86367195,6.14596668 8.58727759,6.14596668 Z M7.03145369,6.5034103 L7.3467652,6.5034103 C7.34038561,6.55637185 7.33687683,6.61550912 7.33687683,6.67876354 C7.33687683,7.67717282 8.18137581,7.67567567 8.58727759,7.67567567 C8.99317937,7.67567567 9.83783784,7.67417852 9.83783784,6.67576924 C9.83783784,5.67735996 8.99317937,5.67567568 8.58727759,5.67567568 C8.30067425,5.67567568 7.79620772,5.68091569 7.52379898,6.02600785 L6.8544199,6.02600785 C6.58201117,5.68091569 6.07722566,5.67567568 5.7909413,5.67567568 C5.38488003,5.67567568 4.54054054,5.67661139 4.54054054,6.67520781 C4.54054054,7.67342995 5.38488003,7.67361709 5.7909413,7.67361709 C6.19684308,7.67361709 7.04150155,7.67717282 7.04150155,6.67857639 C7.04150155,6.61532197 7.03767379,6.55637185 7.03145369,6.5034103 Z" id="Fill-40"></path>
                    <path d="M9.3035453,16.6329655 L10.2168658,15.6330039 C10.4322107,15.3961236 10.8014425,15.3936731 11.0169488,15.6307168 L11.9299467,16.6329655 L9.3035453,16.6329655 Z M10.2255764,11.3513514 L6.98217557,18.8225565 L3.74038783,11.3531484 L3.26920994,11.4743657 C1.34401032,11.9625026 0,13.7142733 0,15.7243253 L0,18.363172 C0,18.8828384 0.401815856,19.2972973 0.914933576,19.2972973 L13.0516759,19.2972973 C13.5647936,19.2972973 14,18.8828384 14,18.363172 L14,15.7243253 C14,13.7142733 12.6401816,11.9625026 10.7151433,11.4743657 L10.2255764,11.3513514 Z" id="Fill-41"></path>
                    <path d="M8.32432432,14.642359 L7.80275991,14.1377773 C8.13227476,14.0971062 8.36266726,13.785834 8.28213035,13.4628953 L8.05157041,12.5326437 C7.98995382,12.285052 7.76123568,12.1081081 7.49836052,12.1081081 L6.88035273,12.1081081 C6.61731013,12.1081081 6.388592,12.285052 6.32680796,12.5326437 L6.09608059,13.461761 C6.01571112,13.7845377 6.24610362,14.096296 6.57561847,14.1371292 L6.05405405,14.642197 L7.20015627,17.4054054 L8.32432432,14.642359 Z" id="Fill-42"></path>
                </g>
                <g id="Group-15-Copy-4" transform="translate(13.000000, 8.000000)">
                    <path d="M11.7581742,17.3029278 C8.88876934,17.3029278 6.52197921,13.791429 6.07241233,10.4676864 C6.28701488,9.27077378 6.94877304,6.69483302 8.84884952,4.7960504 C10.30954,6.37841401 12.9812211,8.20037504 17.4787654,8.04485161 C17.5066289,8.45152255 17.5208286,8.88854607 17.5208286,9.35807104 C17.5208286,12.9568671 14.9501526,17.3029278 11.7581742,17.3029278 Z M17.4286647,3.39043017 L17.4310759,3.39043017 C16.8732701,2.51450287 15.6697811,1.58136228 14.9287192,1.12795373 C10.0590364,-1.85062888 7.41977338,1.95821785 7.11648989,2.43284635 C6.66906635,2.59320471 3.88137659,3.82288738 4.68807855,8.17109688 C4.67923725,8.31507021 4.67200345,8.46280404 4.66637717,8.61295533 C4.07427776,8.88774025 3.63033716,9.52487597 3.74902496,10.9678326 C3.87521447,12.4972806 4.64146077,13.1862575 5.47441872,13.3646125 C6.65272333,16.2596583 8.99084621,18.6486486 11.7581742,18.6486486 C14.5185363,18.6486486 16.8521045,16.2712084 18.0336242,13.3858324 C18.9091811,13.2472312 19.7413353,12.5671184 19.8726153,10.9681012 C19.998269,9.43945895 19.4927071,8.80635234 18.8486316,8.55923394 C18.7556639,6.11222452 18.2259895,4.4952106 17.4286647,3.39043017 Z" id="Fill-39"></path>
                    <path d="M8.11581733,10.8785238 C8.11581733,10.3210013 8.32490858,10.055182 9.51368928,10.055182 C10.702208,10.055182 10.9118232,10.3210013 10.9118232,10.8785238 C10.9118232,11.4363371 10.702208,11.7015748 9.51368928,11.7015748 C8.32490858,11.7015748 8.11581733,11.4363371 8.11581733,10.8785238 Z M14.1076703,10.055182 C15.296189,10.055182 15.5058043,10.3210013 15.5058043,10.8785238 C15.5058043,11.4363371 15.296189,11.7015748 14.1076703,11.7015748 C12.9188896,11.7015748 12.7100604,11.4363371 12.7100604,10.8785238 C12.7100604,10.3210013 12.9188896,10.055182 14.1076703,10.055182 Z M11.5516739,10.6106687 L12.0696857,10.6106687 C12.0592049,10.6929738 12.0534405,10.7848763 12.0534405,10.8831771 C12.0534405,12.4347591 13.4408317,12.4324324 14.1076703,12.4324324 C14.774509,12.4324324 16.1621622,12.4301058 16.1621622,10.8785238 C16.1621622,9.3269418 14.774509,9.32432432 14.1076703,9.32432432 C13.636822,9.32432432 12.8080555,9.33246758 12.3605269,9.86875947 L11.2608327,9.86875947 C10.8133041,9.33246758 9.98401358,9.32432432 9.51368928,9.32432432 C8.84658863,9.32432432 7.45945946,9.32577848 7.45945946,10.8776513 C7.45945946,12.4289425 8.84658863,12.4292333 9.51368928,12.4292333 C10.1805279,12.4292333 11.5681811,12.4347591 11.5681811,10.8828862 C11.5681811,10.7845855 11.5618927,10.6929738 11.5516739,10.6106687 Z" id="Fill-40"></path>
                    <path d="M15.2843958,27.3255862 L16.784851,25.6827921 C17.1386319,25.2936316 17.745227,25.2896058 18.099273,25.6790347 L19.5991981,27.3255862 L15.2843958,27.3255862 Z M16.7991612,18.6486486 L11.470717,30.9227713 L6.14492286,18.6516009 L5.3708449,18.8507437 C2.20801696,19.6526828 0,22.5305919 0,25.8328202 L0,30.1680683 C0,31.021806 0.66012605,31.7027027 1.50310516,31.7027027 L21.4420389,31.7027027 C22.285018,31.7027027 23,31.021806 23,30.1680683 L23,25.8328202 C23,22.5305919 20.7660126,19.6526828 17.6034497,18.8507437 L16.7991612,18.6486486 Z" id="Fill-41"></path>
                    <path d="M13.6756757,24.055304 L12.8188199,23.2263485 C13.3601657,23.1595315 13.7386676,22.6481559 13.606357,22.1176137 L13.22758,20.5893433 C13.1263527,20.1825854 12.7506015,19.8918919 12.3187351,19.8918919 L11.3034366,19.8918919 C10.8712952,19.8918919 10.495544,20.1825854 10.3940417,20.5893433 L10.0149895,22.1157503 C9.88295398,22.6460263 10.2614559,23.1582005 10.8028018,23.2252836 L9.94594595,24.0550378 L11.8288282,28.5945946 L13.6756757,24.055304 Z" id="Fill-42"></path>
                </g>
            </g>
        </g>
    </g>
</svg>