<?xml version="1.0" encoding="UTF-8"?>
<svg width="30px" height="38px" viewBox="0 0 30 38" version="1.1" xmlns="http://www.w3.org/2000/svg" xmlns:xlink="http://www.w3.org/1999/xlink">
    <!-- Generator: Sketch 51.3 (57544) - http://www.bohemiancoding.com/sketch -->
    <title>brat04</title>
    <desc>Created with Sketch.</desc>
    <defs></defs>
    <g id="Page-1" stroke="none" stroke-width="1" fill="none" fill-rule="evenodd">
        <g id="legans-11" transform="translate(-71.000000, -243.000000)" fill="#106A8C" fill-rule="nonzero">
            <g id="brat04" transform="translate(70.467742, 242.859155)">
                <g id="Mask" transform="translate(0.532258, 0.140845)">
                    <path d="M14.9307052,28.2073489 C14.4658154,28.2073489 14.0892649,27.8554508 14.0892649,27.4217085 C14.0892649,26.9879662 14.4658154,26.6357496 14.9307052,26.6357496 C15.3952539,26.6357496 15.7721455,26.9879662 15.7721455,27.4217085 C15.7721455,27.8554508 15.3952539,28.2073489 14.9307052,28.2073489 Z M14.9307052,32.0078484 C14.4658154,32.0078484 14.0892649,31.6562687 14.0892649,31.222208 C14.0892649,30.7884657 14.4658154,30.4368861 14.9307052,30.4368861 C15.3952539,30.4368861 15.7721455,30.7884657 15.7721455,31.222208 C15.7721455,31.6562687 15.3952539,32.0078484 14.9307052,32.0078484 Z M14.9307052,35.8089848 C14.4658154,35.8089848 14.0892649,35.4567683 14.0892649,35.0233445 C14.0892649,34.5892837 14.4658154,34.2377041 14.9307052,34.2377041 C15.3952539,34.2377041 15.7721455,34.5892837 15.7721455,35.0233445 C15.7721455,35.4567683 15.3952539,35.8089848 14.9307052,35.8089848 Z M21.8740374,21.6760563 L21.876766,21.6792409 L19.6894305,25.9163489 C19.5707352,26.1475507 19.3282285,26.3016853 19.0546836,26.3211113 C18.7807977,26.3402189 18.516462,26.2220703 18.3616124,26.0102945 L16.6074464,23.6161136 C16.5139909,23.4887297 16.3639165,23.4068855 16.1988345,23.3938286 C16.0334115,23.3810902 15.8710582,23.438413 15.7561148,23.549237 L15.3273793,23.9638717 C15.2236915,24.064505 15.0804386,24.1215093 14.9310463,24.1215093 C14.7816539,24.1215093 14.63806,24.064505 14.5347132,23.9641902 L14.1052956,23.549237 C13.9903522,23.4377761 13.8279989,23.3810902 13.6625759,23.3938286 C13.4974939,23.4068855 13.3477605,23.4887297 13.253964,23.6161136 L11.5001391,26.0102945 C11.3449484,26.2220703 11.0806127,26.3402189 10.8067267,26.3211113 C10.5331819,26.3016853 10.2910163,26.1475507 10.1719799,25.9163489 L7.9846444,21.6792409 L7.9877141,21.6760563 L6.98971882,21.9066213 C2.88893371,22.8651853 0,26.3055068 0,30.2521794 L0,35.4344761 C0,36.4554583 0.911361377,37.2828169 2.00451752,37.2828169 L27.8572339,37.2828169 C28.9497079,37.2828169 29.8344652,36.4554583 29.8344652,35.4344761 L29.8344652,30.2521794 C29.8344652,26.3055068 26.9588335,22.8651853 22.8577073,21.9066213 L21.8740374,21.6760563 Z" id="Fill-34"></path>
                    <path d="M7.45528642,10.060938 C13.2317172,10.0352145 16.7190636,7.71482345 18.6659828,5.68728447 C20.705971,7.64721684 21.7242542,10.1453638 22.2224466,11.9255615 C21.8323784,16.1755445 18.6909609,20.8789864 14.8491315,20.8789864 C10.7421241,20.8789864 7.43509868,15.5034357 7.43509868,11.0522819 C7.43509868,10.7073233 7.44194198,10.3778647 7.45528642,10.060938 Z M5.72598415,10.1318425 C4.96364037,10.4711948 4.39256686,11.2583996 4.54517248,13.0432144 C4.7066744,14.9348806 5.69347846,15.7870537 6.76445514,16.008012 C8.2812729,19.5881947 11.2889039,22.5430986 14.8491315,22.5430986 C18.4008049,22.5430986 21.4029612,19.6023756 22.9228585,16.0340652 C24.0496081,15.8622455 25.1199004,15.0206255 25.2892721,13.0432144 C25.417584,11.543007 25.0347013,10.7475574 24.4567845,10.3300453 C25.7583804,3.87608666 21.126834,2.58430555 21.126834,2.58430555 C21.126834,2.58430555 16.800841,-2.41330763 9.17261291,1.49105706 C7.67700938,2.25682569 6.15711214,3.84871422 5.15251549,5.80633807 C5.00949049,6.08467947 5.04541782,6.41710616 5.24387356,6.66147935 C5.44301363,6.90585255 5.76978127,7.01896996 6.08457314,6.95103356 C5.219922,8.77146544 5.72974796,10.0207038 5.72598415,10.1318425 Z" id="Fill-35"></path>
                </g>
            </g>
        </g>
    </g>
</svg>