<?xml version="1.0" encoding="UTF-8"?>
<svg width="14px" height="12px" viewBox="0 0 14 12" version="1.1" xmlns="http://www.w3.org/2000/svg" xmlns:xlink="http://www.w3.org/1999/xlink">
    <!-- Generator: Sketch 51.3 (57544) - http://www.bohemiancoding.com/sketch -->
    <title>next (2)</title>
    <desc>Created with Sketch.</desc>
    <defs></defs>
    <g id="Page-1" stroke="none" stroke-width="1" fill="none" fill-rule="evenodd">
        <g id="legans-24" transform="translate(-317.000000, -2417.000000)" fill="#3A3A3A" fill-rule="nonzero">
            <g id="next-(2)" transform="translate(317.000000, 2417.000000)">
                <path d="M13.8582213,5.21020902 L7.67584426,0.115127049 C7.56109016,0.020454918 7.40043443,0.00037295082 7.26559836,0.0634877049 C7.1307623,0.126602459 7.04469672,0.264307377 7.04469672,0.413487705 L7.04469672,3.09873361 C4.04387705,3.20775 1.98117213,4.26635656 0.908221311,6.24873361 C-0.0155491803,7.95856967 -0.00694262295,9.98397951 0.00166393443,11.3237336 C0.00166393443,11.43275 0.00166393443,11.5360287 0.00166393443,11.6335697 C0.00166393443,11.8085697 0.119286885,11.9634877 0.291418033,12.0093893 C0.32297541,12.0179959 0.357401639,12.0208648 0.388959016,12.0208648 C0.526663934,12.0208648 0.655762295,11.9491434 0.724614754,11.8257828 C2.81887705,8.13356967 4.54305738,7.95570082 7.04182787,7.94709426 L7.04182787,10.6237336 C7.04182787,10.7729139 7.12789344,10.9106189 7.26559836,10.9737336 C7.40330328,11.0368484 7.56109016,11.0167664 7.67871311,10.9220943 L13.8582213,5.80979918 C13.9471557,5.73520902 13.9987951,5.62619262 13.9987951,5.51143852 C13.9987951,5.39668443 13.9471557,5.28479918 13.8582213,5.21020902 Z M7.81928689,9.80037295 L7.81928689,7.55979918 C7.81928689,7.45652049 7.77912295,7.35897951 7.70453279,7.2872582 C7.63281148,7.21553689 7.53240164,7.1725041 7.4319918,7.1725041 C5.87133607,7.1725041 4.67502459,7.21553689 3.51313934,7.75775 C2.50904098,8.22537295 1.63977869,9.02004508 0.781991803,10.2679959 C0.816418033,9.12906148 0.965598361,7.76922541 1.58813934,6.61881557 C2.57502459,4.79422541 4.48568033,3.89053689 7.4319918,3.86471721 C7.64428689,3.86184836 7.81641803,3.68971721 7.81641803,3.47742213 L7.81641803,1.23397951 L13.0004344,5.51143852 L7.81928689,9.80037295 Z" id="Shape"></path>
            </g>
        </g>
    </g>
</svg>