<?xml version="1.0" encoding="UTF-8"?>
<svg width="9px" height="12px" viewBox="0 0 9 12" version="1.1" xmlns="http://www.w3.org/2000/svg" xmlns:xlink="http://www.w3.org/1999/xlink">
    <!-- Generator: Sketch 51.3 (57544) - http://www.bohemiancoding.com/sketch -->
    <title>B</title>
    <desc>Created with Sketch.</desc>
    <defs></defs>
    <g id="Page-1" stroke="none" stroke-width="1" fill="none" fill-rule="evenodd">
        <g id="legans-24" transform="translate(-368.000000, -2417.000000)" fill="#3A3A3A">
            <path d="M368.488,2429 L368.488,2417.704 L372.44,2417.704 C373.421338,2417.704 374.21333,2417.96 374.816,2418.472 C375.41867,2418.984 375.72,2419.688 375.72,2420.584 C375.72,2421.128 375.594668,2421.61333 375.344,2422.04 C375.093332,2422.46667 374.749336,2422.792 374.312,2423.016 L374.312,2423.048 C374.89867,2423.21867 375.357332,2423.55466 375.688,2424.056 C376.018668,2424.55734 376.184,2425.13333 376.184,2425.784 C376.184,2426.80801 375.837337,2427.6 375.144,2428.16 C374.450663,2428.72 373.581339,2429 372.536,2429 L368.488,2429 Z M370.072,2422.456 L372.44,2422.456 C372.941336,2422.456 373.343998,2422.296 373.648,2421.976 C373.952002,2421.656 374.104,2421.24534 374.104,2420.744 C374.104,2420.24266 373.954668,2419.84 373.656,2419.536 C373.357332,2419.232 372.946669,2419.08 372.424,2419.08 L370.072,2419.08 L370.072,2422.456 Z M370.072,2427.624 L372.616,2427.624 C373.213336,2427.624 373.685332,2427.448 374.032,2427.096 C374.378668,2426.744 374.552,2426.27467 374.552,2425.688 C374.552,2425.112 374.376002,2424.648 374.024,2424.296 C373.671998,2423.944 373.20267,2423.768 372.616,2423.768 L370.072,2423.768 L370.072,2427.624 Z" id="B"></path>
        </g>
    </g>
</svg>