<?xml version="1.0" encoding="UTF-8"?>
<svg width="10px" height="13px" viewBox="0 0 10 13" version="1.1" xmlns="http://www.w3.org/2000/svg" xmlns:xlink="http://www.w3.org/1999/xlink">
    <!-- Generator: Sketch 51.3 (57544) - http://www.bohemiancoding.com/sketch -->
    <title>Combined Shape</title>
    <desc>Created with Sketch.</desc>
    <defs></defs>
    <g id="Page-1" stroke="none" stroke-width="1" fill="none" fill-rule="evenodd">
        <g id="legans-24" transform="translate(-465.000000, -2418.000000)" fill="#3A3A3A">
            <path d="M466,2424.384 L466,2418 L467.386,2418 L467.386,2424.37 C467.386,2425.126 467.612331,2425.71633 468.065,2426.141 C468.517669,2426.56567 469.126663,2426.778 469.892,2426.778 C470.657337,2426.778 471.263998,2426.56567 471.712,2426.141 C472.160002,2425.71633 472.384,2425.12134 472.384,2424.356 L472.384,2418 L473.77,2418 L473.77,2424.384 C473.77,2425.48534 473.415337,2426.372 472.706,2427.044 C471.996663,2427.716 471.063339,2428.052 469.906,2428.052 C468.739328,2428.052 467.79667,2427.716 467.078,2427.044 C466.35933,2426.372 466,2425.48534 466,2424.384 Z M465,2430 L475,2430 L475,2431 L465,2431 L465,2430 Z" id="Combined-Shape"></path>
        </g>
    </g>
</svg>