<?xml version="1.0" encoding="UTF-8"?>
<svg width="15px" height="9px" viewBox="0 0 15 9" version="1.1" xmlns="http://www.w3.org/2000/svg" xmlns:xlink="http://www.w3.org/1999/xlink">
    <!-- Generator: Sketch 51.3 (57544) - http://www.bohemiancoding.com/sketch -->
    <title>link-button</title>
    <desc>Created with Sketch.</desc>
    <defs></defs>
    <g id="Page-1" stroke="none" stroke-width="1" fill="none" fill-rule="evenodd">
        <g id="legans-24" transform="translate(-512.000000, -2418.000000)" fill="#3A3A3A" fill-rule="nonzero">
            <g id="link-button" transform="translate(512.000000, 2418.000000)">
                <path d="M4.5,5.25 L10.5,5.25 L10.5,3.75 L4.5,3.75 L4.5,5.25 Z M1.425,4.5 C1.425,2.775 2.775,1.425 4.5,1.425 L6.75,1.425 L6.75,0 L4.5,0 C2.025,0 0,2.025 0,4.5 C0,6.975 2.025,9 4.5,9 L6.75,9 L6.75,7.575 L4.5,7.575 C2.775,7.575 1.425,6.225 1.425,4.5 Z M10.5,0 L8.25,0 L8.25,1.425 L10.5,1.425 C12.225,1.425 13.575,2.775 13.575,4.5 C13.575,6.225 12.2250294,7.575 10.5,7.575 L8.25,7.575 L8.25,9 L10.5,9 C12.975,9 15,6.975 15,4.5 C15,2.025 12.975,0 10.5,0 Z" id="Shape"></path>
            </g>
        </g>
    </g>
</svg>