<?xml version="1.0" encoding="UTF-8"?>
<svg width="14px" height="12px" viewBox="0 0 14 12" version="1.1" xmlns="http://www.w3.org/2000/svg" xmlns:xlink="http://www.w3.org/1999/xlink">
    <!-- Generator: Sketch 51.3 (57544) - http://www.bohemiancoding.com/sketch -->
    <title>Shape</title>
    <desc>Created with Sketch.</desc>
    <defs></defs>
    <g id="Page-1" stroke="none" stroke-width="1" fill="none" fill-rule="evenodd">
        <g id="legans-24" transform="translate(-267.000000, -2417.000000)" fill="#3A3A3A" fill-rule="nonzero">
            <path d="M280.859416,2422.21021 L274.677039,2417.11513 C274.562285,2417.02045 274.401629,2417.00037 274.266793,2417.06349 C274.131957,2417.1266 274.045891,2417.26431 274.045891,2417.41349 L274.045891,2420.09873 C271.045072,2420.20775 268.982367,2421.26636 267.909416,2423.24873 C266.985646,2424.95857 266.994252,2426.98398 267.002859,2428.32373 C267.002859,2428.43275 267.002859,2428.53603 267.002859,2428.63357 C267.002859,2428.80857 267.120482,2428.96349 267.292613,2429.00939 C267.32417,2429.018 267.358596,2429.02086 267.390154,2429.02086 C267.527859,2429.02086 267.656957,2428.94914 267.72581,2428.82578 C269.820072,2425.13357 271.544252,2424.9557 274.043023,2424.94709 L274.043023,2427.62373 C274.043023,2427.77291 274.129088,2427.91062 274.266793,2427.97373 C274.404498,2428.03685 274.562285,2428.01677 274.679908,2427.92209 L280.859416,2422.8098 C280.948351,2422.73521 280.99999,2422.62619 280.99999,2422.51144 C280.99999,2422.39668 280.948351,2422.2848 280.859416,2422.21021 Z M274.820482,2426.80037 L274.820482,2424.5598 C274.820482,2424.45652 274.780318,2424.35898 274.705728,2424.28726 C274.634006,2424.21554 274.533596,2424.1725 274.433187,2424.1725 C272.872531,2424.1725 271.676219,2424.21554 270.514334,2424.75775 C269.510236,2425.22537 268.640973,2426.02005 267.783187,2427.268 C267.817613,2426.12906 267.966793,2424.76923 268.589334,2423.61882 C269.576219,2421.79423 271.486875,2420.89054 274.433187,2420.86472 C274.645482,2420.86185 274.817613,2420.68972 274.817613,2420.47742 L274.817613,2418.23398 L280.001629,2422.51144 L274.820482,2426.80037 Z" id="Shape" transform="translate(274.000597, 2423.023979) scale(-1, 1) translate(-274.000597, -2423.023979) "></path>
        </g>
    </g>
</svg>