<?xml version="1.0" encoding="UTF-8"?>
<svg width="115px" height="31px" viewBox="0 0 115 31" version="1.1" xmlns="http://www.w3.org/2000/svg" xmlns:xlink="http://www.w3.org/1999/xlink">
    <!-- Generator: Sketch 51.3 (57544) - http://www.bohemiancoding.com/sketch -->
    <title>Group 3</title>
    <desc>Created with Sketch.</desc>
    <defs></defs>
    <g id="Symbols" stroke="none" stroke-width="1" fill="none" fill-rule="evenodd" opacity="0.533482143">
        <g id="ащщеук" transform="translate(-259.000000, -161.000000)">
            <g id="Group-7">
                <g id="Group-3" transform="translate(259.000000, 161.000000)">
                    <g id="Group" transform="translate(0.000000, 12.000000)" fill="#FFFFFF">
                        <path d="M63.0766821,18.1847273 L62.0513757,15.8575152 L54.5694104,15.8575152 L53.544104,18.1847273 L49.5260116,18.1847273 L57.7007514,0 L58.9477457,0 L67.0947746,18.1847273 L63.0766821,18.1847273 Z M60.7489595,12.8537879 L58.3103931,6.81927273 L55.8718266,12.8537879 L60.7489595,12.8537879 Z M81.4213526,0.324727273 L85.1623353,0.324727273 L85.1623353,18.5094545 L83.915341,18.5094545 L73.3297457,7.46872727 L73.3297457,18.1847273 L69.588763,18.1847273 L69.588763,0 L70.8080462,0 L81.4213526,10.9866061 L81.4213526,0.324727273 Z M88.0719884,14.5586061 L90.6491098,12.6643636 C91.8406821,14.2609394 93.1430983,15.2621818 95.138289,15.2621818 C96.773237,15.2621818 97.7431214,14.5044848 97.7431214,13.2867576 C97.7431214,12.2313939 97.1611908,11.8525455 95.4153988,11.0677879 L93.4479191,10.2018485 C90.6491098,8.98412121 89.0141618,7.44166667 89.0141618,5.06033333 C89.0141618,2.00248485 91.6189942,0 95.0828671,0 C97.8816763,0 99.987711,1.3259697 101.123861,3.38257576 L98.5744509,5.30387879 C97.6322775,3.92378788 96.4684162,3.24727273 95.0828671,3.24727273 C93.7804509,3.24727273 92.8105665,3.86966667 92.8105665,4.97915152 C92.8105665,5.92627273 93.3924971,6.35924242 94.9443121,7.03575758 L97.0226358,7.92875758 C100.098555,9.25472727 101.539526,10.7430606 101.539526,13.1514545 C101.539526,16.4257879 98.7961387,18.5094545 95.138289,18.5094545 C92.034659,18.5094545 89.4852486,16.967 88.0719884,14.5586061 Z" id="ANS"></path>
                        <path d="M0,18.1858862 L0,0.325886207 L3.74098266,0.325886207 L3.74098266,14.8844923 L11.7494566,14.8844923 L11.7494566,18.1858862 L0,18.1858862 Z M14.5205549,18.1858862 L14.5205549,0.325886207 L26.8242312,0.325886207 L26.8242312,3.62728015 L18.2615376,3.62728015 L18.2615376,7.25340136 L24.5519306,7.25340136 L24.5519306,10.3653711 L18.2615376,10.3653711 L18.2615376,14.8844923 L27.156763,14.8844923 L27.156763,18.1858862 L14.5205549,18.1858862 Z M29.3459306,9.25588621 C29.2350867,4.11437106 33.7242659,-0.080022884 39.1279075,0.00115893413 C42.3423815,0.00115893413 45.0580578,1.40831045 46.8315607,3.8708256 L44.1713064,6.00861348 C42.8688902,4.24967409 41.1785202,3.38373469 39.0724855,3.38373469 C35.5809017,3.38373469 33.1977572,5.84624984 33.1977572,9.25588621 C33.1977572,12.7196438 35.6640347,15.2362801 39.2941734,15.2362801 C41.4002081,15.2362801 43.090578,14.3974014 44.1158844,13.0173104 L44.1158844,11.5560377 L39.0724855,11.5560377 L39.0724855,8.38994681 L47.8568671,8.38994681 L47.8568671,13.666765 C47.0255376,15.1009771 45.8339653,16.2916438 44.2821503,17.1846438 C42.7580462,18.0776438 41.0399653,18.5106135 39.1279075,18.5106135 C33.7519769,18.6188559 29.2627977,14.3703408 29.3459306,9.25588621 Z" id="LEG"></path>
                    </g>
                    <g id="Group-2" transform="translate(102.000000, 0.000000)">
                        <circle id="Oval" fill="#FFFFFF" fill-rule="nonzero" cx="6.5" cy="6.5" r="6.5"></circle>
                        <path d="M2.29411765,6.73870418 L2.29411765,4.0230179 L3.47753659,4.0230179 L3.47753659,6.84654731 C3.47753659,7.40537084 3.81941317,7.77791986 4.30154681,7.77791986 C4.75738226,7.77791986 5.10802491,7.40537084 5.10802491,6.84654731 L5.10802491,4.0230179 L6.29144385,4.0230179 L6.29144385,6.73870418 C6.29144385,8.09164535 5.43236936,8.99360614 4.30154681,8.99360614 C3.14442607,8.99360614 2.29411765,8.09164535 2.29411765,6.73870418 Z M8.91038171,7.84886461 L11.0882353,7.84886461 L11.0882353,8.99360614 L7.09090909,8.99360614 L7.09090909,8.63210881 L9.26876268,5.16775944 L7.30226197,5.16775944 L7.30226197,4.0230179 L11.0698568,4.0230179 L11.0698568,4.38451523 L8.91038171,7.84886461 Z" id="uz" fill="#1A2739"></path>
                    </g>
                </g>
            </g>
        </g>
    </g>
</svg>