<?xml version="1.0" encoding="UTF-8"?>
<svg width="32px" height="33px" viewBox="0 0 32 33" version="1.1" xmlns="http://www.w3.org/2000/svg" xmlns:xlink="http://www.w3.org/1999/xlink">
    <!-- Generator: Sketch 51.3 (57544) - http://www.bohemiancoding.com/sketch -->
    <title>Combined Shape</title>
    <desc>Created with Sketch.</desc>
    <defs></defs>
    <g id="Symbols" stroke="none" stroke-width="1" fill="none" fill-rule="evenodd">
        <g id="ащщеук" transform="translate(-1254.000000, -178.000000)" fill="#414D6A">
            <g id="Group-7">
                <g id="Group-22" transform="translate(1157.000000, 177.000000)">
                    <g id="Group-58" transform="translate(50.000000, 0.500000)">
                        <path d="M79,17 C79,25.836204 71.836204,33 63,33 C54.163796,33 47,25.836204 47,17 C47,8.16379598 54.163796,1 63,1 C71.836204,1 79,8.16379598 79,17 Z M67.5977182,17.4804569 L67.9914802,13.78664 L64.6313528,13.78664 L64.6313528,11.6100097 C64.6313528,10.7945802 65.1884724,10.6027355 65.5851978,10.6027355 L68,10.6027355 L68,7.01398494 L64.6720996,7 C60.9763669,7 60.1373537,9.67972952 60.1373537,11.3901952 L60.1373537,13.782337 L58,13.782337 L58,17.4804569 L60.1373537,17.4804569 L60.1373537,28 L64.6313528,28 L64.6313528,17.4804569 L67.5977182,17.4804569 Z" id="Combined-Shape"></path>
                    </g>
                </g>
            </g>
        </g>
    </g>
</svg>