<?xml version="1.0" encoding="UTF-8"?>
<svg width="39px" height="39px" viewBox="0 0 39 39" version="1.1" xmlns="http://www.w3.org/2000/svg" xmlns:xlink="http://www.w3.org/1999/xlink">
    <!-- Generator: Sketch 51.3 (57544) - http://www.bohemiancoding.com/sketch -->
    <title>Group 7</title>
    <desc>Created with Sketch.</desc>
    <defs></defs>
    <g id="Page-1" stroke="none" stroke-width="1" fill="none" fill-rule="evenodd">
        <g id="legans-10" transform="translate(-1017.000000, -338.000000)" fill="#43619C">
            <g id="Group-9" transform="translate(516.000000, 225.000000)">
                <g id="CIRCLE-COLOR" transform="translate(501.000000, 113.000000)">
                    <g id="Group-7">
                        <path d="M19.5,39 C8.74747884,39 0,30.2524103 0,19.5002471 C0,8.74758967 8.74747884,0 19.5,0 C30.2525212,0 39,8.74758967 39,19.5002471 C39,30.2524103 30.2525212,39 19.5,39 L19.5,39 Z M19.5,1.48230733 C9.56471393,1.48230733 1.48228855,9.56483511 1.48228855,19.5002471 C1.48228855,29.4351649 9.56471393,37.5176927 19.5,37.5176927 C29.434792,37.5176927 37.5177114,29.4351649 37.5177114,19.5002471 C37.5177114,9.56483511 29.434792,1.48230733 19.5,1.48230733 L19.5,1.48230733 Z" id="Facebook-Circle"></path>
                        <path d="M28,27.0066193 C28,27.5552832 27.5552832,28 27.0066193,28 L22.4197107,28 L22.4197107,21.0296641 L24.7594999,21.0296641 L25.110076,18.3128218 L22.4197107,18.3128218 L22.4197107,16.5785732 C22.4197107,15.7921059 22.6383918,15.2561902 23.7661191,15.2561902 L25.204707,15.2552096 L25.204707,12.8256926 C24.9561167,12.7923511 24.1019858,12.7188036 23.1086051,12.7188036 C21.0345673,12.7188036 19.6146114,13.9848002 19.6146114,16.3093896 L19.6146114,18.3128218 L17.2689385,18.3128218 L17.2689385,21.0296641 L19.6146114,21.0296641 L19.6146114,28 L10.9933807,28 C10.4447168,28 10,27.5552832 10,27.0066193 L10,10.9933807 C10,10.4447168 10.4447168,10 10.9933807,10 L27.0066193,10 C27.5552832,10 28,10.4447168 28,10.9933807 L28,27.0066193" id="Facebook"></path>
                    </g>
                </g>
            </g>
        </g>
    </g>
</svg>