<?xml version="1.0" encoding="UTF-8"?>
<svg width="54px" height="54px" viewBox="0 0 54 54" version="1.1" xmlns="http://www.w3.org/2000/svg" xmlns:xlink="http://www.w3.org/1999/xlink">
    <!-- Generator: Sketch 51.3 (57544) - http://www.bohemiancoding.com/sketch -->
    <title>happiness</title>
    <desc>Created with Sketch.</desc>
    <defs></defs>
    <g id="Symbols" stroke="none" stroke-width="1" fill="none" fill-rule="evenodd">
        <g id="ащщеук" transform="translate(-698.000000, -42.000000)">
            <g id="Group-7">
                <g id="Group-20" transform="translate(698.000000, 42.000000)">
                    <g id="happiness">
                        <path d="M32.5827406,17.182035 C32.1366116,16.8668579 31.5184678,16.9712264 31.2019687,17.415631 L31.1827569,17.4425616 C30.8662578,17.8868676 30.9712293,18.502622 31.4172594,18.8178977 C31.5912547,18.9408118 31.7912948,19 31.9895524,19 C32.2996145,19 32.6049233,18.8553835 32.7980313,18.5843017 L32.8172431,18.557371 C33.1337422,18.1130651 33.0287707,17.4973107 32.5827406,17.182035" id="Fill-1" fill="#516491"></path>
                        <g id="Group-5" transform="translate(0.000000, 5.000000)">
                            <polygon id="Clip-3" points="0.006328125 0 54 0 54 49 0.006328125 49"></polygon>
                            <path d="M28.716082,14.0880349 C27.2508047,15.3072576 25.5857695,16.1751354 23.7671719,16.6677031 C23.2043906,16.8201594 22.8699492,17.4064476 23.0202422,17.9773297 C23.1461719,18.4557751 23.5724766,18.7714934 24.038543,18.7714934 C24.1286133,18.7714934 24.2201602,18.7597249 24.3112852,18.7349039 C26.4224531,18.163059 28.3544297,17.1562052 30.0537422,15.7422664 C30.5041992,15.3675983 30.5698008,14.6933668 30.2003438,14.2366397 C29.8309922,13.7796987 29.1664336,13.7132598 28.716082,14.0880349" id="Fill-2" fill="#516491"></path>
                            <path d="M33.0471563,27.5259105 C33.0471563,25.8620502 34.3815469,24.508452 36.0217969,24.508452 C37.6620469,24.508452 38.996543,25.8620502 38.996543,27.5259105 L38.996543,28.2690415 C38.996543,29.9329017 37.6621523,31.2865 36.0217969,31.2865 C34.3815469,31.2865 33.0471563,29.9329017 33.0471563,28.2690415 L33.0471563,27.5259105 Z M14.7089883,9.0739869 C14.7089883,7.41001965 16.0433789,6.0564214 17.6836289,6.0564214 C19.3238789,6.0564214 20.658375,7.41001965 20.658375,9.0739869 L20.658375,9.8171179 C20.658375,11.4809782 19.3239844,12.8345764 17.6836289,12.8345764 C16.0433789,12.8345764 14.7089883,11.4809782 14.7089883,9.8171179 L14.7089883,9.0739869 Z M50.8359375,18.4520306 C49.0912734,18.4520306 47.671875,19.8918603 47.671875,21.6615306 L47.671875,22.1965721 C47.671875,26.6832817 44.4513867,30.4189432 40.2326367,31.155976 C40.7836055,30.3316419 41.105918,29.3378406 41.105918,28.2690415 L41.105918,27.5259105 C41.105918,24.6821987 38.8251562,22.368714 36.0217969,22.368714 C33.2184375,22.368714 30.9377812,24.6821987 30.9377812,27.5259105 L30.9377812,28.2690415 C30.9377812,29.3106659 31.2446953,30.2803952 31.7702461,31.0921048 C27.7171875,30.2205895 24.6661875,26.5637773 24.6661875,22.1965721 L24.6661875,21.6615306 C24.6661875,19.8918603 23.2467891,18.4520306 21.502125,18.4520306 C19.7574609,18.4520306 18.3380625,19.8918603 18.3380625,21.6615306 L18.3380625,22.1965721 C18.3380625,24.3680852 18.7736484,26.468131 19.6140234,28.4083384 L12.4376133,28.4083384 L12.4376133,17.6339017 C12.4376133,17.1563122 12.1256367,16.7364956 11.6729648,16.6053297 C6.04209375,14.9717467 2.109375,9.68327729 2.109375,3.74454148 L2.109375,3.20960699 C2.109375,2.61968122 2.58250781,2.13973799 3.1640625,2.13973799 C3.74561719,2.13973799 4.21875,2.61968122 4.21875,3.20960699 L4.21875,3.74454148 C4.21875,9.93876201 9.18664453,14.9781659 15.2929687,14.9781659 L20.3688633,14.9781659 C26.4751875,14.9781659 31.443082,9.93876201 31.443082,3.74454148 L31.443082,3.20960699 C31.443082,2.61968122 31.9162148,2.13973799 32.4977695,2.13973799 C33.0793242,2.13973799 33.552457,2.61968122 33.552457,3.20960699 L33.552457,3.74454148 C33.552457,5.38903712 33.2604141,6.99544541 32.6843437,8.51883188 C32.4757266,9.07045633 32.7475195,9.68926856 33.2914219,9.90088865 C33.8350078,10.1126157 34.44525,9.83669651 34.6538672,9.28507205 C35.32275,7.51615066 35.661832,5.65201092 35.661832,3.74454148 L35.661832,3.20960699 C35.661832,1.43982969 34.2424336,0 32.4977695,0 C30.7531055,0 29.333707,1.43982969 29.333707,3.20960699 L29.333707,3.74454148 C29.333707,8.2311441 26.1132187,11.9668057 21.8945742,12.7039454 C22.445543,11.8796114 22.76775,10.885917 22.76775,9.81722489 L22.76775,9.07409389 C22.76775,6.2303821 20.4869883,3.91679039 17.6836289,3.91679039 C14.8802695,3.91679039 12.5996133,6.2303821 12.5996133,9.07409389 L12.5996133,9.81722489 C12.5996133,10.8587424 12.9065273,11.8284716 13.4320781,12.6400742 C9.37901953,11.768559 6.328125,8.11174672 6.328125,3.74454148 L6.328125,3.20960699 C6.328125,1.43982969 4.90872656,0 3.1640625,0 C1.41939844,0 0,1.43982969 0,3.20960699 L0,3.74454148 C0,7.17946288 1.08864844,10.4363581 3.14813672,13.1629192 C4.97738672,15.5845677 7.50494531,17.4290218 10.3283437,18.4179017 L10.3283437,29.4781004 C10.3283437,30.0688821 10.8005273,30.5479694 11.3830312,30.5479694 L11.5756172,30.5479694 L11.5756172,47.930131 C11.5756172,48.5209127 12.0478008,49 12.6303047,49 C13.2128086,49 13.6849922,48.5209127 13.6849922,47.930131 L13.6849922,30.5479694 L20.7471797,30.5479694 C20.9777344,30.9116179 21.2240039,31.2675633 21.4863047,31.6148428 C21.556125,31.7072795 21.628793,31.7971485 21.7006172,31.8878734 L21.7006172,47.930131 C21.7006172,48.5209127 22.1728008,49 22.7553047,49 C23.3378086,49 23.8099922,48.5209127 23.8099922,47.930131 L23.8099922,34.0742576 C25.2470039,35.295941 26.89875,36.2505852 28.6665117,36.8698253 L28.6665117,47.930131 C28.6665117,48.5209127 29.1386953,49 29.7211992,49 C30.3037031,49 30.7758867,48.5209127 30.7758867,47.930131 L30.7758867,36.0858253 C30.7758867,35.6082358 30.4639102,35.1884192 30.0112383,35.0572533 C24.3802617,33.4236703 20.447543,28.1353079 20.447543,22.1965721 L20.447543,21.6615306 C20.447543,21.0716048 20.9206758,20.5917686 21.5022305,20.5917686 C22.0837852,20.5917686 22.556918,21.0716048 22.556918,21.6615306 L22.556918,22.1965721 C22.556918,28.3907926 27.5248125,33.4301965 33.6311367,33.4301965 L38.7070312,33.4301965 C44.8133555,33.4301965 49.78125,28.3907926 49.78125,22.1965721 L49.78125,21.6615306 C49.78125,21.0716048 50.2543828,20.5917686 50.8359375,20.5917686 C51.4174922,20.5917686 51.890625,21.0716048 51.890625,21.6615306 L51.890625,22.1965721 C51.890625,28.2449694 47.8667812,33.5591157 42.1054453,35.1196266 C41.6439141,35.2445873 41.3228672,35.6686834 41.3228672,36.1532271 L41.3228672,43.9002555 C41.3228672,44.4910371 41.7950508,44.9701245 42.3775547,44.9701245 C42.9600586,44.9701245 43.4322422,44.4910371 43.4322422,43.9002555 L43.4322422,36.9522052 C49.6943437,34.8885349 54,28.9355699 54,22.1965721 L54,21.6615306 C54,19.8918603 52.5806016,18.4520306 50.8359375,18.4520306 Z" id="Fill-4" fill="#516491"></path>
                        </g>
                        <path d="M42,52 C41.737,52 41.479,52.1069 41.293,52.293 C41.107,52.479 41,52.737 41,53 C41,53.263 41.107,53.521 41.293,53.7069 C41.479,53.8929 41.737,54 42,54 C42.263,54 42.521,53.893 42.707,53.7069 C42.893,53.521 43,53.263 43,53 C43,52.737 42.893,52.479 42.707,52.293 C42.521,52.1069 42.263,52 42,52" id="Fill-6" fill="#516491"></path>
                        <path d="M18,40 C17.4477,40 17,40.4542899 17,41.0144928 L17,52.9855072 C17,53.5457101 17.4477,54 18,54 C18.5523,54 19,53.5457101 19,52.9855072 L19,41.0144928 C19,40.4542899 18.5523,40 18,40" id="Fill-7" fill="#516491"></path>
                        <path d="M50,13 C50.5523,13 51,12.4476719 51,11.7665742 L51,10.2334258 C51,9.55232809 50.5523,9 50,9 C49.4477,9 49,9.55232809 49,10.2334258 L49,11.7665742 C49,12.4476719 49.4477,13 50,13" id="Fill-8" fill="#516491"></path>
                        <path d="M50,19 C50.5523,19 51,18.4476719 51,17.7665742 L51,16.2334258 C51,15.5523281 50.5523,15 50,15 C49.4477,15 49,15.5523281 49,16.2334258 L49,17.7665742 C49,18.4476719 49.4477,19 50,19" id="Fill-9" fill="#516491"></path>
                        <path d="M51.2334258,14 L52.7665742,14 C53.4477953,14 54,13.5522 54,13 C54,12.4478 53.4477953,12 52.7665742,12 L51.2334258,12 C50.5522047,12 50,12.4478 50,13 C50,13.5522 50.5522047,14 51.2334258,14" id="Fill-10" fill="#516491"></path>
                        <path d="M45.2334258,14 L46.7665742,14 C47.4477953,14 48,13.5522 48,13 C48,12.4478 47.4477953,12 46.7665742,12 L45.2334258,12 C44.5522047,12 44,12.4478 44,13 C44,13.5522 44.5522047,14 45.2334258,14" id="Fill-11" fill="#516491"></path>
                        <path d="M23,4 C23.5523,4 24,3.44767191 24,2.76657416 L24,1.23342584 C24,0.552328091 23.5523,0 23,0 C22.4477,0 22,0.552328091 22,1.23342584 L22,2.76657416 C22,3.44767191 22.4477,4 23,4" id="Fill-12" fill="#516491"></path>
                        <path d="M23,10 C23.5523,10 24,9.44767191 24,8.76657416 L24,7.23342584 C24,6.55232809 23.5523,6 23,6 C22.4477,6 22,6.55232809 22,7.23342584 L22,8.76657416 C22,9.44767191 22.4477,10 23,10" id="Fill-13" fill="#516491"></path>
                        <path d="M26.2334258,5 L27.7665742,5 C28.4477953,5 29,4.5522 29,4 C29,3.4478 28.4477953,3 27.7665742,3 L26.2334258,3 C25.5522047,3 25,3.4478 25,4 C25,4.5522 25.5522047,5 26.2334258,5" id="Fill-14" fill="#516491"></path>
                        <path d="M19.2334258,5 L20.7665742,5 C21.4477953,5 22,4.5522 22,4 C22,3.4478 21.4477953,3 20.7665742,3 L19.2334258,3 C18.5522047,3 18,3.4478 18,4 C18,4.5522 18.5522047,5 19.2334258,5" id="Fill-15" fill="#516491"></path>
                    </g>
                </g>
            </g>
        </g>
    </g>
</svg>