<?xml version="1.0" encoding="UTF-8"?>
<svg width="39px" height="51px" viewBox="0 0 39 51" version="1.1" xmlns="http://www.w3.org/2000/svg" xmlns:xlink="http://www.w3.org/1999/xlink">
    <!-- Generator: Sketch 51.3 (57544) - http://www.bohemiancoding.com/sketch -->
    <title>first</title>
    <desc>Created with Sketch.</desc>
    <defs></defs>
    <g id="Symbols" stroke="none" stroke-width="1" fill="none" fill-rule="evenodd">
        <g id="ащщеук" transform="translate(-1150.000000, -44.000000)">
            <g id="Group-7">
                <g id="Group-21-Copy" transform="translate(1150.000000, 44.000000)">
                    <g id="first">
                        <path d="M7.42232771,17.3577784 C8.22957357,11.1529448 13.4216647,6.47401405 19.4997736,6.47401405 C25.5793113,6.47401405 30.7715929,11.1543207 31.5776005,17.3608249 C31.6257019,17.7310236 31.9323125,18 32.2847384,18 C32.3163615,18 32.3482703,17.997838 32.3804649,17.9934156 C32.7714672,17.9393648 33.0459784,17.5684782 32.9935907,17.1650628 C32.5595354,13.8227588 30.9638079,10.747957 28.5001602,8.50691321 C26.0139382,6.24542836 22.8176256,5 19.4997736,5 C16.1824932,5 12.9865615,6.24503527 10.5006253,8.50583219 C8.03716807,10.7460898 6.44115488,13.8202037 6.00643274,17.1617215 C5.95394986,17.5650386 6.22836583,17.9360235 6.6193681,17.9901726 C7.00960837,18.0450096 7.36984482,17.7611938 7.42232771,17.3577784 Z" id="Fill-1" fill="#516491"></path>
                        <path d="M32.994519,20.8280596 C33.0429394,20.4284234 32.7651641,20.0644638 32.3741859,20.0149832 C31.9826369,19.9655998 31.6269514,20.2493599 31.578531,20.6488989 C30.8263498,26.8589595 25.6339501,31.5419258 19.5005391,31.5419258 C13.3626571,31.5419258 8.16978169,26.8551683 7.42150079,20.6400527 C7.37336576,20.2405137 7.01806076,19.9562675 6.62632153,20.0055537 C6.23524821,20.0547426 5.95728269,20.4185078 6.00541771,20.818144 C6.84159736,27.7629286 12.6432001,33 19.5006342,33 C26.3529314,33 32.1540585,27.7672059 32.994519,20.8280596" id="Fill-2" fill="#516491"></path>
                        <g id="Group-6">
                            <polygon id="Clip-4" points="0.00569343066 0.0989617225 38.9601441 0.0989617225 38.9601441 50.8181818 0.00569343066 50.8181818"></polygon>
                            <path d="M18.231219,14.7636229 C17.906219,14.604036 17.5327299,14.6533682 17.2560292,14.892501 L15.8346642,16.1210528 L15.0264818,15.0413893 L18.8704964,11.6737189 L20.5796642,11.6737189 L20.5796642,24.416799 C20.5796642,24.944694 20.9910146,25.3741225 21.4966861,25.3741225 L23.0917956,25.3741225 L23.0917956,26.589103 L15.827073,26.589103 L15.827073,25.3741225 L17.8409343,25.3741225 C18.3466058,25.3741225 18.7579562,24.944694 18.7579562,24.416799 L18.7579562,15.6299094 C18.7578613,15.2550634 18.5561241,14.9231108 18.231219,14.7636229 Z M15.3207372,23.8882107 C14.8150657,23.8882107 14.4037153,24.3177383 14.4037153,24.8455341 L14.4037153,27.1173941 C14.4037153,27.645289 14.8150657,28.0747175 15.3207372,28.0747175 L23.5979416,28.0747175 C24.1036131,28.0747175 24.5149635,27.64519 24.5149635,27.1173941 L24.5149635,24.8455341 C24.5149635,24.3176392 24.1036131,23.8882107 23.5979416,23.8882107 L22.0028321,23.8882107 L22.0028321,11.1451306 C22.0028321,10.6172357 21.5914818,10.1878072 21.0858102,10.1878072 L18.686219,10.1878072 C18.4709124,10.1878072 18.2614891,10.267353 18.0967591,10.4117836 L13.7371095,14.2311712 C13.3566934,14.5645107 13.2982409,15.1455022 13.604073,15.5539298 L15.0338832,17.464218 C15.1855182,17.6666982 15.4128759,17.7987462 15.6575985,17.8264833 C15.9026058,17.8542203 16.1515036,17.7760613 16.3411898,17.6121157 L17.3345985,16.7534568 L17.3345985,23.8881116 L15.3207372,23.8881116 L15.3207372,23.8882107 Z" id="Fill-3" fill="#516491"></path>
                            <path d="M34.1751971,42.6171377 L29.7235985,35.2514732 C30.160854,34.7986663 30.4627956,34.2138114 30.5778029,33.572591 C30.6388175,33.2324163 30.7973796,32.9296865 31.0198029,32.6937237 L37.271,42.9015412 L34.1751971,42.6171377 Z M31.368146,42.3592825 C30.8517518,42.3118324 30.369708,42.633978 30.1944453,43.1426551 L29.9240073,43.9274147 L25.3271314,36.3213296 C25.725292,36.0182036 26.245292,35.9083452 26.7379635,36.054658 C27.3213504,36.2278162 27.9377591,36.2125609 28.5068175,36.0225623 L32.393438,42.4534893 L31.368146,42.3592825 Z M28.1882701,48.9633677 L21.6099854,38.2213154 C21.8381022,38.2769876 22.0720073,38.3066068 22.3074307,38.3066068 C22.4937956,38.3066068 22.6811095,38.2887758 22.8667153,38.2526186 C23.4229635,38.144048 23.934708,37.8751971 24.3487153,37.4866807 L29.3129124,45.7005036 L28.1882701,48.9633677 Z M19.9234964,35.8710984 C19.8779489,35.8605979 19.8314526,35.8549514 19.7847664,35.8538618 C19.6834234,35.8433613 19.5818905,35.836229 19.480073,35.836229 C19.3783504,35.836229 19.2769124,35.8433613 19.1755693,35.8538618 C19.1285985,35.8548524 19.0820073,35.8605979 19.0362701,35.8710984 C18.5394234,35.9463845 18.0569051,36.1474779 17.6387226,36.4770532 C17.2677956,36.7692825 16.8117518,36.881023 16.354854,36.7920665 C15.8979562,36.7029117 15.511562,36.4266312 15.2667445,36.0140431 C15.2149343,35.9267705 15.1584745,35.8437576 15.0996423,35.7632212 C15.0906277,35.7509376 15.0815182,35.7387531 15.0716496,35.727064 C14.3145182,34.721597 13.0300803,34.2699789 11.8328467,34.6253099 C11.3858175,34.7580514 10.9218978,34.6904919 10.5266788,34.4350142 C10.1314599,34.1795364 9.86671533,33.7761609 9.78121898,33.2991832 C9.59893431,32.2823243 8.95291971,31.4423879 8.09216788,31.0104829 C8.04813869,30.9836374 8.00259124,30.9622403 7.95590511,30.9461925 C7.67483942,30.8224655 7.3740365,30.7396507 7.05975912,30.7092391 C6.5969781,30.6643645 6.18781022,30.4264205 5.90769343,30.0391919 C5.62757664,29.6519633 5.52025547,29.1759763 5.60565693,28.6988995 C5.85493431,27.3050152 5.1799781,25.889932 3.96414599,25.257627 C3.54814599,25.0412782 3.2489562,24.6650454 3.12170803,24.19837 C2.99455474,23.7315956 3.05917518,23.2472874 3.30380292,22.8346993 C4.01870803,21.6290305 3.87893431,20.0548556 2.964,19.0066934 C2.65086131,18.6480934 2.50216788,18.1843899 2.5449635,17.7012704 C2.58785401,17.2180519 2.81568613,16.7909018 3.18661314,16.4983753 C4.27035766,15.6435798 4.68483942,14.1230959 4.19435036,12.8007335 C4.02648905,12.3482238 4.04821898,11.8598542 4.25545985,11.4254726 C4.46260584,10.9910911 4.82290511,10.6786534 5.2700292,10.5458129 C6.57638686,10.1573955 7.48894891,8.89585646 7.48923358,7.47790041 C7.48932847,6.99260163 7.67854015,6.54544125 8.0220438,6.21844161 C8.36554745,5.89154102 8.80963504,5.73591653 9.27251095,5.78079107 C10.6255547,5.91165036 11.9124599,5.07914354 12.4034234,3.75697927 C12.5714745,3.30456867 12.9027372,2.95874747 13.3361971,2.78350895 C13.769562,2.60827042 14.237562,2.63075722 14.653562,2.84700691 C15.8696788,3.47871753 17.3581314,3.18827131 18.2734453,2.14060447 C18.5866788,1.78210349 19.0151095,1.58467535 19.4799781,1.58467535 C19.9448467,1.58467535 20.3732774,1.78210349 20.6865109,2.14060447 C21.6017299,3.18827131 23.0903723,3.47871753 24.3063942,2.84700691 C24.7224891,2.63085628 25.1902993,2.60827042 25.6237591,2.78350895 C26.057219,2.95874747 26.3884818,3.30456867 26.556438,3.75697927 C27.0474015,5.07904448 28.3341168,5.91145224 29.6874453,5.78079107 C30.1500365,5.73591653 30.594219,5.89154102 30.9378175,6.21844161 C31.2813212,6.54544125 31.4705328,6.99260163 31.4706277,7.47790041 C31.4708175,8.89585646 32.3833796,10.1573955 33.6898321,10.5458129 C34.1368613,10.6786534 34.4971606,10.9910911 34.7043066,11.4254726 C34.9115474,11.8598542 34.9331825,12.3482238 34.7653212,12.8007335 C34.2748321,14.1230959 34.6893139,15.6435798 35.7730584,16.4983753 C36.1439854,16.7909018 36.3718175,17.2180519 36.414708,17.7012704 C36.4575985,18.1844889 36.3088102,18.6480934 35.9956715,19.0066934 C35.0807372,20.0548556 34.9410584,21.6289314 35.6558686,22.8346002 C35.9004964,23.2472874 35.9651168,23.7314965 35.8378686,24.198271 C35.7107153,24.6650454 35.4115255,25.0411792 34.9954307,25.2575279 C33.7796934,25.8898329 33.1047372,27.3050152 33.3540146,28.6988005 C33.4393212,29.1758772 33.3320949,29.6517652 33.0519781,30.0390929 C32.7718613,30.4263215 32.3626934,30.6642655 31.8998175,30.70914 C31.5852555,30.7396507 31.2842628,30.8225646 31.0029124,30.9464896 C30.9566058,30.9624384 30.9113431,30.9837365 30.8676934,31.0102848 C30.0068467,31.4420907 29.3606423,32.2821262 29.1783577,33.2990842 C29.0928613,33.7760618 28.8281168,34.1794374 28.4328978,34.4349151 C28.0376788,34.6903929 27.5736642,34.7578533 27.1267299,34.6253099 C25.9292117,34.2697808 24.6445839,34.7216961 23.8875474,35.7275593 C23.8780584,35.7388522 23.8693285,35.7506404 23.8605985,35.7624287 C23.8015766,35.8431632 23.744927,35.9263743 23.692927,36.013944 C23.4482044,36.4265322 23.0617153,36.7028127 22.6048175,36.7919674 C22.1481095,36.880924 21.6919708,36.7692825 21.3209489,36.4769541 C20.9029562,36.1473789 20.4205328,35.9463845 19.9234964,35.8710984 Z M10.7718759,48.9633677 L9.64723358,45.7002065 L14.6113358,37.4865816 C15.0253431,37.875098 15.5371825,38.144048 16.0934307,38.2526186 C16.5131314,38.3344428 16.9410876,38.3221593 17.3494015,38.2227023 L10.7718759,48.9633677 Z M9.0360438,43.9270184 L8.76570073,43.1425561 C8.59043796,42.6340771 8.10791971,42.3115352 7.592,42.3592825 L6.56642336,42.4534893 L10.4532336,36.0223642 C11.022292,36.2124618 11.6387007,36.2277172 12.2222774,36.0544599 C12.7147591,35.9082461 13.2347591,36.0180055 13.6328248,36.3210324 L9.0360438,43.9270184 Z M1.68914599,42.9015412 L7.94034307,32.6936247 C8.16276642,32.9296865 8.32142336,33.2324163 8.38243796,33.572591 C8.49735036,34.2137124 8.79929197,34.7984682 9.23645255,35.251275 L4.78466423,42.6171377 L1.68914599,42.9015412 Z M32.367438,32.1359125 C33.0891752,31.9797927 33.7399343,31.5542275 34.1881022,30.9347014 C34.704781,30.2204732 34.9108832,29.3061421 34.7534599,28.4263833 C34.6202336,27.6816443 34.9809124,26.9255134 35.6305328,26.587617 C36.3979124,26.1886002 36.9725693,25.4659518 37.2072336,24.6051136 C37.4418029,23.7442754 37.3176861,22.8139956 36.8664818,22.0529116 C36.4845474,21.4087193 36.5592263,20.5676932 37.0480073,20.0077026 C37.6254161,19.3461747 37.9113212,18.4556183 37.8321825,17.5644675 C37.7530438,16.6732176 37.3154088,15.8526971 36.6312482,15.3131131 C36.0521314,14.8564428 35.8307518,14.0440454 36.0928394,13.3374448 C36.4023723,12.5027586 36.3607153,11.564653 35.9785912,10.7633503 C35.5964672,9.96214673 34.9043358,9.36213557 34.0797372,9.11696013 C33.3817226,8.90942779 32.8940803,8.23541822 32.8939854,7.47780135 C32.8937956,6.58278717 32.5302701,5.723633 31.8966861,5.12065001 C31.2631022,4.51766702 30.4099416,4.21919688 29.5564015,4.30151639 C28.8335255,4.3714533 28.145854,3.92657133 27.8834818,3.22016888 C27.5735693,2.38558178 26.9373285,1.72157735 26.1378759,1.39824296 C25.3384234,1.07500762 24.4397153,1.11819812 23.6722409,1.51701684 C23.0225255,1.85451692 22.2270584,1.69938774 21.7380876,1.13959525 C21.1604891,0.478265462 20.3374088,0.0989617225 19.480073,0.0989617225 C18.6227372,0.0989617225 17.7997518,0.478265462 17.2219635,1.13949619 C16.7329927,1.69918962 15.9374307,1.85451692 15.2878102,1.51691777 C14.5202409,1.11809906 13.6216277,1.07490856 12.8221752,1.3981439 C12.0227226,1.72147829 11.3864818,2.38548272 11.0765693,3.22006982 C10.814292,3.92647227 10.1254818,4.37115612 9.40374453,4.30141733 C8.54982482,4.21899876 7.6970438,4.5174689 7.06345985,5.12055095 C6.42987591,5.72353394 6.06635036,6.58268811 6.06616058,7.47770229 C6.06606569,8.23531916 5.57842336,8.90942779 4.88040876,9.11686107 C4.05581022,9.36193744 3.36367883,9.96204767 2.98155474,10.7632513 C2.59943066,11.5644549 2.55777372,12.5026596 2.86730657,13.3373457 C3.12929927,14.0438472 2.90791971,14.8563438 2.32889781,15.313014 C1.64483212,15.8525981 1.20710219,16.6731186 1.1279635,17.5643684 C1.04891971,18.4555192 1.33472993,19.3460757 1.91213869,20.0076036 C2.40091971,20.5675942 2.47559854,21.4086202 2.09366423,22.0529116 C1.64245985,22.8139956 1.51834307,23.7442754 1.75291241,24.6051136 C1.98757664,25.4659518 2.56223358,26.1886002 3.32961314,26.587617 C3.97923358,26.9255134 4.33991241,27.6816443 4.20668613,28.4263833 C4.04926277,29.3062412 4.25536496,30.2204732 4.7720438,30.9347014 C5.22021168,31.5541285 5.8709708,31.9797927 6.59270803,32.1359125 L0.180956204,42.6059438 C-0.0550364964,42.9913893 -0.060540146,43.4738153 0.166532847,43.8650064 C0.393605839,44.2561974 0.806664234,44.4741311 1.24230657,44.4342096 L7.50014599,43.8593599 L9.62692701,50.0301533 C9.77533577,50.4605724 10.1379124,50.7596369 10.573365,50.8105541 C10.6169197,50.8156062 10.6602847,50.8181818 10.703365,50.8181818 C11.0904234,50.8181818 11.4494891,50.6152063 11.661854,50.2684935 L19.480073,37.5017379 L27.2981971,50.2682954 C27.510562,50.6151072 27.8695328,50.8179837 28.2566861,50.8179837 C28.2997664,50.8179837 28.3432263,50.8155072 28.386781,50.810356 C28.8222336,50.7593397 29.1848102,50.4603743 29.333219,50.0298561 L31.4600949,43.8590627 L37.7178394,44.4339125 C38.1544307,44.473834 38.566635,44.2559002 38.793708,43.8648083 C39.0206861,43.4737163 39.0151825,42.9912903 38.7791898,42.6059438 L32.367438,32.1359125 Z" id="Fill-5" fill="#516491"></path>
                        </g>
                    </g>
                </g>
            </g>
        </g>
    </g>
</svg>