<?xml version="1.0" encoding="UTF-8"?>
<svg width="60px" height="60px" viewBox="0 0 60 60" version="1.1" xmlns="http://www.w3.org/2000/svg" xmlns:xlink="http://www.w3.org/1999/xlink">
    <!-- Generator: Sketch 51.3 (57544) - http://www.bohemiancoding.com/sketch -->
    <title>research</title>
    <desc>Created with Sketch.</desc>
    <defs></defs>
    <g id="Page-1" stroke="none" stroke-width="1" fill="none" fill-rule="evenodd">
        <g id="legans-01" transform="translate(-233.000000, -4169.000000)">
            <g id="Group-26" transform="translate(-40.000000, 3679.000000)">
                <g id="Group-11" transform="translate(0.000000, 459.000000)">
                    <g id="Group-19" transform="translate(40.000000, 0.000000)">
                        <g id="research" transform="translate(233.000000, 31.000000)">
                            <g id="Group-6">
                                <polygon id="Clip-2" points="0.00725806452 0.00482897384 60 0.00482897384 60 59.8792757 0.00725806452 59.8792757"></polygon>
                                <path d="M54.9270968,57.9476861 C54.0890323,57.9476861 53.3003226,57.6222133 52.7080645,57.0311469 L43.4651613,47.806841 L47.9032258,43.3777062 L57.146129,52.6020121 C57.7383871,53.1930785 58.0645161,53.9802012 58.0645161,54.8165795 C58.0645161,56.5434205 56.6574194,57.9476861 54.9270968,57.9476861 Z M40.5774194,44.9249095 C42.2980645,43.7118712 43.8,42.2129577 45.0154839,40.4957746 L46.5348387,42.0120724 L42.0967742,46.4412072 L40.5774194,44.9249095 Z M13.743871,32.3348089 L15.6512903,32.0180282 C16.6654839,39.0229376 22.7041935,44.4265594 30,44.4265594 C38.0041935,44.4265594 44.516129,37.9277264 44.516129,29.9396378 C44.516129,29.8903823 44.5093548,29.8420926 44.5083871,29.792837 L46.4274194,29.4741247 C46.4322581,29.6305835 46.4516129,29.7822133 46.4516129,29.9396378 C46.4516129,38.992998 39.0716129,46.3581489 30,46.3581489 C21.7451613,46.3581489 14.9119355,40.254326 13.743871,32.3348089 Z M27.6,13.7162173 L27.9174194,15.6197988 C20.8983871,16.6319517 15.483871,22.6585111 15.483871,29.9396378 C15.483871,29.9888934 15.4906452,30.0371831 15.4916129,30.0864386 L13.5725806,30.4051509 C13.5677419,30.2486922 13.5483871,30.0970624 13.5483871,29.9396378 C13.5483871,21.7014085 19.6645161,14.8819316 27.6,13.7162173 Z M30,17.3843058 C36.9367742,17.3843058 42.5806452,23.0168209 42.5806452,29.9396378 C42.5806452,36.8624547 36.9367742,42.4949698 30,42.4949698 C23.0632258,42.4949698 17.4193548,36.8624547 17.4193548,29.9396378 C17.4193548,23.0168209 23.0632258,17.3843058 30,17.3843058 Z M46.256129,27.5444668 L44.3487097,27.8612475 C43.3345161,20.856338 37.2958065,15.4527163 30,15.4527163 C29.9506452,15.4527163 29.9022581,15.4594769 29.8529032,15.4604427 L29.5335484,13.5452716 C29.6903226,13.5404427 29.8422581,13.5211268 30,13.5211268 C38.2548387,13.5211268 45.0880645,19.6249497 46.256129,27.5444668 Z M49.2716129,42.0120724 L51.0067742,40.2804024 L49.6383871,38.9147686 L47.9032258,40.6464386 L46.0770968,38.8239839 C47.5441935,36.18833 48.3870968,33.1615292 48.3870968,29.9396378 C48.3870968,29.6643863 48.3580645,29.3968612 48.3454839,29.124507 C52.8929032,28.0573038 56.1290323,24.0395976 56.1290323,19.3158954 L54.1935484,19.3158954 C54.1935484,23.0457948 51.6987097,26.2358149 48.1567742,27.1861569 C46.8183871,18.3723139 39.1983871,11.5895372 30,11.5895372 C29.7241935,11.5895372 29.456129,11.6185111 29.1832258,11.6310664 C28.113871,7.09279678 24.0880645,3.86317907 19.3548387,3.86317907 L19.3548387,5.79476861 C23.0922581,5.79476861 26.2887097,8.28458753 27.2409677,11.8193964 C18.4093548,13.1550905 11.6129032,20.7597586 11.6129032,29.9396378 C11.6129032,30.2148893 11.6419355,30.4824145 11.6545161,30.7547686 C7.10709677,31.8219718 3.87096774,35.8396781 3.87096774,40.5633803 L5.80645161,40.5633803 C5.80645161,36.8334809 8.30129032,33.6434608 11.8432258,32.6931187 C13.1816129,41.5069618 20.8016129,48.2897384 30,48.2897384 C33.2283871,48.2897384 36.2612903,47.4485312 38.9012903,45.9843863 L40.7274194,47.806841 L38.9922581,49.5385111 L40.3606452,50.9041449 L42.0958065,49.1724748 L51.3387097,58.3967807 C52.2967742,59.3529175 53.5712903,59.8792757 54.926129,59.8792757 C57.723871,59.8792757 60,57.6077264 60,54.8165795 C60,53.4644668 59.4725806,52.1925151 58.5145161,51.2363783 L49.2716129,42.0120724 Z" id="Fill-1" fill="#FFFFFF"></path>
                                <path d="M51.2903226,1.93158954 C55.0248387,1.93158954 58.0645161,4.96515091 58.0645161,8.69215292 C58.0645161,10.5339235 57.3203226,12.2037827 56.1193548,13.4245473 C56.0864516,11.8010463 55.2551613,10.3687726 53.9941935,9.51790744 C54.7122581,8.81674044 55.1612903,7.84128773 55.1612903,6.76056338 C55.1612903,4.63002012 53.4251613,2.89738431 51.2903226,2.89738431 C49.1554839,2.89738431 47.4193548,4.63002012 47.4193548,6.76056338 C47.4193548,7.84128773 47.8683871,8.81674044 48.5864516,9.51790744 C47.3245161,10.3697384 46.4932258,11.8010463 46.4612903,13.4245473 C45.2603226,12.2037827 44.516129,10.5339235 44.516129,8.69215292 C44.516129,4.96515091 47.5558065,1.93158954 51.2903226,1.93158954 Z M49.3548387,6.76056338 C49.3548387,5.69529175 50.2229032,4.82897384 51.2903226,4.82897384 C52.3577419,4.82897384 53.2258065,5.69529175 53.2258065,6.76056338 C53.2258065,7.82583501 52.3577419,8.69215292 51.2903226,8.69215292 C50.2229032,8.69215292 49.3548387,7.82583501 49.3548387,6.76056338 Z M48.3870968,14.7911469 L48.3870968,13.5211268 C48.3870968,11.9237022 49.6896774,10.6237425 51.2903226,10.6237425 C52.8909677,10.6237425 54.1935484,11.9237022 54.1935484,13.5211268 L54.1935484,14.7911469 C53.3119355,15.2103018 52.3296774,15.4527163 51.2903226,15.4527163 C50.2509677,15.4527163 49.2687097,15.2103018 48.3870968,14.7911469 Z M51.2903226,17.3843058 C56.0932258,17.3843058 60,13.4853924 60,8.69215292 C60,3.89891348 56.0932258,0 51.2903226,0 C46.4874194,0 42.5806452,3.89891348 42.5806452,8.69215292 C42.5806452,13.4853924 46.4874194,17.3843058 51.2903226,17.3843058 Z" id="Fill-3" fill="#FFFFFF"></path>
                                <path d="M8.70967742,1.93158954 C12.4441935,1.93158954 15.483871,4.96515091 15.483871,8.69215292 C15.483871,10.5339235 14.7396774,12.2037827 13.5387097,13.4245473 C13.5058065,11.8010463 12.6745161,10.3687726 11.4135484,9.51790744 C12.1316129,8.81674044 12.5806452,7.84128773 12.5806452,6.76056338 C12.5806452,4.63002012 10.8445161,2.89738431 8.70967742,2.89738431 C6.57483871,2.89738431 4.83870968,4.63002012 4.83870968,6.76056338 C4.83870968,7.84128773 5.28774194,8.81674044 6.00580645,9.51790744 C4.74483871,10.3697384 3.91354839,11.8010463 3.88064516,13.4245473 C2.67967742,12.2037827 1.93548387,10.5339235 1.93548387,8.69215292 C1.93548387,4.96515091 4.97516129,1.93158954 8.70967742,1.93158954 Z M6.77419355,6.76056338 C6.77419355,5.69529175 7.64225806,4.82897384 8.70967742,4.82897384 C9.77709677,4.82897384 10.6451613,5.69529175 10.6451613,6.76056338 C10.6451613,7.82583501 9.77709677,8.69215292 8.70967742,8.69215292 C7.64225806,8.69215292 6.77419355,7.82583501 6.77419355,6.76056338 Z M5.80645161,14.7911469 L5.80645161,13.5211268 C5.80645161,11.9237022 7.10903226,10.6237425 8.70967742,10.6237425 C10.3103226,10.6237425 11.6129032,11.9237022 11.6129032,13.5211268 L11.6129032,14.7911469 C10.7312903,15.2103018 9.74903226,15.4527163 8.70967742,15.4527163 C7.67032258,15.4527163 6.68806452,15.2103018 5.80645161,14.7911469 Z M8.70967742,17.3843058 C13.5125806,17.3843058 17.4193548,13.4853924 17.4193548,8.69215292 C17.4193548,3.89891348 13.5125806,0 8.70967742,0 C3.90677419,0 0,3.89891348 0,8.69215292 C0,13.4853924 3.90677419,17.3843058 8.70967742,17.3843058 Z" id="Fill-4" fill="#FFFFFF"></path>
                                <path d="M13.5387097,55.9195171 C13.5058065,54.2960161 12.6745161,52.8637425 11.4135484,52.0128773 C12.1316129,51.3117103 12.5806452,50.3362575 12.5806452,49.2555332 C12.5806452,47.1249899 10.8445161,45.3923541 8.70967742,45.3923541 C6.57483871,45.3923541 4.83870968,47.1249899 4.83870968,49.2555332 C4.83870968,50.3362575 5.28774194,51.3117103 6.00580645,52.0128773 C4.74483871,52.8647082 3.91354839,54.2960161 3.88064516,55.9195171 C2.67967742,54.6987525 1.93548387,53.0288934 1.93548387,51.1871227 C1.93548387,47.4601207 4.97516129,44.4265594 8.70967742,44.4265594 C12.4441935,44.4265594 15.483871,47.4601207 15.483871,51.1871227 C15.483871,53.0288934 14.7396774,54.6987525 13.5387097,55.9195171 Z M6.77419355,49.2555332 C6.77419355,48.1902616 7.64225806,47.3239437 8.70967742,47.3239437 C9.77709677,47.3239437 10.6451613,48.1902616 10.6451613,49.2555332 C10.6451613,50.3208048 9.77709677,51.1871227 8.70967742,51.1871227 C7.64225806,51.1871227 6.77419355,50.3208048 6.77419355,49.2555332 Z M5.80645161,57.2861167 L5.80645161,56.0160966 C5.80645161,54.418672 7.10903226,53.1187123 8.70967742,53.1187123 C10.3103226,53.1187123 11.6129032,54.418672 11.6129032,56.0160966 L11.6129032,57.2861167 C10.7312903,57.7052716 9.74903226,57.9476861 8.70967742,57.9476861 C7.67032258,57.9476861 6.68806452,57.7052716 5.80645161,57.2861167 Z M8.70967742,42.4949698 C3.90677419,42.4949698 0,46.3938833 0,51.1871227 C0,55.9803622 3.90677419,59.8792757 8.70967742,59.8792757 C13.5125806,59.8792757 17.4193548,55.9803622 17.4193548,51.1871227 C17.4193548,46.3938833 13.5125806,42.4949698 8.70967742,42.4949698 Z" id="Fill-5" fill="#FFFFFF"></path>
                            </g>
                            <path d="M29.5454545,32.1333333 L31.4545455,32.1333333 L31.4545455,21.8666667 L29.5454545,21.8666667 L29.5454545,32.1333333 Z M37.1818182,32.1333333 L39.0909091,32.1333333 L39.0909091,25.6 L37.1818182,25.6 L37.1818182,32.1333333 Z M21.9090909,32.1333333 L23.8181818,32.1333333 L23.8181818,29.3333333 L21.9090909,29.3333333 L21.9090909,32.1333333 Z M20,27.4666667 L20,34 L41,34 L41,23.7333333 L35.2727273,23.7333333 L35.2727273,32.1333333 L33.3636364,32.1333333 L33.3636364,20 L27.6363636,20 L27.6363636,32.1333333 L25.7272727,32.1333333 L25.7272727,27.4666667 L20,27.4666667 Z" id="Fill-7" fill="#FFFFFF"></path>
                        </g>
                    </g>
                </g>
            </g>
        </g>
    </g>
</svg>