<?xml version="1.0" encoding="UTF-8"?>
<svg width="56px" height="67px" viewBox="0 0 56 67" version="1.1" xmlns="http://www.w3.org/2000/svg" xmlns:xlink="http://www.w3.org/1999/xlink">
    <!-- Generator: Sketch 51.3 (57544) - http://www.bohemiancoding.com/sketch -->
    <title>girl</title>
    <desc>Created with Sketch.</desc>
    <defs></defs>
    <g id="Page-1" stroke="none" stroke-width="1" fill="none" fill-rule="evenodd">
        <g id="legans-20" transform="translate(-613.000000, -1292.000000)">
            <g id="Group-6" transform="translate(567.000000, 1277.000000)">
                <g id="girl" transform="translate(46.000000, 15.000000)">
                    <g id="Group-4">
                        <polygon id="Clip-2" points="0.0107006369 0.144086022 55.8812486 0.144086022 55.8812486 45.0992849 0.0107006369 45.0992849"></polygon>
                        <path d="M55.3340637,23.1978495 C55.3340637,23.1978495 50.6259618,23.7740134 48.4858344,16.2820806 C45.5333503,5.94408871 38.9722548,0.144086022 27.9407898,0.144086022 C16.9091465,0.144086022 10.348051,5.94408871 7.39574522,16.2820806 C5.25561783,23.7740134 0.546802548,23.1978495 0.546802548,23.1978495 C0.546802548,23.1978495 -2.02099363,28.9612903 3.97100637,32.4191747 L1.68873885,32.4191747 C1.68873885,32.4191747 3.07643312,39.4181532 10.063949,40.3693011 C10.9521019,42.3962312 13.7303439,45.0992849 22.2337834,45.0992849 L33.6477962,45.0992849 C42.1512357,45.0992849 44.9294777,42.3962312 45.8176306,40.3693011 C52.8051465,39.4181532 54.1928408,32.4191747 54.1928408,32.4191747 L51.9098599,32.4191747 C57.9025732,28.9612903 55.3340637,23.1978495 55.3340637,23.1978495 Z" id="Fill-1" fill="#9D6E48"></path>
                        <path d="M39.3548025,23.1978495 C25.2301401,15.9935484 26.0856561,3.31433871 27.9407898,0.144086022 C16.9091465,0.144086022 10.348051,5.94408871 7.39574522,16.2820806 C5.25561783,23.7740134 0.546802548,23.1978495 0.546802548,23.1978495 C0.546802548,23.1978495 -2.02099363,28.9612903 3.97100637,32.4191747 L1.68873885,32.4191747 C1.68873885,32.4191747 3.07643312,39.4181532 10.063949,40.3693011 C10.9521019,42.3962312 13.7303439,45.0992849 22.2337834,45.0992849 L39.3548025,23.1978495 Z" id="Fill-3" fill="#8D5F3D"></path>
                    </g>
                    <path d="M49.1100382,63.0853629 L47.7997452,53.1562151 C47.5195669,51.0363495 46.1004841,49.2473414 44.1130191,48.5092608 L36.3500637,45.6248387 C35.4180382,45.3109113 34.7888408,44.4301855 34.7888408,43.4374328 L34.7888408,39.7198333 L39.7059618,37.6507581 C42.257707,36.5771371 43.920051,34.0585134 43.920051,31.2668468 L43.920051,30.1136183 C45.8113885,30.1136183 47.3447898,28.5659543 47.3447898,26.6557339 C47.3447898,24.746414 45.8113885,23.1978495 43.920051,23.1978495 L43.920051,20.892293 C43.920051,17.7094328 41.3652739,15.1288522 38.2130446,15.1288522 L17.6678217,15.1288522 C14.5163057,15.1288522 11.9608153,17.7094328 11.9608153,20.892293 L11.9608153,23.1978495 C10.0701911,23.1978495 8.53678981,24.746414 8.53678981,26.6557339 C8.53678981,28.5659543 10.0701911,30.1136183 11.9608153,30.1136183 L11.9608153,31.2668468 C11.9608153,34.0585134 13.6231592,36.5771371 16.1756178,37.6507581 L21.0920255,39.7198333 L21.0920255,43.4374328 C21.0920255,44.4294651 20.4635414,45.3101909 19.5315159,45.6248387 L11.7678471,48.5092608 C9.78109554,49.2473414 8.36201274,51.0363495 8.08183439,53.1562151 L6.77082803,63.0846425 C6.49707006,65.1580403 8.09449682,66.9998199 10.1648917,66.9998199 L45.7159745,66.9998199 C47.7870828,66.9998199 49.3837962,65.1580403 49.1100382,63.0853629 Z" id="Fill-5" fill="#F6B47B"></path>
                    <path d="M21.0920255,39.7677419 L21.0920255,43.4374328 C21.0920255,44.2578226 20.6620382,45.0007661 19.986293,45.4115914 C29.0818344,46.9986989 34.2810955,40.3973978 34.7533503,39.7677419 L21.0920255,39.7677419 Z" id="Fill-6" fill="#E2A071"></path>
                    <path d="M43.920051,23.1978495 L43.920051,20.892293 C43.920051,17.7094328 41.3652739,15.1288522 38.2130446,15.1288522 L17.6678217,15.1288522 C14.5163057,15.1288522 11.9608153,17.7094328 11.9608153,20.892293 L11.9608153,23.1978495 C10.0701911,23.1978495 8.53678981,24.746414 8.53678981,26.6557339 C8.53678981,28.5659543 10.0701911,30.1136183 11.9608153,30.1136183 L11.9608153,31.2668468 C11.9608153,34.0585134 13.6231592,36.5771371 16.1756178,37.6507581 L23.5504968,40.7541909 C24.941758,41.3395403 26.4339618,41.6405 27.9407898,41.6405 C29.4476178,41.6405 30.9391083,41.3395403 32.3303694,40.7541909 L39.7059618,37.6507581 C42.257707,36.5771371 43.920051,34.0585134 43.920051,31.2668468 L43.920051,30.1136183 C45.8113885,30.1136183 47.3447898,28.5659543 47.3447898,26.6557339 C47.3447898,24.746414 45.8113885,23.1978495 43.920051,23.1978495 Z" id="Fill-7" fill="#FDC88E"></path>
                    <path d="M19.9508025,27.8089624 C19.3232102,27.8089624 18.809758,27.2897124 18.809758,26.6557339 L18.809758,25.5034059 C18.809758,24.8694274 19.3232102,24.3501774 19.9508025,24.3501774 C20.5785732,24.3501774 21.0920255,24.8694274 21.0920255,25.5034059 L21.0920255,26.6557339 C21.0920255,27.2897124 20.5785732,27.8089624 19.9508025,27.8089624 Z" id="Fill-8" fill="#623F33"></path>
                    <path d="M27.9407898,35.9087581 C25.911414,35.9087581 24.013121,35.4042769 22.7333248,34.5249919 C22.2122038,34.1667581 22.0763057,33.4499301 22.4315669,32.9236559 C22.7855796,32.3981022 23.4961019,32.2615806 24.0172229,32.6190941 C24.9144713,33.2352419 26.3809936,33.603922 27.9407898,33.603922 C29.4998726,33.603922 30.9671083,33.2352419 31.8643567,32.6190941 C32.3861911,32.2601398 33.0952866,32.3973817 33.4500127,32.9236559 C33.8045605,33.4499301 33.6693758,34.1667581 33.1482548,34.5249919 C31.8684586,35.4042769 29.9701656,35.9087581 27.9407898,35.9087581 Z" id="Fill-9" fill="#E2A071"></path>
                    <path d="M41.0435414,47.2112258 L36.9366369,53.847828 C36.3104713,54.8587715 35.213121,55.4729382 34.0323057,55.4729382 L21.8485605,55.4729382 C20.6684586,55.4729382 19.5703949,54.8587715 18.9449427,53.847828 L14.8380382,47.2112258 C14.5079236,46.6786478 13.8161274,46.5104274 13.2830573,46.8340806 L9.53373248,49.105957 C8.98621656,49.4371747 8.81482803,50.1583253 9.15261146,50.7051317 L14.2437962,58.9308226 L41.6377834,58.9308226 L46.7282548,50.7051317 C47.0667516,50.1583253 46.8953631,49.4371747 46.3478471,49.105957 L42.5983439,46.8340806 C42.0647389,46.5104274 41.3729427,46.6786478 41.0435414,47.2112258 Z" id="Fill-10" fill="#F23F44"></path>
                    <polygon id="Fill-11" fill="#FF4F4F" points="14.2437962 66.9998199 41.6377834 66.9998199 41.6377834 58.9308226 14.2437962 58.9308226"></polygon>
                    <path d="M17.9528153,35.2609113 C17.0282803,34.2596935 16.5267771,32.9384247 16.5267771,31.568707 L16.5267771,19.3417473 C20.4920764,22.1481828 25.9775796,24.3424328 36.2155924,24.9272419 L35.2174013,21.468457 C35.2174013,21.468457 28.117707,17.4380108 24.6589045,15.1288522 L17.6678217,15.1288522 C17.2770701,15.1288522 16.8952357,15.170457 16.5267771,15.2464624 L16.5267771,15.2450215 C16.4390318,15.2632124 16.352,15.2837446 16.2655032,15.3055376 C16.2578344,15.3075188 16.2494522,15.3089597 16.2410701,15.311121 C16.2391083,15.3118414 16.2376815,15.3132823 16.2355414,15.3140027 C13.7770701,15.9562661 11.9608153,18.2090511 11.9608153,20.892293 L11.9608153,23.1978495 C10.0701911,23.1978495 8.53678981,24.746414 8.53678981,26.6557339 C8.53678981,28.5659543 10.0701911,30.1136183 11.9608153,30.1136183 L11.9608153,31.2668468 C11.9608153,34.0585134 13.6231592,36.5771371 16.1756178,37.6507581 L23.5504968,40.7541909 C23.9112866,40.9060215 24.2799236,41.0369597 24.6524841,41.1502473 C21.3936051,38.7420296 19.2242293,36.6376532 17.9528153,35.2609113 Z" id="Fill-12" fill="#F6B47B"></path>
                    <path d="M35.9307771,27.8089624 C35.3030064,27.8089624 34.7888408,27.2897124 34.7888408,26.6557339 L34.7888408,25.5034059 C34.7888408,24.8694274 35.3030064,24.3501774 35.9307771,24.3501774 C36.5583694,24.3501774 37.0718217,24.8694274 37.0718217,25.5034059 L37.0718217,26.6557339 C37.0718217,27.2897124 36.5583694,27.8089624 35.9307771,27.8089624 Z" id="Fill-13" fill="#623F33"></path>
                    <path d="M39.3548025,23.1978495 L38.2130446,20.892293 C38.2130446,20.892293 41.8252229,23.193707 44.0627261,23.193707 L44.0627261,14.5526882 L17.118879,14.5526882 C21.431949,18.7225376 26.8086624,23.1978495 39.3548025,23.1978495 Z" id="Fill-14" fill="#9D6E48"></path>
                    <path d="M39.3548025,23.1978495 C34.5589554,20.751629 31.4916178,17.6743118 29.602242,14.5526882 L17.118879,14.5526882 C21.431949,18.7225376 26.8086624,23.1978495 39.3548025,23.1978495 Z" id="Fill-15" fill="#8D5F3D"></path>
                </g>
            </g>
        </g>
    </g>
</svg>