<?xml version="1.0" encoding="UTF-8"?>
<svg width="39px" height="39px" viewBox="0 0 39 39" version="1.1" xmlns="http://www.w3.org/2000/svg" xmlns:xlink="http://www.w3.org/1999/xlink">
    <!-- Generator: Sketch 51.3 (57544) - http://www.bohemiancoding.com/sketch -->
    <title>Group 8</title>
    <desc>Created with Sketch.</desc>
    <defs></defs>
    <g id="Page-1" stroke="none" stroke-width="1" fill="none" fill-rule="evenodd">
        <g id="legans-10" transform="translate(-1017.000000, -393.000000)" fill="#F24033">
            <g id="Group-9" transform="translate(516.000000, 225.000000)">
                <g id="CIRCLE-COLOR" transform="translate(501.000000, 113.000000)">
                    <g id="Group-8" transform="translate(0.000000, 55.000000)">
                        <path d="M19.5,39 C8.74747884,39 0,30.2524103 0,19.5002471 C0,8.74758967 8.74747884,0 19.5,0 C30.2525212,0 39,8.74758967 39,19.5002471 C39,30.2524103 30.2525212,39 19.5,39 L19.5,39 Z M19.5,1.48230733 C9.56471393,1.48230733 1.48228855,9.56483511 1.48228855,19.5002471 C1.48228855,29.4351649 9.56471393,37.5176927 19.5,37.5176927 C29.434792,37.5176927 37.5177114,29.4351649 37.5177114,19.5002471 C37.5177114,9.56483511 29.434792,1.48230733 19.5,1.48230733 L19.5,1.48230733 Z" id="Google+-Circle"></path>
                        <path d="M16.3524397,18.2128588 L22.4531014,18.2128588 C22.8778529,21.3278165 21.5961639,26 16.3524397,26 C12.8443982,26 10,23.0900736 10,19.5002531 C10,15.9099264 12.8443982,13 16.3524397,13 C17.998414,13 19.4981786,13.6409128 20.6267192,14.6918883 C19.29745,15.9767514 19.3410651,16.052689 18.8186752,16.5872892 C18.1659356,16.0349702 17.4542165,15.6385763 16.3524397,15.6385763 C14.268332,15.6385763 12.6416871,17.3674208 12.6416871,19.5002531 C12.6416871,21.6325792 14.268332,23.3614237 16.3524397,23.3614237 C18.4117662,23.3614237 19.248383,22.4527045 19.786633,20.7841037 C18.7929026,20.7841037 16.3524397,20.7871412 16.3524397,20.7871412 L16.3524397,18.2128588 Z M27.7989245,18.3414463 L30,18.3414463 L30,19.9503096 L27.7989245,19.9503096 L27.7989245,22.267417 L26.2267985,22.267417 L26.2267985,19.9503096 L23.9622829,19.9503096 L23.9622829,18.3414463 L26.2267985,18.3414463 L26.2267985,16.089139 L27.7989245,16.089139 L27.7989245,18.3414463 Z" id="Google+"></path>
                    </g>
                </g>
            </g>
        </g>
    </g>
</svg>