<?xml version="1.0" encoding="UTF-8"?>
<svg width="28px" height="29px" viewBox="0 0 28 29" version="1.1" xmlns="http://www.w3.org/2000/svg" xmlns:xlink="http://www.w3.org/1999/xlink">
    <!-- Generator: Sketch 51.3 (57544) - http://www.bohemiancoding.com/sketch -->
    <title>instagram</title>
    <desc>Created with Sketch.</desc>
    <defs>
        <path d="M27.951,8.37575362 L27.951,19.6732464 C27.951,24.1888103 24.3379987,27.8763867 19.851015,27.9969565 L8.09998501,27.9969565 C3.61300128,27.8763867 0,24.1888103 0,19.6732464 L0,8.37575362 C0,3.78436232 3.73536232,0.049 8.32675362,0.049 L19.6242464,0.049 C24.215587,0.049 27.9509493,3.78436232 27.951,8.37575362 Z M25.1391304,19.6732464 L25.1391304,8.37575362 C25.1391304,5.32994203 22.6700072,2.86086957 19.6242464,2.86086957 L8.32675362,2.86086957 C5.28099275,2.86086957 2.81186957,5.32994203 2.81186957,8.37575362 L2.81186957,19.6732464 C2.81186957,22.7190072 5.28099275,25.1881304 8.32675362,25.1881304 L19.6242464,25.1881304 C22.6700072,25.1881304 25.1391304,22.7190072 25.1391304,19.6732464 Z" id="path-1"></path>
        <path d="M7.3085641,11.8238974 C4.84215385,11.8238974 2.84276923,9.82451282 2.84276923,7.35810256 C2.84276923,4.89169231 4.84220513,2.89230769 7.3085641,2.89230769 C9.77497436,2.89230769 11.774359,4.89169231 11.774359,7.35810256 C11.774359,9.82446154 9.77492308,11.8238974 7.3085641,11.8238974 Z M7.3085641,0.0495384615 C3.27861538,0.0495384615 0,3.32815385 0,7.35805128 C0,11.3879487 3.27861538,14.6666154 7.3085641,14.6666154 C11.3385128,14.6666154 14.6171282,11.388 14.6171282,7.35805128 C14.6171282,3.32810256 11.3385128,0.0495384615 7.3085641,0.0495384615 Z" id="path-3"></path>
    </defs>
    <g id="Symbols" stroke="none" stroke-width="1" fill="none" fill-rule="evenodd">
        <g id="ащщеук" transform="translate(-1392.000000, -180.000000)">
            <g id="Group-7">
                <g id="Group-22" transform="translate(1157.000000, 177.000000)">
                    <g id="Group-58" transform="translate(50.000000, 0.500000)">
                        <g id="instagram" transform="translate(185.000000, 3.000000)">
                            <g id="Group-3">
                                <mask id="mask-2" fill="white">
                                    <use xlink:href="#path-1"></use>
                                </mask>
                                <use id="Clip-2" fill="#414D6A" xlink:href="#path-1"></use>
                                <polygon id="Fill-1" mask="url(#mask-2)" points="0 27.9969565 27.951 27.9969565 27.951 0.049 0 0.049"></polygon>
                            </g>
                            <g id="Group-6" transform="translate(6.666667, 6.666667)">
                                <mask id="mask-4" fill="white">
                                    <use xlink:href="#path-3"></use>
                                </mask>
                                <g id="Clip-5"></g>
                                <path d="M7.3085641,11.8238974 C4.84215385,11.8238974 2.84276923,9.82451282 2.84276923,7.35810256 C2.84276923,4.89169231 4.84220513,2.89230769 7.3085641,2.89230769 C9.77497436,2.89230769 11.774359,4.89169231 11.774359,7.35810256 C11.774359,9.82446154 9.77492308,11.8238974 7.3085641,11.8238974 Z M7.3085641,0.0495384615 C3.27861538,0.0495384615 0,3.32815385 0,7.35805128 C0,11.3879487 3.27861538,14.6666154 7.3085641,14.6666154 C11.3385128,14.6666154 14.6171282,11.388 14.6171282,7.35805128 C14.6171282,3.32810256 11.3385128,0.0495384615 7.3085641,0.0495384615 Z" id="Fill-4" fill="#414D6A" mask="url(#mask-4)"></path>
                            </g>
                            <g id="Group-9" transform="translate(19.333333, 4.666667)">
                                <path d="M1.65748792,0.0421904762 C2.56864734,0.0421904762 3.30724638,0.770238095 3.30724638,1.66838095 C3.30724638,2.56652381 2.56864734,3.29457143 1.65748792,3.29457143 C0.746328502,3.29457143 0.0077294686,2.56652381 0.0077294686,1.66838095 C0.0077294686,0.770238095 0.746328502,0.0421904762 1.65748792,0.0421904762" id="Clip-8"></path>
                                <path d="M1.65748792,0.0421904762 C2.56864734,0.0421904762 3.30724638,0.770238095 3.30724638,1.66838095 C3.30724638,2.56652381 2.56864734,3.29457143 1.65748792,3.29457143 C0.746328502,3.29457143 0.0077294686,2.56652381 0.0077294686,1.66838095 C0.0077294686,0.770238095 0.746328502,0.0421904762 1.65748792,0.0421904762" id="Fill-7" fill="#414D6A"></path>
                            </g>
                        </g>
                    </g>
                </g>
            </g>
        </g>
    </g>
</svg>