<?xml version="1.0" encoding="UTF-8"?>
<svg width="27px" height="21px" viewBox="0 0 27 21" version="1.1" xmlns="http://www.w3.org/2000/svg" xmlns:xlink="http://www.w3.org/1999/xlink">
    <!-- Generator: Sketch 51.3 (57544) - http://www.bohemiancoding.com/sketch -->
    <title>login</title>
    <desc>Created with Sketch.</desc>
    <defs></defs>
    <g id="Page-1" stroke="none" stroke-width="1" fill="none" fill-rule="evenodd">
        <g id="15" transform="translate(-1261.000000, -299.000000)" fill="#304FFF" fill-rule="nonzero">
            <g id="Group-4" transform="translate(1226.000000, 106.000000)">
                <g id="login" transform="translate(35.000000, 193.000000)">
                    <path d="M20.1644385,9.74447754 L17.7570703,8.04726562 C17.3208691,7.73978027 16.7180273,8.05289062 16.7180273,8.58603516 L16.7180273,9.62406738 L1.02987789,9.62406738 C0.665834919,9.62406738 0.3706982,9.9192041 0.3706982,10.2832471 C0.3706982,10.64729 0.665834919,10.9424268 1.02987789,10.9424268 L16.7180273,10.9424268 L16.7180273,11.980415 C16.7180273,12.5170752 17.3240771,12.8242969 17.7570264,12.5191846 L20.1643945,10.8220166 C20.5363477,10.5598828 20.53604,10.0069629 20.1644385,9.74447754 Z" id="Shape"></path>
                    <path d="M16.7346387,0.0178857422 C12.9485303,0.0178857422 9.62323242,2.07263672 7.84305176,5.14995117 C7.6607666,5.46508301 7.76843262,5.8683252 8.08356445,6.05061035 C8.39874023,6.23289551 8.80193848,6.1251416 8.98422363,5.81005371 C10.5327246,3.13334473 13.4268311,1.33624512 16.7346387,1.33624512 C21.6680273,1.33624512 25.6816406,5.34981445 25.6816406,10.2832471 C25.6816406,15.2166797 21.6680273,19.230249 16.7346387,19.230249 C13.4248096,19.230249 10.531626,17.4313916 8.98417969,14.7563086 C8.80189453,14.4411768 8.39869629,14.3335547 8.08352051,14.515752 C7.76838867,14.6980371 7.66067871,15.1012793 7.84300781,15.4164111 C9.62362793,18.4946484 12.9494971,20.5485645 16.7346387,20.5485645 C22.4083301,20.5486084 27,15.9573779 27,10.2832471 C27,4.60951172 22.4088135,0.0178857422 16.7346387,0.0178857422 Z" id="Shape"></path>
                </g>
            </g>
        </g>
    </g>
</svg>