<?xml version="1.0" encoding="UTF-8"?>
<svg width="137px" height="37px" viewBox="0 0 137 37" version="1.1" xmlns="http://www.w3.org/2000/svg" xmlns:xlink="http://www.w3.org/1999/xlink">
    <!-- Generator: Sketch 51.3 (57544) - http://www.bohemiancoding.com/sketch -->
    <title>logo</title>
    <desc>Created with Sketch.</desc>
    <defs></defs>
    <g id="Symbols" stroke="none" stroke-width="1" fill="none" fill-rule="evenodd">
        <g id="руфвук" transform="translate(-220.000000, -56.000000)">
            <g id="Group-24">
                <g id="Group-6" transform="translate(0.000000, 43.000000)">
                    <g id="logo" transform="translate(220.000000, 13.000000)">
                        <g id="Group-3">
                            <g id="Group" transform="translate(0.000000, 14.000000)">
                                <path d="M75.444659,22.0130909 L74.2183121,19.1959394 L65.2692948,19.1959394 L64.042948,22.0130909 L59.2369942,22.0130909 L69.0146243,0 L70.5061272,0 L80.2506127,22.0130909 L75.444659,22.0130909 Z M72.6605202,15.5598485 L69.7438035,8.25490909 L66.8270867,15.5598485 L72.6605202,15.5598485 Z M97.3863237,0.393090909 L101.860832,0.393090909 L101.860832,22.4061818 L100.369329,22.4061818 L87.7081272,9.04109091 L87.7081272,22.0130909 L83.2336185,22.0130909 L83.2336185,0 L84.6919769,0 L97.3863237,13.2995758 L97.3863237,0.393090909 Z M105.341006,17.6235758 L108.423445,15.3305455 C109.848659,17.2632424 111.406451,18.4752727 113.792855,18.4752727 C115.748382,18.4752727 116.908439,17.5580606 116.908439,16.0839697 C116.908439,14.8064242 116.212405,14.3478182 114.124301,13.3978485 L111.77104,12.3496061 C108.423445,10.8755152 106.467919,9.00833333 106.467919,6.12566667 C106.467919,2.42406061 109.583503,0 113.726566,0 C117.074162,0 119.593145,1.60512121 120.952069,4.09469697 L117.902775,6.42048485 C116.775861,4.74984848 115.383792,3.93090909 113.726566,3.93090909 C112.168775,3.93090909 111.008717,4.68433333 111.008717,6.02739394 C111.008717,7.17390909 111.704751,7.6980303 113.560844,8.5169697 L116.046682,9.5979697 C119.725723,11.2030909 121.449237,13.0047576 121.449237,15.9201818 C121.449237,19.8838485 118.167931,22.4061818 113.792855,22.4061818 C110.080671,22.4061818 107.031376,20.539 105.341006,17.6235758 Z" id="ANS" fill="#106A8C"></path>
                                <path d="M0,22.0144938 L0,0.394493829 L4.47450867,0.394493829 L4.47450867,18.0180696 L14.0532717,18.0180696 L14.0532717,22.0144938 L0,22.0144938 Z M17.3677225,22.0144938 L17.3677225,0.394493829 L32.0838844,0.394493829 L32.0838844,4.39091807 L21.8422312,4.39091807 L21.8422312,8.78043322 L29.3660347,8.78043322 L29.3660347,12.5475544 L21.8422312,12.5475544 L21.8422312,18.0180696 L32.4816185,18.0180696 L32.4816185,22.0144938 L17.3677225,22.0144938 Z M35.1000347,11.2044938 C34.9674566,4.98055444 40.3368671,-0.096869807 46.8000462,0.00140292027 C50.6448092,0.00140292027 53.8929711,1.70479686 56.0142197,4.68573625 L52.8323468,7.27358474 C51.2745549,5.14434231 49.2527399,4.09609989 46.7337572,4.09609989 C42.5575491,4.09609989 39.7071214,7.07703928 39.7071214,11.2044938 C39.7071214,15.3974635 42.6569827,18.4439181 46.9989133,18.4439181 C49.517896,18.4439181 51.539711,17.4284332 52.7660578,15.7577969 L52.7660578,13.9888878 L46.7337572,13.9888878 L46.7337572,10.1562514 L57.2405665,10.1562514 L57.2405665,16.5439787 C56.2462312,18.2801302 54.8210173,19.7214635 52.9649249,20.8024635 C51.1419769,21.8834635 49.0870173,22.4075847 46.8000462,22.4075847 C40.3700116,22.538615 35.0006012,17.3956756 35.1000347,11.2044938 Z" id="LEG" fill="#263A55"></path>
                            </g>
                            <g id="Group-2" transform="translate(121.000000, 0.000000)">
                                <circle id="Oval" fill="#263A55" fill-rule="nonzero" cx="8" cy="8" r="8"></circle>
                                <path d="M2.82352941,8.29378976 L2.82352941,4.95140665 L4.28004503,4.95140665 L4.28004503,8.42651977 C4.28004503,9.11430258 4.70081621,9.57282445 5.29421146,9.57282445 C5.8552397,9.57282445 6.28679989,9.11430258 6.28679989,8.42651977 L6.28679989,4.95140665 L7.74331551,4.95140665 L7.74331551,8.29378976 C7.74331551,9.95894813 6.68599306,11.0690537 5.29421146,11.0690537 C3.87006286,11.0690537 2.82352941,9.95894813 2.82352941,8.29378976 Z M10.9666236,9.66014105 L13.6470588,9.66014105 L13.6470588,11.0690537 L8.72727273,11.0690537 L8.72727273,10.6241339 L11.4077079,6.36031931 L8.98739935,6.36031931 L8.98739935,4.95140665 L13.6244391,4.95140665 L13.6244391,5.39632644 L10.9666236,9.66014105 Z" id="uz" fill="#FFFFFF"></path>
                            </g>
                        </g>
                    </g>
                </g>
            </g>
        </g>
    </g>
</svg>