<?xml version="1.0" encoding="UTF-8"?>
<svg width="32px" height="33px" viewBox="0 0 32 33" version="1.1" xmlns="http://www.w3.org/2000/svg" xmlns:xlink="http://www.w3.org/1999/xlink">
    <!-- Generator: Sketch 51.3 (57544) - http://www.bohemiancoding.com/sketch -->
    <title>Group 57</title>
    <desc>Created with Sketch.</desc>
    <defs></defs>
    <g id="Symbols" stroke="none" stroke-width="1" fill="none" fill-rule="evenodd">
        <g id="ащщеук" transform="translate(-1300.000000, -178.000000)" fill="#414D6A">
            <g id="Group-7">
                <g id="Group-22" transform="translate(1157.000000, 177.000000)">
                    <g id="Group-58" transform="translate(50.000000, 0.500000)">
                        <g id="Group-57" transform="translate(93.000000, 1.000000)">
                            <path d="M15.8387848,0.324050633 C7.09022785,0.324050633 0,7.41589873 0,16.1628354 C0,24.9093671 7.09022785,31.9995949 15.8387848,31.9995949 C24.5853165,31.9995949 31.6755443,24.9093671 31.6755443,16.1628354 C31.6755443,7.41589873 24.5853165,0.324050633 15.8387848,0.324050633 Z M15.8606582,5.14065823 C18.9460253,5.14835443 21.420962,7.6723038 21.4051646,10.7908861 C21.3909873,13.8381772 18.873519,16.3082532 15.7942278,16.2973165 C12.7453165,16.2875949 10.2452658,13.7591899 10.2643038,10.707038 C10.2801013,7.62005063 12.7817722,5.13255696 15.8606582,5.14065823 Z M22.1091646,18.4887089 C21.427038,19.1894684 20.6059747,19.6957975 19.692962,20.0502278 C18.8322025,20.384 17.8875949,20.5521013 16.9527089,20.6643038 C17.0932658,20.8178228 17.1596962,20.8935696 17.2484051,20.9822785 C18.5174684,22.2574177 19.7926076,23.526481 21.0568101,24.806481 C21.4873924,25.2419241 21.5777215,25.7830886 21.3403544,26.2894177 C21.0807089,26.8431392 20.4998481,27.2085063 19.9303291,27.1688101 C19.5694177,27.1436962 19.2878987,26.9650633 19.0379747,26.7131139 C18.0808101,25.7498734 17.1046076,24.8020253 16.1660759,23.820962 C15.8922532,23.5345823 15.7610127,23.5900759 15.5204051,23.8367595 C14.5571646,24.8287595 13.5777215,25.8065823 12.5934177,26.7767089 C12.1502785,27.2133671 11.6249114,27.2923544 11.1108861,27.0424304 C10.566481,26.7783291 10.2185316,26.2229873 10.2452658,25.6627848 C10.2643038,25.2844557 10.451038,24.9948354 10.7102785,24.7355949 C11.9667848,23.4823291 13.2184304,22.2242025 14.4716962,20.9681013 C14.5555443,20.8842532 14.6329114,20.7955443 14.7532152,20.6659241 C13.0442532,20.4885063 11.5029873,20.0676456 10.1836962,19.0359494 C10.0204557,18.9079494 9.85113924,18.7827848 9.70248101,18.6406076 C9.12486076,18.0852658 9.06653165,17.4505316 9.5238481,16.7955443 C9.91473418,16.2353418 10.5697215,16.0866835 11.251443,16.4078987 C11.3843038,16.4694684 11.5094684,16.5488608 11.6313924,16.6310886 C14.0885063,18.3210127 17.4667342,18.3667848 19.9335696,16.7068354 C20.1786329,16.5201013 20.4398987,16.3665823 20.7420759,16.2892152 C21.3322532,16.1373165 21.881519,16.3540253 22.1962532,16.8700759 C22.5583797,17.4586329 22.5539241,18.0330127 22.1091646,18.4887089 Z" id="Fill-2"></path>
                            <g id="odnoklassniki-logo" transform="translate(12.962025, 7.696203)">
                                <path d="M2.89093671,5.75432911 C4.40344304,5.74825316 5.6076962,4.53468354 5.60283544,3.01853165 C5.59635443,1.50116456 4.38926582,0.295696203 2.87675949,0.294075949 C1.35129114,0.292455696 0.132860759,1.52182278 0.143797468,3.05174684 C0.155139241,4.56141772 1.37356962,5.75918987 2.89093671,5.75432911 Z" id="Fill-1"></path>
                            </g>
                        </g>
                    </g>
                </g>
            </g>
        </g>
    </g>
</svg>