<?xml version="1.0" encoding="UTF-8"?>
<svg width="29px" height="29px" viewBox="0 0 29 29" version="1.1" xmlns="http://www.w3.org/2000/svg" xmlns:xlink="http://www.w3.org/1999/xlink">
    <!-- Generator: Sketch 51.3 (57544) - http://www.bohemiancoding.com/sketch -->
    <title>Group 3</title>
    <desc>Created with Sketch.</desc>
    <defs></defs>
    <g id="Page-1" stroke="none" stroke-width="1" fill="none" fill-rule="evenodd">
        <g id="legans-08" transform="translate(-293.000000, -358.000000)">
            <g id="Group-3" transform="translate(293.000000, 358.000000)">
                <circle id="Oval" fill="#FFFFFF" fill-rule="nonzero" cx="14.5" cy="14.5" r="14.5"></circle>
                <g id="Group-2" transform="translate(2.000000, 2.000000)">
                    <polygon id="Star" fill="#0091EA" fill-rule="nonzero" points="12 22.3331473 8.89417146 23.5911099 6.83342634 20.9487681 3.51471863 20.4852814 3.05123192 17.1665737 0.408890085 15.1058285 1.66685268 12 0.408890085 8.89417146 3.05123192 6.83342634 3.51471863 3.51471863 6.83342634 3.05123192 8.89417146 0.408890085 12 1.66685268 15.1058285 0.408890085 17.1665737 3.05123192 20.4852814 3.51471863 20.9487681 6.83342634 23.5911099 8.89417146 22.3331473 12 23.5911099 15.1058285 20.9487681 17.1665737 20.4852814 20.4852814 17.1665737 20.9487681 15.1058285 23.5911099"></polygon>
                    <g id="checked-(2)" transform="translate(6.000000, 7.200000)">
                        <polygon id="Clip-2" points="0.036 0.024 12.4794 0.024 12.4794 9.6 0.036 9.6"></polygon>
                        <path d="M0.1428,5.2806 C0.0468,5.1846 0,5.0388 0,4.9428 C0,4.8468 0.0468,4.704 0.1428,4.608 L0.8154,3.9354 C1.008,3.7428 1.296,3.7428 1.488,3.9354 L1.5354,3.9846 L4.1766,6.8154 C4.2726,6.912 4.4154,6.912 4.512,6.8154 L10.9428,0.1428 L10.992,0.1428 C11.1846,-0.0468 11.4726,-0.0468 11.6646,0.1428 L12.3354,0.8154 C12.5274,1.008 12.5274,1.296 12.3354,1.488 L4.6572,9.4572 C4.5612,9.5532 4.4646,9.6 4.3194,9.6 C4.1766,9.6 4.0806,9.5532 3.9846,9.4572 L0.2388,5.4234 L0.1428,5.2806 Z" id="Fill-1" fill="#FFFFFF"></path>
                    </g>
                </g>
            </g>
        </g>
    </g>
</svg>