<?xml version="1.0" encoding="UTF-8"?>
<svg width="19px" height="20px" viewBox="0 0 19 20" version="1.1" xmlns="http://www.w3.org/2000/svg" xmlns:xlink="http://www.w3.org/1999/xlink">
    <!-- Generator: Sketch 51.3 (57544) - http://www.bohemiancoding.com/sketch -->
    <title>Group 7</title>
    <desc>Created with Sketch.</desc>
    <defs></defs>
    <g id="Symbols" stroke="none" stroke-width="1" fill="none" fill-rule="evenodd">
        <g id="руфвук" transform="translate(-1196.000000, -12.000000)" fill="#106A8C" stroke="#106A8C" stroke-width="0.5">
            <g id="Group-24">
                <g id="Group-7" transform="translate(1197.000000, 13.000000)">
                    <path d="M16.9076824,17.4260697 L11.9547123,12.1736093 C13.2180592,10.8808855 14.0009844,9.10046966 14.0009844,7.1373817 C14.0009844,3.20101012 10.8592838,0 7.00049218,0 C3.1396172,0 0,3.20101012 0,7.1373817 C0,11.072054 3.1396172,14.2747634 7.00049218,14.2747634 C8.69467712,14.2747634 10.2492772,13.6558023 11.4617903,12.6319889 L16.4260105,17.8971938 C16.4910112,17.9668641 16.5789288,18 16.6668464,18 C16.749764,18 16.8326816,17.9685634 16.8980989,17.9056902 C17.029767,17.7761205 17.0347671,17.5603125 16.9076824,17.4260697 L16.9076824,17.4260697 Z M7.00049218,13.5942036 C3.50753784,13.5942036 0.6675072,10.6969389 0.6675072,7.1373817 C0.6675072,3.57612518 3.50753784,0.680559817 7.00049218,0.680559817 C10.4917798,0.680559817 13.3334772,3.57612518 13.3334772,7.1373817 C13.3334772,10.6969389 10.4917798,13.5942036 7.00049218,13.5942036 L7.00049218,13.5942036 Z" id="search"></path>
                </g>
            </g>
        </g>
    </g>
</svg>