<?xml version="1.0" encoding="UTF-8"?>
<svg width="19px" height="26px" viewBox="0 0 19 26" version="1.1" xmlns="http://www.w3.org/2000/svg" xmlns:xlink="http://www.w3.org/1999/xlink">
    <!-- Generator: Sketch 51.3 (57544) - http://www.bohemiancoding.com/sketch -->
    <title>shopping-list</title>
    <desc>Created with Sketch.</desc>
    <defs></defs>
    <g id="Page-1" stroke="none" stroke-width="1" fill="none" fill-rule="evenodd">
        <g id="15" transform="translate(-1265.000000, -250.000000)" fill="#304FFF" fill-rule="nonzero">
            <g id="Group-4" transform="translate(1226.000000, 106.000000)">
                <g id="shopping-list" transform="translate(39.000000, 144.000000)">
                    <path d="M9.26883333,9.73275 C8.96008333,9.424 8.45816667,9.42241667 8.14783333,9.73116667 L5.54166667,12.3389167 L4.51883333,11.3145 C4.21008333,11.00575 3.70816667,11.00575 3.39941667,11.3145 C3.09066667,11.62325 3.09066667,12.1251667 3.39941667,12.4339167 L4.98275,14.01725 C5.13633333,14.1724167 5.339,14.25 5.54166667,14.25 C5.74433333,14.25 5.947,14.1724167 6.10216667,14.0188333 L9.26883333,10.8521667 C9.57758333,10.5434167 9.57758333,10.0415 9.26883333,9.73275 Z" id="Shape"></path>
                    <path d="M9.26883333,16.0660833 C8.96008333,15.7573333 8.45816667,15.75575 8.14783333,16.0645 L5.54166667,18.67225 L4.51883333,17.6494167 C4.21008333,17.3406667 3.70816667,17.3406667 3.39941667,17.6494167 C3.09066667,17.9581667 3.09066667,18.4600833 3.39941667,18.7688333 L4.98275,20.3521667 C5.13633333,20.50575 5.339,20.5833333 5.54166667,20.5833333 C5.74433333,20.5833333 5.947,20.50575 6.10216667,20.3521667 L9.26883333,17.1855 C9.57758333,16.87675 9.57758333,16.3748333 9.26883333,16.0660833 Z" id="Shape"></path>
                    <path d="M15.0416667,11.0833333 L11.875,11.0833333 C11.438,11.0833333 11.0833333,11.438 11.0833333,11.875 C11.0833333,12.312 11.438,12.6666667 11.875,12.6666667 L15.0416667,12.6666667 C15.4786667,12.6666667 15.8333333,12.312 15.8333333,11.875 C15.8333333,11.438 15.4786667,11.0833333 15.0416667,11.0833333 Z" id="Shape"></path>
                    <path d="M15.0416667,17.4166667 L11.875,17.4166667 C11.438,17.4166667 11.0833333,17.7713333 11.0833333,18.2083333 C11.0833333,18.6453333 11.438,19 11.875,19 L15.0416667,19 C15.4786667,19 15.8333333,18.6453333 15.8333333,18.2083333 C15.8333333,17.7713333 15.4786667,17.4166667 15.0416667,17.4166667 Z" id="Shape"></path>
                    <path d="M17.4166667,3.16666667 L14.25,3.16666667 L14.25,2.375 C14.25,1.938 13.8953333,1.58333333 13.4583333,1.58333333 L11.7404167,1.58333333 C11.4126667,0.661833333 10.5323333,0 9.5,0 C8.46766667,0 7.58733333,0.661833333 7.25958333,1.58333333 L5.54166667,1.58333333 C5.10466667,1.58333333 4.75,1.938 4.75,2.375 L4.75,3.16666667 L1.58333333,3.16666667 C0.710916667,3.16666667 0,3.87758333 0,4.75 L0,23.75 C0,24.6224167 0.710916667,25.3333333 1.58333333,25.3333333 L17.4166667,25.3333333 C18.2890833,25.3333333 19,24.6224167 19,23.75 L19,4.75 C19,3.87758333 18.2890833,3.16666667 17.4166667,3.16666667 Z M6.33333333,3.16666667 L7.91666667,3.16666667 C8.35366667,3.16666667 8.70833333,2.812 8.70833333,2.375 C8.70833333,1.938 9.063,1.58333333 9.5,1.58333333 C9.937,1.58333333 10.2916667,1.938 10.2916667,2.375 C10.2916667,2.812 10.6463333,3.16666667 11.0833333,3.16666667 L12.6666667,3.16666667 L12.6666667,4.75 L6.33333333,4.75 L6.33333333,3.16666667 Z M17.4166667,23.75 L1.58333333,23.75 L1.58333333,4.75 L4.75,4.75 L4.75,5.54166667 C4.75,5.97866667 5.10466667,6.33333333 5.54166667,6.33333333 L13.4583333,6.33333333 C13.8953333,6.33333333 14.25,5.97866667 14.25,5.54166667 L14.25,4.75 L17.4166667,4.75 L17.4166667,23.75 Z" id="Shape"></path>
                </g>
            </g>
        </g>
    </g>
</svg>