<svg width="20px" height="20px" viewBox="0 0 20 20" version="1.1" xmlns="http://www.w3.org/2000/svg">
    <title>star (2)</title>
    <desc>Created with Sketch.</desc>
    <defs></defs>
    <g id="Symbols" stroke="none" stroke-width="1" fill="none" fill-rule="evenodd" opacity="0.600000024">
        <g id="answer" transform="translate(-731.000000, -17.000000)">
            <g id="Group-7">
                <g id="Group-5">
                    <g id="star-(2)" transform="translate(731.000000, 17.000000)">
                        <polygon id="Clip-2" points="0.03 0.3615 19.9756278 0.3615 19.9756278 19.5 0.03 19.5"></polygon>
                        <path d="M19.543,9.035 C19.9355,8.6525 20.074,8.09 19.9045,7.5665 C19.7345,7.043 19.291,6.67 18.748,6.592 L13.91,5.889 C13.705,5.8595 13.5275,5.7285 13.4355,5.543 L11.2735,1.16 C11.0295,0.668 10.537,0.3615 9.9885,0.3615 C9.4395,0.3615 8.9475,0.668 8.703,1.16 L6.541,5.543 C6.449,5.7285 6.2695,5.8595 6.0645,5.889 L1.2265,6.592 C0.6835,6.67 0.24,7.043 0.0705,7.5665 C-0.0975,8.09 0.041,8.6525 0.4335,9.035 L3.9335,12.4455 C4.082,12.592 4.1505,12.801 4.115,13.006 L3.289,17.8245 C3.1975,18.3655 3.414,18.9005 3.8595,19.2245 C4.3025,19.547 4.881,19.59 5.367,19.334 L9.6935,17.0585 C9.877,16.963 10.0975,16.963 10.283,17.0585 L14.6075,19.334 C14.8205,19.4455 15.049,19.5 15.2755,19.5 C15.5725,19.5 15.865,19.4065 16.117,19.2245 C16.5605,18.9005 16.7795,18.3655 16.6875,17.8245 L15.8595,13.006 C15.824,12.801 15.8925,12.592 16.043,12.4475 L19.543,9.035 Z M15.0725,13.1425 L15.8985,17.959 C15.9395,18.2015 15.8455,18.4315 15.6465,18.578 C15.4475,18.7225 15.199,18.7405 14.9805,18.625 L10.6545,16.3515 C10.4475,16.2425 10.217,16.1875 9.9885,16.1875 C9.76,16.1875 9.5295,16.2425 9.3205,16.3515 L4.996,18.625 C4.7775,18.7405 4.5295,18.7225 4.33,18.578 C4.131,18.4315 4.037,18.2015 4.078,17.959 L4.9045,13.1425 C4.9845,12.678 4.83,12.203 4.492,11.873 L0.992,8.463 C0.8165,8.291 0.756,8.047 0.832,7.8145 C0.908,7.58 1.0995,7.418 1.342,7.383 L6.1795,6.68 C6.6465,6.6135 7.049,6.3205 7.258,5.8965 L9.42,1.514 C9.5295,1.293 9.742,1.162 9.9885,1.162 C10.2345,1.162 10.4455,1.293 10.5545,1.514 L12.719,5.8965 C12.926,6.3205 13.33,6.6135 13.797,6.68 L18.633,7.383 C18.877,7.418 19.0685,7.58 19.1425,7.8145 C19.219,8.047 19.16,8.291 18.9845,8.463 L15.4845,11.873 C15.1465,12.203 14.992,12.676 15.0725,13.1425 Z" id="Fill-1" fill="#000000"></path>
                    </g>
                </g>
            </g>
        </g>
    </g>
</svg>