<?xml version="1.0" encoding="UTF-8"?>
<svg width="39px" height="39px" viewBox="0 0 39 39" version="1.1" xmlns="http://www.w3.org/2000/svg" xmlns:xlink="http://www.w3.org/1999/xlink">
    <!-- Generator: Sketch 51.3 (57544) - http://www.bohemiancoding.com/sketch -->
    <title>Group 5</title>
    <desc>Created with Sketch.</desc>
    <defs></defs>
    <g id="Page-1" stroke="none" stroke-width="1" fill="none" fill-rule="evenodd">
        <g id="legans-10" transform="translate(-1017.000000, -453.000000)" fill="#24A9E6">
            <g id="Group-9" transform="translate(516.000000, 225.000000)">
                <g id="CIRCLE-COLOR" transform="translate(501.000000, 113.000000)">
                    <g id="Group-5" transform="translate(0.000000, 115.000000)">
                        <path d="M19.5,39 C8.74797294,39 0,30.2524103 0,19.5002471 C0,8.74758967 8.74797294,0 19.5,0 C30.2525212,0 39,8.74758967 39,19.5002471 C39,30.2524103 30.2525212,39 19.5,39 L19.5,39 Z M19.5,1.48230733 C9.56520803,1.48230733 1.48228855,9.56483511 1.48228855,19.5002471 C1.48228855,29.4351649 9.56520803,37.5176927 19.5,37.5176927 C29.4352861,37.5176927 37.5177114,29.4351649 37.5177114,19.5002471 C37.5177114,9.56483511 29.4352861,1.48230733 19.5,1.48230733 L19.5,1.48230733 Z" id="Twitter-Circle"></path>
                        <path d="M28.4759565,12.2773061 C27.722105,12.7108071 26.8891144,13.0260805 25.9987985,13.1947711 C25.2895896,12.4594534 24.2759993,12 23.1538462,12 C21.0028836,12 19.2572558,13.6955561 19.2572558,15.7866457 C19.2572558,16.0831758 19.2907377,16.3715357 19.3577017,16.6488418 C16.118068,16.4907244 13.2462286,14.9850053 11.3225376,12.6911025 C10.9867033,13.252443 10.794943,13.9036558 10.794943,14.5966807 C10.794943,15.9101599 11.4828452,17.0693666 12.5294102,17.7484541 C11.8912237,17.7301913 11.2890556,17.5581366 10.7624756,17.2760245 L10.7624756,17.3226427 C10.7624756,19.1580533 12.1063199,20.6892442 13.8910101,21.0357566 C13.5643073,21.1246676 13.2193416,21.1688828 12.8637225,21.1688828 C12.6126078,21.1688828 12.3675807,21.1462946 12.1301631,21.1020794 C12.626305,22.6058761 14.0650148,23.7011631 15.7710731,23.729999 C14.4373748,24.7464676 12.7556671,25.3520233 10.9298855,25.3520233 C10.6153579,25.3520233 10.3043815,25.3347217 10,25.3001185 C11.7248285,26.3728173 13.7748378,27 15.975516,27 C23.1462366,27 27.0661629,21.2308801 27.0661629,16.2263945 C27.0661629,16.0615488 27.0631191,15.8971837 27.0565242,15.7357022 C27.8179852,15.2012752 28.4795076,14.5351639 29,13.7758162 C28.3019518,14.0766717 27.5501295,14.280446 26.7617814,14.37176 C27.5668705,13.9036558 28.1847649,13.1611291 28.4759565,12.2773061" id="Twitter"></path>
                    </g>
                </g>
            </g>
        </g>
    </g>
</svg>