<?xml version="1.0" encoding="UTF-8"?>
<svg width="32px" height="33px" viewBox="0 0 32 33" version="1.1" xmlns="http://www.w3.org/2000/svg" xmlns:xlink="http://www.w3.org/1999/xlink">
    <!-- Generator: Sketch 51.3 (57544) - http://www.bohemiancoding.com/sketch -->
    <title>twitter-logo-button</title>
    <desc>Created with Sketch.</desc>
    <defs></defs>
    <g id="Symbols" stroke="none" stroke-width="1" fill="none" fill-rule="evenodd">
        <g id="ащщеук" transform="translate(-1346.000000, -178.000000)">
            <g id="Group-7">
                <g id="Group-22" transform="translate(1157.000000, 177.000000)">
                    <g id="Group-58" transform="translate(50.000000, 0.500000)">
                        <g id="twitter-logo-button" transform="translate(139.000000, 1.000000)">
                            <polygon id="Clip-2" points="0.048 0.223756098 31.7784 0.223756098 31.7784 32.1959268 0.048 32.1959268"></polygon>
                            <path d="M15.8872,0.223756098 C7.128,0.223756098 0,7.39602439 0,16.2086341 C0,25.0244634 7.128,32.1959268 15.8872,32.1959268 C24.6496,32.1959268 31.7784,25.0244634 31.7784,16.2086341 C31.7784,7.39602439 24.6496,0.223756098 15.8872,0.223756098 Z M22.9784,12.5520732 C22.984,12.7090244 22.9872,12.8691951 22.9872,13.0301707 C22.9872,17.8908293 19.3096,23.496 12.5816,23.496 C10.516,23.496 8.5936,22.8899268 6.9752,21.8427805 C7.2624,21.8773902 7.5528,21.8959024 7.8472,21.8959024 C9.5624,21.8959024 11.1376,21.3083415 12.3904,20.3207561 C10.7904,20.2893659 9.4408,19.2269268 8.9752,17.7644634 C9.1968,17.8087317 9.4248,17.8304634 9.6624,17.8304634 C9.9936,17.8304634 10.3184,17.787 10.6248,17.7016829 C8.9528,17.3652439 7.6904,15.8786341 7.6904,14.0958293 C7.6904,14.0797317 7.6904,14.064439 7.6936,14.0483415 C8.184,14.3252195 8.7504,14.4886098 9.3504,14.507122 C8.3688,13.8503415 7.7216,12.7219024 7.7216,11.4453659 C7.7216,10.7724878 7.9032,10.1406585 8.216,9.59656098 C10.0184,11.8228537 12.716,13.2877317 15.7528,13.4414634 C15.6904,13.1710244 15.6592,12.8917317 15.6592,12.6019756 C15.6592,10.5712683 17.2968,8.92368293 19.316,8.92368293 C20.3688,8.92368293 21.3184,9.37039024 21.984,10.0835122 C22.8184,9.92012195 23.6032,9.61507317 24.3096,9.19090244 C24.0344,10.052122 23.456,10.7724878 22.7,11.2280488 C23.4408,11.1403171 24.1472,10.9423171 24.8,10.6501463 C24.3128,11.3858049 23.6904,12.0329268 22.9784,12.5520732 Z" id="Fill-1" fill="#414D6A"></path>
                        </g>
                    </g>
                </g>
            </g>
        </g>
    </g>
</svg>