<?xml version="1.0" encoding="UTF-8"?>
<svg width="33px" height="33px" viewBox="0 0 33 33" version="1.1" xmlns="http://www.w3.org/2000/svg" xmlns:xlink="http://www.w3.org/1999/xlink">
    <!-- Generator: Sketch 51.3 (57544) - http://www.bohemiancoding.com/sketch -->
    <title>vk</title>
    <desc>Created with Sketch.</desc>
    <defs></defs>
    <g id="Symbols" stroke="none" stroke-width="1" fill="none" fill-rule="evenodd">
        <g id="ащщеук" transform="translate(-1207.000000, -178.000000)" fill="#414D6A">
            <g id="Group-7">
                <g id="Group-22" transform="translate(1157.000000, 177.000000)">
                    <g id="Group-58" transform="translate(50.000000, 0.500000)">
                        <g id="vk">
                            <path d="M32.5001707,16.5981951 C32.5001707,25.4882784 25.2926931,32.6957561 16.4026098,32.6957561 C7.51252645,32.6957561 0.30504878,25.4882784 0.30504878,16.5981951 C0.30504878,7.70811181 7.51252645,0.500634146 16.4026098,0.500634146 C25.2926931,0.500634146 32.5001707,7.70811181 32.5001707,16.5981951 Z M15.7946335,23.6586107 L17.0582915,23.6586107 C17.0582915,23.6586107 17.4395769,23.6166442 17.6339858,23.406453 C17.8133299,23.2131201 17.8079495,22.8515626 17.8079495,22.8515626 C17.8079495,22.8515626 17.7828414,21.1560442 18.5701616,20.906756 C19.3463626,20.6599786 20.3410045,22.5445256 21.3976995,23.2690755 C22.1961391,23.8182269 22.8030393,23.6977077 22.8030393,23.6977077 L25.6248382,23.6586107 C25.6248382,23.6586107 27.1015569,23.5675039 26.4010391,22.406072 C26.343649,22.310661 25.9932108,21.5470141 24.3019967,19.9777539 C22.5325885,18.33568 22.7693226,18.6003918 24.9017231,15.7588651 C26.2005325,14.0285539 26.7191954,12.9722176 26.5577858,12.5195533 C26.4024739,12.0880516 25.4483637,12.2028318 25.4483637,12.2028318 L22.2689528,12.2225596 C22.2689528,12.2225596 22.0336534,12.1902777 21.8586137,12.2939385 C21.6875195,12.3961646 21.5784783,12.6357682 21.5784783,12.6357682 C21.5784783,12.6357682 21.075239,13.9754681 20.4041336,15.1128679 C18.9891093,17.5175126 18.4230995,17.6434121 18.1917457,17.4949152 C17.6537137,17.1459118 17.7882217,16.0967492 17.7882217,15.3513955 C17.7882217,13.022434 18.1415294,12.0514654 17.100258,11.8007425 C16.7555588,11.7168095 16.5005316,11.6619302 15.6178003,11.6536804 C14.4829113,11.6411263 13.5234208,11.6565499 12.9796497,11.9226964 C12.6180921,12.0991709 12.3393915,12.4944451 12.5086923,12.5166838 C12.7188835,12.5446615 13.1955799,12.6458115 13.4477376,12.989076 C13.772709,13.431697 13.7615896,14.426339 13.7615896,14.426339 C13.7615896,14.426339 13.9491835,17.1685091 13.3243489,17.5089041 C12.8957167,17.7431274 12.3085444,17.2649962 11.0459624,15.0848902 C10.4003239,13.9682943 9.91250819,12.7340488 9.91250819,12.7340488 C9.91250819,12.7340488 9.81853192,12.5041297 9.65066591,12.380741 C9.44585504,12.2308094 9.16141541,12.1834626 9.16141541,12.1834626 L6.14197941,12.2028318 C6.14197941,12.2028318 5.68823903,12.2153858 5.52144909,12.413023 C5.37438698,12.5880627 5.51032976,12.951055 5.51032976,12.951055 C5.51032976,12.951055 7.874084,18.4827421 10.5513316,21.2697483 C13.0061926,23.8264767 15.7946335,23.6586107 15.7946335,23.6586107 Z" id="Combined-Shape"></path>
                        </g>
                    </g>
                </g>
            </g>
        </g>
    </g>
</svg>