<svg width="295" height="72" viewBox="0 0 295 72" fill="none" xmlns="http://www.w3.org/2000/svg">
<g opacity="0.5">
<path d="M40.0022 0.545452L31.4273 29.7063H26.0576L19.9803 7.63636L13.5283 29.7063L8.20024 29.7483L0 0.545452H5.0367L11.0308 24.2937L17.5244 0.545452H22.8525L28.8882 24.1678L34.9239 0.545452H40.0022Z" fill="#555555"/>
<path d="M67.0182 0.545452V29.7063H62.2729V16.951H48.6613V29.7063H43.916V0.545452H48.6613V13.0489H62.2729V0.545452H67.0182Z" fill="#555555"/>
<path d="M94.7025 0.545452L85.1286 19.1329V29.7063H80.3833V19.1329L70.7677 0.545452H76.0542L82.7559 14.8531L89.4576 0.545452H94.7025Z" fill="#555555"/>
<path d="M114.027 0.545452V29.7063H109.281V0.545452H114.027Z" fill="#555555"/>
<path d="M138.947 0.545452V4.44755H131.246V29.7063H126.501V4.44755H118.758V0.545452H138.947Z" fill="#555555"/>
<path d="M159.311 0.545452V29.7063H154.565V0.545452H159.311Z" fill="#555555"/>
<path d="M175.073 30C173.131 30 171.382 29.6643 169.828 28.993C168.274 28.2937 167.053 27.3147 166.165 26.0559C165.277 24.7972 164.833 23.3287 164.833 21.6503H169.911C170.022 22.9091 170.508 23.9441 171.368 24.7552C172.256 25.5664 173.491 25.972 175.073 25.972C176.71 25.972 177.987 25.5804 178.903 24.7972C179.818 23.986 180.276 22.951 180.276 21.6923C180.276 20.7133 179.985 19.9161 179.402 19.3007C178.847 18.6853 178.139 18.2098 177.279 17.8741C176.447 17.5385 175.281 17.1748 173.783 16.7832C171.896 16.2797 170.355 15.7762 169.162 15.2727C167.997 14.7413 166.998 13.9301 166.165 12.8392C165.333 11.7482 164.916 10.2937 164.916 8.47552C164.916 6.7972 165.333 5.32867 166.165 4.06993C166.998 2.81119 168.163 1.84615 169.662 1.17482C171.16 0.503494 172.895 0.16783 174.865 0.16783C177.668 0.16783 179.957 0.881116 181.733 2.30769C183.537 3.70629 184.536 5.63636 184.73 8.0979H179.485C179.402 7.03496 178.903 6.12587 177.987 5.37063C177.071 4.61538 175.864 4.23776 174.365 4.23776C173.006 4.23776 171.896 4.58741 171.035 5.28671C170.175 5.98601 169.745 6.993 169.745 8.30769C169.745 9.20279 170.009 9.94406 170.536 10.5315C171.091 11.0909 171.785 11.5385 172.617 11.8741C173.45 12.2098 174.587 12.5734 176.03 12.965C177.945 13.4965 179.499 14.028 180.692 14.5594C181.914 15.0909 182.94 15.9161 183.773 17.035C184.633 18.1259 185.063 19.5944 185.063 21.4406C185.063 22.9231 184.661 24.3217 183.856 25.6364C183.079 26.951 181.927 28.014 180.401 28.8252C178.903 29.6084 177.127 30 175.073 30Z" fill="#555555"/>
<path d="M219.839 0V7.38461H212.013V29.7063H202.772V7.38461H195.03V0H219.839Z" fill="#555555"/>
<path d="M231.586 0V29.7063H222.345V0H231.586Z" fill="#555555"/>
<path d="M271.183 0V29.7063H261.984V14.8951L257.447 29.7063H249.538L245 14.8951V29.7063H235.76V0H247.082L253.575 17.8322L259.902 0H271.183Z" fill="#555555"/>
<path d="M284.594 7.42657V11.0769H293.751V18.0839H284.594V22.2797H295V29.7063H275.353V0H295V7.42657H284.594Z" fill="#555555"/>
<path d="M21.0209 42.5035V46.4056H13.3202V71.6643H8.57487V46.4056H0.832512V42.5035H21.0209Z" fill="#555555"/>
<path d="M39.0221 71.958C36.3303 71.958 33.8466 71.3287 31.5711 70.0699C29.3233 68.7832 27.5334 67.007 26.2014 64.7413C24.8971 62.4475 24.245 59.8741 24.245 57.021C24.245 54.1678 24.8971 51.6084 26.2014 49.3427C27.5334 47.0769 29.3233 45.3147 31.5711 44.0559C33.8466 42.7692 36.3303 42.1259 39.0221 42.1259C41.7416 42.1259 44.2253 42.7692 46.473 44.0559C48.7486 45.3147 50.5385 47.0769 51.8427 49.3427C53.147 51.6084 53.7991 54.1678 53.7991 57.021C53.7991 59.8741 53.147 62.4475 51.8427 64.7413C50.5385 67.007 48.7486 68.7832 46.473 70.0699C44.2253 71.3287 41.7416 71.958 39.0221 71.958ZM39.0221 67.8042C40.9368 67.8042 42.6435 67.3706 44.142 66.5035C45.6405 65.6084 46.806 64.3496 47.6385 62.7273C48.4988 61.0769 48.9289 59.1748 48.9289 57.021C48.9289 54.8671 48.4988 52.979 47.6385 51.3566C46.806 49.7343 45.6405 48.4895 44.142 47.6224C42.6435 46.7552 40.9368 46.3217 39.0221 46.3217C37.1073 46.3217 35.4006 46.7552 33.9021 47.6224C32.4036 48.4895 31.2242 49.7343 30.3639 51.3566C29.5314 52.979 29.1152 54.8671 29.1152 57.021C29.1152 59.1748 29.5314 61.0769 30.3639 62.7273C31.2242 64.3496 32.4036 65.6084 33.9021 66.5035C35.4006 67.3706 37.1073 67.8042 39.0221 67.8042Z" fill="#555555"/>
<path d="M83.3992 67.1748H73.5755L72.1186 71.6643H62.4199L73.2009 41.958H83.8571L94.5965 71.6643H84.8561L83.3992 67.1748ZM81.1514 60.1678L78.4874 51.9021L75.8233 60.1678H81.1514Z" fill="#555555"/>
<path d="M95.8634 56.7692C95.8634 53.8322 96.4462 51.2168 97.6117 48.9231C98.805 46.6294 100.498 44.8531 102.69 43.5944C104.882 42.3077 107.463 41.6643 110.432 41.6643C112.985 41.6643 115.261 42.1538 117.259 43.1329C119.285 44.0839 120.922 45.4406 122.171 47.2028C123.447 48.965 124.294 51.021 124.71 53.3706H114.97C114.526 52.3916 113.887 51.6364 113.055 51.1049C112.25 50.5454 111.32 50.2657 110.266 50.2657C108.712 50.2657 107.477 50.8531 106.561 52.028C105.673 53.2028 105.229 54.7832 105.229 56.7692C105.229 58.7552 105.673 60.3357 106.561 61.5105C107.477 62.6853 108.712 63.2727 110.266 63.2727C111.32 63.2727 112.25 63.007 113.055 62.4755C113.887 61.9161 114.526 61.1468 114.97 60.1678H124.71C124.294 62.5175 123.447 64.5734 122.171 66.3357C120.922 68.0979 119.285 69.4685 117.259 70.4475C115.261 71.3986 112.985 71.8741 110.432 71.8741C107.463 71.8741 104.882 71.2448 102.69 69.986C100.498 68.6993 98.805 66.9091 97.6117 64.6154C96.4462 62.3217 95.8634 59.7063 95.8634 56.7692Z" fill="#555555"/>
<path d="M151.181 41.958V49.3427H143.355V71.6643H134.114V49.3427H126.372V41.958H151.181Z" fill="#555555"/>
<path d="M189.024 71.6643H179.783L170.001 56.7273V71.6643H160.76V41.958H170.001L179.783 57.1469V41.958H189.024V71.6643Z" fill="#555555"/>
<path d="M207.56 71.958C204.785 71.958 202.232 71.3007 199.901 69.986C197.597 68.6713 195.766 66.8531 194.406 64.5315C193.046 62.2098 192.367 59.5944 192.367 56.6853C192.367 53.7762 193.046 51.1608 194.406 48.8392C195.766 46.5175 197.597 44.7133 199.901 43.4266C202.232 42.1119 204.785 41.4545 207.56 41.4545C210.335 41.4545 212.874 42.1119 215.177 43.4266C217.481 44.7133 219.298 46.5175 220.63 48.8392C221.99 51.1608 222.67 53.7762 222.67 56.6853C222.67 59.5944 221.99 62.2098 220.63 64.5315C219.298 66.8531 217.467 68.6713 215.136 69.986C212.832 71.3007 210.307 71.958 207.56 71.958ZM207.56 63.2727C209.391 63.2727 210.807 62.6853 211.806 61.5105C212.805 60.3077 213.304 58.6993 213.304 56.6853C213.304 54.6434 212.805 53.035 211.806 51.8601C210.807 50.6573 209.391 50.0559 207.56 50.0559C205.701 50.0559 204.271 50.6573 203.272 51.8601C202.273 53.035 201.774 54.6434 201.774 56.6853C201.774 58.6993 202.273 60.3077 203.272 61.5105C204.271 62.6853 205.701 63.2727 207.56 63.2727Z" fill="#555555"/>
<path d="M268.462 41.958L261.718 71.6643H250.23L246.816 54.7972L243.403 71.6643H231.914L225.171 41.958H235.12L237.784 60.6713L241.78 41.958H251.853L255.849 60.6713L258.513 41.958H268.462Z" fill="#555555"/>
<path d="M281.016 39.2308C284.097 39.2308 286.566 40.014 288.426 41.5804C290.313 43.1189 291.256 45.3846 291.256 48.3776C291.256 50.8392 290.424 52.8252 288.759 54.3357C287.121 55.8461 284.971 56.6294 282.307 56.6853L282.057 59.6643H273.898L273.649 50.7692H277.145C278.782 50.7692 280.031 50.5874 280.892 50.2238C281.78 49.8601 282.224 49.2727 282.224 48.4615C282.224 47.9301 282.085 47.5245 281.807 47.2448C281.558 46.9371 281.211 46.7832 280.767 46.7832C280.212 46.7832 279.795 46.965 279.518 47.3287C279.268 47.6643 279.143 48.1119 279.143 48.6713H270.443C270.36 46.9371 270.693 45.3566 271.443 43.9301C272.22 42.5035 273.413 41.3706 275.022 40.5315C276.632 39.6643 278.63 39.2308 281.016 39.2308ZM278.103 72C276.493 72 275.203 71.5664 274.231 70.6993C273.26 69.8322 272.775 68.7413 272.775 67.4266C272.775 66.0839 273.26 64.979 274.231 64.1119C275.203 63.2168 276.493 62.7692 278.103 62.7692C279.684 62.7692 280.961 63.2168 281.932 64.1119C282.903 64.979 283.389 66.0839 283.389 67.4266C283.389 68.7413 282.903 69.8322 281.932 70.6993C280.961 71.5664 279.684 72 278.103 72Z" fill="#555555"/>
</g>
</svg>
