<svg width="673" height="510" viewBox="0 0 673 510" fill="none" xmlns="http://www.w3.org/2000/svg">
<g opacity="0.6">
<path d="M671.914 397.93C681.456 452.689 450.05 488.406 250.874 463.48C51.6975 438.554 -39.6752 341.214 55.3685 289.348C150.412 237.482 662.372 343.172 671.914 397.93Z" fill="#333948"/>
</g>
<rect x="200.18" y="91.1438" width="114.48" height="217.44" rx="5.76" fill="#333948"/>
<path fill-rule="evenodd" clip-rule="evenodd" d="M257.06 294.904C263.025 294.904 267.86 290.068 267.86 284.104C267.86 278.139 263.025 273.304 257.06 273.304C251.095 273.304 246.26 278.139 246.26 284.104C246.26 290.068 251.095 294.904 257.06 294.904Z" fill="white"/>
<path fill-rule="evenodd" clip-rule="evenodd" d="M247.7 105.544C248.495 105.544 249.14 104.899 249.14 104.104C249.14 103.308 248.495 102.664 247.7 102.664C246.905 102.664 246.26 103.308 246.26 104.104C246.26 104.899 246.905 105.544 247.7 105.544Z" fill="white"/>
<rect x="252.74" y="102.664" width="15.12" height="2.88" rx="1.44" fill="white"/>
<rect x="210.26" y="111.304" width="94.32" height="38.88" rx="2.88" fill="white"/>
<rect x="216.74" y="122.968" width="52.56" height="5.832" rx="2.16" fill="#DDE3E9"/>
<rect x="216.74" y="132.688" width="35.28" height="5.832" rx="2.16" fill="#DDE3E9"/>
<path fill-rule="evenodd" clip-rule="evenodd" d="M294.5 135.784C297.284 135.784 299.54 133.527 299.54 130.744C299.54 127.96 297.284 125.704 294.5 125.704C291.716 125.704 289.46 127.96 289.46 130.744C289.46 133.527 291.716 135.784 294.5 135.784Z" fill="#DDE3E9"/>
<path fill-rule="evenodd" clip-rule="evenodd" d="M294.5 132.904C295.693 132.904 296.66 131.937 296.66 130.744C296.66 129.551 295.693 128.584 294.5 128.584C293.307 128.584 292.34 129.551 292.34 130.744C292.34 131.937 293.307 132.904 294.5 132.904Z" fill="#F2F2F2"/>
<rect x="210.26" y="155.944" width="94.32" height="30.24" rx="2.88" fill="white"/>
<rect x="238.34" y="165.016" width="52.56" height="4.536" rx="2.16" fill="#DDE3E9"/>
<rect x="238.34" y="172.576" width="35.28" height="4.536" rx="2.16" fill="#DDE3E9"/>
<path fill-rule="evenodd" clip-rule="evenodd" d="M225.38 179.704C230.152 179.704 234.02 175.836 234.02 171.064C234.02 166.292 230.152 162.424 225.38 162.424C220.608 162.424 216.74 166.292 216.74 171.064C216.74 175.836 220.608 179.704 225.38 179.704Z" fill="#C5CFD6"/>
<rect x="210.26" y="191.944" width="94.32" height="30.24" rx="2.88" fill="white"/>
<rect x="216.74" y="201.016" width="52.56" height="4.536" rx="2.16" fill="#DDE3E9"/>
<rect x="216.74" y="208.576" width="35.28" height="4.536" rx="2.16" fill="#AFB9C5"/>
<path fill-rule="evenodd" clip-rule="evenodd" d="M294.5 212.104C297.284 212.104 299.54 209.847 299.54 207.064C299.54 204.28 297.284 202.024 294.5 202.024C291.716 202.024 289.46 204.28 289.46 207.064C289.46 209.847 291.716 212.104 294.5 212.104Z" fill="#DDE3E9"/>
<path fill-rule="evenodd" clip-rule="evenodd" d="M294.5 209.224C295.693 209.224 296.66 208.257 296.66 207.064C296.66 205.871 295.693 204.904 294.5 204.904C293.307 204.904 292.34 205.871 292.34 207.064C292.34 208.257 293.307 209.224 294.5 209.224Z" fill="#F2F2F2"/>
<rect x="210.26" y="227.944" width="94.32" height="30.24" rx="2.88" fill="white"/>
<rect x="238.34" y="237.016" width="52.56" height="4.536" rx="2.16" fill="#DDE3E9"/>
<rect x="238.34" y="244.576" width="35.28" height="4.536" rx="2.16" fill="#DDE3E9"/>
<path fill-rule="evenodd" clip-rule="evenodd" d="M225.38 251.704C230.152 251.704 234.02 247.836 234.02 243.064C234.02 238.292 230.152 234.424 225.38 234.424C220.608 234.424 216.74 238.292 216.74 243.064C216.74 247.836 220.608 251.704 225.38 251.704Z" fill="#C5CFD6"/>
<rect x="311.339" y="101.925" width="241.2" height="249.12" rx="5.76" fill="#F2F2F2"/>
<rect x="490.619" y="132.885" width="50.4" height="58.32" rx="5.76" fill="white"/>
<path fill-rule="evenodd" clip-rule="evenodd" d="M515.819 166.725C522.181 166.725 527.339 161.567 527.339 155.205C527.339 148.843 522.181 143.685 515.819 143.685C509.456 143.685 504.299 148.843 504.299 155.205C504.299 161.567 509.456 166.725 515.819 166.725Z" fill="#DDE3E9"/>
<rect x="497.819" y="169.605" width="36" height="4.32" rx="2.16" fill="#DDE3E9"/>
<rect x="503.579" y="176.805" width="24.48" height="4.32" rx="2.16" fill="#DDE3E9"/>
<path d="M311.339 107.685C311.339 104.504 313.918 101.925 317.099 101.925H546.779C549.96 101.925 552.539 104.504 552.539 107.685V121.365H311.339V107.685Z" fill="#333948"/>
<path fill-rule="evenodd" clip-rule="evenodd" d="M320.699 114.885C322.289 114.885 323.579 113.596 323.579 112.005C323.579 110.414 322.289 109.125 320.699 109.125C319.108 109.125 317.819 110.414 317.819 112.005C317.819 113.596 319.108 114.885 320.699 114.885Z" fill="#F2F2F2"/>
<path fill-rule="evenodd" clip-rule="evenodd" d="M329.339 114.885C330.929 114.885 332.219 113.596 332.219 112.005C332.219 110.414 330.929 109.125 329.339 109.125C327.748 109.125 326.459 110.414 326.459 112.005C326.459 113.596 327.748 114.885 329.339 114.885Z" fill="#F2F2F2"/>
<path fill-rule="evenodd" clip-rule="evenodd" d="M337.979 114.885C339.569 114.885 340.859 113.596 340.859 112.005C340.859 110.414 339.569 109.125 337.979 109.125C336.388 109.125 335.099 110.414 335.099 112.005C335.099 113.596 336.388 114.885 337.979 114.885Z" fill="#F2F2F2"/>
<rect x="490.619" y="196.965" width="50.4" height="139.68" rx="5.76" fill="white"/>
<rect x="503.579" y="209.925" width="24.48" height="18.72" rx="2.88" fill="#DDE3E9"/>
<rect x="503.579" y="234.405" width="24.48" height="18" rx="2.88" fill="#AFB9C5"/>
<rect x="503.579" y="258.165" width="24.48" height="18" rx="2.88" fill="#DDE3E9"/>
<rect x="503.579" y="305.685" width="24.48" height="18" rx="2.88" fill="#DDE3E9"/>
<rect x="503.579" y="281.925" width="24.48" height="18" rx="2.88" fill="#C5CFD6"/>
<rect x="322.859" y="133.605" width="162" height="33.84" rx="2.88" fill="white"/>
<rect x="329.339" y="143.757" width="120.24" height="5.076" rx="2.16" fill="#DDE3E9"/>
<rect x="329.339" y="152.217" width="80.709" height="5.076" rx="2.16" fill="#DDE3E9"/>
<path fill-rule="evenodd" clip-rule="evenodd" d="M467.546 155.565C470.329 155.565 472.586 153.308 472.586 150.525C472.586 147.741 470.329 145.485 467.546 145.485C464.762 145.485 462.506 147.741 462.506 150.525C462.506 153.308 464.762 155.565 467.546 155.565Z" fill="#DDE3E9"/>
<path fill-rule="evenodd" clip-rule="evenodd" d="M467.546 152.685C468.739 152.685 469.706 151.718 469.706 150.525C469.706 149.332 468.739 148.365 467.546 148.365C466.353 148.365 465.386 149.332 465.386 150.525C465.386 151.718 466.353 152.685 467.546 152.685Z" fill="#F2F2F2"/>
<rect x="322.859" y="173.205" width="162" height="28.08" rx="2.88" fill="white"/>
<rect x="329.339" y="181.629" width="120.24" height="4.212" rx="2.106" fill="#DDE3E9"/>
<rect x="329.339" y="188.649" width="80.709" height="4.212" rx="2.106" fill="#DDE3E9"/>
<path fill-rule="evenodd" clip-rule="evenodd" d="M467.546 192.285C470.329 192.285 472.586 190.028 472.586 187.245C472.586 184.461 470.329 182.205 467.546 182.205C464.762 182.205 462.506 184.461 462.506 187.245C462.506 190.028 464.762 192.285 467.546 192.285Z" fill="#DDE3E9"/>
<path fill-rule="evenodd" clip-rule="evenodd" d="M467.546 189.405C468.739 189.405 469.706 188.438 469.706 187.245C469.706 186.052 468.739 185.085 467.546 185.085C466.353 185.085 465.386 186.052 465.386 187.245C465.386 188.438 466.353 189.405 467.546 189.405Z" fill="#F2F2F2"/>
<rect x="322.859" y="207.045" width="162" height="28.08" rx="2.88" fill="white"/>
<rect x="329.339" y="215.469" width="120.24" height="4.212" rx="2.106" fill="#DDE3E9"/>
<rect x="329.339" y="222.489" width="80.709" height="4.212" rx="2.106" fill="#DDE3E9"/>
<path fill-rule="evenodd" clip-rule="evenodd" d="M467.546 226.125C470.329 226.125 472.586 223.868 472.586 221.085C472.586 218.301 470.329 216.045 467.546 216.045C464.762 216.045 462.506 218.301 462.506 221.085C462.506 223.868 464.762 226.125 467.546 226.125Z" fill="#DDE3E9"/>
<path fill-rule="evenodd" clip-rule="evenodd" d="M467.546 223.245C468.739 223.245 469.706 222.278 469.706 221.085C469.706 219.892 468.739 218.925 467.546 218.925C466.353 218.925 465.386 219.892 465.386 221.085C465.386 222.278 466.353 223.245 467.546 223.245Z" fill="#AFB9C5"/>
<rect x="322.859" y="308.565" width="162" height="28.08" rx="2.88" fill="white"/>
<rect x="329.339" y="316.989" width="120.24" height="4.212" rx="2.106" fill="#DDE3E9"/>
<rect x="329.339" y="324.009" width="80.709" height="4.212" rx="2.106" fill="#DDE3E9"/>
<path fill-rule="evenodd" clip-rule="evenodd" d="M467.546 327.645C470.329 327.645 472.586 325.388 472.586 322.605C472.586 319.821 470.329 317.565 467.546 317.565C464.762 317.565 462.506 319.821 462.506 322.605C462.506 325.388 464.762 327.645 467.546 327.645Z" fill="#DDE3E9"/>
<path fill-rule="evenodd" clip-rule="evenodd" d="M467.546 324.765C468.739 324.765 469.706 323.798 469.706 322.605C469.706 321.412 468.739 320.445 467.546 320.445C466.353 320.445 465.386 321.412 465.386 322.605C465.386 323.798 466.353 324.765 467.546 324.765Z" fill="#F2F2F2"/>
<rect x="322.859" y="274.725" width="162" height="28.08" rx="2.88" fill="white"/>
<rect x="329.339" y="283.149" width="120.24" height="4.212" rx="2.106" fill="#DDE3E9"/>
<rect x="329.339" y="290.169" width="80.709" height="4.212" rx="2.106" fill="#DDE3E9"/>
<path fill-rule="evenodd" clip-rule="evenodd" d="M467.546 293.805C470.329 293.805 472.586 291.548 472.586 288.765C472.586 285.981 470.329 283.725 467.546 283.725C464.762 283.725 462.506 285.981 462.506 288.765C462.506 291.548 464.762 293.805 467.546 293.805Z" fill="#DDE3E9"/>
<path fill-rule="evenodd" clip-rule="evenodd" d="M467.546 290.925C468.739 290.925 469.706 289.958 469.706 288.765C469.706 287.572 468.739 286.605 467.546 286.605C466.353 286.605 465.386 287.572 465.386 288.765C465.386 289.958 466.353 290.925 467.546 290.925Z" fill="#F2F2F2"/>
<rect x="322.859" y="240.885" width="162" height="28.08" rx="2.88" fill="white"/>
<rect x="329.339" y="249.309" width="120.24" height="4.212" rx="2.106" fill="#DDE3E9"/>
<rect x="329.339" y="256.329" width="80.709" height="4.212" rx="2.106" fill="#DDE3E9"/>
<path fill-rule="evenodd" clip-rule="evenodd" d="M467.546 259.965C470.329 259.965 472.586 257.708 472.586 254.925C472.586 252.141 470.329 249.885 467.546 249.885C464.762 249.885 462.506 252.141 462.506 254.925C462.506 257.708 464.762 259.965 467.546 259.965Z" fill="#DDE3E9"/>
<path fill-rule="evenodd" clip-rule="evenodd" d="M467.546 257.085C468.739 257.085 469.706 256.118 469.706 254.925C469.706 253.732 468.739 252.765 467.546 252.765C466.353 252.765 465.386 253.732 465.386 254.925C465.386 256.118 466.353 257.085 467.546 257.085Z" fill="#F2F2F2"/>
<path fill-rule="evenodd" clip-rule="evenodd" d="M7.15526 334.93C20.5951 357.477 36.2483 379.309 45.6486 403.961C45.2698 401.055 44.8681 398.153 44.4186 395.254C42.0334 379.889 39.0689 364.636 35.9539 349.401C34.3675 341.644 32.6897 333.916 30.9688 326.188C30.0433 322.037 29.1292 317.884 28.1846 313.737C27.9558 312.732 27.7592 310.978 27.4727 309.2C36.6083 339.178 45.4181 369.179 51.8622 399.879C52.7076 403.907 53.4274 407.929 54.0171 411.944C54.2189 411.028 54.4173 410.112 54.6345 409.199C57.2418 398.25 61.153 387.387 65.8099 377.15C68.0362 372.254 70.5934 367.465 73.6043 363.003C75.4818 360.221 79.9096 356.915 81.6223 354.066C72.2553 371.247 68.873 392.743 63.4645 411.421C62.1444 415.979 60.8161 420.529 59.5145 425.088C67.6708 408.731 80.3255 395.291 97.92 389.467C76.6226 403.539 63.8481 428.183 55.2399 453.387C55.2116 453.686 55.1778 453.985 55.1487 454.284C57.6818 449.477 60.8726 445.128 65.1971 442.083C74.4527 435.563 84.7203 437.463 93.6986 443.055C86.6522 438.576 73.9171 442.655 67.9882 447.207C63.7437 450.466 60.1163 454.838 56.9663 459.104C56.2115 460.126 55.1818 461.319 54.0939 462.592C52.5687 472.493 50.0831 482.325 46.5642 492.08C47.1449 489.28 46.725 484.802 46.8861 482.715C46.9036 482.489 46.9178 482.263 46.9352 482.038C46.4003 484.174 45.8835 486.285 45.3859 488.363C46.375 484.398 46.9126 480.26 47.3323 476.079C47.4403 474.282 47.5457 472.485 47.6571 470.688C47.6218 467.278 47.4814 463.855 47.2438 460.426C46.4015 457.094 45.4584 453.95 44.6807 451.336C41.8741 441.904 37.7598 432.867 32.6958 424.437C28.0755 416.744 22.5449 409.775 16.1602 403.473C12.7183 400.077 9.1162 396.842 5.5648 393.562C4.28059 392.376 1.9852 389.461 0 387.942C14.458 395.912 29.3392 404.536 39.8863 417.378C38.6497 412.63 37.3067 407.949 35.886 403.361C28.6784 380.087 19.5778 355.966 7.15526 334.93Z" fill="url(#paint0_linear)"/>
<path fill-rule="evenodd" clip-rule="evenodd" d="M21.6 462.56C21.6 488.407 23.6468 509.36 51.12 509.36C78.5932 509.36 80.64 488.407 80.64 462.56" fill="#333948"/>
<path fill-rule="evenodd" clip-rule="evenodd" d="M469.845 169.962C465.159 172.756 460.554 174.107 458.392 173.555C452.972 172.173 452.473 152.558 456.667 144.825C460.861 137.092 482.422 133.721 483.509 149.043C483.886 154.36 481.629 159.106 478.294 162.978L484.273 190.549H466.903L469.845 169.962Z" fill="#FDB797"/>
<path fill-rule="evenodd" clip-rule="evenodd" d="M449.069 208.862L419.446 197.658C414.109 192.867 409.009 189.28 404.147 186.897C402.711 186.521 400.291 186.512 403.063 190.14C405.834 193.767 408.587 197.707 407.627 199.08C406.667 200.453 403.611 199.153 402.546 201.36C401.836 202.83 406.949 204.277 417.886 205.7L440.444 221.198L449.069 208.862Z" fill="#FDB797"/>
<path fill-rule="evenodd" clip-rule="evenodd" d="M392.363 221.737C404.324 216.78 412.122 205.103 412.122 192.15C412.122 174.464 397.792 160.126 380.113 160.126C367.167 160.126 355.495 167.928 350.541 179.895C345.587 191.862 348.325 205.636 357.48 214.795C366.634 223.954 380.402 226.694 392.363 221.737ZM386.484 179.059C390.969 180.595 394.255 182.895 393.612 187.178L393.573 187.195C393.106 190.332 391.352 191.845 389.03 192.379C392.224 194.028 393.846 196.565 392.299 200.939C390.383 206.381 385.819 206.84 379.756 205.703L378.285 211.56L374.729 210.685L376.183 204.907C375.237 204.673 374.293 204.43 373.35 204.176L371.892 209.981L368.341 209.106L369.813 203.24C369.501 203.161 369.19 203.08 368.876 202.999L368.876 202.998L368.875 202.998C368.355 202.863 367.828 202.726 367.279 202.593L362.653 201.447L364.416 197.405C364.416 197.405 367.037 198.096 367.002 198.043C367.33 198.148 367.687 198.118 367.993 197.96C368.299 197.802 368.529 197.53 368.632 197.204L370.958 187.948L371.333 188.04C371.212 187.992 371.088 187.953 370.962 187.921L372.623 181.312C372.667 180.573 372.407 179.619 370.967 179.26C371.029 179.221 368.385 178.622 368.385 178.622L369.332 174.851L374.236 176.067C374.972 176.247 375.729 176.422 376.505 176.596L377.963 170.801L381.519 171.675L380.091 177.362C380.488 177.456 380.885 177.547 381.281 177.637L381.281 177.637L381.281 177.637L381.281 177.637C381.84 177.765 382.395 177.891 382.942 178.027L384.36 172.38L387.933 173.255L386.484 179.059ZM385.83 198.356C384.858 202.275 378.74 200.66 375.937 199.92L375.936 199.919C375.683 199.852 375.456 199.793 375.263 199.745L377.147 192.151C377.384 192.21 377.674 192.276 378.003 192.35C380.899 193.006 386.818 194.345 385.821 198.356H385.83ZM378.734 189.433C381.013 190.055 385.954 191.403 386.818 187.861H386.793C387.691 184.231 382.863 183.138 380.512 182.606C380.25 182.547 380.018 182.494 379.829 182.446L378.173 189.283C378.333 189.324 378.522 189.375 378.734 189.433Z" fill="#FBB347"/>
<path fill-rule="evenodd" clip-rule="evenodd" d="M411.777 227.636L398.762 222.695C398.762 222.695 394.86 213.371 391.314 213.808C389.385 213.22 393.685 220.931 390.152 220.707C386.619 220.482 377.363 215.425 376.097 216.894C374.223 219.068 376.936 224.551 379.582 227.097C384.528 231.854 388.258 233.195 397.178 234.382C404.174 235.314 412.793 239.864 412.793 239.864L411.777 227.636Z" fill="#FDB797"/>
<path fill-rule="evenodd" clip-rule="evenodd" d="M468.977 150.735C467.474 148.522 466.032 146.834 464.156 145.854C456.519 145.973 455.625 144.619 455.625 140.054C456.859 139.181 461.211 137.711 466.084 137.298C468.57 136.594 471.516 136.726 474.353 137.9C477.855 138.883 480.821 141 482.131 144.964C486.87 153.055 483.273 161.477 478.425 164.354C477.135 162.842 476.009 161.376 475.004 159.973C475.811 159.193 476.312 158.104 476.312 156.9C476.312 154.528 474.368 152.604 471.97 152.604C471.793 152.604 471.62 152.615 471.449 152.635C471.341 155.601 470.897 165.636 469.73 169.122C468.355 173.232 460.329 174.241 457.53 174.241C455.112 174.241 455.195 171.976 455.254 170.353C455.262 170.119 455.27 169.899 455.27 169.701C455.27 169.286 455.816 169.287 456.432 169.288C457.231 169.29 458.151 169.292 458.151 168.384C458.151 167.394 456.768 166.635 455.531 165.956C454.759 165.532 454.044 165.14 453.757 164.741C452.849 163.485 452.544 161.791 453.913 161.791C454.661 161.791 455.687 162.217 456.922 162.731C458.787 163.506 461.126 164.478 463.7 164.478C467.953 164.478 468.964 150.905 468.977 150.735Z" fill="#333948"/>
<path fill-rule="evenodd" clip-rule="evenodd" d="M475.347 181.442L465.396 179.688C462.389 212.852 464.612 208.407 430.128 198.644L424.126 212.113C444.692 226.125 474.574 240.881 480.635 219.086C482.669 211.771 476.749 189.649 475.347 181.442Z" fill="#F2F2F2"/>
<path fill-rule="evenodd" clip-rule="evenodd" d="M510.185 255.376L486.87 349.739L469.882 419.284L455.739 419.778L470.678 256.755L510.185 255.376Z" fill="#181B24"/>
<path fill-rule="evenodd" clip-rule="evenodd" d="M517.293 255.127C519.59 303.264 522.603 329.457 523.402 333.81C524.2 338.163 534.932 365.656 555.597 416.29L540.945 416.802C515.198 368.434 500.813 341.068 497.789 334.704C494.766 328.341 485.213 302.376 470.598 256.758L517.293 255.127Z" fill="#181B24"/>
<path fill-rule="evenodd" clip-rule="evenodd" d="M557.369 429.464L556.097 414.067L540.702 414.605C530.021 422.698 512.547 428.088 512.547 428.088L512.649 431.025L540.507 430.053L549.986 428.251L550.038 429.72L557.369 429.464Z" fill="#181B24"/>
<path fill-rule="evenodd" clip-rule="evenodd" d="M472.328 432.434L471.057 417.037L455.662 417.574C444.981 425.668 427.507 431.058 427.507 431.058L427.609 433.995L455.467 433.022L464.946 431.221L464.997 432.69L472.328 432.434Z" fill="#181B24"/>
<path fill-rule="evenodd" clip-rule="evenodd" d="M513.549 252.248C513.549 252.248 480.367 260.547 460.525 259.703C458.886 259.634 458.259 257.001 458.746 255.085C466.32 225.259 470.775 199.537 468.023 179.947C471.422 181.097 479.204 178.863 479.204 178.863C496.264 197.051 506.056 219.295 513.549 252.248Z" fill="#181B24"/>
<path fill-rule="evenodd" clip-rule="evenodd" d="M480.419 178.278C480.418 178.032 480.414 177.902 480.414 177.902L480.599 178.253L481.571 178.116C503.595 174.244 531.283 265.572 541.056 317.064L455.63 336.73C459.867 317.676 464.585 279.837 468.251 245.953C454.103 253.046 433.167 255.343 402.379 244.606L410.519 219.672C446.098 230.461 463.581 220.378 472.165 207.421C473.598 192.295 474.49 181.474 474.559 179.102L480.419 178.278Z" fill="#F2F2F2"/>
<path fill-rule="evenodd" clip-rule="evenodd" d="M189.93 213.487C194.594 216.296 199.176 217.654 201.327 217.1C206.721 215.71 207.217 195.989 203.044 188.214C198.87 180.439 177.415 177.05 176.333 192.455C175.958 197.801 178.204 202.572 181.523 206.466L175.572 234.186H192.857L189.93 213.487Z" fill="#FDB797"/>
<path fill-rule="evenodd" clip-rule="evenodd" d="M193.191 179.253C190.913 178.88 184.779 178.623 183.648 178.623C182.925 178.623 182.142 178.788 181.714 178.125C181.363 177.582 181.492 176.663 181.387 176.032C181.265 175.3 181.093 174.577 180.918 173.856C180.421 171.804 179.67 169.852 178.619 168.019C176.647 164.581 173.758 161.888 170.111 160.32C166.083 158.59 161.525 158.194 157.193 158.545C152.556 158.92 148.36 160.45 143.982 161.889C139.811 163.261 135.442 163.801 131.079 163.131C126.683 162.456 123.362 160.075 119.654 157.815C115.858 155.501 111.52 153.988 107.033 154.336C102.845 154.661 98.9842 156.389 95.5206 158.698C92.2801 160.859 89.6062 163.458 88.0966 167.116C86.4726 171.051 86.4741 175.371 89.1446 178.849C93.0155 183.89 100.202 185.193 106.18 185.064C109.638 184.989 113.035 184.358 116.3 183.21C120.654 181.68 124.416 179.085 128.49 176.981C130.401 175.993 132.377 175.182 134.448 174.597C136.458 174.03 138.438 173.77 140.258 174.983C142.183 176.267 143.908 177.528 146.11 178.332C148.222 179.103 150.46 179.534 152.711 179.516C157.09 179.483 161.408 178.119 165.661 177.205C169.13 176.461 172.841 175.718 176.377 176.434C177.852 176.733 180.008 177.35 180.541 178.882C171.571 180.507 168.048 191.594 170.577 199.733C171.941 204.126 180.145 209.261 183.335 206.952C185.356 205.489 184.129 203.568 183.335 202.3C181.815 199.872 181.294 196.753 184.108 195.062C186.535 193.604 189.087 197.067 189.135 197.063C189.802 197.01 195.566 193.753 199.537 188.999C203.454 189.231 204.049 186.649 203.113 184.538C202.178 182.426 196.339 179.769 193.191 179.253Z" fill="#282D3A"/>
<path fill-rule="evenodd" clip-rule="evenodd" d="M125.714 324.162C119.352 324.162 114.194 329.32 114.194 335.682V401.899C114.194 408.261 119.352 413.419 125.714 413.419H208.545C214.908 413.419 220.065 408.261 220.065 401.899V335.682C220.065 329.32 214.908 324.162 208.545 324.162H125.714ZM137.24 344.317C135.649 344.317 134.36 345.606 134.36 347.197V390.384C134.36 391.975 135.649 393.264 137.24 393.264H197.019C198.61 393.264 199.899 391.975 199.899 390.384V347.197C199.899 345.606 198.61 344.317 197.019 344.317H137.24Z" fill="#181B24"/>
<path fill-rule="evenodd" clip-rule="evenodd" d="M228.941 341.845C222.688 355.098 212.918 387.27 212.918 387.27L221.213 391.057C221.213 391.057 242.258 357.239 255.12 334.122C254.521 339.326 253.91 345.185 253.345 351.344C252.005 365.935 253.344 397.459 254.065 406.565C254.518 412.287 262.299 411.089 263.025 406.55C263.148 405.781 263.649 403.082 264.397 399.055C268.065 379.309 277.666 327.63 277.683 314.976C277.689 309.885 267.736 305.31 261.804 308.871C257.729 304.525 250.017 302.021 245.587 309.199C242.77 313.762 236.078 326.717 228.941 341.845Z" fill="#FDB797"/>
<path fill-rule="evenodd" clip-rule="evenodd" d="M213.511 375.359L241.98 307.957C248.8 296.993 267.921 310.188 265.595 316.548C260.315 330.986 233.461 377.727 231.888 382.028L213.511 375.359Z" fill="#DDE3E9"/>
<path fill-rule="evenodd" clip-rule="evenodd" d="M214.063 383.314C213.565 382.635 212.599 382.474 211.954 383.016C210.777 384.006 209.084 385.53 208.474 386.588C207.5 388.275 206.195 391.834 206.195 391.834C208.152 392.964 241.374 412.145 241.374 412.145C241.374 412.145 245.361 408.406 242.615 406.339C239.869 404.272 238.083 402.852 238.083 402.852L225.938 386.126C225.7 385.798 225.238 385.732 224.916 385.979L222.394 387.92C222.394 387.92 218.923 387.617 217.213 386.629C216.171 386.028 214.899 384.454 214.063 383.314Z" fill="#DDE3E9"/>
<path fill-rule="evenodd" clip-rule="evenodd" d="M254.238 402.106C253.467 401.767 252.55 402.11 252.263 402.903C251.738 404.348 251.035 406.515 251.035 407.737C251.035 409.684 251.684 413.419 251.684 413.419C253.944 413.419 292.305 413.419 292.305 413.419C292.305 413.419 293.888 408.187 290.477 407.77C287.066 407.353 284.809 407.017 284.809 407.017L265.928 398.604C265.558 398.439 265.124 398.613 264.97 398.987L263.756 401.93C263.756 401.93 260.598 403.403 258.623 403.403C257.421 403.403 255.532 402.675 254.238 402.106Z" fill="#DDE3E9"/>
<path fill-rule="evenodd" clip-rule="evenodd" d="M279.678 320.155C279.678 339.278 270.591 383.885 270.585 388.096L251.035 388.111C251.035 388.111 255.327 328.407 254.079 327.764C252.83 327.121 202.907 332.746 187.934 332.746C166.343 332.746 157.411 319.138 156.687 293.93H199.457C208.166 294.861 253.591 304.018 270.46 307.166C277.683 308.514 279.678 314.887 279.678 320.155Z" fill="#DDE3E9"/>
<path fill-rule="evenodd" clip-rule="evenodd" d="M263.458 215.047L236.159 223.237L243.128 234.842L264.354 222.357C274.262 221.768 278.943 220.791 278.398 219.427C277.938 218.278 276.844 218.082 275.837 217.901C275.051 217.761 274.319 217.629 273.979 217.064C273.204 215.773 275.922 212.411 278.638 209.332C281.355 206.252 279.181 206.109 277.868 206.356C273.354 208.188 268.55 211.085 263.458 215.047ZM256.72 288.201L233.746 271.34L228.668 283.887L251.418 293.316C257.852 300.87 261.45 304.019 262.211 302.763C262.853 301.704 262.351 300.713 261.889 299.8C261.529 299.088 261.193 298.425 261.44 297.813C262.005 296.417 266.327 296.564 270.423 296.879C274.518 297.194 273.325 295.372 272.337 294.473C268.157 291.972 262.951 289.881 256.72 288.201Z" fill="#FDB797"/>
<path fill-rule="evenodd" clip-rule="evenodd" d="M198.063 225.934C210.573 249.248 228.664 267.12 254.891 285.699L244.96 296.89C215.677 286.013 200.222 279.451 192.632 257.424C190.727 251.895 189.396 234.272 188.254 224.999L198.063 225.934Z" fill="#181B24"/>
<path fill-rule="evenodd" clip-rule="evenodd" d="M163.088 303.611H218.545C218.545 303.611 199.702 246.176 199.294 224.771C199.28 224.043 197.936 222.761 197.341 222.929C190.817 224.771 183.378 221.552 183.378 221.552C170.231 242.685 165.685 268.703 163.088 303.611Z" fill="#F2F2F2"/>
<path fill-rule="evenodd" clip-rule="evenodd" d="M197.289 253.793C205.95 290.926 205.551 321.323 186.429 321.323H156.859C152.163 289.779 164.506 246.043 175.949 223.983C176.386 223.14 177.316 221.552 179.507 221.552H188.099C188.103 221.564 188.107 221.575 188.11 221.586C190.696 221.607 193.543 221.702 196.627 221.804C212.501 222.331 234.635 223.065 259.541 215.074L262.478 229.739C239.998 244.189 217.235 255.383 197.289 253.793Z" fill="#181B24"/>
<path d="M488.8 31.9356L519.259 11.2432C521.43 9.76846 524.281 9.76846 526.452 11.2432L601.277 62.0756C604.785 64.4583 606.884 68.4233 606.884 72.6634V384.917" stroke="#333948" stroke-width="6.4"/>
<rect x="582.884" y="384.117" width="47.2" height="5.6" rx="2.4" fill="#AFB9C5"/>
<path d="M460.399 19.4676C470.709 9.15776 487.424 9.15776 497.734 19.4676C508.044 29.7774 508.044 46.493 497.734 56.8029L481.895 72.642L444.56 35.3068L460.399 19.4676Z" fill="#C5CFD6"/>
<path fill-rule="evenodd" clip-rule="evenodd" d="M460.182 57.2215C470.492 67.5314 480.496 74.2429 482.527 72.2122C484.558 70.1814 477.846 60.1774 467.536 49.8676C457.226 39.5578 447.222 32.8462 445.192 34.8769C443.161 36.9077 449.873 46.9117 460.182 57.2215Z" fill="#F2F2F2"/>
<defs>
<linearGradient id="paint0_linear" x1="-48.96" y1="400.64" x2="103.245" y2="482.135" gradientUnits="userSpaceOnUse">
<stop stop-color="#43E695"/>
<stop offset="1" stop-color="#3BB2B8"/>
</linearGradient>
</defs>
</svg>
