<svg width="25" height="10" viewBox="0 0 25 10" fill="none" xmlns="http://www.w3.org/2000/svg">
<path d="M0.316 0.354V10H1.632V6.388H4.166C6.21 6.388 7.036 4.89 7.036 3.378C7.036 1.866 6.21 0.354 4.166 0.354H0.316ZM4.152 1.572C5.272 1.572 5.734 2.496 5.734 3.378C5.734 4.274 5.258 5.17 4.082 5.17H1.632V1.572H4.152ZM12.5442 10C15.2882 10 16.8842 7.942 16.8842 5.198C16.8842 2.454 15.2882 0.354 12.5442 0.354H8.80623V10H12.5442ZM10.1082 8.782V1.572H12.5442C14.5462 1.572 15.5822 3.168 15.5822 5.198C15.5822 7.228 14.5462 8.782 12.5442 8.782H10.1082ZM18.9371 0.354V10H20.2391V5.87H23.6691V4.652H20.2391V1.572H24.5651V0.354H18.9371Z" fill="#2BD585"/>
</svg>
