<svg width="24" height="18" viewBox="0 0 24 18" fill="none" xmlns="http://www.w3.org/2000/svg">
<path fill-rule="evenodd" clip-rule="evenodd" d="M22.5401 3.42C22.2983 2.45399 21.5583 1.69109 20.6001 1.42C18.8801 1 12.0001 1 12.0001 1C12.0001 1 5.12008 1 3.40008 1.46C2.44188 1.73109 1.70187 2.49399 1.46008 3.46C1.1453 5.20556 0.991319 6.97631 1.00008 8.75C0.988863 10.537 1.14285 12.3213 1.46008 14.08C1.72643 15.0153 2.46212 15.7434 3.40008 16C5.12008 16.46 12.0001 16.46 12.0001 16.46C12.0001 16.46 18.8801 16.46 20.6001 16C21.5583 15.7289 22.2983 14.966 22.5401 14C22.8524 12.2676 23.0064 10.5103 23.0001 8.75C23.0113 6.96295 22.8573 5.1787 22.5401 3.42Z" fill="white" stroke="white" stroke-width="2" stroke-linecap="round" stroke-linejoin="round"/>
<path fill-rule="evenodd" clip-rule="evenodd" d="M9.75 12.02L15.5 8.75001L9.75 5.48001V12.02Z" fill="#181B24" stroke="#181B24" stroke-width="2" stroke-linecap="round" stroke-linejoin="round"/>
</svg>
