<?xml version="1.0" encoding="UTF-8"?>
<svg width="50px" height="50px" viewBox="0 0 50 50" version="1.1" xmlns="http://www.w3.org/2000/svg" xmlns:xlink="http://www.w3.org/1999/xlink">
    <!-- Generator: Sketch 55.1 (78136) - https://sketchapp.com -->
    <title>3D</title>
    <desc>Created with Sketch.</desc>
    <g id="Page-1" stroke="none" stroke-width="1" fill="none" fill-rule="evenodd">
        <g id="INDEX-2-Copy" transform="translate(-1401.000000, -331.000000)" fill="#FFFFFF">
            <g id="3D" transform="translate(1401.000000, 331.000000)">
                <path d="M8,0 L42,0 C46.418278,-8.11624501e-16 50,3.581722 50,8 L50,42 C50,46.418278 46.418278,50 42,50 L8,50 C3.581722,50 5.41083001e-16,46.418278 0,42 L0,8 C-5.41083001e-16,3.581722 3.581722,8.11624501e-16 8,0 Z M23.0142857,27.9642857 C23.0142857,26.5642787 22.4285773,25.4571469 21.2571429,24.6428571 C22.314291,23.9714252 22.8428571,22.978578 22.8428571,21.6642857 C22.8428571,20.3499934 22.3785761,19.2678614 21.45,18.4178571 C20.5214239,17.5678529 19.3500071,17.1428571 17.9357143,17.1428571 C16.5357073,17.1428571 15.3678618,17.5607101 14.4321429,18.3964286 C13.4964239,19.232147 13.0285714,20.349993 13.0285714,21.75 L16.5428571,21.75 C16.5428571,21.3071406 16.6785701,20.9571441 16.95,20.7 C17.2214299,20.4428559 17.5499981,20.3142857 17.9357143,20.3142857 C18.3214305,20.3142857 18.6499986,20.4428559 18.9214286,20.7 C19.1928585,20.9571441 19.3285714,21.3142834 19.3285714,21.7714286 C19.3285714,22.1571448 19.2071441,22.4928557 18.9642857,22.7785714 C18.7214274,23.0642871 18.3571429,23.2071429 17.8714286,23.2071429 L17.3785714,23.2071429 L17.3785714,26.25 L17.8714286,26.25 C18.3428595,26.25 18.7321413,26.4035699 19.0392857,26.7107143 C19.3464301,27.0178587 19.5,27.3999977 19.5,27.8571429 C19.5,28.3857169 19.3571429,28.7892843 19.0714286,29.0678571 C18.7857129,29.34643 18.4071452,29.4857143 17.9357143,29.4857143 C17.4785691,29.4857143 17.1035729,29.34643 16.8107143,29.0678571 C16.5178557,28.7892843 16.3714286,28.3928597 16.3714286,27.8785714 L12.8571429,27.8785714 C12.8571429,28.9642911 13.1107118,29.8785677 13.6178571,30.6214286 C14.1250025,31.3642894 14.7464249,31.8892842 15.4821429,32.1964286 C16.2178608,32.503573 17.0357098,32.6571429 17.9357143,32.6571429 C19.3785786,32.6571429 20.5857094,32.2535755 21.5571429,31.4464286 C22.5285763,30.6392817 23.0142857,29.478579 23.0142857,27.9642857 Z M36.6428571,21.6642857 C36.5714282,21.0071396 36.3642874,20.4000028 36.0214286,19.8428571 C34.9642804,18.1285629 33.3142969,17.2714286 31.0714286,17.2714286 L25.4142857,17.2714286 L25.4142857,32.5285714 L31.0714286,32.5285714 C33.3142969,32.5285714 34.9642804,31.6714371 36.0214286,29.9571429 C36.3642874,29.3999972 36.5749996,28.7964318 36.6535714,28.1464286 C36.7321433,27.4964253 36.7714286,26.4142933 36.7714286,24.9 C36.7714286,23.3857067 36.7285719,22.3071461 36.6428571,21.6642857 Z" id="Combined-Shape"></path>
                <path d="M32.9357143,27.3642857 C32.9928574,26.9499979 33.0214286,26.1285776 33.0214286,24.9 C33.0214286,23.6714224 32.9928574,22.8500021 32.9357143,22.4357143 C32.8785711,22.0214265 32.7714294,21.7000011 32.6142857,21.4714286 C32.2285695,20.8999971 31.6285755,20.6142857 30.8142857,20.6142857 L29.1642857,20.6142857 L29.1642857,29.1857143 L30.8142857,29.1857143 C31.6285755,29.1857143 32.2285695,28.9000029 32.6142857,28.3285714 C32.7714294,28.0999989 32.8785711,27.7785735 32.9357143,27.3642857 Z"></path>
            </g>
        </g>
    </g>
</svg>