<?xml version="1.0" encoding="UTF-8"?>
<svg width="50px" height="50px" viewBox="0 0 50 50" version="1.1" xmlns="http://www.w3.org/2000/svg" xmlns:xlink="http://www.w3.org/1999/xlink">
    <!-- Generator: Sketch 55.1 (78136) - https://sketchapp.com -->
    <title>4K</title>
    <desc>Created with Sketch.</desc>
    <g id="Page-1" stroke="none" stroke-width="1" fill="none" fill-rule="evenodd">
        <g id="INDEX-2-Copy" transform="translate(-1401.000000, -393.000000)" fill="#FFFFFF">
            <g id="4K" transform="translate(1401.000000, 393.000000)">
                <path d="M8,0 L42,0 C46.418278,-8.11624501e-16 50,3.581722 50,8 L50,42 C50,46.418278 46.418278,50 42,50 L8,50 C3.581722,50 5.41083001e-16,46.418278 0,42 L0,8 C-5.41083001e-16,3.581722 3.581722,8.11624501e-16 8,0 Z M22.9007409,30.3598558 L22.9007409,27.023526 L21.7694555,27.023526 L21.7694555,25.0131735 L18.4396343,25.0131735 L18.4396343,27.023526 L15.9849585,27.023526 L21.0223802,17.1428571 L17.1802789,17.1428571 L12.1428571,27.023526 L12.1428571,30.3598558 L18.4396343,30.3598558 L18.4396343,32.3702083 L21.7694555,32.3702083 L21.7694555,30.3598558 L22.9007409,30.3598558 Z M37.8283494,32.3702083 L32.4707526,23.3022352 L37.6575894,17.1428571 L33.0897578,17.1428571 L28.6926863,22.5323129 L28.6926863,17.1428571 L25,17.1428571 L25,32.3702083 L28.6926863,32.3702083 L28.6926863,27.6009677 L29.9733867,26.1252834 L33.4739679,32.3702083 L37.8283494,32.3702083 Z" id="Combined-Shape"></path>
            </g>
        </g>
    </g>
</svg>