<?xml version="1.0" encoding="UTF-8"?>
<svg width="50px" height="50px" viewBox="0 0 50 50" version="1.1" xmlns="http://www.w3.org/2000/svg" xmlns:xlink="http://www.w3.org/1999/xlink">
    <!-- Generator: Sketch 58 (84663) - https://sketch.com -->
    <title>placeh_actor</title>
    <desc>Created with Sketch.</desc>
    <g id="Page-1" stroke="none" stroke-width="1" fill="none" fill-rule="evenodd">
        <g id="placeholder" transform="translate(-458.000000, -134.000000)">
            <g id="placeh_actor" transform="translate(458.000000, 134.000000)">
                <rect id="Rectangle-5-Copy" fill-opacity="0.1" fill="#000000" x="0" y="0" width="50" height="50"></rect>
                <g id="cinema" opacity="0.1" transform="translate(11.000000, 6.000000)" fill="#FFFFFF" fill-rule="nonzero">
                    <path d="M2.5550306,20.2112237 C2.01220932,19.9704744 1.53143788,19.7010755 1.19085315,19.2375985 C1.09157339,19.102437 1.01044895,18.960113 0.998268798,18.7870601 C0.987927156,18.6410394 0.981492357,18.4629034 1.09800819,18.389662 C1.21360476,18.3168827 1.2786422,18.5012569 1.36987846,18.5647944 C1.71023338,18.801847 2.2617876,18.6320286 2.4068004,18.2357858 C2.47827264,18.0400904 2.35095554,17.946517 2.20663218,17.8765103 C1.84122751,17.6992985 1.44204014,17.646158 1.04859812,17.5729167 C0.981722171,17.5604402 0.914846221,17.5472706 0.852106928,17.5350252 C0.830964016,17.4231993 0.910939379,17.4384483 0.957591674,17.4181163 C1.6268108,17.1228403 2.06644548,16.6357967 2.22294899,15.9050002 C2.25994909,15.7321782 2.27879386,15.5295515 2.38152083,15.4020144 C2.60398104,15.1259152 2.43529737,15.0346523 2.22662602,14.9156639 C1.82261255,14.6857738 1.38251824,14.5586988 0.940815232,14.4327791 C0.816485717,14.3974292 0.691236945,14.3625413 0.571044087,14.3154081 C0.212993468,14.1751635 0.0454588721,13.8902846 0.00547119074,13.5222293 C-0.0335972336,13.1617986 0.139452905,12.9074176 0.432236273,12.7228124 C1.02377818,12.3501362 1.69621471,12.2750464 2.36658291,12.226989 C2.86091338,12.1916391 3.36167866,12.1740796 3.8539408,12.2722739 C4.07915878,12.3170967 4.1536186,12.267653 4.1391403,12.0109616 C4.03480463,10.1589019 3.90289124,8.30869065 3.90587883,6.45108592 C3.9086366,4.76006489 4.37975583,3.29754773 5.73382146,2.20262374 C6.54437636,1.54691699 7.46156507,1.10053735 8.44402104,0.781925789 C9.90403104,0.308513836 11.4100039,0.109121686 12.93666,0.0381907586 C15.0105039,-0.0583862041 17.0730869,-0.00270427107 19.0874089,0.570750326 C20.2941636,0.914314784 21.4030174,1.44987794 22.3094048,2.35211009 C23.3346063,3.37240642 23.842266,4.61797199 23.8730611,6.05461207 C23.9206326,8.27957894 23.972111,10.5047769 23.9426948,12.7302058 C23.9392476,12.9843557 23.9790054,13.0645285 24.261677,13.0411929 C25.1715116,12.965641 26.0813463,12.9776554 26.9744045,13.2112423 C26.9856654,13.2142458 26.9983052,13.2123975 27.0095661,13.2154011 C27.6201826,13.3886851 27.9752456,13.7398741 27.9986867,14.1934161 C28.0225874,14.6587415 27.7196922,15.043201 27.137113,15.2874159 C26.876044,15.3969314 26.6057824,15.4750247 26.2946139,15.5216959 C26.6230185,16.0653457 26.4260677,16.4782237 26.0082654,16.8391166 C25.7299603,17.0794038 25.4532639,17.3215393 25.179785,17.5673716 C24.8722935,17.8441639 24.7187775,18.1902699 24.7298086,18.608462 C24.7367031,18.868157 24.7851939,19.1236932 25.0235113,19.2572374 C25.2707914,19.3956336 25.3969594,19.1384801 25.5566803,19.0164881 C25.8087866,19.3702186 25.8147618,19.7091621 25.5601276,20.0739827 C25.1774868,20.6222534 24.6236344,20.9045908 23.9836017,20.9903087 C23.7314955,21.0240413 23.6742717,21.1079108 23.6666879,21.338494 C23.623253,22.6857196 23.7170172,24.0260137 23.8549057,25.3639974 C24.0571423,27.3253415 24.048869,29.2591912 23.0859472,31.0562621 C22.6612505,31.8489787 22.1899014,32.6162804 21.7491177,33.4004484 C21.1867622,34.4006438 20.6267048,35.4022254 20.0795171,36.4107384 C19.6936589,37.1218961 19.2354093,37.6976611 18.3680903,37.8665553 C16.1294695,38.3025379 14.1746694,37.6343547 12.3584473,36.3846303 C11.5651285,35.8386701 10.835698,35.2072231 10.2050877,34.4798923 C9.35983087,33.5051119 8.33095242,32.7361929 7.40480095,31.8531376 C7.30184416,31.7549433 7.20302403,31.651897 7.09891817,31.554858 C6.73213461,31.2126798 6.34765535,30.9014617 6.55839503,30.2829533 C6.63584243,30.0558357 6.52369307,29.7698015 6.41912758,29.5262797 C5.91238714,28.3444826 5.44149772,27.1550611 4.51419717,26.201999 C3.76408343,25.4312316 3.2173553,24.5075123 3.03005668,23.4190575 C2.98087643,23.1325613 2.88458425,22.9218479 2.67890049,22.703048 C2.1553836,22.1457665 1.82766847,21.0436801 2.5550306,20.2112237 Z M12.0406142,17.5606713 C11.705545,16.9613396 12.0835895,16.5433785 12.3952176,16.1073959 C11.395066,15.9726965 10.5858899,16.403134 10.1522304,17.2702472 C9.9695281,17.6352989 9.90495029,18.0320038 9.80865812,18.4220084 C9.50116664,19.6696534 9.03211573,20.7786711 7.53073916,20.9625832 C7.63921149,21.2012531 7.77273358,21.4073455 7.83225547,21.6524847 C7.99956026,22.3426172 7.80191999,22.9939341 7.65139165,23.6514892 C7.57762127,23.9740285 7.39859596,24.3275279 7.55211189,24.6218797 C7.77687024,25.0525483 7.47581355,25.0382235 7.24806762,25.0698767 C7.08443987,25.0925191 7.0334211,25.1498184 7.00906079,25.3016152 C6.88312258,26.090173 6.77901672,26.8757273 7.05180624,27.6573537 C7.13407975,27.893251 7.16809226,28.1395454 7.18394944,28.3902296 C7.26162666,29.6159253 7.48155891,30.8088125 8.29280325,31.7785099 C9.38143341,33.0799884 10.5121196,34.3468102 11.8050546,35.4521312 C12.2371054,35.8215727 12.6859327,36.1725307 13.2186421,36.4081969 C12.5340254,35.5593363 12.0121173,34.6252198 11.6586629,33.602382 C11.3102645,32.5943311 10.9756549,31.5786557 11.159966,30.4865042 C11.2204071,30.5206989 11.237873,30.5625181 11.2449972,30.6059547 C11.5910975,32.7458968 12.5034601,34.6180574 13.9432465,36.2192018 C14.5037635,36.8425622 15.125411,37.4192515 16.0191587,37.5514094 C16.5033774,37.6230335 16.9843786,37.5779796 17.4681376,37.5772865 C18.6544388,37.5752071 19.3875463,37.0089149 19.9034793,35.9366333 C20.652444,34.3803118 21.5402165,32.8919175 22.4381008,31.4159997 C23.3626436,29.8964144 23.6512903,28.2516024 23.5453459,26.5055926 C23.4483643,24.9044482 23.2360159,23.3109283 23.2479663,21.7023905 C23.2509539,21.292285 22.8343006,21.0799543 22.4911879,21.3006026 C22.3925976,21.363909 22.2972247,21.4394609 22.2190878,21.526565 C21.9290622,21.8488732 21.6468503,22.1783439 21.3345327,22.5362332 C21.4767878,22.5362332 21.5930738,22.5295329 21.7086704,22.5373884 C22.2639016,22.5755109 22.7134183,22.7889968 22.94645,23.3307982 C22.979773,23.4081984 23.0926118,23.5433599 22.9147356,23.589569 C22.6623995,23.6551859 22.3951256,23.7817988 22.1878331,23.4763568 C22.083957,23.3231737 21.9449194,23.2007197 21.7270555,23.2291383 C21.8033538,23.7457557 21.7426829,23.8571196 21.3579738,23.935906 C21.1375819,23.9809599 20.9192584,24.0283242 20.6942702,23.9430684 C20.4336608,23.8444121 20.4320521,23.5958072 20.3695427,23.3474335 C20.2010888,23.5248763 19.9816162,23.6313882 20.033784,23.8892349 C20.0843432,24.1385328 20.3086419,24.1930595 20.5143256,24.2505898 C20.6044128,24.2757738 20.7055311,24.2674561 20.7907922,24.3016508 C21.01624,24.3926827 21.2901786,24.3002646 21.5404463,24.5033534 C21.1463149,24.5033534 20.8025127,24.5303857 20.464456,24.4968842 C20.0062063,24.4513682 19.5844971,24.2954126 19.3337698,23.8652061 C19.2528752,23.7263479 19.152906,23.5424358 19.3709997,23.4400827 C19.8117834,23.2332971 20.1512191,22.8668591 20.6352079,22.6799434 C20.4906548,22.6332723 20.3725302,22.6120161 20.2707225,22.5591067 C20.01402,22.4253314 20.0002311,22.1806544 20.2222317,21.9946629 C20.5492574,21.7206431 20.8703079,21.4394609 21.1959547,21.1638237 C21.4584026,20.9415581 21.7275151,20.7264549 22.0446588,20.5873655 C22.4307468,20.4177782 22.7786856,20.4783121 23.085028,20.7789022 C23.1544319,20.8470605 23.1840779,20.9644316 23.304041,20.9808358 C23.389302,20.4686082 23.6873711,20.0074417 23.5938367,19.4600952 C23.5421285,19.1571947 23.556377,18.8434351 23.5198365,18.537069 C23.4442277,17.9023874 23.4097555,17.2596191 23.1797114,16.652663 C23.1098479,16.4680577 23.062736,16.2802178 22.8189031,16.5149599 C22.7345612,16.5962879 22.5838031,16.6177751 22.4587841,16.6450385 C21.8734472,16.7725755 21.2782282,16.7279838 20.6892143,16.7058034 C19.1421047,16.64758 17.5979827,16.4715234 16.0488047,16.5195808 C14.6464781,16.5627863 13.2276049,16.6066849 12.0406142,17.5606713 Z M23.3865443,12.6317805 C23.3961965,12.6317805 23.4058487,12.6317805 23.4157307,12.6317805 C23.4157307,12.2875229 23.4024015,11.9423411 23.4207866,11.5992387 C23.4318177,11.3919911 23.3716064,11.3351539 23.166612,11.3487856 C22.6008093,11.386446 22.0336277,11.4192544 21.4669058,11.4245684 C19.2774653,11.4453625 17.0972174,11.2820135 14.9185782,11.0828524 C13.0120391,10.9086441 11.1061894,10.7224216 9.19666274,10.5898015 C7.85431764,10.4964592 6.50944459,10.3582941 5.15951562,10.4881416 C4.65070685,10.5371232 4.65093666,10.5306539 4.6870175,11.0590547 C4.6982784,11.2251763 4.71298651,11.3919911 4.70976911,11.5581127 C4.70356413,11.8679445 4.85639061,11.9645215 5.15262119,12.0001025 C6.25435076,12.1320294 7.35263311,12.2921438 8.45183472,12.4448648 C10.615536,12.7454548 12.7769391,13.0645285 14.9429385,13.3454796 C16.9119871,13.6010158 18.8886196,13.7934766 20.8712272,13.9066888 C21.5795147,13.9471217 22.2901004,13.9413456 22.9995371,13.9612155 C23.2801403,13.9690711 23.4334264,13.8930571 23.394358,13.5589655 C23.3585069,13.2537546 23.3865443,12.9411502 23.3865443,12.6317805 Z M0.91369715,13.4171037 C0.995511027,13.4208004 1.04813849,13.4388219 1.08651747,13.4228798 C1.758954,13.1428528 2.46724155,13.1246002 3.17805706,13.1326868 C5.7280761,13.1615675 8.23282173,13.6141854 10.7481388,13.963526 C12.3159317,14.1814017 13.880737,14.4286203 15.4579523,14.5612403 C17.8018279,14.758322 20.1482315,14.926292 22.4946351,15.0926447 C23.6634705,15.17559 24.8352934,15.2123262 25.9960852,14.9958367 C26.4892666,14.9038806 26.978771,14.7807334 27.3563558,14.2347732 C26.4325025,14.6407199 25.5502455,14.6453408 24.6661501,14.6548137 C22.5936851,14.676763 20.5311021,14.498627 18.4659911,14.3639276 C16.6017379,14.2423977 14.7395529,14.1046947 12.8893183,13.8403788 C10.223243,13.459616 7.56659019,13.0037635 4.87730371,12.8117648 C4.0037797,12.7493826 3.1254296,12.7281264 2.25581243,12.8658294 C1.78193543,12.9409192 1.31035656,13.0476621 0.91369715,13.4171037 Z M3.70846838,21.8807575 C3.66503348,21.8906925 3.63906447,21.8888441 3.62481599,21.9008584 C3.44073476,22.0582003 3.40649244,22.2178527 3.45291492,22.4828617 C3.49014483,22.6958855 3.36650476,22.9611256 3.39684024,23.2118098 C3.49979703,24.0639052 3.90358068,24.7843046 4.40710373,25.4497153 C4.80031593,25.9693363 5.23213693,26.4596145 5.64511315,26.9644487 C5.80299555,27.1573716 5.92594618,27.3717817 6.04682848,27.5903506 C6.15736914,27.7899738 6.37477343,27.8546665 6.56712797,27.7703349 C6.75281789,27.6887759 6.58183608,27.5286615 6.56207205,27.4064385 C6.49220852,26.9709179 6.45405935,26.53817 6.50461849,26.0943318 C6.54598506,25.7299733 6.71076188,25.3487484 6.60320881,25.0026425 C6.30146268,24.0313278 5.93490894,23.0817313 5.3606031,22.2284808 C5.23788228,22.0459549 5.12849069,22.0429513 4.95268278,22.1402214 C4.52361956,22.3777361 4.2584139,22.7409394 4.12673033,23.2027991 C4.05824568,23.4433173 4.0295189,23.6953878 3.96769886,24.0230101 C3.46440563,23.3058453 3.64986574,22.585908 3.70846838,21.8807575 Z M7.00423469,29.9086598 C6.90840214,30.526013 6.86864428,31.0421683 7.49488814,31.3395237 C7.33057094,30.8873679 7.10213557,30.475183 7.00423469,29.9086598 Z M6.43084811,28.519384 C6.58022738,28.8712661 6.72914702,29.2217619 6.89300459,29.6073766 C6.89415366,28.6351377 6.88289276,28.6097227 6.43084811,28.519384 Z" id="XMLID_385_"></path>
                    <path d="M20.9825913,28.2518107 C21.0148963,28.7706439 21.0073665,29.2249763 20.9160384,29.6746832 C20.8769324,29.8671578 20.7336249,29.9851095 20.5985758,30.1017763 C19.9906119,30.6267769 19.2801467,30.8981429 18.5106583,30.97061 C17.6345394,31.053099 16.7693507,30.9636716 15.9235935,30.6804848 C15.2170146,30.4438105 14.9780068,30.1508586 15.0015676,29.3727372 C15.0256141,28.5784263 15.2238156,27.8373094 15.7579397,27.2390708 C15.8584979,27.1262586 15.9563842,26.9962291 16.1555573,27.0000837 C16.0873041,27.3629329 16.0608286,27.7214135 16.2876917,28.0359514 C16.4892938,28.3155405 16.7669217,28.4743513 17.0877848,28.4892559 C17.8186531,28.5234336 18.5072578,28.7344104 19.1956196,28.9700568 C20.0447773,29.2606959 20.263382,29.1797487 20.8305397,28.4306655 C20.8657593,28.384153 20.9060797,28.3414951 20.9825913,28.2518107 Z" id="XMLID_302_"></path>
                    <path d="M10,22.7960784 C10.5888512,22.7166628 11.0673062,22.413028 11.5153219,22.0492094 C12.2263592,21.4720319 12.9866997,21.0493868 13.9138135,21.0045882 C14.5851939,20.9722337 15.2031983,21.109797 15.7824033,21.455289 C16.1279541,21.6614076 16.4660023,21.8833642 16.8735037,21.9220538 C17.0347036,21.9374392 17.0143392,22.0136873 16.9622494,22.1297563 C16.6700745,22.7820506 15.4880849,23.0680374 15.0029846,22.5872447 C14.5251727,22.1134659 13.9768358,22.190619 13.4175665,22.3213946 C12.6137106,22.5096391 11.8375074,22.8135001 11.0233621,22.9605661 C10.5794193,23.0408867 10.3043934,23.0044596 10,22.7960784 Z" id="XMLID_301_"></path>
                    <path d="M14.1256302,23.6410229 C14.1123884,23.8971351 14.246153,24.1860874 13.9341852,24.3020287 C13.5600484,24.4409981 13.1466351,24.4886562 12.7617253,24.3212521 C12.6017015,24.2517674 12.5541208,24.0649397 12.5615273,23.9153574 C12.5729736,23.682874 12.4668148,23.7379411 12.3272148,23.8080265 C12.1972657,23.8733061 12.0628278,23.9317774 11.9362452,24.0016626 C11.6319083,24.1700678 11.6218087,24.3120409 11.9097616,24.5102826 C12.1449718,24.6722801 12.4243961,24.7347562 12.7170623,24.7401628 C13.043394,24.7463704 13.3701745,24.7415645 13.6983017,24.7677965 C13.2099264,25.0331199 12.6683594,25.0205045 12.1409319,24.9732469 C11.4377701,24.9103703 10.7543588,24.7613887 10.2047121,24.3176477 C10.110224,24.2413547 9.97780609,24.1618578 10.0031675,24.0501216 C10.02808,23.9407884 10.1959591,23.9648176 10.2989757,23.944593 C10.8647819,23.8334575 11.370439,23.5863563 11.901233,23.3967251 C12.8151413,23.0703272 13.7503712,22.8989183 14.7369972,23.0633187 C15.2716066,23.1524273 15.6414791,23.4455847 15.950978,23.8198409 C16.0030475,23.8829178 16.02796,23.9267713 15.9521002,24.0024635 C15.6565164,24.2982241 15.2094375,24.3240556 14.8844524,24.0535258 C14.6685438,23.8745076 14.4800165,23.654239 14.1256302,23.6410229 Z" id="XMLID_300_"></path>
                    <path d="M21,31 C20.6988656,31.5212151 20.2927288,31.9095213 19.7703478,32.2168239 C18.8954076,32.7317474 17.8982437,32.9808532 16.8405658,32.9995312 C15.5535092,33.0223381 14.3936992,32.2105323 14,31.0835596 C16.3258389,31.6104764 18.6461765,32.0396776 21,31 Z M18.4926194,32.3064784 C17.2053236,32.1891018 15.9397936,31.9958334 14.7287979,31.6140153 C14.7484111,32.0306335 15.0634183,32.1818272 15.4480284,32.2817054 C16.4578692,32.5437875 17.4715369,32.5203909 18.4926194,32.3064784 Z" id="XMLID_297_"></path>
                    <path d="M14,33 C14.4973654,33.2451662 14.9856207,33.3908413 15.4866795,33.5004422 C15.5595607,33.5162965 15.6299798,33.5190537 15.6905501,33.5760371 C16.6180627,34.4500877 17.7144827,34.5907078 18.9273649,34.2200865 C18.9364751,34.2173292 18.9505097,34.2278987 19,34.2465102 C17.9944354,34.9620185 16.9086029,35.1927091 15.7218201,34.8315083 C14.7938149,34.5488894 14.2151967,33.942063 14,33 Z" id="XMLID_296_"></path>
                    <path d="M13.2252418,34 C12.7230242,33.3701731 12.3962966,32.6779849 12.172574,31.9527297 C12.104449,31.7323569 12.072294,31.5044385 12.0213365,31.2805149 C11.9265065,30.8650688 12.1592215,30.5459387 12.4927616,30.2685308 C12.9342117,29.9012428 13.3914668,29.5463826 13.8459969,29.1895251 C14.290717,28.840435 14.6852971,28.4600533 14.9793247,28 C15.0256497,28.2316911 15.0003072,28.3204616 14.8398046,28.5949845 C14.5076271,29.162672 14.0078619,29.6424767 13.4298893,30.0268531 C12.4644216,30.668664 12.4826791,31.4529516 12.7053117,32.3164669 C12.8505542,32.8817133 13.0426667,33.4356414 13.2252418,34 Z" id="XMLID_295_"></path>
                    <path d="M20.9845687,31 C21.1817658,30.5543889 21.3277273,30.0907182 21.4391347,29.6165477 C21.6136928,28.8735825 21.2592148,28.2841243 20.4465961,27.8557329 C19.9979877,27.6192776 19.9449649,27.3674927 20.0393931,27 C20.8112021,27.3662327 21.4590927,27.7771945 21.8788067,28.3443931 C22.0831529,28.6203276 21.9759158,28.9185216 21.9368934,29.200756 C21.8686788,29.6938261 21.7122914,30.1784964 21.3929632,30.6259975 C21.2901944,30.7692146 21.2276394,30.9422512 20.9845687,31 Z" id="XMLID_293_"></path>
                    <path d="M5.68893915,24.5413351 C5.67484388,24.6214875 5.67880045,24.6607735 5.66124318,24.6892219 C5.3130652,25.2563848 5.55812513,25.7562648 5.8704467,26.2489198 C5.87662884,26.2588541 5.88182184,26.2694659 5.88676755,26.2800776 C5.97801589,26.4853129 6.08509051,26.6946122 5.89245511,26.8969123 C5.81629118,26.9770647 5.70031429,27.0308007 5.58334825,26.9804514 C5.34471775,26.8777209 5.3130652,26.6508106 5.26583368,26.4539293 C5.19263717,26.1486728 5.1478785,25.8366429 5.11152753,25.5255162 C5.09050826,25.3453427 5.02522489,25.2674481 4.81008651,25.2507402 C4.21091377,25.2040035 3.87089621,24.7587626 4.04597434,24.2505287 C4.20102235,23.8000948 4.53238491,23.4408767 4.8444592,23.0746592 C4.91122628,22.9963131 5.00024906,22.9588334 5.04921158,23.06766 C5.27473595,23.5682174 5.48740148,24.0741934 5.68893915,24.5413351 Z" id="XMLID_292_"></path>
                </g>
            </g>
        </g>
    </g>
</svg>