<?xml version="1.0" encoding="UTF-8"?>
<svg width="119px" height="32px" viewBox="0 0 119 32" version="1.1" xmlns="http://www.w3.org/2000/svg" xmlns:xlink="http://www.w3.org/1999/xlink">
    <!-- Generator: Sketch 55.1 (78136) - https://sketchapp.com -->
    <title>Group 14</title>
    <desc>Created with Sketch.</desc>
    <g id="Page-1" stroke="none" stroke-width="1" fill="none" fill-rule="evenodd">
        <g id="INDEX" transform="translate(-580.000000, -3345.000000)" fill="#FFFFFF" fill-rule="nonzero">
            <g id="Group-8" transform="translate(0.000000, 3312.000000)">
                <g id="Group-6" transform="translate(424.000000, 33.000000)">
                    <g id="Group-14" transform="translate(156.000000, 0.000000)">
                        <path d="M18.6795565,15.0182624 C18.6483091,11.5273459 21.5230658,9.82900371 21.6545202,9.74993548 C20.0264252,7.36380799 17.5029319,7.03778693 16.6161535,7.0117919 C14.4967209,6.78758473 12.4408604,8.28663169 11.3612104,8.28663169 C10.2600105,8.28663169 8.59743571,7.03345443 6.80556151,7.07028073 C4.4997222,7.1060239 2.3425772,8.44801753 1.15948768,10.5319528 C-1.282116,14.7810577 0.53885056,21.0252815 2.87809222,24.4598754 C4.04825179,26.1430538 5.41559296,28.0201119 7.20531216,27.9540412 C8.95624155,27.8825548 9.61028102,26.8330053 11.7232487,26.8330053 C13.8168215,26.8330053 14.4309937,27.9540412 16.2562702,27.9117993 C18.1354215,27.8825548 19.318511,26.222122 20.4477258,24.5248629 C21.799982,22.5979811 22.3430395,20.6981773 22.3645894,20.6006959 C22.3214896,20.5855322 18.7161913,19.2012966 18.6795565,15.0182624 Z" id="Shape"></path>
                        <path d="M15.3269752,5.06472277 C16.2748652,3.89772559 16.9234215,2.31005421 16.7433874,0.698893419 C15.3714415,0.758684674 13.6556956,1.63313179 12.6676776,2.77450415 C11.7935365,3.78027848 11.012666,5.42880881 11.2143909,6.97911065 C12.7555255,7.09228695 14.3378727,6.21356904 15.3269752,5.06472277 Z" id="Shape"></path>
                        <g id="Group" transform="translate(31.450204, 12.580082)">
                            <path d="M12.6818094,14.7729884 L10.2128519,14.7729884 L8.86041545,10.6031328 L4.15950301,10.6031328 L2.87120947,14.7729884 L0.467482042,14.7729884 L5.12599495,0.576918125 L8.00264026,0.576918125 L12.6818094,14.7729884 Z M8.45272763,8.85369218 L7.22966414,5.14679827 C7.10029121,4.76810839 6.85676568,3.87632039 6.50017472,2.472501 L6.45668802,2.472501 C6.31318191,3.07627134 6.08378956,3.96805934 5.76959814,5.14679827 L4.56719084,8.85369218 L8.45272763,8.85369218 L8.45272763,8.85369218 Z" id="Shape"></path>
                            <path d="M24.638478,9.52893357 C24.638478,11.2698403 24.1568627,12.6459247 23.1925451,13.6561199 C22.3293341,14.555375 21.2562997,15.0044692 19.9767036,15.0044692 C18.5949136,15.0044692 17.6012425,14.5212396 16.9978645,13.5526469 L16.9978645,18.9236428 L14.6800233,18.9236428 L14.6800233,7.90110045 C14.6800233,6.80770009 14.6506698,5.68656469 14.5941371,4.53662753 L16.6325762,4.53662753 L16.7619491,6.159127 L16.8054358,6.159127 C17.578412,4.93665206 18.7514657,4.32541458 20.3256843,4.32541458 C21.556358,4.32541458 22.5837313,4.80224382 23.40563,5.75696901 C24.2264415,6.71382767 24.638478,7.97043803 24.638478,9.52893357 Z M22.2771501,9.61213868 C22.2771501,8.61581093 22.0488449,7.79442724 21.5900602,7.14692088 C21.0888759,6.47381295 20.4159192,6.13672562 19.5722772,6.13672562 C19.0004271,6.13672562 18.480761,6.32447047 18.0165405,6.69462649 C17.5512328,7.06798271 17.2468259,7.55547926 17.1044069,8.15924961 C17.0326539,8.44086687 16.9967773,8.67021427 16.9967773,8.85155872 L16.9967773,10.5593967 C16.9967773,11.302909 17.2294312,11.9312142 17.6947389,12.445379 C18.1600466,12.9574104 18.7645117,13.2144928 19.5081343,13.2144928 C20.3811299,13.2144928 21.0606096,12.8827392 21.5465735,12.2245655 C22.0336245,11.5642583 22.2771501,10.693805 22.2771501,9.61213868 Z" id="Shape"></path>
                            <path d="M36.6375461,9.52893357 C36.6375461,11.2698403 36.1559309,12.6459247 35.1916133,13.6561199 C34.3273151,14.555375 33.2553679,15.0044692 31.9746845,15.0044692 C30.5928946,15.0044692 29.5992235,14.5212396 28.9958455,13.5526469 L28.9958455,18.9236428 L26.6780043,18.9236428 L26.6780043,7.90110045 C26.6780043,6.80770009 26.6486507,5.68656469 26.592118,4.53662753 L28.6305572,4.53662753 L28.7599301,6.159127 L28.8034168,6.159127 C29.5753058,4.93665206 30.7483595,4.32541458 32.3236653,4.32541458 C33.5532518,4.32541458 34.5806251,4.80224382 35.4046981,5.75696901 C36.2244224,6.71382767 36.6375461,7.97043803 36.6375461,9.52893357 Z M34.275131,9.61213868 C34.275131,8.61581093 34.0457387,7.79442724 33.586954,7.14692088 C33.0857698,6.47381295 32.4149874,6.13672562 31.5713454,6.13672562 C30.9994952,6.13672562 30.4798292,6.32447047 30.0134343,6.69462649 C29.5481266,7.06798271 29.2448068,7.55547926 29.1023879,8.15924961 C29.031722,8.44086687 28.9936711,8.67021427 28.9936711,8.85155872 L28.9936711,10.5593967 C28.9936711,11.302909 29.2274122,11.9312142 29.6905455,12.445379 C30.1558532,12.9563437 30.7603184,13.2144928 31.5061153,13.2144928 C32.380198,13.2144928 33.0596777,12.8827392 33.5445545,12.2245655 C34.0316055,11.5642583 34.275131,10.693805 34.275131,9.61213868 Z" id="Shape"></path>
                            <path d="M50.0531936,10.7908776 C50.0531936,11.999485 49.6226752,12.9819453 48.7670744,13.7403917 C47.8255873,14.5681758 46.5112017,14.9831346 44.826092,14.9831346 C43.2692681,14.9831346 42.0211998,14.6887165 41.0797127,14.0988137 L41.6156863,12.2032308 C42.6321879,12.7942004 43.748709,13.0886185 44.9641623,13.0886185 C45.838245,13.0886185 46.5177247,12.8944732 47.0026014,12.509383 C47.4885653,12.1232259 47.7342652,11.6069276 47.7342652,10.9626215 C47.7342652,10.3855194 47.5309649,9.9022898 47.1319744,9.50866567 C46.7308096,9.11610827 46.0676374,8.75021917 45.1359348,8.41419857 C42.6028344,7.48720841 41.335197,6.13139196 41.335197,4.34781596 C41.335197,3.18294455 41.7831101,2.22928609 42.6767618,1.48364038 C43.5704135,0.739061398 44.7554261,0.366771909 46.2296253,0.366771909 C47.5461852,0.366771909 48.6431373,0.591852374 49.5139585,1.04094657 L48.9323238,2.89492689 C48.1125995,2.45970021 47.1874199,2.24208687 46.1524364,2.24208687 C45.3348864,2.24208687 44.6934576,2.4394323 44.2346729,2.8319897 C43.8487284,3.18294455 43.6530382,3.6107041 43.6530382,4.11846857 C43.6530382,4.6785029 43.8759076,5.14359807 44.3194719,5.50842044 C44.7043293,5.84444104 45.4066395,6.21033014 46.422054,6.60288753 C47.667948,7.09571775 48.583343,7.66961959 49.1693263,8.32886001 C49.7596583,8.98810042 50.0531936,9.81055084 50.0531936,10.7908776 Z" id="Shape"></path>
                            <path d="M57.7362066,6.24339883 L55.1813628,6.24339883 L55.1813628,11.2133035 C55.1813628,12.477381 55.6314502,13.1078196 56.5337993,13.1078196 C56.9480101,13.1078196 57.291555,13.0736842 57.5633469,13.0022132 L57.6274898,14.7292524 C57.1708794,14.8967293 56.5696758,14.9810011 55.824966,14.9810011 C54.909571,14.9810011 54.1942147,14.706851 53.6778101,14.1585507 C53.1635799,13.6102504 52.904834,12.6917941 52.904834,11.3989149 L52.904834,6.2391319 L51.3827995,6.2391319 L51.3827995,4.5323606 L52.904834,4.5323606 L52.904834,2.65811237 L55.1813628,1.98393771 L55.1813628,4.5323606 L57.7362066,4.5323606 L57.7362066,6.24339883 Z" id="Shape"></path>
                            <path d="M69.2406135,9.57053612 C69.2406135,11.1439659 68.7818288,12.4357784 67.8664337,13.4459737 C66.9086391,14.4860375 65.6344787,15.0044692 64.046127,15.0044692 C62.5132207,15.0044692 61.2945059,14.5063054 60.3856339,13.5110444 C59.4767618,12.5136499 59.0223258,11.2570395 59.0223258,9.74121325 C59.0223258,8.15498268 59.4919821,6.85570303 60.4280334,5.84550777 C61.366259,4.83424578 62.6295477,4.32861478 64.2178994,4.32861478 C65.7486313,4.32861478 66.9782178,4.82784539 67.9088332,5.82417313 C68.7981363,6.79063238 69.2406135,8.03870889 69.2406135,9.57053612 Z M66.8379732,9.622806 C66.8379732,8.68514851 66.6314114,7.88083254 66.2172005,7.20772461 C65.7312367,6.39487478 65.0354494,5.98844987 64.1341875,5.98844987 C63.2057465,5.98844987 62.4936517,6.39487478 62.008775,7.20772461 C61.593477,7.88083254 61.3869152,8.69901603 61.3869152,9.66547528 C61.3869152,10.6041995 61.593477,11.4106489 62.008775,12.0816234 C62.5099592,12.8944732 63.209008,13.3008981 64.1146185,13.3008981 C65.0006601,13.3008981 65.6953601,12.8859394 66.1976315,12.0613555 C66.6238012,11.3722466 66.8379732,10.5625969 66.8379732,9.622806 Z" id="Shape"></path>
                            <path d="M76.777946,6.53675015 C76.5485537,6.4951476 76.3028538,6.47381295 76.0473694,6.47381295 C75.2319938,6.47381295 74.6014366,6.7746314 74.1578723,7.38053521 C73.7730149,7.91390124 73.5794991,8.5880759 73.5794991,9.40199246 L73.5794991,14.7729884 L71.2616579,14.7729884 L71.2616579,7.76029182 C71.2616579,6.58155289 71.2388274,5.50628698 71.1942535,4.53769426 L73.2131237,4.53769426 L73.2979227,6.49621433 L73.3620656,6.49621433 C73.6077655,5.8231064 73.9926228,5.28013978 74.5209862,4.87371486 C75.0373908,4.50782577 75.5951077,4.32541458 76.1963114,4.32541458 C76.4104834,4.32541458 76.6039992,4.34034883 76.7757717,4.36701714 L76.777946,6.53675015 L76.777946,6.53675015 Z" id="Shape"></path>
                            <path d="M87.1440885,9.1705116 C87.1440885,9.57800325 87.1169093,9.92149097 87.0592895,10.2020415 L80.1057659,10.2020415 C80.1318579,11.2133035 80.4688798,11.987751 81.1146573,12.521117 C81.7006407,12.9968795 82.4583964,13.2358275 83.3890118,13.2358275 C84.4185595,13.2358275 85.3578723,13.0758177 86.2026014,12.7525979 L86.5657154,14.3302946 C85.5785673,14.7527205 84.4131237,14.9628667 83.0682974,14.9628667 C81.4505921,14.9628667 80.1807804,14.495638 79.256688,13.5633142 C78.3347699,12.6299237 77.8727237,11.3754468 77.8727237,9.80415045 C77.8727237,8.26165589 78.3021549,6.97624375 79.1621044,5.95111424 C80.0622792,4.85664715 81.2788196,4.3094136 82.8095515,4.3094136 C84.3131043,4.3094136 85.4513687,4.85664715 86.2243448,5.95111424 C86.8364201,6.81836741 87.1440885,7.89363333 87.1440885,9.1705116 Z M84.9338769,8.58060877 C84.9501844,7.90536738 84.797981,7.32399841 84.4837896,6.83223493 C84.0826247,6.19859608 83.4651136,5.88284339 82.6377791,5.88284339 C81.8800233,5.88284339 81.2625121,6.19112896 80.7928558,6.80983355 C80.4069113,7.30159703 80.1775189,7.89256659 80.106853,8.57847531 L84.9338769,8.58060877 L84.9338769,8.58060877 Z" id="Shape"></path>
                        </g>
                        <g id="Group" transform="translate(32.847991, 0.000000)">
                            <path d="M6.24192101,7.79231217 L5.02872704,7.79231217 L4.36510885,5.77845079 L2.05710778,5.77845079 L1.4239009,7.79231217 L0.243290466,7.79231217 L2.53065529,0.935119394 L3.94260889,0.935119394 L6.24192101,7.79231217 Z M4.16526311,4.93348864 L3.56463977,3.1429237 C3.50164492,2.95946418 3.38543028,2.53278975 3.20622078,1.85136867 L3.18449842,1.85136867 C3.11064238,2.14595224 3.00528892,2.57367501 2.84671567,3.1429237 L2.25695352,4.93348864 L4.16526311,4.93348864 Z" id="Shape"></path>
                            <path d="M11.9614192,2.84834013 L10.0216122,7.79231217 L8.91485778,7.79231217 L7.03804562,2.84834013 L8.26101465,2.84834013 L9.13642588,5.46290041 C9.28413795,5.90005824 9.41012766,6.31729761 9.50461994,6.71357018 L9.53611736,6.71357018 C9.62083458,6.35818288 9.74682428,5.94094351 9.90431142,5.46290041 L10.7688615,2.84834013 L11.9614192,2.84834013 Z" id="Shape"></path>
                            <path d="M16.0908404,7.79231217 L16.0061232,7.22306348 L15.9746258,7.22306348 C15.627068,7.68118812 15.1209369,7.90448457 14.4779549,7.90448457 C13.5612712,7.90448457 12.9074281,7.28386721 12.9074281,6.44938847 C12.9074281,5.22912056 14.0033213,4.5980198 15.9007697,4.5980198 L15.9007697,4.50681421 C15.9007697,3.85579499 15.5423507,3.52976121 14.8363739,3.52976121 C14.3302429,3.52976121 13.8871067,3.65241701 13.4982764,3.89668026 L13.2669332,3.17437391 C13.7415668,2.88922539 14.331329,2.74665114 15.0275307,2.74665114 C16.3656283,2.74665114 17.0411938,3.42807222 17.0411938,4.79196273 L17.0411938,6.61292953 C17.0411938,7.11193943 17.0629161,7.49877694 17.1150498,7.79336051 L16.0908404,7.79231217 L16.0908404,7.79231217 Z M15.9322672,5.32976121 C14.6669395,5.32976121 14.0348187,5.62539313 14.0348187,6.32673267 C14.0348187,6.84566104 14.3617403,7.09935935 14.8146516,7.09935935 C15.3946387,7.09935935 15.9322672,6.67268492 15.9322672,6.09295282 L15.9322672,5.32976121 Z" id="Shape"></path>
                            <path d="M19.5761935,2.03377985 C19.1971383,2.03377985 18.9017142,1.74863133 18.9017142,1.37227723 C18.9017142,0.995923122 19.2069134,0.721258008 19.5979159,0.721258008 C19.9878323,0.721258008 20.3038927,0.995923122 20.2930315,1.37227723 C20.2930315,1.76959814 19.9986935,2.03377985 19.5761935,2.03377985 Z M20.1670418,7.79231217 L19.02879,7.79231217 L19.02879,2.84834013 L20.1670418,2.84834013 L20.1670418,7.79231217 L20.1670418,7.79231217 Z" id="Shape"></path>
                            <polygon id="Shape" points="23.3276456 7.79231217 22.1893938 7.79231217 22.1893938 0.579732091 23.3276456 0.579732091"></polygon>
                            <path d="M28.1652159,7.79231217 L28.0804987,7.22306348 L28.0490012,7.22306348 C27.7014434,7.68118812 27.1953124,7.90448457 26.5523304,7.90448457 C25.6356467,7.90448457 24.9818036,7.28386721 24.9818036,6.44938847 C24.9818036,5.22912056 26.0776968,4.5980198 27.9751452,4.5980198 L27.9751452,4.50681421 C27.9751452,3.85579499 27.6167262,3.52976121 26.9107494,3.52976121 C26.4046184,3.52976121 25.9614822,3.65241701 25.5726519,3.89668026 L25.3402226,3.17332557 C25.8148562,2.88817705 26.4046184,2.7456028 27.1008201,2.7456028 C28.4389177,2.7456028 29.1144831,3.42702388 29.1144831,4.79091439 L29.1144831,6.61188119 C29.1144831,7.11089109 29.1372916,7.4977286 29.1872531,7.79231217 L28.1652159,7.79231217 L28.1652159,7.79231217 Z M28.0066426,5.32976121 C26.741315,5.32976121 26.1091942,5.62539313 26.1091942,6.32673267 C26.1091942,6.84566104 26.4361158,7.09935935 26.8890271,7.09935935 C27.4690142,7.09935935 28.0066426,6.67268492 28.0066426,6.09295282 L28.0066426,5.32976121 Z" id="Shape"></path>
                            <path d="M33.7261408,7.90448457 C32.9995278,7.90448457 32.4629854,7.60885265 32.1154276,7.02912056 L32.0926191,7.02912056 L32.027452,7.79231217 L31.0575485,7.79231217 C31.0890459,7.3960396 31.0999071,6.94735003 31.0999071,6.45987187 L31.0999071,0.579732091 L32.2392451,0.579732091 L32.2392451,3.57169482 L32.2609674,3.57169482 C32.5987502,3.02236459 33.1450676,2.74769948 33.8944891,2.74769948 C35.1283194,2.74769948 35.9928694,3.76563774 35.9928694,5.25008736 C35.9928694,6.78485731 35.032741,7.90448457 33.7261408,7.90448457 Z M33.4947977,3.6104834 C32.8398684,3.6104834 32.2403312,4.15981363 32.2403312,4.92300524 L32.2403312,5.78788585 C32.2403312,6.46930693 32.7790458,7.02912056 33.4752475,7.02912056 C34.3278503,7.02912056 34.8350674,6.35818288 34.8350674,5.28992429 C34.8339813,4.29295282 34.3061279,3.6104834 33.4947977,3.6104834 Z" id="Shape"></path>
                            <polygon id="Shape" points="38.8135182 7.79231217 37.6763525 7.79231217 37.6763525 0.579732091 38.8135182 0.579732091"></polygon>
                            <path d="M45.0098223,5.58450786 L41.5928946,5.58450786 C41.6157031,6.5206756 42.2565128,7.04903902 43.20578,7.04903902 C43.7119111,7.04903902 44.1756835,6.96726849 44.5862362,6.81525917 L44.7632735,7.57845079 C44.2788648,7.78182877 43.7097389,7.88351776 43.0461207,7.88351776 C41.4430103,7.88351776 40.4948291,6.90646476 40.4948291,5.39161328 C40.4948291,3.87571345 41.4658188,2.73616773 42.9179587,2.73616773 C44.2245589,2.73616773 45.0478364,3.67233547 45.0478364,5.0865463 C45.0521809,5.27944089 45.0424058,5.45241701 45.0098223,5.58450786 Z M43.9660627,4.80139779 C43.9660627,4.03820617 43.5652851,3.49935935 42.837586,3.49935935 C42.1837429,3.49935935 41.6689229,4.04868957 41.5928946,4.80139779 L43.9660627,4.80139779 L43.9660627,4.80139779 Z" id="Shape"></path>
                            <path d="M51.9088448,7.90448457 C50.412174,7.90448457 49.4422705,6.82574257 49.4422705,5.36121142 C49.4422705,3.83482819 50.4328102,2.74665114 51.9946481,2.74665114 C53.4685104,2.74665114 54.4612224,3.77402446 54.4612224,5.28048923 C54.4612224,6.82574257 53.4380991,7.90448457 51.9088448,7.90448457 Z M51.9522895,3.54967967 C51.1300981,3.54967967 50.6033308,4.29190448 50.6033308,5.32976121 C50.6033308,6.34769948 51.1409592,7.08992429 51.9414283,7.08992429 C52.7418974,7.08992429 53.2784414,6.29633081 53.2784414,5.30879441 C53.2795259,4.30238789 52.7527586,3.54967967 51.9522895,3.54967967 Z" id="Shape"></path>
                            <path d="M60.5804121,7.79231217 L59.4432464,7.79231217 L59.4432464,4.95340711 C59.4432464,4.07909144 59.0956886,3.64088526 58.410348,3.64088526 C57.7358687,3.64088526 57.2710101,4.20069889 57.2710101,4.85171811 L57.2710101,7.79231217 L56.1338444,7.79231217 L56.1338444,4.26150262 C56.1338444,3.82434479 56.1218971,3.35573675 56.0914858,2.84729179 L57.0928867,2.84729179 L57.1461065,3.6104834 L57.1776039,3.6104834 C57.481717,3.08211998 58.1051488,2.7456028 58.8002644,2.7456028 C59.8744353,2.7456028 60.5804121,3.53919627 60.5804121,4.83075131 L60.5804121,7.79231217 L60.5804121,7.79231217 Z" id="Shape"></path>
                            <path d="M68.0279243,3.67233547 L66.77563,3.67233547 L66.77563,6.07303436 C66.77563,6.68421666 66.996112,6.98928363 67.4381621,6.98928363 C67.639094,6.98928363 67.8085284,6.96831683 67.9442932,6.93791497 L67.9757906,7.77239371 C67.7542225,7.85416424 67.4577122,7.8950495 67.0916904,7.8950495 C66.1945568,7.8950495 65.6591006,7.41700641 65.6591006,6.16528829 L65.6591006,3.67233547 L64.9118513,3.67233547 L64.9118513,2.84834013 L65.6591006,2.84834013 L65.6591006,1.94257426 L66.77563,1.61654048 L66.77563,2.84729179 L68.0279243,2.84729179 L68.0279243,3.67233547 Z" id="Shape"></path>
                            <path d="M74.05588,7.79231217 L72.9165421,7.79231217 L72.9165421,4.97437391 C72.9165421,4.08957484 72.5689842,3.64193361 71.8836437,3.64193361 C71.2938815,3.64193361 70.746478,4.02877111 70.746478,4.81188119 L70.746478,7.79231217 L69.60714,7.79231217 L69.60714,0.579732091 L70.746478,0.579732091 L70.746478,3.54967967 L70.7682003,3.54967967 C71.1266193,3.01083285 71.6436116,2.7456028 72.3072298,2.7456028 C73.3922618,2.7456028 74.05588,3.55911474 74.05588,4.85171811 L74.05588,7.79231217 Z" id="Shape"></path>
                            <path d="M79.8720427,5.58450786 L76.4562011,5.58450786 C76.4779235,6.5206756 77.1187332,7.04903902 78.0680004,7.04903902 C78.5752176,7.04903902 79.0379039,6.96726849 79.4484566,6.81525917 L79.62658,7.57845079 C79.1421713,7.78182877 78.5719593,7.88351776 77.9083411,7.88351776 C76.3052307,7.88351776 75.3570495,6.90646476 75.3570495,5.39161328 C75.3570495,3.87571345 76.3280392,2.73616773 77.7801791,2.73616773 C79.0867793,2.73616773 79.9100568,3.67233547 79.9100568,5.0865463 C79.9144013,5.27944089 79.9035401,5.45241701 79.8720427,5.58450786 Z M78.8282831,4.80139779 C78.8282831,4.03820617 78.4285917,3.49935935 77.7008925,3.49935935 C77.0459633,3.49935935 76.5311433,4.04868957 76.4562011,4.80139779 L78.8282831,4.80139779 L78.8282831,4.80139779 Z" id="Shape"></path>
                        </g>
                    </g>
                </g>
            </g>
        </g>
    </g>
</svg>