<?xml version="1.0" encoding="UTF-8"?>
<svg width="126px" height="126px" viewBox="0 0 126 126" version="1.1" xmlns="http://www.w3.org/2000/svg" xmlns:xlink="http://www.w3.org/1999/xlink">
    <!-- Generator: Sketch 58 (84663) - https://sketch.com -->
    <title>placeh_avatar</title>
    <desc>Created with Sketch.</desc>
    <g id="Page-1" stroke="none" stroke-width="1" fill="none" fill-rule="evenodd" opacity="0.1">
        <g id="placeholder" transform="translate(-240.000000, -35.000000)">
            <g id="placeh_avatar" transform="translate(240.000000, 35.000000)">
                <circle id="Oval" fill="#000000" cx="63" cy="63" r="63"></circle>
                <path d="M81.327287,73.82676 L71.6081478,69.81492 C70.6914783,69.43608 70.1217391,68.67504 70.1217391,67.82832 L70.1217391,64.98828 C70.3547217,64.75308 70.599913,64.48512 70.8532435,64.18944 C72.1137913,62.71944 73.1240609,61.08312 73.8586174,59.31828 C75.2941565,58.7748 76.226087,57.603 76.226087,56.28 L76.226087,52.92 C76.226087,52.11108 75.8598261,51.32736 75.2086957,50.715 L75.2086957,46.24704 C75.2656696,45.78504 75.4894957,43.03488 73.080313,40.76604 C70.9905913,38.79792 67.5996261,37.8 63,37.8 C58.4003739,37.8 55.0094087,38.79792 52.919687,40.7652 C50.5105043,43.03404 50.7343304,45.78504 50.7913043,46.24704 L50.7913043,50.715 C50.1401739,51.32736 49.773913,52.11108 49.773913,52.92 L49.773913,56.28 C49.773913,57.30228 50.3365304,58.25568 51.2969478,58.89156 C52.2288783,61.93824 54.1792174,64.23396 54.8608696,64.97064 L54.8608696,67.7502 C54.8608696,68.56332 54.323687,69.30924 53.4599217,69.699 L44.3837739,73.78644 C41.4323217,75.11616 39.6,77.66472 39.6,80.44008 L39.6,83.16 C39.6,87.14664 54.9066522,88.2 63,88.2 C71.0933478,88.2 86.4,87.14664 86.4,83.16 L86.4,80.60388 C86.4,77.71596 84.4557652,75.11868 81.327287,73.82676 Z" id="Shape" fill="#FFFFFF"></path>
            </g>
        </g>
    </g>
</svg>