<svg width="16" height="25" viewBox="0 0 16 25" fill="none" xmlns="http://www.w3.org/2000/svg">
<path d="M9.22814 11.0137C8.9334 11.0137 8.69434 11.2528 8.69434 11.5475C8.69434 11.8455 8.9334 12.0846 9.22814 12.0846C9.52615 12.0846 9.76523 11.8455 9.76523 11.5475C9.76523 11.2528 9.52615 11.0137 9.22814 11.0137Z" fill="white"/>
<path d="M6.57908 11.0137C6.28107 11.0137 6.04199 11.2528 6.04199 11.5475C6.04199 11.8455 6.28107 12.0846 6.57908 12.0846C6.87383 12.0846 7.11289 11.8455 7.11289 11.5475C7.11289 11.2528 6.87383 11.0137 6.57908 11.0137Z" fill="white"/>
<path d="M14.2845 14.5471C14.2878 14.4783 14.2943 14.4096 14.2943 14.3375C14.2943 12.6804 13.6459 11.1772 12.5979 10.0572C13.063 9.81489 13.5018 9.52342 13.8948 9.15991C14.8445 8.28224 15.7746 6.77905 15.6665 5.42979C15.5978 4.60125 14.7758 4.32615 14.0749 4.56849C13.266 4.85013 12.5685 5.6656 12.2082 6.41554C12.4931 5.53131 13.4756 2.96706 12.1689 2.46273C10.9376 1.98787 9.80119 3.3142 8.94316 6.34348C9.02831 3.21923 8.29472 0 6.47062 0C5.31784 0 3.64763 1.69967 4.89211 6.24196C4.78403 6.05531 2.675 2.43653 1.21766 4.16568C0.474259 5.04991 1.15216 7.92199 3.90965 9.61512C2.60294 10.7548 1.77113 12.4217 1.75803 14.2917C1.2668 15.618 0.0714526 18.6768 0.00268947 19.4758C-0.0562751 20.1341 0.867247 21.4801 1.50258 21.6373C2.7405 21.9386 3.07781 21.1297 3.6149 20.2225C3.87688 19.7837 3.48389 19.371 3.09092 19.371C2.91734 19.371 2.74378 19.4529 2.62915 19.6461C2.46212 19.9278 2.29512 20.2127 2.1281 20.4943C2.0233 20.4943 1.81042 20.4943 1.81042 20.4943L1.2275 19.5708C1.2275 19.5708 1.7089 18.0938 2.19032 16.63C2.51781 17.4552 3.00905 18.1921 3.63127 18.8012C4.2535 19.4103 5.00017 19.8917 5.83201 20.2029V20.4714V22.158C5.63223 22.122 5.42265 22.1023 5.20977 22.1023C3.82122 22.1023 2.69793 22.8817 2.69793 23.8413C2.69793 24.8041 7.72162 24.8041 7.72162 23.8413C7.72162 23.278 7.32865 22.777 6.72606 22.456V20.4714C7.14525 20.5598 7.57752 20.6057 8.0262 20.6057C8.45193 20.6057 8.87111 20.5631 9.27394 20.4812V22.456C8.67135 22.777 8.27836 23.278 8.27836 23.8413C8.27836 24.8041 13.3021 24.8041 13.3021 23.8413C13.3021 22.8817 12.1788 22.1023 10.7902 22.1023C10.5773 22.1023 10.3677 22.122 10.168 22.158V20.4812V20.2225C10.7837 19.9998 11.3535 19.6822 11.8611 19.2859C12.7093 18.6309 13.3839 17.7631 13.8064 16.7609C14.2878 18.2281 14.7725 19.7149 14.7725 19.7149L14.1896 20.6384C14.1896 20.6384 13.9767 20.6384 13.8719 20.6384C13.7049 20.3568 13.5378 20.0719 13.3708 19.7902C13.1907 19.4889 12.8763 19.4627 12.634 19.5839C12.3654 19.7149 12.1886 20.0326 12.3851 20.3666C12.9222 21.2738 13.2595 22.0827 14.4974 21.7781C15.136 21.6242 16.0562 20.2782 15.9973 19.6167C15.9318 18.8438 14.7987 15.9291 14.2845 14.5471ZM7.90175 14.0985C5.89424 14.0985 4.2666 13.1979 4.2666 12.0844C4.2666 10.9709 5.89424 10.0703 7.90175 10.0703C9.91252 10.0703 11.5402 10.9709 11.5402 12.0844C11.5402 13.1979 9.91252 14.0985 7.90175 14.0985Z" fill="white"/>
</svg>
