<svg width="380" height="300" viewBox="0 0 380 300" fill="none" xmlns="http://www.w3.org/2000/svg">
<path opacity="0.95" d="M148.337 42.0886H222.546C223.94 42.0886 225.32 42.363 226.608 42.8961C227.896 43.4291 229.067 44.2105 230.052 45.1955C231.038 46.1804 231.82 47.3498 232.354 48.6367C232.887 49.9237 233.162 51.303 233.162 52.696V126.846C233.162 129.659 232.043 132.357 230.052 134.346C228.062 136.335 225.361 137.453 222.546 137.453H148.337C145.522 137.453 142.822 136.335 140.831 134.346C138.84 132.357 137.722 129.659 137.722 126.846V52.6958C137.722 49.8826 138.84 47.1846 140.831 45.1954C142.822 43.2062 145.522 42.0886 148.337 42.0886Z" fill="url(#paint0_linear)"/>
<path d="M207.536 115.742H163.349V117.923H207.536V115.742Z" fill="#96BFE6"/>
<path d="M201.276 122.614H169.606V124.796H201.276V122.614Z" fill="#96BFE6"/>
<path opacity="0.95" d="M261.368 75.1633H366.977C370.294 75.1633 373.475 76.4799 375.82 78.8233C378.165 81.1667 379.483 84.3451 379.483 87.6592V215.865C379.483 219.179 378.165 222.357 375.82 224.701C373.475 227.044 370.294 228.361 366.977 228.361H261.368C258.051 228.361 254.87 227.044 252.525 224.701C250.18 222.357 248.862 219.179 248.862 215.865V87.6592C248.862 84.3451 250.18 81.1667 252.525 78.8233C254.87 76.4799 258.051 75.1633 261.368 75.1633Z" fill="url(#paint1_linear)"/>
<path d="M318.447 165.54H308.087V167.457H318.447V165.54Z" fill="#4598E6"/>
<path d="M329.038 183.108H268.755V186.82H329.038V183.108Z" fill="#96BFE6"/>
<path d="M317.503 200.928H268.755V204.64H317.503V200.928Z" fill="#96BFE6"/>
<path d="M297.333 192.018H268.755V195.73H297.333V192.018Z" fill="#96BFE6"/>
<path d="M344.809 90.4407V92.3154H355.856V102.675H357.732V90.4407H344.809ZM269.793 102.675H271.669V92.3154H282.716V90.4407H269.793V102.675ZM355.856 156.129V166.492H344.809V168.367H357.732V156.129H355.856ZM271.669 156.129H269.793V168.367H282.716V166.492H271.669V156.129Z" fill="#4598E6"/>
<path d="M351.884 204.913C349.699 204.913 347.563 204.266 345.746 203.053C343.929 201.84 342.513 200.116 341.677 198.099C340.841 196.082 340.622 193.862 341.048 191.721C341.475 189.579 342.527 187.612 344.072 186.068C345.617 184.525 347.585 183.473 349.728 183.047C351.871 182.621 354.093 182.84 356.111 183.676C358.13 184.511 359.855 185.926 361.069 187.741C362.283 189.557 362.931 191.691 362.931 193.874C362.928 196.801 361.763 199.607 359.692 201.676C357.621 203.746 354.813 204.91 351.884 204.913ZM351.884 184.972C350.121 184.972 348.399 185.494 346.934 186.472C345.469 187.45 344.327 188.841 343.652 190.467C342.978 192.094 342.802 193.884 343.145 195.611C343.489 197.338 344.338 198.924 345.584 200.169C346.83 201.414 348.417 202.262 350.145 202.605C351.874 202.949 353.665 202.773 355.293 202.099C356.921 201.425 358.312 200.284 359.291 198.82C360.27 197.356 360.793 195.635 360.793 193.874C360.79 191.514 359.851 189.251 358.181 187.582C356.51 185.913 354.246 184.974 351.884 184.972Z" fill="#4598E6"/>
<path d="M351.179 198.219L346.16 193.204L347.672 191.693L351.179 195.197L356.095 190.285L357.608 191.795L351.179 198.219Z" fill="#4598E6"/>
<path d="M358.527 291.004C358.527 295.634 278.268 299.387 179.264 299.387C80.259 299.387 0 295.634 0 291.004C0 286.374 80.259 282.621 179.264 282.621C278.268 282.621 358.527 286.374 358.527 291.004Z" fill="url(#paint2_linear)"/>
<path opacity="0.95" d="M217.606 45.6544H153.276V100.805H217.606V45.6544Z" fill="url(#paint3_linear)"/>
<path d="M210.013 79.2285C207.894 73.6283 202.804 71.0571 200.401 70.2557C199.546 69.9718 198.017 69.4733 196.407 68.9526C193.506 68.0158 190.335 66.9967 190.335 66.9967H180.323C180.323 66.9967 176.856 68.1578 173.171 69.4481C173.171 69.4485 173.171 69.4489 173.171 69.4493C173.171 69.4497 173.171 69.45 173.17 69.4503C173.17 69.4506 173.17 69.4509 173.169 69.451C173.169 69.4512 173.169 69.4513 173.168 69.4512C169.774 70.6406 166.2 71.9374 164.994 72.5432C162.477 73.7987 158.243 82.7745 157.387 83.8032C156.945 84.3332 154.981 87.8289 153.049 91.7348H163.835C164.975 89.7787 165.852 88.2611 165.852 88.2611C165.852 88.2611 166.534 89.7566 167.362 91.7348H201.917C202.463 89.4379 202.804 86.5448 202.804 86.5448C202.804 86.5448 204.654 89.0594 206.675 91.7348H216.634C214.212 87.6742 211.206 82.3896 210.013 79.2285Z" fill="#385369"/>
<path d="M186.523 39.5055C186.523 39.5055 194.352 40.7379 193.16 52.9767C191.968 65.2157 185.059 64.2125 184.597 64.2001C184.135 64.1878 177.66 64.4233 177.156 49.4803C177.156 49.4803 176.935 38.4306 186.523 39.5055Z" fill="#EEA886"/>
<path d="M193.281 49.5196C193.281 49.5196 194.138 48.6047 194.453 49.5309C194.767 50.4572 193.284 54.5883 193.23 54.7815C193.23 54.7815 193.074 55.1408 192.868 54.943C192.662 54.7453 193.281 49.5196 193.281 49.5196Z" fill="#EEA886"/>
<path d="M177.367 49.3649C177.367 49.3649 176.527 48.4336 176.195 49.3536C175.863 50.2737 177.253 54.4321 177.316 54.627C177.316 54.627 177.465 54.9891 177.675 54.7954C177.884 54.6015 177.367 49.3649 177.367 49.3649Z" fill="#EEA886"/>
<path d="M193.277 51.397L192.156 52.8942C192.156 52.8942 192.188 49.6117 192.008 49.0971C191.828 48.5826 191.553 47.0101 191.403 46.6394C191.252 46.2688 184.68 44.4283 178.875 47.1768C178.875 47.1768 179.13 49.5371 178.574 49.7472C178.017 49.9571 178.29 53.5912 178.29 53.5912L177.368 52.5522C177.368 52.5522 175.958 43.136 176.306 42.1547C176.655 41.1732 177.765 35.2727 189.675 38.7753C189.675 38.7753 193.388 37.9896 194.133 40.5512C194.878 43.1125 193.277 51.397 193.277 51.397Z" fill="#434343"/>
<path d="M191.307 66.7757C191.303 66.7647 190.302 66.2827 190.302 66.2827C189.815 65.193 190.177 60.5954 190.177 60.5954C190.177 60.5954 180.206 58.0596 180.491 59.9986C180.775 61.9376 179.632 66.4423 179.632 66.4423L174.517 68.9802C174.517 68.9802 179.967 83.6022 186.23 81.7159C192.494 79.8298 194.859 68.453 194.859 68.453L191.307 66.7757Z" fill="#EEA886"/>
<path d="M180.635 62.1525C180.635 62.1525 182.241 64.2248 185.03 64.2248C186.864 64.2248 188.18 63.711 190.007 61.9309C190.007 61.9309 189.215 65.3117 185.042 65.6261C185.042 65.6261 182.015 66.0105 180.635 62.1525Z" fill="#A77860"/>
<path d="M151.85 111.25C151.85 111.25 157.603 114.062 156.18 121.711C154.758 129.36 154.129 130.391 155.72 133.38C157.311 136.368 159.188 149.118 157.756 151.535C156.324 153.951 140.032 140.915 137.773 129.977C135.514 119.04 139.205 114.175 140.509 112.363C141.814 110.55 146.771 108.675 151.85 111.25Z" fill="#0E2D3D"/>
<path d="M149.679 288.77H150.983V282.625C150.983 282.625 153.54 284.329 155.145 286.684C156.749 289.039 158.956 288.838 162.316 288.688C165.675 288.538 165.525 287.185 165.224 285.281C164.923 283.377 161.513 282.776 160.41 282.475C159.307 282.174 156.802 277.863 155.997 276.813C155.332 275.945 154.769 275.003 154.317 274.007C154.317 274.007 153.691 271.452 150.582 274.007C147.473 276.563 148.375 281.473 148.726 281.924C149.077 282.375 149.679 288.77 149.679 288.77Z" fill="#163342"/>
<path d="M156.248 282.475C157.402 283.227 160.41 282.475 160.41 282.475C159.558 281.373 154.318 274.007 154.318 274.007C151.133 272.153 149.875 274.705 149.875 274.705C151.174 275.101 155.095 281.723 156.248 282.475Z" fill="#EEA886"/>
<path d="M189.777 169.129C189.777 169.129 191.864 169.529 192.577 168.548C193.184 167.715 194.57 167.075 194.996 166.878C195.567 166.613 197.015 165.15 197.356 165.865C197.697 166.58 195.085 168.392 194.613 168.882C194.141 169.371 197.174 169.588 197.698 170.063C198.221 170.539 197.577 175.538 195.513 175.149C193.449 174.76 191.5 172.982 191.124 172.986C190.615 172.941 190.11 172.866 189.61 172.762L189.777 169.129Z" fill="#EEA886"/>
<path d="M197.237 169.859C197.237 169.859 203.477 171.47 203.803 171.925C204.129 172.38 204.022 172.713 203.432 172.587C202.842 172.46 197.357 171.204 197.357 171.204C197.357 171.204 204.423 174.351 204.772 174.666C204.976 174.85 204.806 175.507 204.484 175.468C204.162 175.43 196.981 172.711 196.981 172.711C196.981 172.711 203.572 175.661 203.785 176.011C203.83 176.101 203.847 176.202 203.833 176.301C203.819 176.4 203.775 176.493 203.708 176.567C203.64 176.641 203.552 176.693 203.454 176.716C203.357 176.739 203.255 176.732 203.161 176.696C202.657 176.51 196.384 174.118 196.384 174.118C196.384 174.118 201.047 176.566 201.053 176.969C201.056 177.215 200.936 177.789 199.752 177.12C198.569 176.45 195.611 175.164 195.611 175.164L197.237 169.859Z" fill="#EEA886"/>
<path d="M132.785 289.189H133.587V284.679C134.532 285.724 135.241 286.959 135.666 288.301C136.318 290.455 138.652 291.094 142.212 290.994C145.772 290.894 145.823 289.489 145.522 287.385C145.221 285.281 142.212 284.178 142.212 284.178C140.858 282.976 137.498 277.99 137.498 277.99C137.498 277.99 135.342 277.414 133.65 278.779C131.958 280.144 132.484 283.227 132.534 284.028C132.584 284.83 132.785 289.189 132.785 289.189Z" fill="#163342"/>
<path d="M135.242 181.763C135.242 181.763 130.999 187.275 129.849 193.814C128.698 200.352 130.528 222.298 130.478 225.53C130.428 228.762 127.419 236.804 128.021 242.892C128.623 248.98 130.997 279.279 130.997 279.279L137.498 277.991C137.498 277.991 137.122 247.101 137.498 244.545C137.874 241.99 138.629 232.675 138.78 231.623C138.93 230.571 148.33 202.941 148.33 198.227C148.33 193.513 145.471 174.072 135.242 181.763Z" fill="#1D3B54"/>
<path d="M156.554 183.918C156.554 183.918 163.524 210.498 164.352 214.181C165.179 217.864 166.377 220.901 166.377 222.465C166.377 226.093 165.028 231.919 165.028 231.919L156.178 274.217H147.748C147.748 274.217 152.444 248.841 152.571 243.879C152.698 238.906 156.529 231.844 155.777 229.739C155.024 227.635 143.667 203.358 143.667 203.358C143.667 203.358 135.067 176.201 156.554 183.918Z" fill="#1D3B54"/>
<path d="M142.212 284.178L137.499 277.99L133.65 278.779C133.65 278.779 134.686 281.549 136.557 283.633C138.772 286.1 142.212 284.178 142.212 284.178Z" fill="#EEA886"/>
<path d="M153.676 138.747C155.6 139.024 157.377 139.938 158.721 141.342C160.892 143.667 162.93 147.374 163.499 148.614C164.067 149.853 172.039 161.343 172.453 161.602C172.866 161.86 176.873 163.198 179.529 164.091C183.626 165.469 191.839 168.451 191.839 168.451L190.208 173.611C190.208 173.611 174.764 168.562 170.896 167.61C166.166 166.445 155.278 152.488 155.278 152.488C155.278 152.488 147.161 142.983 153.676 138.747Z" fill="#285173"/>
<path d="M148.661 136.732C148.661 136.732 152.383 138.489 153.676 138.747C154.968 139.005 159.983 145.514 160.862 147.89C161.741 150.267 160.862 153.831 159.052 158.015C157.243 162.2 158.949 163.595 158.122 167.779C157.295 171.963 157.561 187.617 157.716 189.942C157.871 192.266 133.517 195.79 128.709 191.554C128.709 191.554 131.964 177.446 135.818 173.42C136.651 172.549 136.563 166.746 135.994 165.299C135.426 163.853 129.015 153.056 129.015 153.056C129.015 153.056 128.544 142.106 131.341 139.935C133.771 138.049 140.394 137.377 141.583 136.964C142.772 136.551 146.231 136.371 148.661 136.732Z" fill="#FFBF55"/>
<path d="M150.438 132.44C150.438 132.44 150.327 133.464 150.198 134.848C150.149 135.396 150.094 136 150.045 136.62C149.897 138.475 149.778 140.466 149.85 141.485C149.85 141.485 145.981 145.359 141.583 136.965C141.583 136.965 143.432 133.503 142.04 128.791C140.647 124.076 150.438 132.44 150.438 132.44Z" fill="#EEA886"/>
<path d="M161.264 159.559C161.264 159.559 162.196 153.371 161.205 149.607C161.205 149.607 161.205 152.843 159.43 157.438L161.264 159.559Z" fill="#183C59"/>
<path d="M138.611 137.56C138.611 137.56 141.272 145.412 148.577 144.835C155.883 144.257 152.041 138.204 152.041 138.204C152.041 138.204 150.22 137.161 149.707 137.063C149.195 136.964 141.631 136.868 141.631 136.868L138.611 137.56Z" fill="#EEA886"/>
<path d="M152.04 138.204C152.04 138.204 155.866 148.78 155.866 159.559C155.866 170.337 156.174 187.895 157.51 193.44C158.846 198.985 162.648 216.132 162.648 216.132L165.628 214.592C165.628 214.592 158.462 187.225 157.921 185.252C157.38 183.278 158.332 162.431 158.846 160.685C159.36 158.94 161.545 151.17 161.206 149.014C160.777 146.297 158.232 142.275 154.122 138.818L152.04 138.204Z" fill="#285173"/>
<path d="M140.054 137.229C141.714 142.908 142.912 148.712 143.637 154.583C144.842 164.328 139.938 209.56 136.65 219.828L123.907 217.775C123.907 217.775 126.65 185.802 130.374 179.983C134.097 174.165 135.282 169.017 131.262 156.873C127.243 144.728 133.024 138.714 133.024 138.714C133.024 138.714 138.937 137.355 140.054 137.229Z" fill="#285173"/>
<path d="M153.801 169.496L138.351 196.235L121.176 186.326L135.955 159.2L153.801 169.496Z" fill="#616161"/>
<path d="M151.939 170.416L138.217 194.163L122.963 185.363L136.089 161.272L151.939 170.416Z" fill="#E0CEC7"/>
<path d="M146.877 168.282L147.84 166.615L141.673 163.058L140.469 164.586L146.877 168.282Z" fill="#616161"/>
<path d="M146.141 187.254C146.141 187.254 145.439 187.257 145.131 187.109C145.131 187.109 144.591 186.796 144.194 186.597C144.092 186.544 143.988 186.497 143.881 186.456C143.566 186.347 142.842 186.202 142.159 185.728C141.476 185.255 139.057 182.456 139.057 182.456L140.199 180.72L141.037 178.943C141.037 178.943 146.117 179.27 146.804 179.638C146.869 179.673 146.933 179.711 146.994 179.753C147.545 180.121 147.801 180.626 148.069 180.851C148.167 180.935 149.083 181.831 149.051 182.212C149.047 182.425 148.99 182.633 148.883 182.817C148.777 183.002 148.625 183.156 148.442 183.265C148.442 183.265 148.311 184.298 147.801 184.78C147.801 184.78 147.711 185.736 146.906 186.155C146.906 186.155 146.706 187.115 146.141 187.254Z" fill="#EEA886"/>
<path d="M135.671 138.747C135.671 138.747 130.979 137.404 128.291 142.57C125.603 147.735 125.616 149.94 125.257 152.462C124.917 154.844 123.386 161.347 123.231 162.019C123.076 162.69 119.607 170.698 121.198 173.497C122.796 176.311 139.036 184.592 138.932 185.212C138.829 185.832 141.745 178.951 141.745 178.951C141.745 178.951 135.174 175.291 134.098 174.165C132.35 172.334 128.662 170.362 129.42 168.092C130.31 165.425 132.983 156.426 133.603 155.109C134.223 153.792 139.626 140.426 135.671 138.747Z" fill="#285173"/>
<path d="M151.015 112.098C151.015 112.098 159.368 114.721 154.834 129.124C150.299 143.528 138.892 127.455 140.085 118.68C141.278 109.904 151.015 112.098 151.015 112.098Z" fill="#EEA987"/>
<path d="M155.688 120.502C155.688 120.502 151.537 124.572 144.591 125.081C144.591 125.081 141.922 128.208 141.717 129.436C141.717 129.436 135.52 118.881 143.138 112.554C150.756 106.226 158.488 117.895 155.688 120.502Z" fill="#0E2D3D"/>
<path d="M144.674 125.368C144.62 124.319 143.974 121.934 142.415 122.601C140.855 123.269 142.51 128.127 143.544 127.828C143.544 127.828 144.801 127.848 144.674 125.368Z" fill="#EEA987"/>
<path d="M150.198 134.848C150.149 135.396 150.095 136 150.045 136.62C150.045 136.62 146.359 136.4 143.895 130.92C144.055 131.16 146.756 135.124 150.198 134.848Z" fill="#A77860"/>
<path d="M58.7331 266.564C64.089 262.801 70.3573 236.573 70.7312 220.951C70.9228 212.948 73.2901 209.615 75.3787 206.673C77.3752 203.861 79.0994 201.433 78.0951 195.858C76.1756 185.203 81.2222 180.603 81.2734 180.558L80.6892 179.893C80.4646 180.089 75.209 184.833 77.2232 196.015C78.1617 201.224 76.6147 203.403 74.6563 206.161C72.6013 209.055 70.0437 212.657 69.8456 220.93C69.4444 237.695 63.036 262.459 58.2236 265.841L58.7331 266.564Z" fill="url(#paint4_linear)"/>
<path d="M47.5071 258.914C47.0013 257.769 46.4784 256.585 45.8862 255.336C42.8265 248.882 40.1163 247.82 35.6259 246.059C34.5287 245.629 33.2851 245.141 31.9201 244.528C25.4879 241.64 26.7332 237.383 27.832 233.628C27.9857 233.102 28.1389 232.579 28.2718 232.06C28.8375 229.852 27.7507 228.743 26.1055 227.066C24.8828 225.82 23.361 224.268 22.1879 221.818C20.904 219.136 21.5584 217.698 22.3335 216.964C23.9653 215.418 27.7277 215.703 31.2801 217.641C32.3836 218.243 33.2921 219.194 34.2539 220.2C36.5185 222.569 39.3368 225.518 46.4648 225.552C50.5292 225.571 52.7553 226.131 53.9084 227.426C55.2168 228.895 54.9703 231.095 54.6288 234.139C54.5107 235.191 54.3768 236.385 54.2956 237.674C53.8108 245.367 58.3554 250.916 58.4003 250.97C61.1155 254.201 64.4607 260.903 63.0168 265.029C62.4116 266.758 61.0582 267.846 58.994 268.264C58.2492 268.42 57.4906 268.502 56.7294 268.509C51.7436 268.509 49.9192 264.377 47.5071 258.914ZM30.8555 218.418C27.6833 216.688 24.2816 216.338 22.9429 217.606C21.9255 218.57 22.4052 220.221 22.987 221.435C24.0966 223.754 25.5 225.184 26.7382 226.447C28.4598 228.202 29.8194 229.588 29.1299 232.28C28.9946 232.808 28.8387 233.341 28.6821 233.876C27.588 237.616 26.5546 241.148 32.2832 243.721C33.6287 244.325 34.8616 244.809 35.9496 245.235C40.4823 247.013 43.4769 248.187 46.6868 254.957C47.2841 256.217 47.8094 257.407 48.3174 258.557C51.0882 264.832 52.7605 268.62 58.8184 267.396C60.5547 267.045 61.6859 266.151 62.1808 264.737C63.453 261.101 60.4088 254.736 57.7211 251.538C57.5243 251.303 52.9038 245.674 53.4116 237.619C53.4942 236.308 53.6294 235.103 53.7485 234.04C54.0643 231.224 54.2925 229.189 53.2468 228.014C52.2906 226.941 50.1977 226.454 46.4607 226.437C38.9562 226.402 35.9937 223.302 33.6133 220.811C32.6609 219.815 31.8384 218.954 30.8555 218.418Z" fill="url(#paint5_linear)"/>
<path d="M58.8981 273.618L59.7826 273.572C59.739 272.742 58.6232 253.168 50.7579 247.439C42.129 241.155 39.4084 234.401 38.1128 229.867C36.586 224.525 28.8151 223.098 28.485 223.039L28.3311 223.911C28.4063 223.924 35.8868 225.302 37.261 230.11C38.5927 234.769 41.3865 241.709 50.2361 248.154C57.7642 253.638 58.8876 273.419 58.8981 273.618Z" fill="url(#paint6_linear)"/>
<path d="M57.4003 278.02C55.5497 277.1 55.6168 273.397 55.7183 267.792C55.8467 260.71 56.0224 251.01 52.3121 242.089C48.3705 232.611 51.8858 229.841 55.2854 227.163C59.093 224.162 62.6894 221.329 55.7871 208.538C52.617 202.663 51.6105 198.689 52.6197 196.032C53.617 193.407 56.4156 192.383 59.3784 191.3C64.4924 189.429 70.2888 187.31 69.54 176.495C69.3105 173.179 69.7005 171.14 70.7677 170.078C71.9272 168.924 73.6356 169.049 75.6135 169.194C78.6021 169.412 81.9875 169.66 84.9365 165.815C85.2431 164.855 88.0626 156.279 91.4354 154.811C91.7583 154.659 92.1113 154.581 92.4684 154.583C92.8255 154.585 93.1776 154.667 93.4988 154.823C95.8272 155.935 97.1783 157.255 97.6295 158.857C98.4146 161.644 96.3717 164.787 94.0061 168.427C90.2887 174.146 86.0752 180.628 90.4453 188.342C96.2231 198.542 93.1714 202.112 88.9476 207.052C86.5278 209.882 83.7852 213.09 81.9516 218.323C80.4769 222.531 82.9924 226.543 85.4252 230.423C88.4767 235.291 91.6321 240.324 84.9884 244.691C74.0042 251.912 63.1564 275.483 63.0482 275.72L63.0033 275.818L62.9185 275.885C60.8948 277.47 59.4217 278.226 58.3124 278.226C57.9964 278.23 57.684 278.16 57.4003 278.02ZM84.5015 243.952C90.4216 240.06 87.7583 235.812 84.6745 230.893C82.2491 227.025 79.5 222.64 81.1155 218.03C83.0039 212.641 85.8037 209.366 88.2741 206.477C92.4126 201.637 95.1467 198.439 89.6743 188.778C85.0396 180.597 89.5993 173.581 93.2632 167.944C95.5115 164.485 97.4531 161.498 96.7769 159.097C96.3986 157.754 95.2015 156.617 93.1166 155.621C92.9097 155.521 92.6827 155.469 92.4528 155.469C92.2229 155.47 91.996 155.522 91.7894 155.623C88.66 156.985 85.7869 166.063 85.7581 166.154L85.7352 166.228L85.6886 166.289C82.4383 170.581 78.6186 170.302 75.5487 170.077C73.7145 169.942 72.2659 169.837 71.3928 170.705C70.533 171.561 70.216 173.435 70.4236 176.434C71.2184 187.912 64.8222 190.252 59.6828 192.131C56.7953 193.187 54.3015 194.099 53.4478 196.346C52.5367 198.746 53.5278 202.486 56.5667 208.118C63.8223 221.563 59.7613 224.763 55.8339 227.858C52.5488 230.446 49.446 232.891 53.1299 241.749C56.9114 250.841 56.7338 260.648 56.604 267.808C56.5153 272.696 56.4454 276.556 57.7952 277.228C58.5853 277.621 60.0962 276.957 62.2875 275.254C63.1657 273.347 73.5552 251.148 84.5015 243.952Z" fill="url(#paint7_linear)"/>
<path d="M40.0632 175.284C45.6536 173.369 44.4921 184.135 46.8543 192.101C49.2164 200.067 73.133 195.576 63.0939 215.523C53.0549 235.47 75.7903 222.194 68.9992 239.601C62.2081 257.008 68.4087 275.625 61.0271 270.889C53.6454 266.154 56.88 244.234 49.2032 241.629C41.5262 239.025 40.2735 235.987 47.8744 228.906C55.4753 221.825 27.9573 214.796 34.7484 200.498C41.5395 186.2 33.6044 177.497 40.0632 175.284Z" fill="url(#paint8_linear)"/>
<path d="M58.4534 269.746C59.1564 266.766 65.1602 240.542 59.5581 237.372C54.6207 234.578 54.7423 223.712 55.5126 213.45C56.1944 204.366 44.5193 200.121 44.0218 199.945L43.7256 200.779C43.8411 200.82 55.2604 204.976 54.6292 213.384C53.8383 223.922 53.7535 235.105 59.1216 238.142C63.3751 240.549 59.459 261.625 57.5911 269.543L58.4534 269.746Z" fill="white"/>
<path d="M79.5453 260.408L71.5636 290.665H53.7266L45.7451 260.408H79.5453Z" fill="url(#paint9_linear)"/>
<path d="M79.5452 260.408C79.5452 260.408 61.974 263.704 61.974 290.665H53.7267L45.7451 260.408H79.5452Z" fill="url(#paint10_linear)"/>
<path opacity="0.95" d="M251.264 6.77356H303.929C306.243 6.77356 308.463 7.69232 310.1 9.32773C311.737 10.9631 312.656 13.1812 312.656 15.4941V61.1549C312.656 63.4677 311.737 65.6858 310.1 67.3212C308.463 68.9566 306.243 69.8754 303.929 69.8754H251.264C250.118 69.8754 248.983 69.6498 247.924 69.2116C246.865 68.7733 245.903 68.131 245.092 67.3212C244.282 66.5114 243.639 65.55 243.2 64.492C242.762 63.434 242.536 62.3 242.536 61.1547V15.4941C242.536 13.1812 243.456 10.9631 245.092 9.32773C246.729 7.69232 248.949 6.77356 251.264 6.77356Z" fill="url(#paint11_linear)"/>
<path d="M280.111 57.9408H274.55V58.9699H280.111V57.9408Z" fill="#4598E6"/>
<path d="M282.359 1.24696C282.359 1.24696 286.84 3.70538 285.417 9.75081C283.995 15.7961 283.454 16.5943 284.61 19.0372C285.765 21.4801 286.781 31.7167 285.549 33.5895C284.316 35.4623 271.817 24.4548 270.428 15.6488C269.04 6.84288 272.166 3.10297 273.275 1.70708C274.383 0.311192 278.406 -0.997844 282.359 1.24696Z" fill="#344052"/>
<path d="M290.773 51.212H285.976C285.744 48.8475 285.53 47.2018 285.574 46.9582C285.644 46.5563 280.8 33.8595 280.348 32.8093C279.893 31.762 278.116 28.9458 277.884 26.2937C277.65 23.6418 281.111 22.5709 281.111 22.5709C285.782 23.4071 287.365 29.8639 287.365 29.8639C287.365 29.8639 289.326 42.9568 290.318 46.6414C290.574 47.586 290.712 49.2552 290.773 51.212Z" fill="#EEA886"/>
<path d="M288.358 33.0173L281.214 36.0268C281.214 36.0268 274.647 19.7449 280.151 21.5628C285.639 23.3752 288.107 26.7823 288.358 33.0173Z" fill="#EB4747"/>
<path d="M286.768 40.6832C286.56 42.2996 285.705 48.026 285.896 49.5721C285.929 49.8272 286.034 50.4141 286.193 51.212H268.967C269.425 49.5779 269.843 48.1316 270.095 47.2897C270.932 44.5173 270.13 43.7753 269.708 41.5575C269.543 40.6892 268.965 39.0403 268.333 37.1774C268.122 36.5555 267.905 35.9072 267.696 35.256C266.939 32.909 266.586 30.5094 266.369 29.113C265.33 22.4918 270.427 21.8551 270.427 21.8551C272.32 21.506 275.629 20.485 275.629 20.485L280.811 21.5618C281.244 21.7487 281.651 21.9892 282.024 22.2776C282.024 22.2776 282.024 22.2777 282.025 22.2778C282.025 22.278 282.026 22.2782 282.026 22.2785C282.026 22.2787 282.026 22.2791 282.026 22.2795C282.027 22.2798 282.027 22.2802 282.027 22.2806C282.442 22.5885 282.832 22.9299 283.192 23.3015C283.759 23.8824 284.886 25.5456 286.011 27.3733C286.354 27.9337 286.701 28.5086 287.027 29.0748C288.08 30.8966 288.829 32.3663 288.806 34.0238C288.785 35.6551 286.977 39.0668 286.768 40.6832Z" fill="#EB4747"/>
<path d="M280.811 21.5634C280.811 21.5634 284.057 27.1076 282.85 27.5216C281.643 27.9355 275.28 26.5357 272.794 21.2977C272.794 21.2977 276.971 19.4009 280.811 21.5634Z" fill="#EEA886"/>
<path d="M280.346 24.0953C280.346 24.0953 277.462 25.3146 274.851 21.3007C274.851 21.3007 275.552 16.7428 274.069 14.1062C272.586 11.4705 280.553 17.2667 280.553 17.2667C280.553 17.2667 280.424 17.8101 280.29 18.6126C280.222 19.0233 280.152 19.5009 280.098 20.0078C280.053 20.4301 280.019 20.8738 280.003 21.3157C279.97 22.3408 280.044 23.3583 280.346 24.0953Z" fill="#EEA886"/>
<path d="M273.186 30.3049C272.592 33.3559 268.333 37.1781 268.333 37.1781C268.122 36.5545 267.905 35.9075 267.696 35.2573C270.635 33.3838 273.186 30.3049 273.186 30.3049Z" fill="#393D63"/>
<path d="M272.118 32.7331C271.848 33.8451 270.606 45.1072 270.741 45.4914C270.82 45.7115 271.422 48.3167 272.024 51.2121H266.463C265.894 49.3464 265.556 47.7973 265.638 46.9201C265.993 43.1212 264.704 31.0111 264.704 31.0111C264.704 31.0111 263.551 23.6858 269.634 22.7705C269.634 22.7705 273.228 23.243 273.445 25.8949C273.662 28.5497 272.388 31.6243 272.118 32.7331Z" fill="#EEA886"/>
<path d="M264.255 34.2889L271.805 36.0509C271.805 36.0509 277.794 24.4322 272.4 22.3108C266.715 20.0747 262.892 27.9509 264.255 34.2889Z" fill="#EB4747"/>
<path d="M281.662 1.89182C281.662 1.89182 288.223 4.29781 284.065 15.6113C279.906 26.9248 271.416 13.6801 272.699 6.72781C273.981 -0.224089 281.662 1.89182 281.662 1.89182Z" fill="#EEA987"/>
<path d="M285.071 8.76867C285.071 8.76867 281.608 11.8574 276.051 12.0015C276.051 12.0015 274.752 15.1649 274.542 16.1358C274.542 16.1358 269.051 6.71632 275.364 1.95821C281.677 -2.79977 287.402 6.79526 285.071 8.76867Z" fill="#344052"/>
<path d="M276.801 12.68C276.797 11.8422 276.372 9.91574 275.104 10.3894C273.835 10.8632 274.971 14.7989 275.807 14.5995C275.807 14.5995 276.809 14.6624 276.801 12.68Z" fill="#EEA987"/>
<path d="M280.012 21.1223C276.929 20.2702 275.737 17.3336 275.7 17.2355C278.208 20.4729 280.099 20.0078 280.099 20.0078C280.054 20.4302 280.051 20.6939 280.012 21.1223Z" fill="#A77860"/>
<path d="M294.263 18.1929V19.1993H300.193V24.7604H301.2V18.1929H294.263ZM253.992 24.7604H254.999V19.1993H260.929V18.1929H253.992V24.7604ZM300.193 53.4559V59.0189H294.263V60.0253H301.2V53.4559H300.193ZM254.999 53.4559H253.992V60.0253H260.929V59.0189H254.999V53.4559Z" fill="#4598E6"/>
<path d="M189.156 105.086H181.728V106.461H189.156V105.086Z" fill="#4598E6"/>
<path d="M207.703 51.9949V53.339H215.624V60.7671H216.969V51.9949H207.703ZM153.914 60.7671H155.259V53.339H163.18V51.9949H153.914V60.7671ZM215.624 99.0954V106.526H207.703V107.87H216.969V99.0954H215.624ZM155.259 99.0954H153.914V107.87H163.18V106.526H155.259V99.0954Z" fill="#4598E6"/>
<path d="M351.373 155.27H345.09C344.975 155.019 344.882 154.801 344.805 154.626C342.94 150.227 333.332 140.14 333.332 140.14V140.162C333.329 140.165 333.327 140.169 333.327 140.173V140.184C333.321 140.2 333.316 140.211 333.31 140.228C333.305 140.25 333.3 140.277 333.289 140.31C333.282 140.327 333.279 140.346 333.278 140.364C333.272 140.381 333.267 140.392 333.261 140.408C332.868 141.878 330.932 149.2 329.964 155.27H287.447C287.348 154.708 287.234 154.172 287.102 153.675C286.734 152.23 286.46 150.763 286.282 149.282C286.277 149.211 286.266 149.145 286.26 149.074C286.227 148.817 286.2 148.561 286.178 148.309C285.949 145.972 285.925 143.619 286.107 141.277C285.987 141.534 285.128 144.681 284.002 148.566C283.384 150.697 282.684 153.052 281.989 155.27H271.949L284.548 118.951C284.827 118.732 288.097 117.153 290.482 116.016C292.915 114.858 295.852 113.158 298.504 111.705C299.86 110.962 301.14 110.29 302.25 109.782L302.419 109.705V109.7C304.251 108.864 305.471 108.312 305.471 108.312H305.476C305.52 108.307 305.81 108.279 306.269 108.235C308.828 107.989 316.769 107.247 319.426 107.094C319.645 107.077 319.831 107.072 319.973 107.066C320.062 107.061 320.152 107.061 320.241 107.066C320.574 107.088 322.215 107.656 324.364 108.476C324.446 108.503 324.528 108.536 324.61 108.569C324.714 108.607 324.812 108.645 324.916 108.683C325.102 108.755 325.294 108.826 325.485 108.902C325.868 109.055 326.267 109.208 326.666 109.366C326.803 109.421 326.945 109.476 327.087 109.53C331.391 111.235 336.324 113.35 337.494 114.191C338.27 114.743 340.682 119.284 343.476 124.901C346.484 134.529 350.164 148.419 351.373 155.27Z" fill="#DECBC4"/>
<path d="M320.173 105.831C320.059 111.542 308.993 114.666 308.993 114.666C308.993 114.666 304.365 108.868 305.47 108.313C305.905 108.094 306.081 107.229 306.135 106.258C306.17 105.395 306.149 104.529 306.072 103.668C306.039 103.264 306.008 103.005 306.008 103.005C306.008 103.005 307.589 101.338 309.6 99.3519C313.115 95.8791 317.947 91.4305 317.955 93.2004C317.953 93.3133 317.94 93.4258 317.914 93.5358C317.065 97.5185 320.173 105.831 320.173 105.831Z" fill="#EEA886"/>
<path d="M315.911 97.4639L315.911 97.4649C315.889 97.4981 315.419 98.1998 314.618 99.2067C312.92 101.342 309.726 104.849 306.136 106.258C306.17 105.395 306.149 104.529 306.073 103.668C305.703 103.659 305.335 103.615 304.974 103.536C305.701 102.314 306.505 101.138 307.38 100.016L309.601 99.3518L315.911 97.4639Z" fill="#A77860"/>
<path d="M318.036 93.2777C317.078 95.3584 316.169 96.8666 315.911 97.4641L315.91 97.4651C315.743 97.8543 315.286 98.4886 314.618 99.2069C312.795 101.17 309.405 103.759 306.073 103.668C305.703 103.66 305.335 103.615 304.974 103.536C303.628 103.242 302.039 102.618 301.165 100.907C294.261 87.4015 299.26 76.3577 299.26 76.3577C299.26 76.3577 318.136 71.0238 321.09 76.7018C323.162 80.6845 320.285 88.3885 318.036 93.2777Z" fill="#EEA886"/>
<path d="M299.26 76.3576C299.26 76.3576 297.507 76.2605 297.073 72.9394C296.645 69.6582 297.511 68.7489 297.511 68.7489C297.511 68.7489 305.304 65.4893 308.102 65.0654C310.901 64.6414 317.782 64.2345 319.395 66.0776C319.395 66.0776 323.314 65.1676 324.382 71.6684C326.076 81.9814 318.61 91.9956 318.61 91.9956C318.61 91.9956 318.674 85.2581 317.187 84.3654C315.699 83.4725 314.416 85.5956 314.416 85.5956L311.374 86.14C311.374 86.14 315.994 76.1721 310.452 75.8029C304.91 75.4337 302.432 76.9357 299.26 76.3576Z" fill="#E8734D"/>
<path d="M314.499 82.9097C314.788 79.9413 320.16 78.8082 319.801 81.9192C319.441 85.0305 316.795 88.0195 315.573 87.9143C314.351 87.8091 314.278 85.1721 314.499 82.9097Z" fill="#EEA886"/>
<path d="M345.943 125.18C344.193 119.579 342.678 115.148 342.005 114.667C340.83 113.825 331.511 111.263 327.087 109.53C326.945 109.476 326.803 109.421 326.666 109.366C326.267 109.208 325.868 109.055 325.485 108.902C325.294 108.826 325.102 108.755 324.916 108.683C324.812 108.645 324.714 108.607 324.61 108.569C324.528 108.536 324.446 108.503 324.364 108.476C324.359 108.481 324.353 108.492 324.342 108.498C322.602 110.487 320.972 112.57 319.459 114.738C314.887 121.229 308.932 131.747 309.846 141.457C310.141 144.572 310.502 149.047 311.109 154.068C311.153 154.467 311.202 154.866 311.256 155.27H331.883C332.135 150.014 332.583 143.091 333.261 140.408C333.267 140.392 333.272 140.381 333.278 140.364C333.279 140.346 333.282 140.327 333.289 140.31C333.294 140.282 333.305 140.255 333.311 140.228C333.316 140.211 333.321 140.2 333.327 140.184V140.173C333.327 140.169 333.329 140.165 333.332 140.162C333.332 140.162 338.325 147.96 338.582 155.27H351.564C350.93 148.479 348.945 134.791 345.943 125.18Z" fill="#3C4145"/>
<path d="M302.338 109.847C302.338 109.847 300.78 115.027 298.767 127.961V127.966C298.696 128.398 298.631 128.841 298.56 129.294C298.554 129.343 298.543 129.398 298.538 129.453C298.489 129.748 298.445 130.054 298.401 130.36C298.395 130.398 298.39 130.431 298.385 130.469C298.352 130.671 298.319 130.879 298.292 131.092C298.215 131.6 298.138 132.125 298.062 132.655C297.307 137.933 296.301 146.32 295.279 155.271H287.125C286.682 152.784 286.267 150.522 286.299 148.97C286.284 149.004 286.271 149.039 286.261 149.074C285.61 150.877 284.894 152.839 284.167 154.746C284.101 154.921 284.035 155.096 283.97 155.271H269.916L283.915 118.677C284.194 118.459 287.798 116.519 290.182 115.388C292.67 114.202 295.814 112.743 298.603 111.459C299.938 110.842 301.19 110.268 302.251 109.782L302.338 109.847Z" fill="#3C4145"/>
<path d="M321.298 122.644L315.911 125.682L318.213 128.027L313.161 155.27H311.258C310.557 149.763 310.158 144.818 309.847 141.457C308.441 126.442 323.436 109.509 324.365 108.476C325.087 108.749 325.864 109.05 326.668 109.366L321.298 122.644Z" fill="#51565C"/>
<path d="M302.42 109.705C302.42 109.705 300.407 116.268 298.067 132.655C297.312 137.927 296.3 146.32 295.278 155.27H294.485L293.44 129.529L296.005 126.753L293.725 123.907L298.603 111.459C299.937 110.842 301.189 110.268 302.25 109.782L302.42 109.705Z" fill="#51565C"/>
<path d="M324.637 108.54L320.173 105.831C320.173 105.831 320.048 108.277 308.994 114.666L312.133 123.501L324.637 108.54Z" fill="#F5E2D9"/>
<path d="M306.053 107.064C306.053 107.064 306.227 109.704 308.993 114.666L302.866 122.647L302.42 109.704L306.053 107.064Z" fill="#F5E2D9"/>
<path d="M309.011 114.666C309.011 114.666 310.198 119.412 309.771 120.74C309.771 120.74 307.16 121.689 305.283 120.503C305.283 120.503 306.612 117.181 309.011 114.666Z" fill="#D44040"/>
<path d="M307.572 130.802C306.319 139.326 306.319 147.949 306.784 155.27H301.551C301.48 154.238 301.414 153.161 301.348 152.036C300.375 135.157 306.347 120.076 306.347 120.076L309.01 119.41C309.01 119.41 308.151 126.868 307.572 130.802Z" fill="#D44040"/>
<path d="M286.468 141.32C286.269 145.37 286.298 148.967 286.298 148.967V148.969C286.297 148.989 286.293 149.099 286.285 149.279C286.276 149.211 286.268 149.143 286.259 149.076C285.611 150.879 284.892 152.838 284.167 154.746C284.008 152.69 283.954 150.628 284.005 148.567C284.295 137.211 287.87 131.257 287.87 131.257C287.05 133.236 286.656 137.482 286.468 141.32Z" fill="#2D3133"/>
<path d="M237.553 155.319L220.833 164.503L204.041 138.1L224.35 131.051L237.553 155.319Z" fill="#292C47"/>
<path d="M236.493 154.526L220.856 163.114L205.153 138.423L224.146 131.83L236.493 154.526Z" fill="white"/>
<path d="M242.219 149.908C242.219 149.908 239.309 148.517 238.031 147.79C236.754 147.063 233.468 146.066 233.202 145.829C232.937 145.592 223.461 145.008 222.887 144.512C222.312 144.017 221.753 145.673 224.209 146.211C226.665 146.748 230.082 148.063 230.269 149.021C230.456 149.981 227.747 150.208 227.472 150.998C227.198 151.788 227.549 151.611 227.938 151.78C228.326 151.95 231.161 150.381 232.407 150.826C233.653 151.271 235.558 150.655 236.514 150.982C237.469 151.308 242.114 152.87 242.114 152.87L242.219 149.908Z" fill="#EEA886"/>
<path d="M220.017 161.19C220.017 161.19 217.572 158.991 216.389 158.071C215.206 157.152 212.986 154.446 212.659 154.288C212.332 154.131 208.092 145.436 207.4 145.088C206.71 144.739 208.054 143.568 209.517 145.671C210.981 147.775 213.551 150.481 214.528 150.283C215.505 150.086 214.665 147.446 215.303 146.88C215.941 146.314 215.911 146.714 216.222 147.014C216.533 147.313 216.157 150.593 217.062 151.593C217.968 152.594 218.128 154.628 218.808 155.4C219.488 156.172 222.77 159.938 222.77 159.938L220.017 161.19Z" fill="#EEA886"/>
<path d="M272.672 278.713C272.672 278.713 273.201 282.381 273.267 282.932C273.333 283.483 279.15 282.607 279.15 282.607L279.621 278.241C279.621 278.241 273.399 278.195 272.672 278.713Z" fill="#424773"/>
<path d="M273.205 282.466C273.205 282.466 271.362 284.676 269.58 285.639C267.797 286.603 264.996 286.985 263.942 287.982C263.181 288.702 261.17 291.801 268.574 291.738C275.978 291.676 279.547 292.176 280.34 290.988C281.134 289.8 279.193 282.217 279.193 282.217C279.193 282.217 277.439 282.848 273.205 282.466Z" fill="#292C47"/>
<path d="M230.99 278.713C230.99 278.713 231.519 282.381 231.585 282.932C231.651 283.483 237.469 282.607 237.469 282.607L237.94 278.241C237.94 278.241 231.718 278.195 230.99 278.713Z" fill="#424773"/>
<path d="M231.524 282.466C231.524 282.466 229.681 284.676 227.898 285.64C226.115 286.603 219.555 287.394 218.501 288.391C217.74 289.111 216.475 292.009 226.892 291.738C234.293 291.546 237.866 292.176 238.659 290.988C239.452 289.8 237.511 282.217 237.511 282.217C237.511 282.217 235.859 282.891 231.524 282.466Z" fill="#292C47"/>
<path d="M267.855 184.46C267.855 184.46 273.321 193.138 272.913 200.982C272.505 208.826 274.895 217.389 275.716 225.583C276.631 234.718 280.378 256.344 280.514 261.231C280.649 266.117 279.932 281.72 279.932 281.72L272.433 281.891C272.433 281.891 266.135 244.084 264.504 240.227C262.873 236.369 254.784 208.867 254.512 205.781C254.24 202.695 267.855 184.46 267.855 184.46Z" fill="#292C47"/>
<path d="M239.08 185.636C239.08 185.636 234.961 207.135 234.417 211.935C233.873 216.736 233.511 235.169 233.239 238.169C232.967 241.169 231.427 277.434 229.977 281.891H239.563C239.563 281.891 246.923 255.529 246.923 243.056C246.923 230.583 252.608 215.939 256.278 207.71C259.948 199.48 268.349 199.285 270.605 184.016C270.605 184.016 242.134 180.793 239.08 185.636Z" fill="#292C47"/>
<path d="M258.734 111.504C258.734 111.504 251.397 108.766 248.014 114.346C244.631 119.927 244.957 131.099 248.655 132.473C252.354 133.846 257.909 133.128 259.802 129.636C261.696 126.145 263.405 121.096 263.323 117.723C263.241 114.349 260.66 112.478 258.734 111.504Z" fill="#EEA886"/>
<path d="M249.452 132.728C249.452 132.728 249.757 134.707 249.253 135.683C248.748 136.657 258.758 136.683 258.758 136.683C258.758 136.683 259.571 131.38 261.111 126.899C262.651 122.418 249.452 132.728 249.452 132.728Z" fill="#EEA886"/>
<path d="M261.111 126.899C261.111 126.899 260.421 128.037 257.6 127.596C254.78 127.154 251.34 123.405 250.162 122.993C248.985 122.582 248.974 121.89 248.974 121.89L248.237 122.966L246.986 123.045C246.986 123.045 248.127 119.692 246.406 118.324C244.685 116.956 248.192 107.47 257.236 110.628C257.236 110.628 264.182 112.541 263.93 116.489C263.677 120.436 262.666 124.933 261.111 126.899Z" fill="#3A3F47"/>
<path d="M248.658 135.565C248.658 135.565 248.69 133.702 249.535 133.523C250.38 133.345 258.863 132.53 259.9 132.937V135.107C259.9 135.107 257.902 136.337 248.658 135.565Z" fill="#E2D2CA"/>
<path d="M249.159 120.455C249.318 119.793 251.003 117.901 251.648 119.926C252.293 121.952 250.673 124.677 249.769 124.444C248.866 124.211 248.759 122.133 249.159 120.455Z" fill="#EEA886"/>
<path d="M214.991 157.576C214.996 157.574 215.001 157.574 215.005 157.575C214.947 157.601 214.938 157.603 214.991 157.576Z" fill="#323657"/>
<path d="M274.022 205.132C274.022 205.132 269.523 206.456 261.85 207.301C254.177 208.146 235.006 206.996 234.886 206.09C234.764 205.184 239.01 172.364 238.768 170.673C238.527 168.983 238.397 162.961 238.397 162.961C238.302 164.611 236.62 171.351 234.589 175.026C233.855 176.353 231.393 180.514 230.207 179.568C224.464 174.986 215.571 157.72 215.007 157.575C215.481 157.369 219.221 155.648 219.746 155.473C220.206 155.32 224.349 159.703 226.86 162.42C227.979 163.632 228.774 164.511 228.774 164.511C229.499 162.882 232.139 152.615 232.96 149.061C234.811 141.048 234.526 140.715 234.526 140.715C240.139 139.018 248.659 135.565 248.659 135.565L259.901 135.107C259.901 135.107 270.219 137.377 274.282 139.211C274.668 139.384 274.669 148.408 275.727 150.774L272.358 157.876C272.358 157.876 270.412 171.944 270.008 178.2C269.823 181.072 274.022 205.132 274.022 205.132Z" fill="#FFDF69"/>
<path d="M276.193 162.489C275.9 163.436 274.567 164.236 273.701 164.586C273.131 164.816 272.506 164.879 271.901 164.767L271.461 164.685V164.685L263.757 163.257C263.757 163.257 262.071 143.858 274.281 139.211C274.604 139.316 278.89 153.804 276.193 162.489Z" fill="#FFDF69"/>
<path d="M273.701 164.585V164.586C273.131 164.816 272.506 164.879 271.901 164.767L271.461 164.685V164.685L272.221 154.772L273.701 164.585Z" fill="#AB9546"/>
<path d="M228.773 164.511L227.832 168.496C227.832 168.496 226.81 164.498 226.859 162.42C227.979 163.631 228.773 164.511 228.773 164.511Z" fill="#AB9546"/>
<path d="M260.823 112.163C260.823 112.163 270.438 110.959 260.987 127.008L260.823 112.163Z" fill="#3A3F47"/>
<path d="M211.771 136.683L210.793 135.005L218.491 132.351L219.469 134.02L211.771 136.683Z" fill="#292C47"/>
<defs>
<linearGradient id="paint0_linear" x1="192.258" y1="213.223" x2="184.817" y2="78.2461" gradientUnits="userSpaceOnUse">
<stop stop-color="#D1D7E0"/>
<stop offset="1" stop-color="#EBEBFF"/>
</linearGradient>
<linearGradient id="paint1_linear" x1="292207" y1="253027" x2="292207" y2="135280" gradientUnits="userSpaceOnUse">
<stop stop-color="#D1D7E0"/>
<stop offset="1" stop-color="#EBEBFF"/>
</linearGradient>
<linearGradient id="paint2_linear" x1="0" y1="291.004" x2="358.527" y2="291.004" gradientUnits="userSpaceOnUse">
<stop offset="0.00521" stop-color="#1A2257"/>
<stop offset="1" stop-color="#5E60F2"/>
</linearGradient>
<linearGradient id="paint3_linear" x1="98173.2" y1="64932" x2="98173.2" y2="33937.1" gradientUnits="userSpaceOnUse">
<stop stop-color="#D1D7E0"/>
<stop offset="1" stop-color="#EBEBFF"/>
</linearGradient>
<linearGradient id="paint4_linear" x1="81.2734" y1="223.229" x2="58.2236" y2="223.229" gradientUnits="userSpaceOnUse">
<stop stop-color="#3076A1"/>
<stop offset="1" stop-color="#48C9B6"/>
</linearGradient>
<linearGradient id="paint5_linear" x1="-146414" y1="84460.2" x2="-136710" y2="84460.2" gradientUnits="userSpaceOnUse">
<stop stop-color="#3076A1"/>
<stop offset="1" stop-color="#48C9B6"/>
</linearGradient>
<linearGradient id="paint6_linear" x1="-109259" y1="83030.3" x2="-103792" y2="83030.3" gradientUnits="userSpaceOnUse">
<stop stop-color="#3076A1"/>
<stop offset="1" stop-color="#48C9B6"/>
</linearGradient>
<linearGradient id="paint7_linear" x1="-173987" y1="180750" x2="-161659" y2="180750" gradientUnits="userSpaceOnUse">
<stop stop-color="#3076A1"/>
<stop offset="1" stop-color="#48C9B6"/>
</linearGradient>
<linearGradient id="paint8_linear" x1="32410.8" y1="168755" x2="8150.67" y2="141152" gradientUnits="userSpaceOnUse">
<stop stop-color="#3076A1"/>
<stop offset="1" stop-color="#48C9B6"/>
</linearGradient>
<linearGradient id="paint9_linear" x1="48.4033" y1="321.753" x2="62.1321" y2="262.524" gradientUnits="userSpaceOnUse">
<stop stop-color="#C9C4C1"/>
<stop offset="1" stop-color="#FFF6DE"/>
</linearGradient>
<linearGradient id="paint10_linear" x1="24795.2" y1="54350.3" x2="31109.1" y2="54350.3" gradientUnits="userSpaceOnUse">
<stop stop-color="#C9C4C1"/>
<stop offset="1" stop-color="#FFF6DE"/>
</linearGradient>
<linearGradient id="paint11_linear" x1="142798" y1="44266.3" x2="142798" y2="24289.2" gradientUnits="userSpaceOnUse">
<stop stop-color="#D1D7E0"/>
<stop offset="1" stop-color="#EBEBFF"/>
</linearGradient>
</defs>
</svg>
