<?xml version="1.0" encoding="UTF-8"?>
<svg width="50px" height="50px" viewBox="0 0 50 50" version="1.1" xmlns="http://www.w3.org/2000/svg" xmlns:xlink="http://www.w3.org/1999/xlink">
    <!-- Generator: Sketch 55.1 (78136) - https://sketchapp.com -->
    <title>Combined Shape</title>
    <desc>Created with Sketch.</desc>
    <g id="Page-1" stroke="none" stroke-width="1" fill="none" fill-rule="evenodd">
        <g id="INDEX-2-Copy" transform="translate(-1401.000000, -460.000000)" fill="#FFFFFF">
            <path d="M1409,460 L1443,460 C1447.41828,460 1451,463.581722 1451,468 L1451,502 C1451,506.418278 1447.41828,510 1443,510 L1409,510 C1404.58172,510 1401,506.418278 1401,502 L1401,468 C1401,463.581722 1404.58172,460 1409,460 Z M1435.96335,485.75016 C1435.88899,485.571027 1435.71547,485.454135 1435.52292,485.454135 L1430.29973,485.454135 L1430.29973,473.479021 C1430.29973,473.21461 1430.08617,473 1429.82306,473 L1422.19654,473 C1421.93343,473 1421.71987,473.21461 1421.71987,473.479021 L1421.71987,485.454179 L1416.47667,485.454179 C1416.28411,485.454179 1416.11059,485.571072 1416.03624,485.749262 C1415.96282,485.928395 1416.00286,486.134383 1416.13919,486.271393 L1425.64849,495.859172 C1425.73808,495.94921 1425.85919,496 1425.98596,496 C1426.11274,496 1426.23384,495.94921 1426.32343,495.860115 L1435.86039,486.272336 C1435.99673,486.135281 1436.0377,485.929338 1435.96335,485.75016 Z" id="Combined-Shape"></path>
        </g>
    </g>
</svg>