<?xml version="1.0" encoding="UTF-8"?>
<svg width="20px" height="20px" viewBox="0 0 20 20" version="1.1" xmlns="http://www.w3.org/2000/svg" xmlns:xlink="http://www.w3.org/1999/xlink">
    <!-- Generator: Sketch 58 (84663) - https://sketch.com -->
    <title>Group 2</title>
    <desc>Created with Sketch.</desc>
    <g id="Symbols" stroke="none" stroke-width="1" fill="none" fill-rule="evenodd">
        <g id="Series" transform="translate(0.000000, -95.000000)">
            <g id="Group-2" transform="translate(0.000000, 95.000000)">
                <rect id="Combined-Shape" fill="#0093FF" x="0" y="0" width="20" height="20" rx="2"></rect>
                <path d="M13.9853386,11.100064 C13.9555952,11.0284108 13.8861881,10.9816538 13.8091664,10.9816538 L11.7198923,10.9816538 L11.7198923,6.19160829 C11.7198923,6.08584382 11.6344695,6 11.5292238,6 L8.47861722,6 C8.3733715,6 8.28794873,6.08584382 8.28794873,6.19160829 L8.28794873,10.9816718 L6.19066678,10.9816718 C6.11364507,10.9816718 6.04423795,11.0284287 6.0144946,11.0997048 C5.98512661,11.1713581 6.00114226,11.253753 6.05567771,11.3085573 L9.85939532,15.1436689 C9.89523392,15.1796842 9.94367412,15.2 9.99438439,15.2 C10.0450947,15.2 10.0935349,15.1796842 10.1293735,15.1440461 L13.9441555,11.3089345 C13.9986909,11.2541123 14.0150819,11.1717353 13.9853386,11.100064 Z" id="Path" fill="#FFFFFF"></path>
            </g>
        </g>
    </g>
</svg>