<?xml version="1.0" encoding="UTF-8"?>
<svg width="16px" height="16px" viewBox="0 0 16 16" version="1.1" xmlns="http://www.w3.org/2000/svg" xmlns:xlink="http://www.w3.org/1999/xlink">
    <!-- Generator: Sketch 57.1 (83088) - https://sketch.com -->
    <title>Group 9</title>
    <desc>Created with Sketch.</desc>
    <g id="Page-1" stroke="none" stroke-width="1" fill="none" fill-rule="evenodd">
        <g id="profile" transform="translate(-606.000000, -581.000000)">
            <g id="Group-9" transform="translate(604.000000, 581.000000)">
                <path d="M8.30222222,11.1911111 L9.55555556,12.4444444 L14,8 L9.55555556,3.55555556 L8.30222222,4.80888889 L10.5955556,7.11111111 L2,7.11111111 L2,8.88888889 L10.5955556,8.88888889 L8.30222222,11.1911111 L8.30222222,11.1911111 Z M16.2222222,0 L3.77777778,0 C2.79111111,0 2,0.8 2,1.77777778 L2,5.33333333 L3.77777778,5.33333333 L3.77777778,1.77777778 L16.2222222,1.77777778 L16.2222222,14.2222222 L3.77777778,14.2222222 L3.77777778,10.6666667 L2,10.6666667 L2,14.2222222 C2,15.2 2.79111111,16 3.77777778,16 L16.2222222,16 C17.2,16 18,15.2 18,14.2222222 L18,1.77777778 C18,0.8 17.2,0 16.2222222,0 L16.2222222,0 Z" id="Fill-154" fill="#FFFFFF"></path>
                <rect id="Rectangle" x="0" y="0" width="20" height="16"></rect>
            </g>
        </g>
    </g>
</svg>