<?xml version="1.0" encoding="UTF-8"?>
<svg width="50px" height="50px" viewBox="0 0 50 50" version="1.1" xmlns="http://www.w3.org/2000/svg" xmlns:xlink="http://www.w3.org/1999/xlink">
    <!-- Generator: Sketch 55.1 (78136) - https://sketchapp.com -->
    <title>Combined Shape</title>
    <desc>Created with Sketch.</desc>
    <g id="Page-1" stroke="none" stroke-width="1" fill="none" fill-rule="evenodd">
        <g id="INDEX-2-Copy" transform="translate(-1401.000000, -140.000000)" fill="#FFFFFF">
            <path d="M1409,140 L1443,140 C1447.41828,140 1451,143.581722 1451,148 L1451,182 C1451,186.418278 1447.41828,190 1443,190 L1409,190 C1404.58172,190 1401,186.418278 1401,182 L1401,148 C1401,143.581722 1404.58172,140 1409,140 Z M1435.85433,161.571704 C1435.2848,158.812057 1433.24828,157.033249 1430.62497,157.033249 C1429.15799,157.033249 1427.5702,157.615102 1426.01692,158.712311 C1424.44639,157.581853 1422.8586,157 1421.37436,157 C1418.75105,157 1416.69727,158.795433 1416.145,161.588328 C1415.31658,165.727798 1417.97441,171.230466 1425.75804,174.222854 C1425.84434,174.256103 1425.93063,174.272727 1426.01692,174.272727 C1426.10322,174.272727 1426.18951,174.256103 1426.2758,174.222854 C1434.04218,171.163969 1436.68275,165.677925 1435.85433,161.571704 Z" id="Combined-Shape"></path>
        </g>
    </g>
</svg>