<?xml version="1.0" encoding="UTF-8"?>
<svg width="500px" height="500px" viewBox="0 0 500 500" version="1.1" xmlns="http://www.w3.org/2000/svg" xmlns:xlink="http://www.w3.org/1999/xlink">
    <!-- Generator: Sketch 58 (84663) - https://sketch.com -->
    <title>film-reel</title>
    <desc>Created with Sketch.</desc>
    <g id="Page-1" stroke="none" stroke-width="1" fill="none" fill-rule="evenodd">
        <g id="Artboard" transform="translate(-44.000000, -21.000000)" fill="#FFFFFF" fill-rule="nonzero">
            <g id="film-reel" transform="translate(44.000000, 21.000000)">
                <path d="M183.018,208.686 C183.018,172.059 153.402,142.26 117,142.26 C80.598,142.26 50.982,172.059 50.982,208.686 C50.982,245.317 80.597,275.118 117,275.118 C153.403,275.118 183.018,245.316 183.018,208.686 Z M70.982,208.686 C70.982,183.126 91.562,162.328 116.883,162.263 C100.957,186.671 91.463,215.691 90.869,246.875 C78.865,238.487 70.982,224.501 70.982,208.686 Z M110.835,249.99 C110.835,219.067 120.83,190.462 137.718,167.253 C152.71,174.912 163.018,190.602 163.018,208.686 C163.018,234.289 142.374,255.118 117,255.118 C114.939,255.118 112.914,254.967 110.924,254.701 C110.872,253.136 110.835,251.567 110.835,249.99 Z" id="Shape"></path>
                <path d="M250,185.117 C286.402,185.117 316.018,155.316 316.018,118.685 C316.018,82.058 286.402,52.259 250,52.259 C213.598,52.259 183.982,82.058 183.982,118.685 C183.982,155.316 213.597,185.117 250,185.117 Z M250,72.26 C266.683,72.26 281.319,81.263 289.39,94.706 C276.788,91.462 263.593,89.727 250,89.727 C236.406,89.727 223.211,91.464 210.608,94.711 C218.678,81.266 233.315,72.26 250,72.26 Z M204.009,117.62 C218.413,112.518 233.887,109.726 250,109.726 C266.112,109.726 281.587,112.511 295.991,117.612 C295.999,117.97 296.018,118.325 296.018,118.685 C296.018,144.288 275.374,165.117 250,165.117 C224.626,165.117 203.982,144.288 203.982,118.685 C203.982,118.328 204.001,117.975 204.009,117.62 Z" id="Shape"></path>
                <path d="M315.982,208.686 C315.982,245.317 345.598,275.118 382,275.118 C418.402,275.118 448.018,245.317 448.018,208.686 C448.018,172.059 418.402,142.26 382,142.26 C345.598,142.26 315.982,172.059 315.982,208.686 Z M428.018,208.686 C428.018,224.064 420.565,237.712 409.118,246.166 C408.395,215.263 398.933,186.506 383.138,162.289 C407.987,162.903 428.018,183.471 428.018,208.686 Z M362.01,166.874 C379.064,190.149 389.165,218.898 389.165,249.988 C389.165,251.521 389.13,253.046 389.08,254.566 C386.771,254.927 384.407,255.117 382,255.117 C356.625,255.117 335.982,234.288 335.982,208.685 C335.982,190.309 346.621,174.393 362.01,166.874 Z" id="Shape"></path>
                <path d="M327.533,294.504 C315.662,294.504 303.991,297.741 293.78,303.865 C278.646,312.941 267.978,327.405 263.744,344.593 C259.516,361.755 262.21,379.58 271.329,394.786 C283.306,414.755 305.16,427.16 328.362,427.16 C340.232,427.16 351.902,423.924 362.111,417.801 C377.246,408.726 387.913,394.26 392.147,377.071 C396.374,359.909 393.68,342.083 384.561,326.877 C372.585,306.908 350.734,294.504 327.533,294.504 Z M288.48,384.499 C282.094,373.852 280.206,361.378 283.163,349.377 C286.113,337.403 293.537,327.332 304.066,321.018 C311.17,316.756 319.285,314.504 327.533,314.504 C341.362,314.504 354.496,320.836 363.265,331.366 C345.26,356.751 319.085,375.858 288.636,384.741 C288.586,384.658 288.529,384.581 288.48,384.499 Z M372.727,372.287 C369.777,384.263 362.354,394.335 351.824,400.648 C344.721,404.909 336.608,407.16 328.361,407.16 C319.893,407.16 311.691,404.774 304.582,400.521 C331.569,390.569 355.153,373.46 373.063,351.487 C374.516,358.285 374.433,365.363 372.727,372.287 Z" id="Shape"></path>
                <path d="M223.669,323.587 C211.694,303.619 189.842,291.216 166.642,291.216 C154.771,291.216 143.1,294.452 132.888,300.576 C101.671,319.299 91.599,360.086 110.437,391.497 C122.414,411.467 144.268,423.872 167.471,423.872 C179.34,423.872 191.011,420.637 201.221,414.513 C232.438,395.788 242.509,354.999 223.669,323.587 Z M167.47,403.873 C151.253,403.872 135.971,395.188 127.588,381.21 C120.916,370.085 119.429,357.287 122.409,345.667 C139.524,368.746 162.654,387.046 189.446,398.187 C182.705,401.896 175.151,403.873 167.47,403.873 Z M205.786,382.988 C175.631,372.778 150.058,352.422 133.075,325.966 C135.964,322.823 139.334,320.031 143.174,317.729 C150.279,313.468 158.394,311.216 166.642,311.216 C182.856,311.216 198.136,319.898 206.518,333.874 C215.942,349.586 215.036,368.639 205.786,382.988 Z" id="Shape"></path>
                <path d="M250,500 C388.071187,500 500,388.071187 500,250 C500,111.928813 388.071187,0 250,0 C111.928813,0 0,111.928813 0,250 C0,388.071187 111.928813,500 250,500 Z M250,483.98 C121.959,483.98 17.79,379.012 17.79,249.988 C17.79,120.967 121.959,16 250,16 C378.041,16 482.21,120.967 482.21,249.988 C482.21,379.011 378.041,483.98 250,483.98 Z" id="Shape"></path>
                <path d="M215,251.988 C215,271.287 230.701,286.988 250,286.988 C269.299,286.988 285,271.287 285,251.988 C285,232.689 269.299,216.988 250,216.988 C230.701,216.988 215,232.689 215,251.988 Z M265,251.988 C265,260.259 258.271,266.988 250,266.988 C241.729,266.988 235,260.259 235,251.988 C235,243.717 241.729,236.988 250,236.988 C258.271,236.988 265,243.717 265,251.988 Z" id="Shape"></path>
                <path d="M95.31,123.984 C97.14,125.584 99.47,126.464 101.89,126.464 C104.78,126.464 107.53,125.214 109.42,123.044 C119.04,112.044 129.55,102.083 140.65,93.434 C145,90.044 145.78,83.754 142.39,79.404 C140.49,76.954 137.61,75.545 134.5,75.545 C132.26,75.545 130.13,76.274 128.36,77.654 C116.25,87.094 104.82,97.925 94.37,109.874 C92.61,111.885 91.74,114.465 91.92,117.124 C92.1,119.795 93.3,122.225 95.31,123.984 Z" id="Path"></path>
                <path d="M168.14,73.994 C169.74,73.994 171.28,73.624 172.71,72.894 C172.71,72.884 172.71,72.884 172.72,72.884 C177.61,70.363 179.55,64.323 177.03,59.424 C175.31,56.073 171.9,53.993 168.13,53.993 C166.53,53.993 164.99,54.363 163.56,55.103 C161.19,56.323 159.43,58.393 158.61,60.933 C157.8,63.483 158.02,66.193 159.24,68.563 C160.96,71.914 164.37,73.994 168.14,73.994 Z" id="Path"></path>
                <path d="M394.29,121.515 C396.84,121.515 399.27,120.555 401.12,118.805 C403.07,116.985 404.2,114.505 404.28,111.834 C404.37,109.164 403.41,106.624 401.59,104.675 C399.7,102.664 397.04,101.505 394.29,101.505 C391.74,101.505 389.31,102.465 387.45,104.215 C385.5,106.034 384.38,108.515 384.29,111.185 C384.21,113.855 385.16,116.395 386.99,118.345 C388.87,120.354 391.54,121.515 394.29,121.515 Z" id="Path"></path>
                <path d="M321.61,70.845 C321.62,70.845 321.62,70.855 321.63,70.855 C334.69,77.095 347.09,84.545 358.49,92.995 C360.22,94.285 362.28,94.966 364.44,94.966 C367.59,94.966 370.6,93.445 372.48,90.915 C374.07,88.766 374.73,86.136 374.33,83.485 C373.94,80.845 372.54,78.515 370.4,76.925 C357.98,67.725 344.47,59.605 330.24,52.805 C328.88,52.155 327.43,51.825 325.93,51.825 C322.1,51.825 318.56,54.055 316.91,57.506 C314.53,62.484 316.64,68.465 321.61,70.845 Z" id="Path"></path>
                <path d="M202.28,438.444 C202.27,438.444 202.27,438.444 202.26,438.444 C201.6,438.304 200.93,438.234 200.26,438.234 C195.53,438.234 191.42,441.604 190.48,446.255 C189.94,448.874 190.46,451.545 191.94,453.765 C193.42,455.994 195.67,457.515 198.29,458.045 C198.95,458.175 199.62,458.244 200.29,458.244 C205.02,458.244 209.13,454.874 210.08,450.224 C211.17,444.824 207.67,439.545 202.28,438.444 Z" id="Path"></path>
                <path d="M284.8,439.145 C284.22,439.145 283.65,439.195 283.08,439.295 C268.82,441.765 254.37,442.864 240.18,442.595 C237.47,442.515 234.92,443.565 232.99,445.454 C231.1,447.295 230.04,449.755 229.99,452.394 C229.93,455.064 230.92,457.594 232.77,459.524 C234.62,461.444 237.11,462.534 239.78,462.594 C241.33,462.623 242.92,462.634 244.52,462.634 C258.42,462.634 272.54,461.413 286.49,458.993 C291.92,458.054 295.58,452.873 294.64,447.433 C293.8,442.635 289.66,439.145 284.8,439.145 Z" id="Path"></path>
            </g>
        </g>
    </g>
</svg>