<?xml version="1.0" encoding="UTF-8"?>
<svg width="24px" height="24px" viewBox="0 0 24 24" version="1.1" xmlns="http://www.w3.org/2000/svg" xmlns:xlink="http://www.w3.org/1999/xlink">
    <!-- Generator: Sketch 58 (84663) - https://sketch.com -->
    <title>iczzz_key</title>
    <desc>Created with Sketch.</desc>
    <g id="iczzz_key" stroke="none" stroke-width="1" fill="none" fill-rule="evenodd">
        <g id="key">
            <rect id="Rectangle" opacity="0" x="0" y="0" width="24" height="24"></rect>
            <path d="M19.5555417,9.5 L18.2222083,9.5 L18.2222083,7.83332031 C18.2222083,4.61679687 15.431,2 12,2 C8.569,2 5.77779167,4.61679687 5.77779167,7.83332031 L5.77779167,9.5 L4.44445833,9.5 C4.19879167,9.5 4,9.68636719 4,9.91667969 L4,20.3333594 C4,21.2525391 4.79729167,22 5.77779167,22 L18.22225,22 C19.2027083,22 20,21.2525391 20,20.3333203 L20,9.91667969 C20,9.68636719 19.8012083,9.5 19.5555417,9.5 Z M13.33075,18.2040234 C13.344625,18.3216016 13.3042917,18.4396094 13.2200833,18.5279297 C13.135875,18.6162109 13.0152083,18.6666797 12.8889167,18.6666797 L11.111125,18.6666797 C10.9848333,18.6666797 10.8641667,18.6162109 10.7799583,18.5279297 C10.69575,18.4396484 10.655375,18.3216406 10.6692917,18.2040234 L10.9496667,15.8403516 C10.494375,15.5298828 10.22225,15.03875 10.22225,14.5 C10.22225,13.5808203 11.0195417,12.8333203 12.0000417,12.8333203 C12.9805417,12.8333203 13.7778333,13.5807813 13.7778333,14.5 C13.7778333,15.03875 13.5057083,15.5298828 13.0504167,15.8403516 L13.33075,18.2040234 Z M15.5555417,9.5 L8.44445833,9.5 L8.44445833,7.83332031 C8.44445833,5.99535156 10.0395,4.5 12,4.5 C13.9605,4.5 15.5555417,5.99535156 15.5555417,7.83332031 L15.5555417,9.5 L15.5555417,9.5 Z" id="Shape" fill="#FFFFFF" fill-rule="nonzero"></path>
        </g>
    </g>
</svg>