<?xml version="1.0" encoding="UTF-8"?>
<svg width="24px" height="24px" viewBox="0 0 24 24" version="1.1" xmlns="http://www.w3.org/2000/svg" xmlns:xlink="http://www.w3.org/1999/xlink">
    <!-- Generator: Sketch 58 (84663) - https://sketch.com -->
    <title>iczzz_login</title>
    <desc>Created with Sketch.</desc>
    <defs>
        <path d="M12,14 C15.6471103,14 18.4865887,14.8233042 20.518441,16.4699127 C21.455622,17.2294046 22,18.3712734 22,19.5775636 L22,20 C22,21.1045695 21.1045753,22 20,22 L4,22 C2.89542788,22 2,21.1045721 2,20 L2,19.5775526 C2,18.3712669 2.54438887,17.2294034 3.48156721,16.4699155 C5.51341977,14.8233052 8.35289932,14 12,14 Z M12.0000058,2 C15.037572,2 17.5000058,4.46243388 17.5000058,7.5 C17.5000058,10.5375661 13.7290097,13 12.0000058,13 C10.2710019,13 6.50000584,10.5375661 6.50000584,7.5 C6.50000584,4.46243388 8.96243972,2 12.0000058,2 Z" id="path-1"></path>
    </defs>
    <g id="iczzz_login" stroke="none" stroke-width="1" fill="none" fill-rule="evenodd">
        <g id="login-copy">
            <rect id="Rectangle" opacity="0" x="0" y="0" width="24" height="24"></rect>
            <mask id="mask-2" fill="white">
                <use xlink:href="#path-1"></use>
            </mask>
            <use id="Mask" fill="#FFFFFF" fill-rule="nonzero" xlink:href="#path-1"></use>
        </g>
    </g>
</svg>