<?xml version="1.0" encoding="UTF-8"?>
<svg width="24px" height="24px" viewBox="0 0 24 24" version="1.1" xmlns="http://www.w3.org/2000/svg" xmlns:xlink="http://www.w3.org/1999/xlink">
    <!-- Generator: Sketch 58 (84663) - https://sketch.com -->
    <title>iczzz_mail</title>
    <desc>Created with Sketch.</desc>
    <g id="iczzz_mail" stroke="none" stroke-width="1" fill="none" fill-rule="evenodd">
        <g id="mail">
            <rect id="Rectangle" opacity="0" x="0" y="0" width="24" height="24"></rect>
            <g id="Group" transform="translate(2.000000, 4.000000)" fill="#FFFFFF" fill-rule="nonzero">
                <path d="M1.91960534,4.84396074 C2.17260264,5.02249796 2.93523003,5.5527539 4.20752659,6.43445491 C5.47986224,7.31615592 6.4545586,7.99504302 7.13165476,8.47115531 C7.20604504,8.52334432 7.36409018,8.63679188 7.60586835,8.81165437 C7.84768561,8.98663414 8.04861364,9.12803312 8.20849605,9.2358904 C8.36849574,9.34370859 8.56191828,9.46466198 8.78895912,9.59855513 C9.01592179,9.73233099 9.22986713,9.83295609 9.43075606,9.89957037 C9.63168408,9.96673195 9.81767932,10 9.98878087,10 L10,10 L10.0112582,10 C10.1823598,10 10.3684332,9.96669286 10.5693612,9.89957037 C10.770172,9.83295609 10.9843128,9.73221371 11.21108,9.59855513 C11.4379645,9.46450561 11.631387,9.34366949 11.7913867,9.2358904 C11.9513864,9.12803312 12.152158,8.98663414 12.3940535,8.81165437 C12.6357926,8.63663551 12.7940331,8.52334432 12.8684234,8.47115531 C13.5528296,7.99504302 15.2940625,6.78586088 18.0915747,4.84372618 C18.6347058,4.46440788 19.0884748,4.00670834 19.4529989,3.4709403 C19.8177966,2.93540682 20,2.37360292 20,1.78584134 C20,1.29467829 19.8231912,0.874234268 19.4697298,0.524548379 C19.1163076,0.174784305 18.6977206,0 18.2142424,0 L1.78564029,0 C1.21276088,0 0.771891968,0.193431613 0.463111726,0.580294839 C0.154370575,0.96723625 0,1.45089347 0,2.0312274 C0,2.5 0.204680763,3.00796322 0.613846833,3.55483364 C1.02297381,4.10174315 1.45836998,4.53149128 1.91960534,4.84396074 Z" id="Path"></path>
                <path d="M18.8837571,6.00310605 C16.4435419,7.70945251 14.5906295,9.03556533 13.3259191,9.98116179 C12.9018211,10.3038859 12.5577814,10.5558134 12.2935654,10.7363385 C12.0293495,10.9169849 11.6779607,11.1014678 11.2388908,11.2897067 C10.7999773,11.4782283 10.3909293,11.5722064 10.011395,11.5722064 L10.0000195,11.5722064 L9.98880043,11.5722064 C9.60934431,11.5722064 9.20006176,11.4782283 8.76114826,11.2897067 C8.32223475,11.1014678 7.9706114,10.9169849 7.70647366,10.7363385 C7.4424141,10.5558134 7.09825713,10.3038859 6.6741982,9.98116179 C5.66967732,9.22020986 3.82075223,7.89401627 1.12734473,6.00310605 C0.703129428,5.71119645 0.327386944,5.37659892 0,5 L0,14.1548874 C0,14.6625387 0.174775764,15.0966472 0.524522748,15.4579399 C0.87419155,15.8193537 1.29465411,16 1.78575407,16 L18.2143632,16 C18.7053459,16 19.1257694,15.8193537 19.4754773,15.4579399 C19.8253024,15.0965261 20,14.6625791 20,14.1548874 L20,5 C19.6800013,5.36880443 19.3080897,5.70340196 18.8837571,6.00310605 Z" id="Path"></path>
            </g>
        </g>
    </g>
</svg>