<?xml version="1.0" encoding="UTF-8"?>
<svg width="31px" height="19px" viewBox="0 0 31 19" version="1.1" xmlns="http://www.w3.org/2000/svg" xmlns:xlink="http://www.w3.org/1999/xlink">
    <!-- Generator: Sketch 55.1 (78136) - https://sketchapp.com -->
    <title>hd</title>
    <desc>Created with Sketch.</desc>
    <g id="Page-1" stroke="none" stroke-width="1" fill="none" fill-rule="evenodd">
        <g id="INDEX" transform="translate(-425.000000, -1063.000000)">
            <g id="hd" transform="translate(425.000000, 1063.000000)">
                <path d="M0,0 L27,0 C29.209139,-4.05812251e-16 31,1.790861 31,4 L31,15 C31,17.209139 29.209139,19 27,19 L0,19 L0,0 Z" id="Rectangle-Copy-9" fill="#0093FF" fill-rule="evenodd"></path>
                <path d="M14.24,14 L11.96,14 L11.96,10.2372881 L8.28,10.2372881 L8.28,14 L6,14 L6,5 L8.28,5 L8.28,8.40677966 L11.96,8.40677966 L11.96,5 L14.24,5 L14.24,14 Z M25,9.47457627 C25,10.2372919 24.8488904,10.9152513 24.5466667,11.5084746 C24.2444429,12.1016979 23.8377803,12.5762694 23.3266667,12.9322034 C22.815553,13.2881374 22.2533364,13.5550839 21.64,13.7330508 C21.0266636,13.9110178 20.3822256,14 19.7066667,14 L16.1866667,14 L16.1866667,5 L19.6,5 C20.1600028,5 20.6911086,5.04449108 21.1933333,5.13347458 C21.6955581,5.22245807 22.1822199,5.37711754 22.6533333,5.59745763 C23.1244468,5.81779771 23.5311094,6.09321869 23.8733333,6.42372881 C24.2155573,6.75423894 24.4888879,7.18008214 24.6933333,7.70127119 C24.8977788,8.22246023 25,8.81355602 25,9.47457627 Z M22.6266667,9.47457627 C22.6266667,8.99152301 22.5422231,8.5741543 22.3733333,8.22245763 C22.2044436,7.87076095 21.9711126,7.5974586 21.6733333,7.40254237 C21.3755541,7.20762614 21.0511129,7.06779703 20.7,6.98305085 C20.3488871,6.89830466 19.9644465,6.8559322 19.5466667,6.8559322 L18.4133333,6.8559322 L18.4133333,12.1186441 L19.4933333,12.1186441 C20.4088935,12.1186441 21.1599971,11.911019 21.7466667,11.4957627 C22.3333363,11.0805064 22.6266667,10.4067843 22.6266667,9.47457627 Z" id="HD" fill="#FFFFFF" fill-rule="nonzero"></path>
            </g>
        </g>
    </g>
</svg>