<?xml version="1.0" encoding="UTF-8"?>
<svg width="50px" height="50px" viewBox="0 0 50 50" version="1.1" xmlns="http://www.w3.org/2000/svg" xmlns:xlink="http://www.w3.org/1999/xlink">
    <!-- Generator: Sketch 55.1 (78136) - https://sketchapp.com -->
    <title>Group 11 Copy</title>
    <desc>Created with Sketch.</desc>
    <g id="Page-1" stroke="none" stroke-width="1" fill="none" fill-rule="evenodd">
        <g id="INDEX-2-Copy" transform="translate(-1401.000000, -269.000000)" fill="#FFFFFF">
            <g id="Group-11-Copy" transform="translate(1401.000000, 269.000000)">
                <g id="Group-4">
                    <path d="M8,0 L42,0 C46.418278,-8.11624501e-16 50,3.581722 50,8 L50,42 C50,46.418278 46.418278,50 42,50 L8,50 C3.581722,50 5.41083001e-16,46.418278 0,42 L0,8 C-5.41083001e-16,3.581722 3.581722,8.11624501e-16 8,0 Z M23.6285714,32.4 L23.6285714,17.1428571 L19.8785714,17.1428571 L19.8785714,23.0142857 L15.8928571,23.0142857 L15.8928571,17.1428571 L12.1428571,17.1428571 L12.1428571,32.4 L15.8928571,32.4 L15.8928571,26.3571429 L19.8785714,26.3571429 L19.8785714,32.4 L23.6285714,32.4 Z M37.9428571,21.5357143 C37.8714282,20.8785681 37.6642874,20.2714314 37.3214286,19.7142857 C36.2642804,17.9999914 34.6142969,17.1428571 32.3714286,17.1428571 L26.7142857,17.1428571 L26.7142857,32.4 L32.3714286,32.4 C34.6142969,32.4 36.2642804,31.5428657 37.3214286,29.8285714 C37.6642874,29.2714258 37.8749996,28.6678604 37.9535714,28.0178571 C38.0321432,27.3678539 38.0714286,26.2857219 38.0714286,24.7714286 C38.0714286,23.2571353 38.0285719,22.1785746 37.9428571,21.5357143 Z" id="Combined-Shape"></path>
                    <path d="M34.2357143,27.2357143 C34.2928574,26.8214265 34.3214286,26.0000061 34.3214286,24.7714286 C34.3214286,23.542851 34.2928574,22.7214306 34.2357143,22.3071429 C34.1785711,21.8928551 34.0714294,21.5714297 33.9142857,21.3428571 C33.5285695,20.7714257 32.9285755,20.4857143 32.1142857,20.4857143 L30.4642857,20.4857143 L30.4642857,29.0571429 L32.1142857,29.0571429 C32.9285755,29.0571429 33.5285695,28.7714314 33.9142857,28.2 C34.0714294,27.9714274 34.1785711,27.6500021 34.2357143,27.2357143 Z" id="HD"></path>
                </g>
            </g>
        </g>
    </g>
</svg>