<?xml version="1.0" encoding="UTF-8"?>
<svg width="20px" height="20px" viewBox="0 0 20 20" version="1.1" xmlns="http://www.w3.org/2000/svg" xmlns:xlink="http://www.w3.org/1999/xlink">
    <!-- Generator: Sketch 55.1 (78136) - https://sketchapp.com -->
    <title>ico_imdb</title>
    <desc>Created with Sketch.</desc>
    <g id="Page-1" stroke="none" stroke-width="1" fill="none" fill-rule="evenodd">
        <g id="INDEX-2-Copy" transform="translate(-746.000000, -718.000000)" fill="#FFCC00">
            <g id="ico_imdb" transform="translate(746.000000, 718.000000)">
                <g>
                    <path d="M10,20 C4.4771525,20 0,15.5228475 0,10 C0,4.4771525 4.4771525,0 10,0 C15.5228475,0 20,4.4771525 20,10 C20,15.5228475 15.5228475,20 10,20 Z M3.33333333,7.33333333 L3.33333333,12.3703704 L4.81481481,12.3703704 L4.81481481,7.33333333 L3.33333333,7.33333333 Z M7.68119401,7.33333333 L7.3488822,9.68647875 L7.14331173,8.406857 C7.08337627,7.996153 7.02606243,7.63828429 6.9713702,7.33333333 L5.11111111,7.33333333 L5.11111111,12.3703704 L6.36785724,12.3703704 L6.37237726,9.04452446 L6.9013099,12.3703704 L7.7964545,12.3703704 L8.29826702,8.97049403 L8.30278704,12.3703704 L9.55555556,12.3703704 L9.55555556,7.33333333 L7.68119401,7.33333333 Z M11.7285035,12.3703704 C12.0409831,12.3703704 12.2748681,12.3533137 12.430208,12.3190933 C12.5854656,12.2849635 12.7158045,12.2248571 12.8214957,12.1389638 C12.9270226,12.053054 13.00099,11.9340202 13.0434802,11.7816645 C13.0858882,11.6295726 13.1111111,11.32759 13.1111111,10.8761535 L13.1111111,9.10717537 C13.1111111,8.63075983 13.0925371,8.31130833 13.0636158,8.14873844 C13.0346041,7.98625098 12.9621982,7.83868499 12.8462337,7.70612293 C12.7303514,7.57356086 12.5610482,7.4783437 12.3384884,7.42038902 C12.116019,7.36243433 11.7527484,7.33333333 11.1213953,7.33333333 L10.1481481,7.33333333 L10.1481481,12.3703704 L11.7285035,12.3703704 Z M13.7037037,12.3703704 L14.8888889,12.3703704 L14.9626257,11.9884832 C15.0690871,12.1158332 15.1865077,12.211366 15.31497,12.2750003 C15.4433499,12.3386265 15.6351039,12.3703704 15.783334,12.3703704 C15.9900767,12.3703704 16.1685561,12.316745 16.3189368,12.2096572 C16.4692352,12.1024879 16.5648197,11.9757889 16.6056079,11.8298043 C16.6463055,11.6837384 16.6666667,11.461824 16.6666667,11.1636786 L16.6666667,9.76876922 C16.6666667,9.46858134 16.6598274,9.27263328 16.6463055,9.18076228 C16.6326353,9.08889128 16.5925804,8.99498594 16.5258443,8.89904625 C16.4590176,8.80318794 16.362024,8.72864955 16.234633,8.67551248 C16.1073325,8.62229402 15.9571989,8.59576617 15.7839932,8.59576617 C15.6336949,8.59576617 15.4410426,8.62530485 15.3126628,8.68389397 C15.1842829,8.7424831 15.0679417,8.83142464 14.9636145,8.95063723 L14.9636145,7.33333333 L13.7037037,7.33333333 L13.7037037,12.3703704 Z" id="Combined-Shape"></path>
                    <path d="M15.1851852,11.218006 C15.1851852,11.4624669 15.1770485,11.6168981 15.1608361,11.6811343 C15.1445628,11.745453 15.0738236,11.7777778 15.0201881,11.7777778 C14.9678809,11.7777778 14.9330095,11.7467758 14.9152971,11.6845238 C14.8976455,11.6223545 14.8888889,11.480415 14.8888889,11.2585235 L14.8888889,9.92361111 C14.8888889,9.69345238 14.8966381,9.55001653 14.9121918,9.49289021 C14.9276958,9.4360119 14.9615709,9.40740741 15.0138171,9.40740741 C15.0673973,9.40740741 15.1393044,9.43989749 15.1576755,9.50520833 C15.1759968,9.57051918 15.1851852,9.70998677 15.1851852,9.92344577 L15.1851852,11.218006 L15.1851852,11.218006 Z" id="path52-path"></path>
                    <path d="M11.7419821,8.23984188 C11.7935209,8.26976727 11.8265597,8.31700488 11.8409423,8.38106005 C11.8553248,8.44528011 11.8626394,8.59119731 11.8626394,8.8188941 L11.8626394,10.771629 C11.8626394,11.1069912 11.8409423,11.312347 11.7976302,11.3878612 C11.75431,11.4635403 11.6388468,11.501215 11.4513804,11.501215 L11.4513804,8.19483014 C11.5934719,8.19483014 11.6904514,8.20983405 11.7419821,8.23984188 L11.7419821,8.23984188 Z" id="path44-path"></path>
                </g>
            </g>
        </g>
    </g>
</svg>