<?xml version="1.0" encoding="UTF-8"?>
<svg width="26px" height="26px" viewBox="0 0 26 26" version="1.1" xmlns="http://www.w3.org/2000/svg" xmlns:xlink="http://www.w3.org/1999/xlink">
    <!-- Generator: Sketch 55.1 (78136) - https://sketchapp.com -->
    <title>Group 2 Copy 7</title>
    <desc>Created with Sketch.</desc>
    <g id="Page-1" stroke="none" stroke-width="1" fill="none" fill-rule="evenodd">
        <g id="INDEX-2" transform="translate(-1424.000000, -619.000000)" fill-rule="nonzero">
            <g id="Group-2" transform="translate(1392.000000, 617.000000)">
                <g id="Group-2-Copy-7" transform="translate(45.000000, 15.000000) scale(-1, 1) translate(-45.000000, -15.000000) translate(32.000000, 2.000000)">
                    <g id="play-button">
                        <g id="Group-3" transform="translate(13.000000, 13.000000) scale(-1, 1) translate(-13.000000, -13.000000) translate(-0.000000, 0.000000)">
                            <path d="M13,0 C5.8318,0 -1.0658141e-14,5.8318 -1.0658141e-14,13 C-1.0658141e-14,20.1682 5.8318,26 13,26 C20.1682,26 26,20.1682 26,13 C26,5.8318 20.1682,0 13,0 Z" id="Shape-Copy" fill="#FFFFFF"></path>
                            <path d="M19.7439667,13.3579333 L10.2106333,19.8579333 C10.1374,19.9077667 10.0520333,19.9333333 9.96666667,19.9333333 C9.89733333,19.9333333 9.82756667,19.9168667 9.7643,19.8830667 C9.62216667,19.8081 9.53333333,19.6607667 9.53333333,19.5 L9.53333333,6.5 C9.53333333,6.33923333 9.62216667,6.1919 9.7643,6.11693333 C9.90643333,6.04153333 10.0780333,6.05193333 10.2110667,6.14206667 L19.7444,12.6420667 C19.8622667,12.7226667 19.9333333,12.8565667 19.9333333,13 C19.9333333,13.1434333 19.8622667,13.2773333 19.7439667,13.3579333 Z" id="Path-Copy" fill="#313E45"></path>
                        </g>
                    </g>
                </g>
            </g>
        </g>
    </g>
</svg>