<?xml version="1.0" encoding="UTF-8"?>
<svg width="42px" height="19px" viewBox="0 0 42 19" version="1.1" xmlns="http://www.w3.org/2000/svg" xmlns:xlink="http://www.w3.org/1999/xlink">
    <!-- Generator: Sketch 55.1 (78136) - https://sketchapp.com -->
    <title>new</title>
    <desc>Created with Sketch.</desc>
    <g id="Page-1" stroke="none" stroke-width="1" fill="none" fill-rule="evenodd">
        <g id="INDEX" transform="translate(-425.000000, -1040.000000)">
            <g id="new" transform="translate(425.000000, 1040.000000)">
                <path d="M0,0 L38,0 C40.209139,-4.05812251e-16 42,1.790861 42,4 L42,15 C42,17.209139 40.209139,19 38,19 L0,19 L0,0 Z" id="Rectangle" fill="#FF2E2E" fill-rule="evenodd"></path>
                <path d="M14.2247765,14 L11.7471264,14 L8.10727969,8.11440678 L8.06896552,8.11440678 L8.12005109,14 L6,14 L6,5 L8.49042146,5 L12.1174968,10.8728814 L12.155811,10.8728814 L12.1047254,5 L14.2247765,5 L14.2247765,14 Z M22.3984674,14 L16.0893997,14 L16.0893997,5 L22.1685824,5 L22.1685824,6.84322034 L18.1966794,6.84322034 L18.1966794,8.53389831 L21.9514687,8.53389831 L21.9514687,10.2754237 L18.1966794,10.2754237 L18.1966794,12.1440678 L22.3984674,12.1440678 L22.3984674,14 Z M36,5 L33.4201788,14 L31.2618135,14 L29.4738186,7.91101695 L29.4355045,7.91101695 L27.6475096,14 L25.4763729,14 L22.9093231,5 L25.2592593,5 L26.6896552,10.9872881 L26.7279693,10.9872881 L28.3371648,5 L30.6104725,5 L32.2324393,10.9872881 L32.2707535,10.9872881 L33.7266922,5 L36,5 Z" id="NEW" fill="#FFFFFF" fill-rule="nonzero"></path>
            </g>
        </g>
    </g>
</svg>