<?xml version="1.0" encoding="UTF-8"?>
<svg width="182px" height="192px" viewBox="0 0 182 192" version="1.1" xmlns="http://www.w3.org/2000/svg" xmlns:xlink="http://www.w3.org/1999/xlink">
    <!-- Generator: Sketch 58 (84663) - https://sketch.com -->
    <title>film</title>
    <desc>Created with Sketch.</desc>
    <g id="Page-1" stroke="none" stroke-width="1" fill="none" fill-rule="evenodd">
        <g id="film" fill-rule="nonzero">
            <path d="M91,182 C141.257912,182 182,141.257912 182,91 C182,40.7420878 141.257912,0 91,0 C40.7420878,0 0,40.7420878 0,91 C0,141.257912 40.7420878,182 91,182 Z M138.023438,155.722656 C127.300781,163.511719 112.289062,161.136719 104.5,150.410156 C96.710938,139.6875 99.085938,124.679688 109.808594,116.886719 C120.535156,109.097656 135.542969,111.472656 143.332031,122.199219 C151.125,132.921875 148.746094,147.929688 138.023438,155.722656 Z M136.84375,50.871094 C149.449219,46.773438 162.988281,53.671875 167.085938,66.277344 C171.179688,78.886719 164.28125,92.425781 151.675781,96.519531 C139.070312,100.617188 125.53125,93.71875 121.433594,81.113281 C117.339844,68.507812 124.238281,54.964844 136.84375,50.871094 Z M91,11 C104.253906,11 115,21.746094 115,35 C115,48.253906 104.253906,59 91,59 C77.746094,59 67,48.253906 67,35 C67,21.746094 77.746094,11 91,11 Z M14.914062,66.277344 C19.011719,53.671875 32.550781,46.773438 45.15625,50.867188 C57.761719,54.964844 64.660156,68.503906 60.566406,81.109375 C56.46875,93.714844 42.929688,100.613281 30.324219,96.519531 C17.71875,92.425781 10.820312,78.886719 14.914062,66.277344 Z M77.5,150.410156 C69.710938,161.136719 54.699219,163.511719 43.976562,155.722656 C33.253906,147.929688 30.875,132.921875 38.667969,122.199219 C46.457031,111.476562 61.46875,109.097656 72.191406,116.890625 C82.914062,124.679688 85.289062,139.6875 77.5,150.410156 Z M83,91 C83,86.582031 86.582031,83 91,83 C95.417969,83 99,86.582031 99,91 C99,95.417969 95.417969,99 91,99 C86.582031,99 83,95.417969 83,91 Z" id="Shape" fill="#FFFFFF"></path>
            <g id="loupe" transform="translate(87.000000, 99.000000)">
                <path d="M90.3940317,82.6437272 C92.5353228,84.7831912 92.5353228,88.2545676 90.3940317,90.3940317 C89.3233861,91.4646772 87.9220463,92 86.5188794,92 C85.1157125,92 83.7143727,91.4646772 82.6437272,90.3940317 L65,72.7503045 C67.8812424,70.4847747 70.4847747,67.8812424 72.7503045,65 L90.3940317,82.6437272 Z" id="Path" fill="#0093FF"></path>
                <path d="M63.9633932,56 L72,64.0366068 C69.6721812,66.9970668 66.9970668,69.6721812 64.0366068,72 L56,63.9633932 L56,63.9615159 C59.0543236,61.7444562 61.7444562,59.0543236 63.9615159,56 L63.9633932,56 L63.9633932,56 Z" id="Path" fill="#FFFF67"></path>
                <path d="M71,36 C71,43.6594737 68.5260526,50.7534211 64.3352632,56.5228947 C62.1597368,59.52 59.52,62.1597368 56.5228947,64.3352632 C50.7534211,68.5260526 43.6594737,71 36,71 C16.7002632,71 1,55.2997368 1,36 C1,16.7002632 16.7002632,1 36,1 C55.2997368,1 71,16.7002632 71,36 Z" id="Path" fill="#0093FF"></path>
                <path d="M36.5,9 C51.6635,9 64,21.3365 64,36.5 C64,51.6635 51.6635,64 36.5,64 C21.3365,64 9,51.6635 9,36.5 C9,21.3365 21.3365,9 36.5,9 Z" id="Path" fill="#BEE7F4"></path>
                <path d="M90.8713535,80.5973965 L66.6259629,56.3520059 C70.5757383,50.4025488 72.65625,43.5129199 72.65625,36.328125 C72.65625,16.2967969 56.3594531,0 36.328125,0 C16.2967969,0 0,16.2967969 0,36.328125 C0,56.3594531 16.2967969,72.65625 36.328125,72.65625 C43.5131016,72.65625 50.4027305,70.5755566 56.3520059,66.6261445 L63.0536367,73.3277754 C63.0545449,73.3286836 63.0554531,73.3295918 63.056543,73.3306816 L80.5972148,90.8713535 C81.9700547,92.2440117 83.7942715,93 85.734375,93 C87.6744785,93 89.4986953,92.2440117 90.8708086,90.8718984 C92.2438301,89.4999668 93,87.6755684 93,85.734375 C93,83.7931816 92.2438301,81.9687832 90.8713535,80.5973965 Z M59.3085703,64.4448223 C61.1885508,62.9068711 62.9070527,61.1883691 64.4448223,59.3085703 L69.5981484,64.4618965 C68.0309531,66.311543 66.311543,68.0311348 64.4618965,69.5981484 L59.3085703,64.4448223 Z M3.6328125,36.328125 C3.6328125,18.2999297 18.2999297,3.6328125 36.328125,3.6328125 C54.3563203,3.6328125 69.0234375,18.2999297 69.0234375,36.328125 C69.0234375,43.2622559 66.8708145,49.8906855 62.79825,55.4975684 C60.7607871,58.3044609 58.3046426,60.7607871 55.49775,62.7980684 C55.49775,62.79825 55.4975684,62.79825 55.4973867,62.7984316 C49.8906855,66.8708145 43.2622559,69.0234375 36.328125,69.0234375 C18.2999297,69.0234375 3.6328125,54.3563203 3.6328125,36.328125 Z M88.3025918,88.3025918 C87.6159902,88.9891934 86.7039727,89.3671875 85.734375,89.3671875 C84.7647773,89.3671875 83.8527598,88.9891934 83.1661582,88.3025918 L67.0373789,72.1738125 C68.8768535,70.5951738 70.5951738,68.8770352 72.1736309,67.0375605 L88.3029551,83.1668848 C88.9891934,83.8523965 89.3671875,84.7640508 89.3671875,85.734375 C89.3671875,86.7046992 88.9891934,87.6163535 88.3025918,88.3025918 Z" id="Shape" fill="#000000"></path>
                <path d="M65,36 C65,20.0092188 51.9907812,7 36,7 C20.0092187,7 7,20.0092188 7,36 C7,51.9907813 20.0092187,65 36,65 C51.9907812,65 65,51.9907813 65,36 Z M36,61.375 C22.008225,61.375 10.625,49.991775 10.625,36 C10.625,22.008225 22.008225,10.625 36,10.625 C49.991775,10.625 61.375,22.008225 61.375,36 C61.375,49.991775 49.991775,61.375 36,61.375 Z" id="Shape" fill="#000000"></path>
                <path d="M54.8499183,31.8747449 C55.7739563,31.5032924 56.2353479,30.418561 55.880252,29.4517719 C54.3367232,25.249352 51.6492155,21.6563317 48.1079362,19.0614142 C44.482409,16.4044318 40.2237679,15 35.7925083,15 C34.8026852,15 34,15.839659 34,16.8750758 C34,17.9104927 34.8026852,18.7501517 35.7925083,18.7501517 C43.1595379,18.7501517 49.8871799,23.5912224 52.5338184,30.7969513 C52.8077136,31.5424815 53.486895,32 54.2074833,32 C54.4211503,32 54.6385816,31.9596859 54.8499183,31.8747449 Z" id="Path" fill="#000000"></path>
                <path d="M56.5,35 C55.672,35 55,35.672 55,36.5 C55,37.328 55.672,38 56.5,38 C57.328,38 58,37.328 58,36.5 C58,35.672 57.328,35 56.5,35 Z" id="Path" fill="#000000"></path>
            </g>
        </g>
    </g>
</svg>