<?xml version="1.0" encoding="UTF-8"?>
<svg width="119px" height="28px" viewBox="0 0 119 28" version="1.1" xmlns="http://www.w3.org/2000/svg" xmlns:xlink="http://www.w3.org/1999/xlink">
    <!-- Generator: Sketch 58 (84663) - https://sketch.com -->
    <title>Get_it_on_Google_play</title>
    <desc>Created with Sketch.</desc>
    <defs>
        <linearGradient x1="61.8157669%" y1="4.9604069%" x2="24.8481766%" y2="71.909245%" id="linearGradient-1">
            <stop stop-color="#00A0FF" offset="0%"></stop>
            <stop stop-color="#00A1FF" offset="0.66%"></stop>
            <stop stop-color="#00BEFF" offset="26.01%"></stop>
            <stop stop-color="#00D2FF" offset="51.22%"></stop>
            <stop stop-color="#00DFFF" offset="76.04%"></stop>
            <stop stop-color="#00E3FF" offset="100%"></stop>
        </linearGradient>
        <linearGradient x1="107.585647%" y1="50.0163647%" x2="-130.492257%" y2="50.0163647%" id="linearGradient-2">
            <stop stop-color="#FFE000" offset="0%"></stop>
            <stop stop-color="#FFBD00" offset="40.87%"></stop>
            <stop stop-color="#FFA500" offset="77.54%"></stop>
            <stop stop-color="#FF9C00" offset="100%"></stop>
        </linearGradient>
        <linearGradient x1="86.237735%" y1="87.6471356%" x2="-50.1313759%" y2="185.819107%" id="linearGradient-3">
            <stop stop-color="#FF3A44" offset="0%"></stop>
            <stop stop-color="#C31162" offset="100%"></stop>
        </linearGradient>
        <linearGradient x1="-18.8012883%" y1="-63.2094152%" x2="42.0936259%" y2="-19.3861155%" id="linearGradient-4">
            <stop stop-color="#32A071" offset="0%"></stop>
            <stop stop-color="#2DA771" offset="6.85%"></stop>
            <stop stop-color="#15CF74" offset="47.62%"></stop>
            <stop stop-color="#06E775" offset="80.09%"></stop>
            <stop stop-color="#00F076" offset="100%"></stop>
        </linearGradient>
    </defs>
    <g id="Page-1" stroke="none" stroke-width="1" fill="none" fill-rule="evenodd" opacity="0.8">
        <g id="Register-page-ok-mail" transform="translate(-59.000000, -944.000000)" fill-rule="nonzero">
            <g id="Group-8" transform="translate(58.000000, 942.000000)">
                <g id="Group-6">
                    <g id="Get_it_on_Google_play" transform="translate(0.000000, 2.000000)">
                        <g id="g10" transform="translate(60.000000, 13.800000) scale(-1, 1) rotate(-180.000000) translate(-60.000000, -13.800000) ">
                            <g id="g12" transform="translate(0.230495, 0.000000)">
                                <g id="g18" transform="translate(36.078141, 23.943312) scale(-1, 1) rotate(-180.000000) translate(-36.078141, -23.943312) translate(32.763224, 20.329026)" fill="#FFFFFF" stroke="#FFFFFF" stroke-width="0.625">
                                    <path d="M6.2827283,3.93191123 C6.2827283,4.75398219 6.02805751,5.41237734 5.52635606,5.90340475 C4.94952673,6.4854999 4.19824791,6.77839344 3.27761302,6.77839344 C2.39772545,6.77839344 1.64644663,6.48057732 1.03014333,5.89355959 C0.412566674,5.29792734 0.104415022,4.56692412 0.104415022,3.69193543 C0.104415022,2.81694673 0.412566674,2.08594352 1.03014333,1.49523385 C1.64644663,0.903293535 2.39772545,0.60547741 3.27761302,0.60547741 C3.71564677,0.60547741 4.13330686,0.692853215 4.53186664,0.855298374 C4.92915307,1.01897418 5.25258497,1.2404903 5.48688209,1.51369353 L4.95462015,2.03302578 C4.54587354,1.56661127 3.98941787,1.33648062 3.27761302,1.33648062 C2.63584264,1.33648062 2.07938697,1.55307417 1.60697266,1.9899532 C1.13965177,2.42806287 0.905354646,2.99539028 0.905354646,3.69193543 C0.905354646,4.38848058 1.13965177,4.96073057 1.60697266,5.39884024 C2.07938697,5.83079668 2.63584264,6.05231281 3.27761302,6.05231281 C3.95885737,6.05231281 4.53186664,5.83079668 4.98390729,5.39391766 C5.28187211,5.10471605 5.45122818,4.70598702 5.49579557,4.19649994 L3.27761302,4.19649994 L3.27761302,3.48518704 L6.23688756,3.48518704 C6.27254147,3.63901769 6.2827283,3.78792575 6.2827283,3.93191123 L6.2827283,3.93191123 Z" id="path20"></path>
                                </g>
                                <g id="g22" transform="translate(41.781927, 23.614740) scale(-1, 1) rotate(-180.000000) translate(-41.781927, -23.614740) translate(39.792977, 20.329026)" fill="#FFFFFF" stroke="#FFFFFF" stroke-width="0.625">
                                    <polygon id="path24" points="3.94783116 0.808555507 1.16809953 0.808555507 1.16809953 2.67913612 3.67406007 2.67913612 3.67406007 3.39044902 1.16809953 3.39044902 1.16809953 5.26102963 3.94783116 5.26102963 3.94783116 5.98587962 0.381166799 5.98587962 0.381166799 0.0837055186 3.94783116 0.0837055186"></polygon>
                                </g>
                                <g id="g26" transform="translate(46.543851, 23.614740) scale(-1, 1) rotate(-180.000000) translate(-46.543851, -23.614740) translate(44.223409, 20.329026)" fill="#FFFFFF" stroke="#FFFFFF" stroke-width="0.625">
                                    <polygon id="path28" points="2.83066579 5.98587962 2.04373306 5.98587962 2.04373306 0.808555507 0.338712146 0.808555507 0.338712146 0.0837055186 4.53696006 0.0837055186 4.53696006 0.808555507 2.83066579 0.808555507 2.83066579 5.98587962"></polygon>
                                </g>
                                <g id="g30" transform="translate(52.247637, 23.614740) scale(-1, 1) rotate(-180.000000) translate(-52.247637, -23.614740) translate(51.253162, 20.329026)" fill="#FFFFFF" stroke="#FFFFFF" stroke-width="0.625">
                                    <polygon id="path32" points="0.545429456 5.98587962 0.545429456 0.0837055186 1.33108883 0.0837055186 1.33108883 5.98587962"></polygon>
                                </g>
                                <g id="g34" transform="translate(55.788820, 23.614740) scale(-1, 1) rotate(-180.000000) translate(-55.788820, -23.614740) translate(53.136887, 20.329026)" fill="#FFFFFF" stroke="#FFFFFF" stroke-width="0.625">
                                    <polygon id="path36" points="2.9299874 5.98587962 2.14942144 5.98587962 2.14942144 0.808555507 0.438033753 0.808555507 0.438033753 0.0837055186 4.64137508 0.0837055186 4.64137508 0.808555507 2.9299874 0.808555507"></polygon>
                                </g>
                                <g id="g38" transform="translate(63.481557, 23.943312) scale(-1, 1) rotate(-180.000000) translate(-63.481557, -23.943312) translate(60.166640, 20.329026)" fill="#FFFFFF" stroke="#FFFFFF" stroke-width="0.625">
                                    <path d="M5.55989724,5.88371443 C4.95760083,6.48057732 4.21141543,6.77839344 3.32134103,6.77839344 C2.42617321,6.77839344 1.67998781,6.48057732 1.0776914,5.88371443 C0.476668344,5.28808218 0.17743017,4.55707896 0.17743017,3.69193543 C0.17743017,2.82679189 0.476668344,2.09578868 1.0776914,1.50015643 C1.67998781,0.903293535 2.42617321,0.60547741 3.32134103,0.60547741 C4.20632201,0.60547741 4.95250741,0.903293535 5.55480382,1.50507901 C6.1609203,2.10563384 6.46015847,2.83171447 6.46015847,3.69193543 C6.46015847,4.55707896 6.1609203,5.28808218 5.55989724,5.88371443 Z M1.65961415,5.38899508 C2.11292815,5.83079668 2.6642904,6.05231281 3.32134103,6.05231281 C3.97329824,6.05231281 4.52975391,5.83079668 4.97797449,5.38899508 C5.43001514,4.94719347 5.65921885,4.37986606 5.65921885,3.69193543 C5.65921885,3.00400479 5.43001514,2.43667738 4.97797449,1.99487578 C4.52975391,1.55307417 3.97329824,1.33155804 3.32134103,1.33155804 C2.6642904,1.33155804 2.11292815,1.55307417 1.65961415,1.99487578 C1.2075735,2.43667738 0.978369793,3.00400479 0.978369793,3.69193543 C0.978369793,4.37986606 1.2075735,4.94719347 1.65961415,5.38899508 L1.65961415,5.38899508 Z" id="path40"></path>
                                </g>
                                <g id="g42" transform="translate(69.795713, 23.614740) scale(-1, 1) rotate(-180.000000) translate(-69.795713, -23.614740) translate(67.143780, 20.329026)" fill="#FFFFFF" stroke="#FFFFFF" stroke-width="0.625">
                                    <polygon id="path44" points="0.587016163 5.98587962 0.587016163 0.0837055186 1.54203161 0.0837055186 4.51149298 4.6740119 4.54587354 4.6740119 4.51149298 3.53935708 4.51149298 0.0837055186 5.29715236 0.0837055186 5.29715236 5.98587962 4.47711242 5.98587962 1.36758212 1.16913453 1.33320157 1.16913453 1.36758212 2.30871194 1.36758212 5.98587962 0.587016163 5.98587962"></polygon>
                                </g>
                                <path d="M60.15052,12.2951364 C57.7578879,12.2951364 55.8032896,10.5353138 55.8032896,8.10725093 C55.8032896,5.69887839 57.7578879,3.92059616 60.15052,3.92059616 C62.5482454,3.92059616 64.5028437,5.69887839 64.5028437,8.10725093 C64.5028437,10.5353138 62.5482454,12.2951364 60.15052,12.2951364 Z M60.15052,5.56966065 C58.8376921,5.56966065 57.7082271,6.61693966 57.7082271,8.10725093 C57.7082271,9.61725252 58.8376921,10.6460719 60.15052,10.6460719 C61.4633479,10.6460719 62.5979062,9.61725252 62.5979062,8.10725093 C62.5979062,6.61693966 61.4633479,5.56966065 60.15052,5.56966065 L60.15052,5.56966065 Z M50.6653065,12.2951364 C48.2675811,12.2951364 46.3180762,10.5353138 46.3180762,8.10725093 C46.3180762,5.69887839 48.2675811,3.92059616 50.6653065,3.92059616 C53.0617586,3.92059616 55.0125368,5.69887839 55.0125368,8.10725093 C55.0125368,10.5353138 53.0617586,12.2951364 50.6653065,12.2951364 Z M50.6653065,5.56966065 C49.3512053,5.56966065 48.2179203,6.61693966 48.2179203,8.10725093 C48.2179203,9.61725252 49.3512053,10.6460719 50.6653065,10.6460719 C51.9781344,10.6460719 53.1075994,9.61725252 53.1075994,8.10725093 C53.1075994,6.61693966 51.9781344,5.56966065 50.6653065,5.56966065 Z M39.3782973,11.0115735 L39.3782973,9.23206059 L43.7751884,9.23206059 C43.6465796,8.23769932 43.3027741,7.5066961 42.7756056,6.99720901 C42.1338352,6.38188644 41.1342523,5.69887839 39.3782973,5.69887839 C36.6724202,5.69887839 34.5535592,7.80943481 34.5535592,10.4245557 C34.5535592,13.0396767 36.6724202,15.1502331 39.3782973,15.1502331 C40.8413809,15.1502331 41.9059048,14.5976734 42.6915642,13.8814379 L43.9891119,15.1354653 C42.8902074,16.1495169 41.4283971,16.9285153 39.3782973,16.9285153 C35.6677439,16.9285153 32.5493001,14.0106557 32.5493001,10.4245557 C32.5493001,6.83845579 35.6677439,3.92059616 39.3782973,3.92059616 C41.3838297,3.92059616 42.8902074,4.55560905 44.0744266,5.74687355 C45.2879329,6.91967837 45.666119,8.56874286 45.666119,9.9003009 C45.666119,10.3137977 45.6304651,10.694067 45.5667974,11.0115735 L39.3782973,11.0115735 Z M85.5322839,9.63202026 C85.1744714,10.5685412 84.0704736,12.2951364 81.8217305,12.2951364 C79.5933611,12.2951364 77.7380845,10.5980767 77.7380845,8.10725093 C77.7380845,5.76164129 79.5742608,3.92059616 82.035654,3.92059616 C84.0259062,3.92059616 85.1744714,5.09340098 85.6468857,5.77640903 L84.1697952,6.72769773 C83.6770072,6.03115258 83.0059497,5.56966065 82.035654,5.56966065 C81.0717251,5.56966065 80.3802939,5.99669451 79.9371667,6.83845579 L85.7322005,9.15576059 L85.5322839,9.63202026 L85.5322839,9.63202026 Z M79.6239216,8.23769932 C79.5742608,9.85230574 80.9214693,10.6792993 81.8866716,10.6792993 C82.6430438,10.6792993 83.2848142,10.3137977 83.4987377,9.79077349 L79.6239216,8.23769932 L79.6239216,8.23769932 Z M74.9137854,4.1753397 L76.8187229,4.1753397 L76.8187229,16.4817911 L74.9137854,16.4817911 L74.9137854,4.1753397 Z M71.7940683,11.3623073 L71.7304006,11.3623073 C71.3025537,11.8521041 70.4863338,12.2951364 69.4523704,12.2951364 C67.2825753,12.2951364 65.2986899,10.4540912 65.2986899,8.09371383 C65.2986899,5.74687355 67.2825753,3.92059616 69.4523704,3.92059616 C70.4863338,3.92059616 71.3025537,4.36732034 71.7304006,4.87188485 L71.7940683,4.87188485 L71.7940683,4.27133002 C71.7940683,2.67026069 70.9090873,1.81003974 69.4816576,1.81003974 C68.3178121,1.81003974 67.5958204,2.62226553 67.2978556,3.30527358 L65.6412221,2.63703327 C66.1187298,1.52699135 67.3831703,0.160975246 69.4816576,0.160975246 C71.7151204,0.160975246 73.5996842,1.43100103 73.5996842,4.52115099 L73.5996842,12.0403928 L71.7940683,12.0403928 L71.7940683,11.3623073 L71.7940683,11.3623073 Z M69.6153597,5.56966065 C68.3025318,5.56966065 67.2036274,6.6317074 67.2036274,8.09371383 C67.2036274,9.56925736 68.3025318,10.6460719 69.6153597,10.6460719 C70.9090873,10.6460719 71.9290438,9.56925736 71.9290438,8.09371383 C71.9290438,6.6317074 70.9090873,5.56966065 69.6153597,5.56966065 L69.6153597,5.56966065 Z M94.4508548,16.4817911 L89.8947945,16.4817911 L89.8947945,4.1753397 L91.7946385,4.1753397 L91.7946385,8.83825414 L94.4508548,8.83825414 C96.5608023,8.83825414 98.6300024,10.3137977 98.6300024,12.660638 C98.6300024,15.0062476 96.5557089,16.4817911 94.4508548,16.4817911 L94.4508548,16.4817911 Z M94.5005156,10.5500815 L91.7946385,10.5500815 L91.7946385,14.7699637 L94.5005156,14.7699637 C95.9190319,14.7699637 96.728885,13.631617 96.728885,12.660638 C96.728885,11.7081186 95.9190319,10.5500815 94.5005156,10.5500815 Z M106.244659,12.3185186 C104.871983,12.3185186 103.444554,11.7327315 102.857537,10.4344009 L104.543458,9.75139284 C104.906364,10.4344009 105.573601,10.655917 106.279039,10.655917 C107.264615,10.655917 108.264198,10.083667 108.279479,9.07330737 L108.279479,8.94408963 C107.935673,9.13607027 107.199674,9.4203493 106.29432,9.4203493 C104.478517,9.4203493 102.628334,8.45429286 102.628334,6.65139773 C102.628334,5.00233324 104.115611,3.94028648 105.787525,3.94028648 C107.065972,3.94028648 107.77141,4.49776873 108.214537,5.14631872 L108.279479,5.14631872 L108.279479,4.19503002 L110.114382,4.19503002 L110.114382,8.91578479 C110.114382,11.0977186 108.428461,12.3185186 106.244659,12.3185186 Z M106.015455,5.57458323 C105.394059,5.57458323 104.528178,5.87239935 104.528178,6.61693966 C104.528178,7.569459 105.607982,7.93496061 106.542624,7.93496061 C107.379217,7.93496061 107.77141,7.75651706 108.279479,7.52146384 C108.130496,6.38188644 107.115633,5.57458323 106.015455,5.57458323 L106.015455,5.57458323 Z M116.79949,12.0490073 L114.615688,6.71416063 L114.550747,6.71416063 L112.29309,12.0490073 L110.244264,12.0490073 L113.636479,4.59375905 L111.700981,0.445254274 L113.686139,0.445254274 L118.913257,12.0490073 L116.79949,12.0490073 L116.79949,12.0490073 Z M99.6741527,4.1753397 L101.57909,4.1753397 L101.57909,16.4817911 L99.6741527,16.4817911 L99.6741527,4.1753397 Z" id="path46" fill="#FFFFFF"></path>
                                <g id="g48" transform="translate(0.319005, 1.140547)" fill="url(#linearGradient-1)">
                                    <path d="M1.05349767,25.1482551 C0.754259501,24.8455164 0.581083366,24.3741793 0.581083366,23.7637793 L0.581083366,1.99120549 C0.581083366,1.3808055 0.754259501,0.909468409 1.05349767,0.606729704 L1.1273522,0.540274866 L13.7513831,12.7359682 L13.7513831,13.0239392 L1.1273522,25.2196326 L1.05349767,25.1482551 Z" id="path64"></path>
                                </g>
                                <g id="g66" transform="translate(13.662915, 9.755063)" fill="url(#linearGradient-2)">
                                    <path d="M4.61081459,0.0541700352 L0.407473258,4.12145223 L0.407473258,4.40942319 L4.615908,8.47670539 L4.71013619,8.42378765 L9.69404348,5.68314092 C11.1163798,4.90537319 11.1163798,3.62550224 9.69404348,2.84281193 L4.71013619,0.107087776 L4.61081459,0.0541700352 L4.61081459,0.0541700352 Z" id="path78"></path>
                                </g>
                                <g id="g80" transform="translate(0.929375, 1.140547)" fill="url(#linearGradient-3)">
                                    <path d="M17.4436755,8.72160377 L13.1410126,12.8799537 L0.443127168,0.606729704 C0.915541477,0.126778099 1.68592061,0.0689377769 2.56198811,0.548889382 L17.4436755,8.72160377" id="path88"></path>
                                </g>
                                <g id="g90" transform="translate(0.929375, 14.020501)" fill="url(#linearGradient-4)">
                                    <path d="M17.4436755,4.15834994 L2.56198811,12.3310643 C1.68592061,12.8060934 0.915541477,12.748253 0.443127168,12.2683014 L13.1410126,0 L17.4436755,4.15834994 Z" id="path104"></path>
                                </g>
                            </g>
                        </g>
                    </g>
                </g>
            </g>
        </g>
    </g>
</svg>