<?xml version="1.0" encoding="UTF-8"?>
<svg width="156px" height="220px" viewBox="0 0 156 220" version="1.1" xmlns="http://www.w3.org/2000/svg" xmlns:xlink="http://www.w3.org/1999/xlink">
    <!-- Generator: Sketch 58 (84663) - https://sketch.com -->
    <title>placeh_poster</title>
    <desc>Created with Sketch.</desc>
    <g id="Page-1" stroke="none" stroke-width="1" fill="none" fill-rule="evenodd">
        <g id="placeholder" transform="translate(-36.000000, -35.000000)">
            <g id="placeh_poster" transform="translate(36.000000, 35.000000)">
                <rect id="Rectangle" fill-opacity="0.1" fill="#000000" fill-rule="nonzero" x="0" y="0" width="156" height="220" rx="4"></rect>
                <g id="Group-Copy" opacity="0.1" transform="translate(28.000000, 102.000000)" fill="#FFFFFF">
                    <path d="M12.5303124,0 L12.5303124,15.8898305 L7.81597009e-14,15.8898305 L7.81597009e-14,0 L12.5303124,0 Z M8.04419928,1.12766539 C4.21376631,1.12766539 1.10887097,4.17970618 1.10887097,7.94493379 C1.10887097,11.7101614 4.21376631,14.7621651 8.04419928,14.7621651 C9.2580665,14.7621651 10.3987088,14.4553858 11.391129,13.9168078 L11.391129,13.9168078 L11.391129,11.6172788 C10.5032673,12.3995531 9.33034878,12.875604 8.04419928,12.875604 C5.27383101,12.875604 3.02814084,10.6681422 3.02814084,7.94493379 C3.02814084,5.22172542 5.27383101,3.01426358 8.04419928,3.01426358 C9.33034878,3.01426358 10.5032673,3.49031449 11.391129,4.27258874 L11.391129,4.27258874 L11.391129,1.97302268 C10.3987088,1.43448176 9.2580665,1.12766539 8.04419928,1.12766539 Z" id="Combined-Shape"></path>
                    <path d="M17.5424374,0 L17.5424374,15.8898305 L13.644118,15.8898305 L13.644118,0 L17.5424374,0 Z M16.3880273,1.12766539 L14.7177419,1.12766539 L14.7177419,14.7621651 L16.3880273,14.7621651 L16.3880273,1.12766539 Z" id="Combined-Shape"></path>
                    <path d="M30.908104,0 L30.908104,15.8898305 L18.656243,15.8898305 L18.656243,0 L30.908104,0 Z M29.7379032,1.12766539 L28.0745968,1.12766539 L28.0745968,10.2173319 L19.7580645,1.12766539 L19.7580645,14.7621651 L21.421371,14.7621651 L21.421371,5.81452467 L29.7379032,14.7621651 L29.7379032,1.12766539 Z" id="Combined-Shape"></path>
                    <path d="M39.8185484,0 L39.8185484,15.8898305 L32.0219095,15.8898305 L32.0219095,0 L39.8185484,0 Z M38.7096774,1.12766539 L33.1653226,1.12766539 L33.1653226,14.7621651 L38.7096774,14.7621651 L38.7096774,13.0578527 L34.828629,13.0578527 L34.828629,8.79707149 L38.7096774,8.79707149 L38.7096774,7.09275902 L34.828629,7.09275902 L34.828629,2.83197786 L38.7096774,2.83197786 L38.7096774,1.12766539 Z" id="Combined-Shape"></path>
                    <path d="M52.0731893,0 L52.0731893,15.8898305 L40.9274194,15.8898305 L40.9274194,0 L52.0731893,0 Z M46.2605029,1.12766539 L41.9990695,1.12766539 L41.9990695,14.7621651 L43.6693548,14.7621651 L43.6693548,8.79707149 L44.5080586,8.79707149 L48.6802109,14.7621651 L50.9072581,14.7621651 L46.6871023,8.78161748 C48.2393432,8.56627038 49.6247745,7.18240771 49.6247745,4.95466133 C49.6247745,2.52433829 48.0772073,1.12766539 46.2605029,1.12766539 L46.2605029,1.12766539 Z" id="Combined-Shape"></path>
                    <path d="M84.3959221,0 L84.3959221,15.8898305 L68.7918442,15.8898305 L68.7918442,0 L84.3959221,0 Z M81.1884415,1.12766539 L76.6633065,10.5779825 L72.1381714,1.12766539 L69.9596774,14.7621651 L71.882061,14.7621651 L72.9072624,6.86572166 L76.6633065,14.7621651 L80.4193144,6.86572166 L81.4445519,14.7621651 L83.3669355,14.7621651 L81.1884415,1.12766539 Z" id="Combined-Shape"></path>
                    <path d="M100,0 L100,15.8898305 L85.5104991,15.8898305 L85.5104991,0 L100,0 Z M92.7563682,1.18805868 L86.6216075,14.7621651 L88.6763941,14.7621651 L90.1363662,11.1950874 L90.1363662,11.1950874 L95.3763703,11.1950874 L96.8363797,14.7621651 L98.891129,14.7621651 L92.7563682,1.18805868 Z" id="Combined-Shape"></path>
                    <path d="M67.6772672,0 L67.6772672,15.8898305 L53.1877663,15.8898305 L53.1877663,0 L67.6772672,0 Z M60.3974973,1.18805868 L54.2627365,14.7621651 L56.3175231,14.7621651 L57.7774952,11.1950874 L57.7774952,11.1950874 L63.0174993,11.1950874 L64.4775087,14.7621651 L66.5322581,14.7621651 L60.3974973,1.18805868 Z" id="Combined-Shape"></path>
                    <path d="M43.6693548,2.83197786 L45.189726,2.83197786 C46.8044351,2.83197786 47.6961253,3.69483821 47.6961253,4.98051566 C47.6961253,6.26619311 46.9035264,6.95073298 45.2045766,6.95073298 L43.6693548,6.95073298 L43.6693548,2.83197786 Z" id="path78-path"></path>
                    <path d="M62.4191434,9.73286053 L60.3974973,4.79362009 L58.3758885,9.73286053 C59.7236898,9.73286053 61.0713048,9.73286053 62.4191434,9.73286053 Z" id="path118-path"></path>
                    <path d="M94.7780143,9.73286053 L92.7563682,4.79362009 L90.7347594,9.73286053 C92.0825608,9.73286053 93.4301757,9.73286053 94.7780143,9.73286053 Z" id="path118-path"></path>
                </g>
            </g>
        </g>
    </g>
</svg>