<?xml version="1.0" encoding="UTF-8"?>
<svg width="32px" height="32px" viewBox="0 0 32 32" version="1.1" xmlns="http://www.w3.org/2000/svg" xmlns:xlink="http://www.w3.org/1999/xlink">
    <!-- Generator: Sketch 58 (84663) - https://sketch.com -->
    <title>ico_profile</title>
    <desc>Created with Sketch.</desc>
    <g id="Page-1" stroke="none" stroke-width="1" fill="none" fill-rule="evenodd">
        <g id="Movie-list" transform="translate(-1419.000000, -19.000000)">
            <g id="ico_profile" transform="translate(1419.000000, 19.000000)">
                <circle id="Shape" fill="#FFFF67" cx="16" cy="16" r="16"></circle>
                <path d="M22.2657391,19.5807733 L18.9429565,18.1798133 C18.6295652,18.04752 18.4347826,17.78176 18.4347826,17.48608 L18.4347826,16.49432 C18.5144348,16.4121867 18.5982609,16.3186133 18.6848696,16.21536 C19.1158261,15.7020267 19.4612174,15.1306133 19.7123478,14.51432 C20.2031304,14.3245333 20.5217391,13.9153333 20.5217391,13.4533333 L20.5217391,12.28 C20.5217391,11.99752 20.3965217,11.72384 20.173913,11.51 L20.173913,9.94976 C20.1933913,9.78842667 20.269913,8.82805333 19.4462609,8.03576 C18.7318261,7.34848 17.5725217,7 16,7 C14.4274783,7 13.2681739,7.34848 12.5537391,8.03546667 C11.730087,8.82776 11.8066087,9.78842667 11.826087,9.94976 L11.826087,11.51 C11.6034783,11.72384 11.4782609,11.99752 11.4782609,12.28 L11.4782609,13.4533333 C11.4782609,13.81032 11.6706087,14.1432533 11.9989565,14.3653067 C12.3175652,15.4292267 12.9843478,16.2309067 13.2173913,16.48816 L13.2173913,17.4588 C13.2173913,17.7427467 13.0337391,18.0032267 12.7384348,18.1393333 L9.63547826,19.5666933 C8.62643478,20.03104 8,20.9210133 8,21.8901867 L8,22.84 C8,24.23216 13.2330435,24.6 16,24.6 C18.7669565,24.6 24,24.23216 24,22.84 L24,21.9473867 C24,20.9389067 23.3353043,20.03192 22.2657391,19.5807733 Z" id="Path" fill="#323C43"></path>
            </g>
        </g>
    </g>
</svg>