<?xml version="1.0" encoding="UTF-8"?>
<svg width="330px" height="330px" viewBox="0 0 330 330" version="1.1" xmlns="http://www.w3.org/2000/svg" xmlns:xlink="http://www.w3.org/1999/xlink">
    <!-- Generator: Sketch 58 (84663) - https://sketch.com -->
    <title>Group 3 Copy 2</title>
    <desc>Created with Sketch.</desc>
    <g id="Page-1" stroke="none" stroke-width="1" fill="none" fill-rule="evenodd">
        <g id="Artboard" transform="translate(-76.000000, -145.000000)">
            <g id="Group-3-Copy-2" transform="translate(241.000000, 310.000000) rotate(90.000000) translate(-241.000000, -310.000000) translate(76.000000, 145.000000)">
                <g id="Group-2" transform="translate(0.000000, 0.000000)" fill="#000000">
                    <g id="Group-4">
                        <rect id="Rectangle" fill-opacity="0.4" transform="translate(165.000000, 165.000000) rotate(90.000000) translate(-165.000000, -165.000000) " x="0" y="0" width="330" height="330"></rect>
                        <rect id="Rectangle" opacity="0.329450335" x="10" y="10" width="20" height="24" rx="5"></rect>
                        <rect id="Rectangle-Copy-3" opacity="0.329450335" x="300" y="10" width="20" height="24" rx="5"></rect>
                        <rect id="Rectangle-Copy" opacity="0.329450335" x="10" y="46" width="20" height="24" rx="5"></rect>
                        <rect id="Rectangle-Copy-8" opacity="0.329450335" x="300" y="46" width="20" height="24" rx="5"></rect>
                        <rect id="Rectangle-Copy-2" opacity="0.329450335" x="10" y="82" width="20" height="24" rx="5"></rect>
                        <rect id="Rectangle-Copy-9" opacity="0.329450335" x="300" y="82" width="20" height="24" rx="5"></rect>
                        <rect id="Rectangle-Copy-9" opacity="0.329450335" x="300" y="190" width="20" height="24" rx="5"></rect>
                        <rect id="Rectangle-Copy-6" opacity="0.329450335" x="10" y="118" width="20" height="24" rx="5"></rect>
                        <rect id="Rectangle-Copy-10" opacity="0.329450335" x="300" y="118" width="20" height="24" rx="5"></rect>
                        <rect id="Rectangle-Copy-7" opacity="0.329450335" x="10" y="154" width="20" height="24" rx="5"></rect>
                        <rect id="Rectangle-Copy-11" opacity="0.329450335" x="300" y="154" width="20" height="24" rx="5"></rect>
                        <rect id="Rectangle-Copy-9" opacity="0.329450335" x="300" y="298" width="20" height="24" rx="5"></rect>
                        <rect id="Rectangle-Copy-10" opacity="0.329450335" x="300" y="226" width="20" height="24" rx="5"></rect>
                        <rect id="Rectangle-Copy-11" opacity="0.329450335" x="300" y="262" width="20" height="24" rx="5"></rect>
                        <rect id="Rectangle-Copy-9" opacity="0.329450335" x="10" y="190" width="20" height="24" rx="5"></rect>
                        <rect id="Rectangle-Copy-9" opacity="0.329450335" x="10" y="298" width="20" height="24" rx="5"></rect>
                        <rect id="Rectangle-Copy-10" opacity="0.329450335" x="10" y="226" width="20" height="24" rx="5"></rect>
                        <rect id="Rectangle-Copy-11" opacity="0.329450335" x="10" y="262" width="20" height="24" rx="5"></rect>
                    </g>
                </g>
                <g id="Group-Copy" opacity="0.2" transform="translate(165.500000, 165.000000) rotate(270.000000) translate(-165.500000, -165.000000) translate(62.500000, 148.500000)" fill="#FFFFFF">
                    <path d="M25,0 L25,33 L7.81597009e-14,33 L7.81597009e-14,0 L25,0 Z M16.0494787,2.34193548 C8.40714534,2.34193548 2.21237693,8.68041379 2.21237693,16.5000385 C2.21237693,24.3196632 8.40714534,30.6580645 16.0494787,30.6580645 C18.4713401,30.6580645 20.747106,30.0209453 22.7271449,28.9024265 L22.7271449,28.9024265 L22.7271449,24.1267647 C20.9557172,25.7513918 18.6155549,26.7400544 16.0494787,26.7400544 C10.5221459,26.7400544 6.04163076,22.1555976 6.04163076,16.5000385 C6.04163076,10.8444794 10.5221459,6.26002261 16.0494787,6.26002261 C18.6155549,6.26002261 20.9557172,7.24868513 22.7271449,8.87331229 L22.7271449,8.87331229 L22.7271449,4.09757351 C20.747106,2.97913171 18.4713401,2.34193548 16.0494787,2.34193548 Z" id="Combined-Shape"></path>
                    <path d="M36,0 L36,33 L28,33 L28,0 L36,0 Z M33.6309584,2.34193548 L30.203255,2.34193548 L30.203255,30.6580645 L33.6309584,30.6580645 L33.6309584,2.34193548 Z" id="Combined-Shape"></path>
                    <path d="M63,0 L63,33 L38,33 L38,0 L63,0 Z M60.6121979,2.34193548 L57.2182106,2.34193548 L57.2182106,21.2193548 L40.2482739,2.34193548 L40.2482739,30.6580645 L43.6422612,30.6580645 L43.6422612,12.0756048 L60.6121979,30.6580645 L60.6121979,2.34193548 Z" id="Combined-Shape"></path>
                    <path d="M82,0 L82,33 L66,33 L66,0 L82,0 Z M79.7244123,2.34193548 L68.3464738,2.34193548 L68.3464738,30.6580645 L79.7244123,30.6580645 L79.7244123,27.1185484 L71.7598553,27.1185484 L71.7598553,18.2697581 L79.7244123,18.2697581 L79.7244123,14.7302419 L71.7598553,14.7302419 L71.7598553,5.88145161 L79.7244123,5.88145161 L79.7244123,2.34193548 Z" id="Combined-Shape"></path>
                    <path d="M107,0 L107,33 L83,33 L83,0 L107,0 Z M94.4836397,2.34193548 L85.3075663,2.34193548 L85.3075663,30.6580645 L88.9041638,30.6580645 L88.9041638,18.2697581 L90.7101306,18.2697581 L99.6939564,30.6580645 L104.48942,30.6580645 L95.4022289,18.2376632 C98.7446433,17.7904303 101.727869,14.9164243 101.727869,10.2898406 C101.727869,5.24254576 98.3955188,2.34193548 94.4836397,2.34193548 L94.4836397,2.34193548 Z" id="Combined-Shape"></path>
                    <path d="M173,0 L173,33 L142,33 L142,0 L173,0 Z M166.627826,2.34193548 L157.637921,21.9683541 L148.648015,2.34193548 L144.320088,30.6580645 L148.139211,30.6580645 L150.175937,14.2587307 L157.637921,30.6580645 L165.099832,14.2587307 L167.13663,30.6580645 L170.955753,30.6580645 L166.627826,2.34193548 Z" id="Combined-Shape"></path>
                    <path d="M206,0 L206,33 L176,33 L176,0 L206,0 Z M191.002316,2.46736026 L178.300511,30.6580645 L182.554874,30.6580645 L185.577695,23.2499575 L185.577695,23.2499575 L196.426938,23.2499575 L199.449836,30.6580645 L203.704122,30.6580645 L191.002316,2.46736026 Z" id="Combined-Shape"></path>
                    <path d="M140,0 L140,33 L110,33 L110,0 L140,0 Z M124.927493,2.46736026 L112.225688,30.6580645 L116.480051,30.6580645 L119.502872,23.2499575 L119.502872,23.2499575 L130.352115,23.2499575 L133.375013,30.6580645 L137.629299,30.6580645 L124.927493,2.46736026 Z" id="Combined-Shape"></path>
                    <path d="M90,6 L93.0205272,6 C96.2284757,6 98,7.6759634 98,10.173179 C98,12.6703946 96.4253408,14 93.0500309,14 L90,14 L90,6 Z" id="path78-path"></path>
                    <path d="M129,20 L124.999963,11 L121,20 C123.666765,20 126.333161,20 129,20 Z" id="path118-path"></path>
                    <path d="M195,20 L190.999963,11 L187,20 C189.666765,20 192.333161,20 195,20 Z" id="path118-path"></path>
                </g>
            </g>
        </g>
    </g>
</svg>