<?xml version="1.0" encoding="UTF-8"?>
<svg width="16px" height="16px" viewBox="0 0 16 16" version="1.1" xmlns="http://www.w3.org/2000/svg" xmlns:xlink="http://www.w3.org/1999/xlink">
    <!-- Generator: Sketch 58 (84663) - https://sketch.com -->
    <title>update-arrow</title>
    <desc>Created with Sketch.</desc>
    <g id="Page-1" stroke="none" stroke-width="1" fill="none" fill-rule="evenodd">
        <g id="filter" transform="translate(-631.000000, -251.000000)" fill="#FFFFFF" fill-rule="nonzero">
            <g id="update-arrow" transform="translate(631.000000, 251.000000)">
                <path d="M8.32181818,0.290181818 C5.24909091,0.290181818 2.60981818,2.17418182 1.44545455,4.86 L0.670545455,4.54945455 C0.486909091,4.47563636 0.277090909,4.52 0.139272727,4.66145455 C0.00109090909,4.80327273 -0.0385454545,5.01381818 0.0392727273,5.19527273 L1.272,8.076 C1.32327273,8.19490909 1.41890909,8.28945455 1.53963636,8.33745455 C1.66,8.38618182 1.79454545,8.38472727 1.91345455,8.33309091 L4.79418182,7.10036364 C4.97563636,7.02290909 5.09236364,6.84327273 5.09018182,6.64545455 C5.08763636,6.448 4.96654545,6.27127273 4.78327273,6.19781818 L3.80654545,5.80654545 C4.59272727,4.05636364 6.31745455,2.83563636 8.32145455,2.83563636 C11.064,2.83563636 13.2952727,5.11636364 13.2952727,7.92036364 C13.2952727,10.7243636 11.0632727,13.0054545 8.32145455,13.0054545 C7.10363636,13.0054545 5.98945455,12.5545455 5.12545455,11.8076364 C4.62109091,11.372 3.87018182,11.3927273 3.40072727,11.8661818 C3.39454545,11.8727273 3.38872727,11.8781818 3.38254545,11.8847273 C2.86509091,12.4054545 2.90254545,13.2541818 3.45781818,13.7334545 C4.76945455,14.8658182 6.46763636,15.5509091 8.32145455,15.5509091 C12.4672727,15.5509091 15.8407274,12.1283636 15.8407274,7.92036364 C15.8414545,3.71309091 12.468,0.290181818 8.32181818,0.290181818 Z" id="Path"></path>
            </g>
        </g>
    </g>
</svg>