<?xml version="1.0" encoding="UTF-8"?>
<svg width="50px" height="50px" viewBox="0 0 50 50" version="1.1" xmlns="http://www.w3.org/2000/svg" xmlns:xlink="http://www.w3.org/1999/xlink">
    <!-- Generator: Sketch 55.1 (78136) - https://sketchapp.com -->
    <title>Group 7</title>
    <desc>Created with Sketch.</desc>
    <g id="Page-1" stroke="none" stroke-width="1" fill="none" fill-rule="evenodd">
        <g id="INDEX-2-Copy" transform="translate(-1401.000000, -207.000000)" fill="#FFFFFF">
            <g id="Group-7" transform="translate(1401.000000, 207.000000)">
                <path d="M8,0 L42,0 C46.418278,-8.11624501e-16 50,3.581722 50,8 L50,42 C50,46.418278 46.418278,50 42,50 L8,50 C3.581722,50 5.41083001e-16,46.418278 0,42 L0,8 C-5.41083001e-16,3.581722 3.581722,8.11624501e-16 8,0 Z M23.8214286,27.8571429 C23.8214286,26.3714211 23.4428609,25.2571466 22.6857143,24.5142857 C22.0285681,23.8571396 21.0285781,23.4357152 19.6857143,23.25 L17.8428571,22.9928571 C17.385712,22.935714 17.0357155,22.7857155 16.7928571,22.5428571 C16.5928561,22.3428561 16.4928571,22.1071442 16.4928571,21.8357143 C16.4928571,21.4642839 16.6499984,21.1357157 16.9642857,20.85 C17.278573,20.5642843 17.7357113,20.4214286 18.3357143,20.4214286 C19.021432,20.4214286 19.5821407,20.4785709 20.0178571,20.5928571 C20.4535736,20.7071434 20.857141,20.9499981 21.2285714,21.3214286 L23.5857143,18.9642857 C22.3714225,17.7499939 20.6571539,17.1428571 18.4428571,17.1428571 C16.7428486,17.1428571 15.3892908,17.5928526 14.3821429,18.4928571 C13.374995,19.3928616 12.8714286,20.5499929 12.8714286,21.9642857 C12.8714286,23.2928638 13.2214251,24.3142821 13.9214286,25.0285714 C14.6071463,25.7285749 15.6285646,26.1785704 16.9857143,26.3785714 L18.8285714,26.6357143 C19.2857166,26.6928574 19.6214275,26.8285704 19.8357143,27.0428571 C20.0357153,27.2571439 20.1357143,27.5571409 20.1357143,27.9428571 C20.1357143,28.8571474 19.4071501,29.3142857 17.95,29.3142857 C16.3928494,29.3142857 15.2571464,28.9571464 14.5428571,28.2428571 L12.1428571,30.6428571 C12.8714322,31.4000038 13.7035668,31.9249985 14.6392857,32.2178571 C15.5750047,32.5107157 16.6714223,32.6571429 17.9285714,32.6571429 C19.6142941,32.6571429 21.0178515,32.2321471 22.1392857,31.3821429 C23.2607199,30.5321386 23.8214286,29.3571504 23.8214286,27.8571429 Z M37.5142857,21.6642857 C37.4428568,21.0071396 37.235716,20.4000028 36.8928571,19.8428571 C35.835709,18.1285629 34.1857255,17.2714286 31.9428571,17.2714286 L26.2857143,17.2714286 L26.2857143,32.5285714 L31.9428571,32.5285714 C34.1857255,32.5285714 35.835709,31.6714371 36.8928571,29.9571429 C37.235716,29.3999972 37.4464282,28.7964318 37.525,28.1464286 C37.6035718,27.4964253 37.6428571,26.4142933 37.6428571,24.9 C37.6428571,23.3857067 37.6000004,22.3071461 37.5142857,21.6642857 Z" id="Combined-Shape"></path>
                <path d="M33.7714286,27.75 C33.8285717,27.3357122 33.8571429,26.5142919 33.8571429,25.2857143 C33.8571429,24.0571367 33.8285717,23.2357164 33.7714286,22.8214286 C33.7142854,22.4071408 33.6071436,22.0857154 33.45,21.8571429 C33.0642838,21.2857114 32.4642898,21 31.65,21 L30,21 L30,29.5714286 L31.65,29.5714286 C32.4642898,29.5714286 33.0642838,29.2857171 33.45,28.7142857 C33.6071436,28.4857131 33.7142854,28.1642878 33.7714286,27.75 Z" id="SD"></path>
            </g>
        </g>
    </g>
</svg>