<?xml version="1.0" encoding="UTF-8"?>
<svg width="26px" height="28px" viewBox="0 0 26 28" version="1.1" xmlns="http://www.w3.org/2000/svg" xmlns:xlink="http://www.w3.org/1999/xlink">
    <!-- Generator: Sketch 57.1 (83088) - https://sketch.com -->
    <title>Shape</title>
    <desc>Created with Sketch.</desc>
    <g id="Page-1" stroke="none" stroke-width="1" fill="none" fill-rule="evenodd" opacity="0.200125558">
        <g id="profile" transform="translate(-470.000000, -347.000000)" fill="#FFFFFF">
            <path d="M493.181826,367.014867 L487.782304,364.786067 C487.273043,364.5756 486.956522,364.1528 486.956522,363.6824 L486.956522,362.1046 C487.085957,361.973933 487.222174,361.825067 487.362913,361.6608 C488.063217,360.844133 488.624478,359.935067 489.032565,358.9546 C489.830087,358.652667 490.347826,358.001667 490.347826,357.266667 L490.347826,355.4 C490.347826,354.9506 490.144348,354.5152 489.782609,354.175 L489.782609,351.6928 C489.814261,351.436133 489.938609,349.908267 488.600174,348.6478 C487.439217,347.5544 485.555348,347 483,347 C480.444652,347 478.560783,347.5544 477.399826,348.647333 C476.061391,349.9078 476.185739,351.436133 476.217391,351.6928 L476.217391,354.175 C475.855652,354.5152 475.652174,354.9506 475.652174,355.4 L475.652174,357.266667 C475.652174,357.8346 475.964739,358.364267 476.498304,358.717533 C477.016043,360.410133 478.099565,361.685533 478.478261,362.0948 L478.478261,363.639 C478.478261,364.090733 478.179826,364.505133 477.699957,364.721667 L472.657652,366.992467 C471.017957,367.7312 470,369.147067 470,370.688933 L470,372.2 C470,374.4148 478.503696,375 483,375 C487.496304,375 496,374.4148 496,372.2 L496,370.779933 C496,369.175533 494.91987,367.7326 493.181826,367.014867 Z" id="Shape"></path>
        </g>
    </g>
</svg>