<?xml version="1.0" encoding="UTF-8"?>
<svg width="120px" height="24px" viewBox="0 0 120 24" version="1.1" xmlns="http://www.w3.org/2000/svg" xmlns:xlink="http://www.w3.org/1999/xlink">
    <!-- Generator: Sketch 55.2 (78181) - https://sketchapp.com -->
    <title>Combined-Shape</title>
    <desc>Created with Sketch.</desc>
    <g id="Page-1" stroke="none" stroke-width="1" fill="none" fill-rule="evenodd">
        <g id="Movie-card" transform="translate(-679.000000, -506.000000)" fill="#313E45" fill-rule="nonzero">
            <g id="Group-5" transform="translate(598.000000, 506.000000)">
                <g id="Group-2">
                    <g id="starz" transform="translate(24.000000, 0.000000)">
                        <path d="M57,0 L177,0 L177,24 L57,24 L57,0 Z M69,18.144686 L74.7683172,21.3333333 L73.6666667,14.5796699 L78.3333333,9.79669888 L71.8841587,8.81135265 L69,2.66666667 L66.1158414,8.81135265 L59.6666667,9.79669888 L64.3333333,14.5796699 L63.2316828,21.3333333 L69,18.144686 Z M93,18.144686 L98.7683172,21.3333333 L97.6666667,14.5796699 L102.333333,9.79669888 L95.8841587,8.81135265 L93,2.66666667 L90.1158413,8.81135265 L83.6666667,9.79669888 L88.3333333,14.5796699 L87.2316828,21.3333333 L93,18.144686 Z M117,18.144686 L122.768317,21.3333333 L121.666667,14.5796699 L126.333333,9.79669888 L119.884159,8.81135265 L117,2.66666667 L114.115841,8.81135265 L107.666667,9.79669888 L112.333333,14.5796699 L111.231683,21.3333333 L117,18.144686 Z M141,18.144686 L146.768317,21.3333333 L145.666667,14.5796699 L150.333333,9.79669888 L143.884159,8.81135265 L141,2.66666667 L138.115841,8.81135265 L131.666667,9.79669888 L136.333333,14.5796699 L135.231683,21.3333333 L141,18.144686 Z M165,18.144686 L170.768317,21.3333333 L169.666667,14.5796699 L174.333333,9.79669888 L167.884159,8.81135265 L165,2.66666667 L162.115841,8.81135265 L155.666667,9.79669888 L160.333333,14.5796699 L159.231683,21.3333333 L165,18.144686 Z" id="Combined-Shape"></path>
                    </g>
                </g>
            </g>
        </g>
    </g>
</svg>