<?xml version="1.0" encoding="UTF-8"?>
<svg width="53px" height="53px" viewBox="0 0 53 53" version="1.1" xmlns="http://www.w3.org/2000/svg" xmlns:xlink="http://www.w3.org/1999/xlink">
    <!-- Generator: Sketch 58 (84663) - https://sketch.com -->
    <title>play-button (1)</title>
    <desc>Created with Sketch.</desc>
    <g id="Page-1" stroke="none" stroke-width="1" fill="none" fill-rule="evenodd">
        <g id="Show-card-Copy-4" transform="translate(-921.000000, -765.000000)" fill-rule="nonzero">
            <g id="Group-3-Copy" transform="translate(782.000000, 698.000000)">
                <g id="Group-2">
                    <g id="play-button-(1)" transform="translate(139.511628, 68.000000)">
                        <path d="M25.8488372,0 C11.7657649,0 0.348837209,11.4167285 0.348837209,25.5 C0.348837209,39.5832715 11.7657649,51 25.8488372,51 C39.9319095,51 51.3488372,39.5832715 51.3488372,25.5 C51.3488372,11.4167285 39.9319095,0 25.8488372,0 Z" id="Shape" stroke="#FFFFFF"></path>
                        <path d="M34.5968372,26.8431762 L21.7968372,34.7595404 C21.5378372,34.9195499 21.2433372,35 20.9488372,35 C20.6820372,35 20.4148372,34.9342942 20.1730372,34.8012993 C19.6644372,34.5222474 19.3488372,33.9926426 19.3488372,33.4167271 L19.3488372,17.5839986 C19.3488372,17.0080831 19.6644372,16.4784783 20.1730372,16.1994265 C20.6816372,15.9187914 21.3035372,15.9358116 21.7968372,16.2411853 L34.5968372,24.1575496 C35.0644372,24.4474864 35.3488372,24.9546285 35.3488372,25.5003629 C35.3488372,26.0460972 35.0644372,26.5533383 34.5968372,26.8431762 Z" id="Path" fill="#FFFFFF"></path>
                    </g>
                </g>
            </g>
        </g>
    </g>
</svg>