<?xml version="1.0" encoding="UTF-8"?>
<svg width="96px" height="58px" viewBox="0 0 96 58" version="1.1" xmlns="http://www.w3.org/2000/svg" xmlns:xlink="http://www.w3.org/1999/xlink">
    <!-- Generator: Sketch 58 (84663) - https://sketch.com -->
    <title>placeh_tvchannel</title>
    <desc>Created with Sketch.</desc>
    <g id="Page-1" stroke="none" stroke-width="1" fill="none" fill-rule="evenodd">
        <g id="placeholder" transform="translate(-412.000000, -312.000000)">
            <g id="placeh_tvchannel" transform="translate(412.000000, 312.000000)">
                <rect id="Rectangle" fill-opacity="0.1" fill="#000000" x="0" y="0" width="96" height="58" rx="2"></rect>
                <g id="Group-Copy" opacity="0.1" transform="translate(13.000000, 24.000000)" fill="#FFFFFF">
                    <path d="M8,0 L8,11 L7.81597009e-14,11 L7.81597009e-14,0 L8,0 Z M5.13583317,0.780645161 C2.69028651,0.780645161 0.707960619,2.89347126 0.707960619,5.50001283 C0.707960619,8.10655439 2.69028651,10.2193548 5.13583317,10.2193548 C5.91082883,10.2193548 6.6390739,10.0069818 7.27268636,9.63414216 L7.27268636,9.63414216 L7.27268636,8.0422549 C6.7058295,8.58379728 5.95697758,8.91335146 5.13583317,8.91335146 C3.36708668,8.91335146 1.93332184,7.38519921 1.93332184,5.50001283 C1.93332184,3.61482645 3.36708668,2.0866742 5.13583317,2.0866742 C5.95697758,2.0866742 6.7058295,2.41622838 7.27268636,2.95777076 L7.27268636,2.95777076 L7.27268636,1.36585784 C6.6390739,0.993043904 5.91082883,0.780645161 5.13583317,0.780645161 Z" id="Combined-Shape"></path>
                    <path d="M12,0 L12,11 L9,11 L9,0 L12,0 Z M11.1116094,0.780645161 L9.82622061,0.780645161 L9.82622061,10.2193548 L11.1116094,10.2193548 L11.1116094,0.780645161 Z" id="Combined-Shape"></path>
                    <path d="M21,0 L21,11 L13,11 L13,0 L21,0 Z M20.2359033,0.780645161 L19.1498274,0.780645161 L19.1498274,7.07311828 L13.7194476,0.780645161 L13.7194476,10.2193548 L14.8055236,10.2193548 L14.8055236,4.02520161 L20.2359033,10.2193548 L20.2359033,0.780645161 Z" id="Combined-Shape"></path>
                    <path d="M27,0 L27,11 L22,11 L22,0 L27,0 Z M26.2888788,0.780645161 L22.7332731,0.780645161 L22.7332731,10.2193548 L26.2888788,10.2193548 L26.2888788,9.03951613 L23.7999548,9.03951613 L23.7999548,6.08991935 L26.2888788,6.08991935 L26.2888788,4.91008065 L23.7999548,4.91008065 L23.7999548,1.96048387 L26.2888788,1.96048387 L26.2888788,0.780645161 Z" id="Combined-Shape"></path>
                    <path d="M36,0 L36,11 L28,11 L28,0 L36,0 Z M31.8278799,0.780645161 L28.7691888,0.780645161 L28.7691888,10.2193548 L29.9680546,10.2193548 L29.9680546,6.08991935 L30.5700435,6.08991935 L33.5646521,10.2193548 L35.1631399,10.2193548 L32.1340763,6.07922106 C33.2482144,5.93014344 34.2426231,4.97214145 34.2426231,3.42994688 C34.2426231,1.74751525 33.1318396,0.780645161 31.8278799,0.780645161 L31.8278799,0.780645161 Z" id="Combined-Shape"></path>
                    <path d="M58,0 L58,11 L47,11 L47,0 L58,0 Z M55.738906,0.780645161 L52.5489395,7.32278469 L49.3589731,0.780645161 L47.8232569,10.2193548 L49.1784296,10.2193548 L49.9011391,4.75291025 L52.5489395,10.2193548 L55.1967145,4.75291025 L55.9194495,10.2193548 L57.2746221,10.2193548 L55.738906,0.780645161 Z" id="Combined-Shape"></path>
                    <path d="M69,0 L69,11 L59,11 L59,0 L69,0 Z M64.0007721,0.82245342 L59.7668369,10.2193548 L61.1849579,10.2193548 L62.1925648,7.74998584 L62.1925648,7.74998584 L65.8089793,7.74998584 L66.816612,10.2193548 L68.2347073,10.2193548 L64.0007721,0.82245342 Z" id="Combined-Shape"></path>
                    <path d="M47,0 L47,11 L37,11 L37,0 L47,0 Z M41.9758312,0.82245342 L37.741896,10.2193548 L39.160017,10.2193548 L40.1676239,7.74998584 L40.1676239,7.74998584 L43.7840384,7.74998584 L44.791671,10.2193548 L46.2097663,10.2193548 L41.9758312,0.82245342 Z" id="Combined-Shape"></path>
                    <path d="M30,2 L31.1326977,2 C32.3356784,2 33,2.62848628 33,3.56494213 C33,4.50139798 32.4095028,5 31.1437616,5 L30,5 L30,2 Z" id="path78-path"></path>
                    <path d="M43,7 L41.4999862,4 L40,7 C41.0000369,7 41.9999355,7 43,7 Z" id="path118-path"></path>
                    <path d="M65,7 L63.4999862,4 L62,7 C63.0000369,7 63.9999355,7 65,7 Z" id="path118-path"></path>
                </g>
            </g>
        </g>
    </g>
</svg>