<?xml version="1.0" encoding="UTF-8"?>
<svg width="20px" height="14px" viewBox="0 0 20 14" version="1.1" xmlns="http://www.w3.org/2000/svg" xmlns:xlink="http://www.w3.org/1999/xlink">
    <!-- Generator: Sketch 57.1 (83088) - https://sketch.com -->
    <title>Group 10</title>
    <desc>Created with Sketch.</desc>
    <g id="Page-1" stroke="none" stroke-width="1" fill="none" fill-rule="evenodd">
        <g id="profile" transform="translate(-426.000000, -582.000000)">
            <g id="Group-10" transform="translate(426.000000, 581.000000)">
                <path d="M16.3636364,4.5 L12.7272727,8 L15.4545455,8 C15.4545455,10.89625 13.0090909,13.25 10,13.25 C9.08181818,13.25 8.20909091,13.03125 7.45454545,12.6375 L6.12727273,13.915 C7.24545455,14.5975 8.57272727,15 10,15 C14.0181818,15 17.2727273,11.8675 17.2727273,8 L20,8 L16.3636364,4.5 L16.3636364,4.5 Z M4.54545455,8 C4.54545455,5.10375 6.99090909,2.75 10,2.75 C10.9181818,2.75 11.7909091,2.96875 12.5454545,3.3625 L13.8727273,2.085 C12.7545455,1.4025 11.4272727,1 10,1 C5.98181818,1 2.72727273,4.1325 2.72727273,8 L0,8 L3.63636364,11.5 L7.27272727,8 L4.54545455,8 L4.54545455,8 Z" id="Fill-164" fill="#FFFFFF"></path>
                <rect id="Rectangle-Copy" x="0" y="0" width="20" height="16"></rect>
            </g>
        </g>
    </g>
</svg>