<svg xmlns="http://www.w3.org/2000/svg" width="73.313" height="69.844" viewBox="0 0 73.313 69.844">
  <g id="Artwork_82" data-name="Artwork 82" transform="translate(36.656 34.922)">
    <g id="Group_736" data-name="Group 736" transform="translate(-36.656 -34.922)">
      <path id="Path_1102" data-name="Path 1102" d="M265.439,40.3a8.15,8.15,0,0,1-.3.838,4.442,4.442,0,0,1-.545.915,5.661,5.661,0,0,0-1.1,1.906c-.328.95-.663,1.906-.964,2.87a10.979,10.979,0,0,0-.237,1.285,1.651,1.651,0,0,1-.545.929c-.266.279-.615.768-.922,1.166s-.524.719-.81,1.054a3.239,3.239,0,0,0-.929,2.465,5.469,5.469,0,0,1-.726,3.031,19.093,19.093,0,0,0-1.208,3.024,2.446,2.446,0,0,1-1.054,1.467,2.434,2.434,0,0,0-.873,1.418,8.262,8.262,0,0,0-.426,4.393c.07.426.244.838.314,1.264a4.038,4.038,0,0,1,.028.992.292.292,0,0,1-.2.21,13.254,13.254,0,0,1-3.331.189,6.577,6.577,0,0,1-1.138-.272.416.416,0,0,1-.321-.363,6.25,6.25,0,0,1,.126-3.024c.405-1.529.782-3.066,1.18-4.6a1.632,1.632,0,0,0-.1-1.047,3.559,3.559,0,0,1,.349-3.136,5.633,5.633,0,0,0,.831-1.844c.07-.468.112-.936.21-1.4a7.507,7.507,0,0,1,.957-2.165c.566-.964,1.131-1.92,1.711-2.877a3.052,3.052,0,0,0,.433-2.025,11.262,11.262,0,0,1,.14-3.024c.147-1.006.363-2.13.51-3.2a2.466,2.466,0,0,0-.077-.978,5.532,5.532,0,0,1-.272-2.186,3.265,3.265,0,0,0-.1-.929,1.566,1.566,0,0,1,.6-1.648,1,1,0,0,0,.433-1.048c-.14-1.082-.272-2.158-.356-3.247-.063-.824-.049-1.655-.042-2.479a.557.557,0,0,1,.217-.384,4.252,4.252,0,0,1,.663-.412,5.05,5.05,0,0,0,.566-.307l-2.207-.489a7.887,7.887,0,0,1,.167-2.165,17.769,17.769,0,0,0,.3-3.038c.014-.5.063-.992.112-1.487.028-.321.21-.475.559-.517l1.893-.209a3.111,3.111,0,0,0,.328-.077c-.049-.51-.1-1.013-.147-1.508a11.89,11.89,0,0,1,1.306-6.955,5.364,5.364,0,0,1,2.856-2.64,2.879,2.879,0,0,1,2.751.189c.182.126.265-.056.384-.112s.1-.189.063-.307a6.8,6.8,0,0,1,.252-4.944,5.1,5.1,0,0,1,3.534-2.9,6.049,6.049,0,0,1,1.383-.042,1.949,1.949,0,0,1,.929.2,16.648,16.648,0,0,1,2.933,1.7.662.662,0,0,1,.223.349,24.456,24.456,0,0,1,.531,2.416,9.139,9.139,0,0,1-.035,1.69.757.757,0,0,1-.461.649c-.265.133-.684.349-1.033.5a.281.281,0,0,0-.2.356c.077.51.147,1.013.23,1.585.293-.063.573-.1.838-.175q1.061-.321,2.116-.677c.084-.028.154-.168.182-.272.133-.447.251-.9.377-1.355a1.081,1.081,0,0,1,.126-.2c.063.391.1.726.174,1.054a.524.524,0,0,0,.175.286,5.859,5.859,0,0,0,.573.363,1.977,1.977,0,0,0,1.048.272c4.2-.007,8.394,0,12.6-.014a1.088,1.088,0,0,1,.929.426c.077.1.174.189.258.286l.077-.014V6.622h.524c0,.119-.007.237,0,.356.035.615.07,1.236.1,1.851.007.2.126.265.3.286l.489.063-.259,1.194.915.084c.789.063,1.578.14,2.367.182.321.014.642-.084.964-.091.887-.014,1.781-.007,2.7-.007l.1,1.529-.2.035a20.4,20.4,0,0,1-3.918-.063,21.427,21.427,0,0,0-2.221.014c-1.362.028-2.716.063-4.078.077-1.215.014-2.423-.007-3.638.007a1.61,1.61,0,0,0-1.243.615c-.335.391-.817.859-1.236,1.278a1.042,1.042,0,0,0-.321.817,10.864,10.864,0,0,0,.447,2.409c.049.182.091.37.14.573-.335.126-.656.23-.964.37a.489.489,0,0,0-.251.279c-.14.608-.244,1.229-.37,1.844a2.961,2.961,0,0,1-1.18,1.934c-.433.307-.824.67-1.243,1a1.873,1.873,0,0,1-1.481.293,14.46,14.46,0,0,1-5.042-2.074c-.273-.154-.552-.293-.859-.454-.126.482-.244.936-.349,1.39-.014.049.063.133.119.175.16.119.335.223.5.328a1.653,1.653,0,0,1,.824,1.376c.028.594.014,1.131-.014,1.7-.049.943-.161,1.879-.182,2.821a5.154,5.154,0,0,1-1.089,3.254c-.1.119-.174.168-.328.112-.342-.112-.691-.182-1.027-.293-.217-.077-.293,0-.349.2a3.316,3.316,0,0,0,.775,3.156c.614.754,1.229,1.515,1.781,2.325a22.685,22.685,0,0,1,2.269,4.665c.2.51.37,1.034.573,1.543a1.987,1.987,0,0,0,.321.566,4.386,4.386,0,0,1,.81,1.732,6.907,6.907,0,0,1,.182,2.535c-.1,1.18-.2,2.36-.307,3.541-.042.44-.133.88-.2,1.313a5.536,5.536,0,0,0,.07,1.976,4.232,4.232,0,0,1-.182,2.291,6.461,6.461,0,0,0-.321,2.186,5.554,5.554,0,0,1-.279,2,.969.969,0,0,0,.216,1.041c.44.51.859,1.027,1.292,1.55a2.793,2.793,0,0,0,1.278.831c.5.175.831.307,1.236.489a1.125,1.125,0,0,1,.733,1.32,5.644,5.644,0,0,0-.049.67c-.859.063-1.7.147-2.556.175a11.7,11.7,0,0,1-4.071-.552,4.678,4.678,0,0,0-1.816-.1,3.667,3.667,0,0,1-1.578-.147.371.371,0,0,1-.286-.461,18.112,18.112,0,0,1,.754-3.492,15.051,15.051,0,0,0,.384-2.1c.063-.419.07-.852.105-1.278a4.644,4.644,0,0,0-.273-1.9,18.163,18.163,0,0,1-.88-4.316c-.063-.712-.091-1.425-.154-2.137a3.243,3.243,0,0,1,.328-1.536,8.84,8.84,0,0,0,.356-1.271.86.86,0,0,0-.245-.768,7.381,7.381,0,0,0-.524-.587.447.447,0,0,0-.272-.1c-.391-.021-.782-.014-1.173-.049a1.2,1.2,0,0,1-.992-.629c-.454-.866-.894-1.732-1.348-2.591-.189-.363-.4-.712-.594-1.075a1.145,1.145,0,0,0-.978-.656,1.647,1.647,0,0,1-1.424-1.1C265.732,40.861,265.6,40.61,265.439,40.3Zm16.886-25.72-.042-.077c-.663,0-1.334-.007-2,.007-.175,0-.328.272-.279.454a6.734,6.734,0,0,0,.908,1.69Zm-1.432-.216c.475-.035.943-.063,1.418-.112s.37-.049.363-.426c0-.182-.014-.363-.014-.545s-.049-.237-.23-.223-.538.021-.8.042a.231.231,0,0,0-.168.14A1.852,1.852,0,0,1,280.892,14.36Z" transform="translate(-232.554 0.103)" fill="#fff"/>
      <path id="Path_1103" data-name="Path 1103" d="M775.032,389.259h15.656V385.74h-.356c-3.89,0-7.786-.042-11.676.021a3.888,3.888,0,0,1-3.667-3.673q.032-1.519,0-3.038a3.635,3.635,0,0,1,1.935-3.3,3.157,3.157,0,0,1,1.725-.447l10.314.014a13.335,13.335,0,0,1,1.829.063,4.015,4.015,0,0,1,3.366,3.387H778.482v3.526h.328c3.9,0,7.8.028,11.7-.014a3.675,3.675,0,0,1,3.666,3.666c-.035,1.061-.007,2.13-.007,3.191a3.7,3.7,0,0,1-3.548,3.59c-3.764.014-7.521,0-11.285,0a4.255,4.255,0,0,1-3.184-1.208,4.544,4.544,0,0,1-1.124-2.1A.786.786,0,0,1,775.032,389.259Z" transform="translate(-720.869 -349.085)" fill="#fff"/>
      <path id="Path_1104" data-name="Path 1104" d="M3.485,389.254H17.423a3.206,3.206,0,0,1-.573,1.914,3.394,3.394,0,0,1-2.926,1.55c-3.471.007-6.948.014-10.419,0A3.462,3.462,0,0,1,0,389.163V378.848a3.485,3.485,0,0,1,2.877-3.513,3.557,3.557,0,0,1,.677-.049H13.876a3.447,3.447,0,0,1,3.464,2.668c.063.251.077.51.119.789H3.485Z" transform="translate(0 -349.071)" fill="#fff"/>
      <path id="Path_1105" data-name="Path 1105" d="M681.7,209.054l-1.411,2.074a6.74,6.74,0,0,1-.907-1.69c-.049-.182.1-.454.279-.454.664-.014,1.334-.007,2-.007Z" transform="translate(-631.926 -194.374)" fill="#fff"/>
      <path id="Path_1106" data-name="Path 1106" d="M692.2,189.471a1.853,1.853,0,0,0,.566-1.131.23.23,0,0,1,.167-.14c.265-.028.538-.021.8-.042s.23.063.23.223.014.363.014.545c.007.384.007.391-.363.426S692.675,189.436,692.2,189.471Z" transform="translate(-643.862 -175.008)" fill="#fff"/>
    </g>
  </g>
</svg>
