<svg xmlns="http://www.w3.org/2000/svg" width="179" height="23.612" viewBox="0 0 179 23.612">
  <g id="Artwork_2" data-name="Artwork 2" transform="translate(89.5 11.806)">
    <g id="Artwork_2-2" data-name="Artwork 2" transform="translate(-89.5 -11.806)">
      <path id="Path_2383" data-name="Path 2383" d="M24.239,23.522H21.05l-6.778-5.712,1.781-7.469,5-9.78h3.19l8.426,7.015L29.794,18.208Z" transform="translate(-5.487 -0.201)" fill="#fff"/>
      <g id="Group_1266" data-name="Group 1266">
        <g id="Group_1264" data-name="Group 1264" transform="translate(0 0.358)">
          <path id="Path_2384" data-name="Path 2384" d="M11.128,15.59,18.922.558h-6.94a11.482,11.482,0,1,0,0,22.965h5.857V15.59Z" transform="translate(-0.5 -0.558)" fill="#f04b4c"/>
          <path id="Path_2385" data-name="Path 2385" d="M34.583.558H28.764V8.492h7.149l-7.974,14.56-.137.25h0l-.121.222h6.9a11.482,11.482,0,1,0,0-22.965Z" transform="translate(-10.342 -0.558)" fill="#3d6098"/>
        </g>
        <g id="Group_1265" data-name="Group 1265" transform="translate(38.458)">
          <path id="Path_2386" data-name="Path 2386" d="M60.787.58h7.937c4.17,0,7.13,2.455,7.13,6.087a5.275,5.275,0,0,1-2.725,5.011,5.7,5.7,0,0,1,3.363,5.448c0,3.764-3.161,6.322-7.567,6.322H60.787Zm7.9,4.606H65.564V9.423H68.69A2.016,2.016,0,0,0,70.943,7.3,2.015,2.015,0,0,0,68.69,5.186Zm.235,8.845H65.562v4.809h3.363c1.514,0,2.657-.739,2.657-2.387a2.343,2.343,0,0,0-2.657-2.42Z" transform="translate(-60.787 -0.208)" fill="#fff"/>
          <path id="Path_2387" data-name="Path 2387" d="M91.311.58h7.936c4.17,0,7.13,2.455,7.13,6.087a5.275,5.275,0,0,1-2.725,5.011,5.7,5.7,0,0,1,3.363,5.448c0,3.764-3.161,6.322-7.567,6.322H91.311Zm7.9,4.606H96.088V9.423h3.126A2.016,2.016,0,0,0,101.467,7.3,2.016,2.016,0,0,0,99.214,5.186Zm.235,8.845H96.088v4.809h3.363c1.514,0,2.657-.739,2.657-2.387a2.345,2.345,0,0,0-2.659-2.42Z" transform="translate(-71.839 -0.208)" fill="#fff"/>
          <path id="Path_2388" data-name="Path 2388" d="M138.92.58V14.839c0,5.614-3.4,8.979-8.744,8.979s-8.71-3.362-8.71-8.979V.58h4.775V15.242a3.952,3.952,0,1,0,7.9,0V.58Z" transform="translate(-82.758 -0.208)" fill="#fff"/>
          <path id="Path_2389" data-name="Path 2389" d="M171.08,22.43a12.11,12.11,0,0,1-5.212,1.177A11.561,11.561,0,0,1,154.1,11.8,11.561,11.561,0,0,1,165.868,0a12.1,12.1,0,0,1,5.212,1.178V6.658a7.927,7.927,0,0,0-5.212-1.883,6.884,6.884,0,0,0-6.861,7.025,6.842,6.842,0,0,0,6.861,7.031,7.951,7.951,0,0,0,5.212-1.85Z" transform="translate(-94.573 0.003)" fill="#fff"/>
          <path id="Path_2390" data-name="Path 2390" d="M186.994.58h4.775V9.83L197.655.58h5.582l-6.188,9.383,6.525,13.485h-5.582l-4.372-9.416-1.85,2.622v6.794h-4.775Z" transform="translate(-106.485 -0.208)" fill="#fff"/>
          <path id="Path_2391" data-name="Path 2391" d="M218.342,27.149a3.075,3.075,0,0,1,3.162,3.161,3.04,3.04,0,0,1-3.161,3.094,3,3,0,0,1-3.094-3.094,3.04,3.04,0,0,1,3.094-3.161Z" transform="translate(-116.715 -9.828)" fill="#fff"/>
          <path id="Path_2392" data-name="Path 2392" d="M231.013.58h4.776V23.448h-4.775Z" transform="translate(-122.424 -0.208)" fill="#fff"/>
          <path id="Path_2393" data-name="Path 2393" d="M255.963,0a11.561,11.561,0,0,1,11.773,11.8,11.77,11.77,0,1,1-23.54,0A11.561,11.561,0,0,1,255.963,0Zm0,18.832a6.856,6.856,0,0,0,6.826-7.028,6.846,6.846,0,1,0-13.688,0,6.863,6.863,0,0,0,6.862,7.028Z" transform="translate(-127.197 0.003)" fill="#fff"/>
        </g>
      </g>
    </g>
  </g>
</svg>
