<svg id="baseline-people-24px" xmlns="http://www.w3.org/2000/svg" width="48.306" height="48.306" viewBox="0 0 48.306 48.306">
  <path id="Path_355" data-name="Path 355" d="M0,0H48.306V48.306H0Z" fill="none"/>
  <path id="Path_356" data-name="Path 356" d="M31.191,17.076a6.038,6.038,0,1,0-6.038-6.038A6.013,6.013,0,0,0,31.191,17.076Zm-16.1,0a6.038,6.038,0,1,0-6.038-6.038A6.013,6.013,0,0,0,15.089,17.076Zm0,4.025C10.4,21.1,1,23.457,1,28.146v5.032H29.178V28.146C29.178,23.457,19.779,21.1,15.089,21.1Zm16.1,0c-.584,0-1.248.04-1.952.1,2.335,1.691,3.965,3.965,3.965,6.944v5.032H45.28V28.146C45.28,23.457,35.881,21.1,31.191,21.1Z" transform="translate(1.013 5.064)" fill="#fff"/>
</svg>
