<svg xmlns="http://www.w3.org/2000/svg" width="157.667" height="19.819" viewBox="0 0 157.667 19.819">
  <g id="Artwork_77" data-name="Artwork 77" transform="translate(78.833 9.91)">
    <g id="Group_863" data-name="Group 863" transform="translate(-78.833 -9.91)">
      <g id="Group_861" data-name="Group 861" transform="translate(39.742)">
        <path id="Path_1423" data-name="Path 1423" d="M192.3,1.5h6.655c3.493,0,5.973,2.067,5.973,5.1a4.4,4.4,0,0,1-2.294,4.2,4.8,4.8,0,0,1,2.831,4.567c0,3.162-2.645,5.311-6.345,5.311H192.3Zm6.634,3.865h-2.645V8.919h2.625a1.678,1.678,0,0,0,1.881-1.777,1.678,1.678,0,0,0-1.881-1.777Zm.207,7.419h-2.852v4.03h2.831c1.261,0,2.232-.62,2.232-2a1.968,1.968,0,0,0-2.232-2.025Z" transform="translate(-192.3 -1.19)" fill="#fff"/>
        <path id="Path_1424" data-name="Path 1424" d="M271.3,1.5h6.655c3.493,0,5.973,2.067,5.973,5.1a4.4,4.4,0,0,1-2.294,4.2,4.8,4.8,0,0,1,2.831,4.567c0,3.162-2.645,5.311-6.345,5.311H271.3Zm6.634,3.865h-2.625V8.919h2.625a1.678,1.678,0,0,0,1.881-1.777A1.678,1.678,0,0,0,277.934,5.365Zm.207,7.419h-2.831v4.03h2.831c1.261,0,2.232-.62,2.232-2a1.968,1.968,0,0,0-2.232-2.025Z" transform="translate(-254.973 -1.19)" fill="#fff"/>
        <path id="Path_1425" data-name="Path 1425" d="M364.053,1.5V13.466c0,4.712-2.852,7.543-7.337,7.543s-7.316-2.831-7.316-7.543V1.5h4.009V13.8a3.317,3.317,0,0,0,6.634,0V1.5Z" transform="translate(-316.933 -1.19)" fill="#fff"/>
        <path id="Path_1426" data-name="Path 1426" d="M448.16,18.827a10.168,10.168,0,0,1-4.381.992,9.7,9.7,0,0,1-9.879-9.9A9.734,9.734,0,0,1,443.779,0a10.147,10.147,0,0,1,4.381.992V5.58a6.654,6.654,0,0,0-4.381-1.571,5.783,5.783,0,0,0-5.766,5.89,5.757,5.757,0,0,0,5.766,5.89,6.7,6.7,0,0,0,4.381-1.55Z" transform="translate(-383.969 0)" fill="#fff"/>
        <path id="Path_1427" data-name="Path 1427" d="M519.2,1.5h4.01V9.271L528.128,1.5h4.691l-5.187,7.874L533.109,20.7h-4.691l-3.679-7.915-1.55,2.191V20.7H519.2Z" transform="translate(-451.64 -1.19)" fill="#fff"/>
        <path id="Path_1428" data-name="Path 1428" d="M594.9,70.3a2.625,2.625,0,1,1,0,5.249,2.521,2.521,0,0,1-2.6-2.6A2.565,2.565,0,0,1,594.9,70.3Z" transform="translate(-509.628 -55.768)" fill="#fff"/>
        <path id="Path_1429" data-name="Path 1429" d="M633.2,1.5h4.009V20.7H633.2Z" transform="translate(-542.08 -1.19)" fill="#fff"/>
        <path id="Path_1430" data-name="Path 1430" d="M677.179,0a9.7,9.7,0,0,1,9.879,9.9,9.879,9.879,0,1,1-19.757,0A9.7,9.7,0,0,1,677.179,0Zm0,15.81A5.749,5.749,0,0,0,682.9,9.92a5.747,5.747,0,1,0-11.491,0A5.783,5.783,0,0,0,677.179,15.81Z" transform="translate(-569.133 0)" fill="#fff"/>
      </g>
      <g id="Group_862" data-name="Group 862" transform="translate(0 0.289)">
        <path id="Path_1431" data-name="Path 1431" d="M92.863,1.4H85.009V8.075H91L85.071,18.9h0L84.2,20.5h0l-.1.186h8.763a9.631,9.631,0,1,0,0-19.261Z" transform="translate(-66.719 -1.4)" fill="#fff"/>
        <path id="Path_1432" data-name="Path 1432" d="M11.739,14.107,18.29,1.5H9.631a9.631,9.631,0,1,0,0,19.261h7.75V14.107Z" transform="translate(0 -1.479)" fill="#fff"/>
      </g>
    </g>
  </g>
</svg>
